%TF.GenerationSoftware,KiCad,Pcbnew,8.0.1*%
%TF.CreationDate,2024-05-05T22:16:20+02:00*%
%TF.ProjectId,pro_micro,70726f5f-6d69-4637-926f-2e6b69636164,rev?*%
%TF.SameCoordinates,Original*%
%TF.FileFunction,Copper,L1,Top*%
%TF.FilePolarity,Positive*%
%FSLAX46Y46*%
G04 Gerber Fmt 4.6, Leading zero omitted, Abs format (unit mm)*
G04 Created by KiCad (PCBNEW 8.0.1) date 2024-05-05 22:16:20*
%MOMM*%
%LPD*%
G01*
G04 APERTURE LIST*
G04 Aperture macros list*
%AMRoundRect*
0 Rectangle with rounded corners*
0 $1 Rounding radius*
0 $2 $3 $4 $5 $6 $7 $8 $9 X,Y pos of 4 corners*
0 Add a 4 corners polygon primitive as box body*
4,1,4,$2,$3,$4,$5,$6,$7,$8,$9,$2,$3,0*
0 Add four circle primitives for the rounded corners*
1,1,$1+$1,$2,$3*
1,1,$1+$1,$4,$5*
1,1,$1+$1,$6,$7*
1,1,$1+$1,$8,$9*
0 Add four rect primitives between the rounded corners*
20,1,$1+$1,$2,$3,$4,$5,0*
20,1,$1+$1,$4,$5,$6,$7,0*
20,1,$1+$1,$6,$7,$8,$9,0*
20,1,$1+$1,$8,$9,$2,$3,0*%
G04 Aperture macros list end*
%TA.AperFunction,SMDPad,CuDef*%
%ADD10RoundRect,0.237500X0.300000X0.237500X-0.300000X0.237500X-0.300000X-0.237500X0.300000X-0.237500X0*%
%TD*%
%TA.AperFunction,SMDPad,CuDef*%
%ADD11RoundRect,0.250000X-0.325000X-0.450000X0.325000X-0.450000X0.325000X0.450000X-0.325000X0.450000X0*%
%TD*%
%TA.AperFunction,SMDPad,CuDef*%
%ADD12RoundRect,0.237500X-0.237500X0.250000X-0.237500X-0.250000X0.237500X-0.250000X0.237500X0.250000X0*%
%TD*%
%TA.AperFunction,SMDPad,CuDef*%
%ADD13RoundRect,0.150000X0.150000X-0.825000X0.150000X0.825000X-0.150000X0.825000X-0.150000X-0.825000X0*%
%TD*%
%TA.AperFunction,SMDPad,CuDef*%
%ADD14RoundRect,0.250000X0.287500X0.275000X-0.287500X0.275000X-0.287500X-0.275000X0.287500X-0.275000X0*%
%TD*%
%TA.AperFunction,SMDPad,CuDef*%
%ADD15RoundRect,0.237500X-0.237500X0.287500X-0.237500X-0.287500X0.237500X-0.287500X0.237500X0.287500X0*%
%TD*%
%TA.AperFunction,SMDPad,CuDef*%
%ADD16RoundRect,0.237500X0.237500X-0.250000X0.237500X0.250000X-0.237500X0.250000X-0.237500X-0.250000X0*%
%TD*%
%TA.AperFunction,SMDPad,CuDef*%
%ADD17RoundRect,0.237500X0.237500X-0.300000X0.237500X0.300000X-0.237500X0.300000X-0.237500X-0.300000X0*%
%TD*%
%TA.AperFunction,SMDPad,CuDef*%
%ADD18RoundRect,0.008000X-0.092000X0.227000X-0.092000X-0.227000X0.092000X-0.227000X0.092000X0.227000X0*%
%TD*%
%TA.AperFunction,SMDPad,CuDef*%
%ADD19RoundRect,0.018000X-0.217000X0.082000X-0.217000X-0.082000X0.217000X-0.082000X0.217000X0.082000X0*%
%TD*%
%TA.AperFunction,ComponentPad*%
%ADD20C,0.600000*%
%TD*%
%TA.AperFunction,SMDPad,CuDef*%
%ADD21R,1.900000X1.900000*%
%TD*%
%TA.AperFunction,SMDPad,CuDef*%
%ADD22RoundRect,0.237500X0.237500X-0.287500X0.237500X0.287500X-0.237500X0.287500X-0.237500X-0.287500X0*%
%TD*%
%TA.AperFunction,SMDPad,CuDef*%
%ADD23RoundRect,0.200000X-0.600000X0.200000X-0.600000X-0.200000X0.600000X-0.200000X0.600000X0.200000X0*%
%TD*%
%TA.AperFunction,SMDPad,CuDef*%
%ADD24RoundRect,0.250001X-1.249999X0.799999X-1.249999X-0.799999X1.249999X-0.799999X1.249999X0.799999X0*%
%TD*%
%TA.AperFunction,SMDPad,CuDef*%
%ADD25RoundRect,0.237500X-0.300000X-0.237500X0.300000X-0.237500X0.300000X0.237500X-0.300000X0.237500X0*%
%TD*%
%TA.AperFunction,SMDPad,CuDef*%
%ADD26RoundRect,0.200000X0.600000X-0.200000X0.600000X0.200000X-0.600000X0.200000X-0.600000X-0.200000X0*%
%TD*%
%TA.AperFunction,SMDPad,CuDef*%
%ADD27RoundRect,0.250001X1.249999X-0.799999X1.249999X0.799999X-1.249999X0.799999X-1.249999X-0.799999X0*%
%TD*%
%TA.AperFunction,ViaPad*%
%ADD28C,0.800000*%
%TD*%
%TA.AperFunction,ViaPad*%
%ADD29C,0.600000*%
%TD*%
%TA.AperFunction,Conductor*%
%ADD30C,0.152400*%
%TD*%
G04 APERTURE END LIST*
D10*
%TO.P,C3,1*%
%TO.N,GND*%
X-4812500Y2466667D03*
%TO.P,C3,2*%
%TO.N,/Vin_Protected*%
X-6537500Y2466667D03*
%TD*%
D11*
%TO.P,F1,1*%
%TO.N,Net-(J1-Pin_1)*%
X-6425000Y9550000D03*
%TO.P,F1,2*%
%TO.N,/Vin_Protected*%
X-4375000Y9550000D03*
%TD*%
D12*
%TO.P,R3,1*%
%TO.N,Net-(U1-nFault)*%
X3318000Y7162500D03*
%TO.P,R3,2*%
%TO.N,Net-(D2-K)*%
X3318000Y5337500D03*
%TD*%
D13*
%TO.P,U2,1,5V*%
%TO.N,/Motor drive/CS_AREF*%
X-1905000Y-2475000D03*
%TO.P,U2,2,3.3V*%
X-635000Y-2475000D03*
%TO.P,U2,3,PWM_OUT*%
%TO.N,unconnected-(U2-PWM_OUT-Pad3)*%
X635000Y-2475000D03*
%TO.P,U2,4,GND*%
%TO.N,GND*%
X1905000Y-2475000D03*
%TO.P,U2,5,DIR*%
X1905000Y2475000D03*
%TO.P,U2,6,SCL*%
%TO.N,/encoder/SCL*%
X635000Y2475000D03*
%TO.P,U2,7,SDA*%
%TO.N,/encoder/SDA*%
X-635000Y2475000D03*
%TO.P,U2,8,PGO*%
%TO.N,unconnected-(U2-PGO-Pad8)*%
X-1905000Y2475000D03*
%TD*%
D14*
%TO.P,C1,1*%
%TO.N,GND*%
X-5100000Y7300000D03*
%TO.P,C1,2*%
%TO.N,/Vin_Protected*%
X-6525000Y7300000D03*
%TD*%
D15*
%TO.P,D1,1,K*%
%TO.N,GND*%
X6422000Y7125000D03*
%TO.P,D1,2,A*%
%TO.N,Net-(D1-A)*%
X6422000Y5375000D03*
%TD*%
D16*
%TO.P,R2,1*%
%TO.N,Net-(U1-nFault)*%
X3200000Y-6762500D03*
%TO.P,R2,2*%
%TO.N,/Motor drive/CS_AREF*%
X3200000Y-4937500D03*
%TD*%
D17*
%TO.P,C2,1*%
%TO.N,GND*%
X-1300000Y-6712500D03*
%TO.P,C2,2*%
%TO.N,/Motor drive/CS_AREF*%
X-1300000Y-4987500D03*
%TD*%
D16*
%TO.P,R5,1*%
%TO.N,/encoder/SCL*%
X174000Y5337500D03*
%TO.P,R5,2*%
%TO.N,/Motor drive/CS_AREF*%
X174000Y7162500D03*
%TD*%
D10*
%TO.P,C6,1*%
%TO.N,GND*%
X-4812500Y933334D03*
%TO.P,C6,2*%
%TO.N,/Vin_Protected*%
X-6537500Y933334D03*
%TD*%
D16*
%TO.P,R6,1*%
%TO.N,/encoder/SDA*%
X-1358000Y5337500D03*
%TO.P,R6,2*%
%TO.N,/Motor drive/CS_AREF*%
X-1358000Y7162500D03*
%TD*%
D18*
%TO.P,U1,1,nFault*%
%TO.N,Net-(U1-nFault)*%
X-3600000Y-3800000D03*
%TO.P,U1,2,CS_A_REF*%
%TO.N,/Motor drive/CS_AREF*%
X-4000000Y-3800000D03*
%TO.P,U1,3,SO_C*%
%TO.N,/Motor drive/SO_C*%
X-4400000Y-3800000D03*
%TO.P,U1,4,SO_B*%
%TO.N,/Motor drive/SO_B*%
X-4800000Y-3800000D03*
%TO.P,U1,5,SO_A*%
%TO.N,/Motor drive/SO_A*%
X-5200000Y-3800000D03*
%TO.P,U1,6,CP*%
%TO.N,/Motor drive/CP*%
X-5600000Y-3800000D03*
%TO.P,U1,7,VIN_AVDD*%
%TO.N,/Vin_Protected*%
X-6000000Y-3800000D03*
D19*
%TO.P,U1,8,VM*%
X-6265000Y-4595000D03*
%TO.P,U1,9,PGND*%
%TO.N,GND*%
X-6265000Y-4995000D03*
%TO.P,U1,10,MOT_A*%
%TO.N,/Motor drive/MOT_A*%
X-6265000Y-5395000D03*
%TO.P,U1,11,MOT_B*%
%TO.N,/Motor drive/MOT_B*%
X-6265000Y-5795000D03*
%TO.P,U1,12,MOT_C*%
%TO.N,/Motor drive/MOT_C*%
X-6265000Y-6195000D03*
D18*
%TO.P,U1,13,IN_C*%
%TO.N,/Motor drive/IN_C*%
X-6000000Y-6730000D03*
%TO.P,U1,14,IN_B*%
%TO.N,/Motor drive/IN_B*%
X-5600000Y-6730000D03*
%TO.P,U1,15,IN_A*%
%TO.N,/Motor drive/IN_A*%
X-5200000Y-6730000D03*
%TO.P,U1,16,AGND*%
%TO.N,GND*%
X-4800000Y-6730000D03*
%TO.P,U1,17,AVDD*%
%TO.N,/Motor drive/CS_AREF*%
X-4400000Y-6730000D03*
%TO.P,U1,18,INLA*%
X-4000000Y-6730000D03*
%TO.P,U1,19,INLB*%
X-3600000Y-6730000D03*
D19*
%TO.P,U1,20,INLC*%
X-3335000Y-6195000D03*
%TO.P,U1,21,CS_GAIN*%
%TO.N,/Motor drive/GAIN*%
X-3335000Y-5795000D03*
%TO.P,U1,22,SLEW*%
%TO.N,/Motor drive/CS_AREF*%
X-3335000Y-5395000D03*
%TO.P,U1,23,MODE*%
X-3335000Y-4995000D03*
%TO.P,U1,24,nSleep*%
%TO.N,/Motor drive/EN*%
X-3335000Y-4595000D03*
D20*
%TO.P,U1,25,GND*%
%TO.N,GND*%
X-4300000Y-4765000D03*
X-5300000Y-4765000D03*
X-4800000Y-5265000D03*
D21*
X-4800000Y-5265000D03*
D20*
X-4300000Y-5765000D03*
X-5300000Y-5765000D03*
%TD*%
D14*
%TO.P,C7,1*%
%TO.N,GND*%
X-5100000Y5600000D03*
%TO.P,C7,2*%
%TO.N,/Vin_Protected*%
X-6525000Y5600000D03*
%TD*%
D22*
%TO.P,D2,1,K*%
%TO.N,Net-(D2-K)*%
X1746000Y5420000D03*
%TO.P,D2,2,A*%
%TO.N,/Motor drive/CS_AREF*%
X1746000Y7170000D03*
%TD*%
D17*
%TO.P,C9,1*%
%TO.N,GND*%
X200000Y-6712500D03*
%TO.P,C9,2*%
%TO.N,/Motor drive/CS_AREF*%
X200000Y-4987500D03*
%TD*%
D16*
%TO.P,R4,1*%
%TO.N,/Motor drive/GAIN*%
X1700000Y-6762500D03*
%TO.P,R4,2*%
%TO.N,/Motor drive/CS_AREF*%
X1700000Y-4937500D03*
%TD*%
D10*
%TO.P,C4,1*%
%TO.N,GND*%
X-4812500Y4000000D03*
%TO.P,C4,2*%
%TO.N,/Vin_Protected*%
X-6537500Y4000000D03*
%TD*%
D23*
%TO.P,J1,1,Pin_1*%
%TO.N,Net-(J1-Pin_1)*%
X-8750000Y6700000D03*
%TO.P,J1,2,Pin_2*%
%TO.N,GND*%
X-8750000Y5450000D03*
D24*
%TO.P,J1,MP*%
%TO.N,N/C*%
X-11650000Y9250000D03*
X-11650000Y2900000D03*
%TD*%
D23*
%TO.P,J3,1,Pin_1*%
%TO.N,/Motor drive/MOT_A*%
X-8750000Y-4400000D03*
%TO.P,J3,2,Pin_2*%
%TO.N,/Motor drive/MOT_B*%
X-8750000Y-5650000D03*
%TO.P,J3,3,Pin_3*%
%TO.N,/Motor drive/MOT_C*%
X-8750000Y-6900000D03*
D24*
%TO.P,J3,MP*%
%TO.N,N/C*%
X-11650000Y-1850000D03*
X-11650000Y-9450000D03*
%TD*%
D16*
%TO.P,R1,1*%
%TO.N,Net-(D1-A)*%
X4850000Y5337500D03*
%TO.P,R1,2*%
%TO.N,/Vin_Protected*%
X4850000Y7162500D03*
%TD*%
D25*
%TO.P,C5,1*%
%TO.N,/Vin_Protected*%
X-6537500Y-600000D03*
%TO.P,C5,2*%
%TO.N,/Motor drive/CP*%
X-4812500Y-600000D03*
%TD*%
D26*
%TO.P,J2,1,Pin_1*%
%TO.N,/Motor drive/EN*%
X8850000Y-6125000D03*
%TO.P,J2,2,Pin_2*%
%TO.N,/Motor drive/IN_C*%
X8850000Y-4875000D03*
%TO.P,J2,3,Pin_3*%
%TO.N,/Motor drive/IN_B*%
X8850000Y-3625000D03*
%TO.P,J2,4,Pin_4*%
%TO.N,/Motor drive/IN_A*%
X8850000Y-2375000D03*
%TO.P,J2,5,Pin_5*%
%TO.N,/Motor drive/SO_C*%
X8850000Y-1125000D03*
%TO.P,J2,6,Pin_6*%
%TO.N,/Motor drive/SO_B*%
X8850000Y125000D03*
%TO.P,J2,7,Pin_7*%
%TO.N,/Motor drive/SO_A*%
X8850000Y1375000D03*
%TO.P,J2,8,Pin_8*%
%TO.N,/encoder/SDA*%
X8850000Y2625000D03*
%TO.P,J2,9,Pin_9*%
%TO.N,/encoder/SCL*%
X8850000Y3875000D03*
%TO.P,J2,10,Pin_10*%
%TO.N,GND*%
X8850000Y5125000D03*
D27*
%TO.P,J2,MP*%
%TO.N,N/C*%
X11750000Y-8675000D03*
X11750000Y7675000D03*
%TD*%
D25*
%TO.P,C8,1*%
%TO.N,GND*%
X-4962500Y-8800000D03*
%TO.P,C8,2*%
%TO.N,/Motor drive/CS_AREF*%
X-3237500Y-8800000D03*
%TD*%
D28*
%TO.N,GND*%
X3500000Y2000000D03*
X-8000000Y-10250000D03*
D29*
X-13500000Y500000D03*
X3500000Y-2750000D03*
D28*
X-9000000Y-10250000D03*
D29*
X10000000Y9750000D03*
X9500000Y-8750000D03*
D28*
X-3500000Y3250000D03*
X-3500000Y4750000D03*
D29*
X850000Y-8050000D03*
X3500000Y-1750000D03*
X-650000Y-8050000D03*
X-12000000Y500000D03*
X11250000Y9750000D03*
X13750000Y9750000D03*
X-10500000Y500000D03*
X5500000Y-2750000D03*
X-8500000Y-3000000D03*
X12500000Y9750000D03*
D28*
X3500000Y3000000D03*
D29*
X8750000Y9750000D03*
X-6050000Y-8800000D03*
D28*
X-3500000Y6500000D03*
D29*
X5500000Y-1750000D03*
%TO.N,/Vin_Protected*%
X-7750000Y500000D03*
X-3000000Y10000000D03*
D28*
X-6500000Y-2000000D03*
D29*
X-7750000Y1500000D03*
X-7750000Y3500000D03*
X-7750000Y-500000D03*
X-7750000Y2500000D03*
X-3000000Y9000000D03*
%TO.N,/Motor drive/CS_AREF*%
X5500000Y-5250000D03*
X4730000Y-4250000D03*
X5500000Y-4250000D03*
D28*
X250000Y9073800D03*
D29*
X-3150000Y-7610000D03*
X4730000Y-5250000D03*
X-3790000Y-7620000D03*
%TO.N,/Motor drive/EN*%
X7350000Y-8850000D03*
X-2800000Y-4350000D03*
%TO.N,Net-(J1-Pin_1)*%
X-9150000Y10000000D03*
X-7850000Y8000000D03*
X-7850000Y9000000D03*
X-7850000Y10000000D03*
X-9150000Y9000000D03*
%TO.N,Net-(U1-nFault)*%
X5534096Y-7884096D03*
X-3000000Y-3550000D03*
X4000000Y9050000D03*
%TD*%
D30*
%TO.N,GND*%
X-4962500Y-8800000D02*
X-6050000Y-8800000D01*
%TO.N,/Vin_Protected*%
X-1950000Y9550000D02*
X-1750000Y9750000D01*
X-1750000Y9750000D02*
X-1650000Y9750000D01*
X4300000Y9750000D02*
X4850000Y9200000D01*
X-4375000Y9550000D02*
X-1950000Y9550000D01*
X4850000Y9200000D02*
X4850000Y7162500D01*
X-1650000Y9750000D02*
X4300000Y9750000D01*
%TO.N,/Motor drive/CS_AREF*%
X174000Y8997800D02*
X174000Y7162500D01*
X-1200000Y8400000D02*
X-950000Y8400000D01*
X1746000Y8204000D02*
X1746000Y7170000D01*
X0Y8400000D02*
X1550000Y8400000D01*
X1550000Y8400000D02*
X1746000Y8204000D01*
X-950000Y8400000D02*
X0Y8400000D01*
X-1358000Y8242000D02*
X-1200000Y8400000D01*
X-1358000Y7162500D02*
X-1358000Y8242000D01*
X250000Y9073800D02*
X174000Y8997800D01*
%TO.N,/Motor drive/GAIN*%
X-800000Y-9075000D02*
X-1325000Y-9075000D01*
X-2657400Y-5795000D02*
X-3335000Y-5795000D01*
X-2552400Y-5900000D02*
X-2657400Y-5795000D01*
X-2552400Y-7847600D02*
X-2552400Y-5900000D01*
X975000Y-9075000D02*
X1700000Y-8350000D01*
X-1325000Y-9075000D02*
X-2552400Y-7847600D01*
X-800000Y-9075000D02*
X975000Y-9075000D01*
X1700000Y-8350000D02*
X1700000Y-6762500D01*
%TO.N,/encoder/SCL*%
X635000Y2475000D02*
X635000Y1115000D01*
X174000Y4326000D02*
X635000Y3865000D01*
X635000Y1115000D02*
X950000Y800000D01*
X5101632Y800000D02*
X7412500Y3110868D01*
X7750000Y3875000D02*
X8850000Y3875000D01*
X635000Y3865000D02*
X635000Y2475000D01*
X7412500Y3537500D02*
X7750000Y3875000D01*
X950000Y800000D02*
X5101632Y800000D01*
X7412500Y3110868D02*
X7412500Y3537500D01*
X174000Y5337500D02*
X174000Y4326000D01*
%TO.N,/encoder/SDA*%
X-635000Y885000D02*
X-150000Y400000D01*
X7425000Y2625000D02*
X8850000Y2625000D01*
X-150000Y400000D02*
X5200000Y400000D01*
X5200000Y400000D02*
X7425000Y2625000D01*
X-1358000Y4308000D02*
X-1358000Y5337500D01*
X-635000Y3585000D02*
X-1358000Y4308000D01*
X-635000Y2475000D02*
X-635000Y3585000D01*
X-635000Y2475000D02*
X-635000Y885000D01*
%TO.N,/Motor drive/SO_C*%
X-2250000Y-700000D02*
X-2725000Y-1175000D01*
X-796831Y-700000D02*
X7125000Y-700000D01*
X-4400000Y-3800000D02*
X-4400000Y-2850000D01*
X7125000Y-700000D02*
X7550000Y-1125000D01*
X7550000Y-1125000D02*
X8850000Y-1125000D01*
X-4400000Y-2850000D02*
X-2725000Y-1175000D01*
X-796831Y-700000D02*
X-2250000Y-700000D01*
%TO.N,/Motor drive/SO_B*%
X8850000Y125000D02*
X6075000Y125000D01*
X6075000Y125000D02*
X5645200Y-304800D01*
X5645200Y-304800D02*
X-2353168Y-304800D01*
X-4800000Y-2751632D02*
X-4800000Y-3800000D01*
X-2353168Y-304800D02*
X-4800000Y-2751632D01*
%TO.N,/Motor drive/SO_A*%
X-5200000Y-3800000D02*
X-5200000Y-2800000D01*
X-5200000Y-2653264D02*
X-5200000Y-2800000D01*
X-2499136Y47600D02*
X-5200000Y-2653264D01*
X6775000Y1375000D02*
X8850000Y1375000D01*
X5447600Y47600D02*
X-2499136Y47600D01*
X-5200000Y-2800000D02*
X-5200000Y-2650000D01*
X5447600Y47600D02*
X6775000Y1375000D01*
%TO.N,/Motor drive/IN_C*%
X-6000000Y-7050000D02*
X-6004800Y-7050000D01*
X7773800Y-7455998D02*
X7773800Y-5150000D01*
X4812498Y-10417300D02*
X7773800Y-7455998D01*
X-6250000Y-7295200D02*
X-6880330Y-7295200D01*
X-7404800Y-7819670D02*
X-7404800Y-9291936D01*
X8048800Y-4875000D02*
X8850000Y-4875000D01*
X-6279438Y-10417300D02*
X4812498Y-10417300D01*
X-6004800Y-7050000D02*
X-6250000Y-7295200D01*
X-6000000Y-6730000D02*
X-6000000Y-7050000D01*
X-6880330Y-7295200D02*
X-7404800Y-7819670D01*
X7773800Y-5150000D02*
X8048800Y-4875000D01*
X-7404800Y-9291936D02*
X-6279438Y-10417300D01*
%TO.N,/Motor drive/EN*%
X-3335000Y-4595000D02*
X-3045000Y-4595000D01*
X8500000Y-7400000D02*
X7350000Y-8550000D01*
X-3045000Y-4595000D02*
X-2800000Y-4350000D01*
X8850000Y-6125000D02*
X8850000Y-7050000D01*
X8850000Y-7050000D02*
X8500000Y-7400000D01*
X7350000Y-8550000D02*
X7350000Y-8850000D01*
%TO.N,/Motor drive/IN_B*%
X-7052400Y-9145968D02*
X-6386684Y-9811684D01*
X5003215Y-9728215D02*
X7353600Y-7377830D01*
X7353600Y-4250000D02*
X7978600Y-3625000D01*
X4666530Y-10064900D02*
X5003215Y-9728215D01*
X7353600Y-7377830D02*
X7353600Y-4250000D01*
X-7052400Y-8100000D02*
X-7052400Y-9145968D01*
X-5600000Y-7300000D02*
X-5947600Y-7647600D01*
X7978600Y-3625000D02*
X8850000Y-3625000D01*
X-5600000Y-6730000D02*
X-5600000Y-7300000D01*
X-6133469Y-10064900D02*
X-2150000Y-10064900D01*
X-6600000Y-7647600D02*
X-7052400Y-8100000D01*
X-6386684Y-9811684D02*
X-6133469Y-10064900D01*
X-5947600Y-7647600D02*
X-6600000Y-7647600D01*
X-2150000Y-10064900D02*
X4666530Y-10064900D01*
%TO.N,/Motor drive/IN_A*%
X-5200000Y-6730000D02*
X-5200000Y-7648368D01*
X-6450000Y-8000000D02*
X-6700000Y-8250000D01*
X-5200000Y-7648368D02*
X-5551632Y-8000000D01*
X-5551632Y-8000000D02*
X-6450000Y-8000000D01*
X-5987500Y-9712500D02*
X4520562Y-9712500D01*
X4520562Y-9712500D02*
X7001200Y-7231862D01*
X7001200Y-7231862D02*
X7001200Y-3600000D01*
X7001200Y-3600000D02*
X8226200Y-2375000D01*
X-6700000Y-9000000D02*
X-5987500Y-9712500D01*
X8226200Y-2375000D02*
X8850000Y-2375000D01*
X-6700000Y-8250000D02*
X-6700000Y-9000000D01*
%TO.N,Net-(D1-A)*%
X6100000Y4150000D02*
X5200000Y4150000D01*
X4850000Y5337500D02*
X4850000Y4500000D01*
X6422000Y5375000D02*
X6422000Y4472000D01*
X4850000Y4500000D02*
X5200000Y4150000D01*
X6422000Y4472000D02*
X6100000Y4150000D01*
%TO.N,Net-(D2-K)*%
X1746000Y5420000D02*
X1746000Y4754000D01*
X2150000Y4350000D02*
X2900000Y4350000D01*
X3318000Y4768000D02*
X2900000Y4350000D01*
X3318000Y5337500D02*
X3318000Y4768000D01*
X1746000Y4754000D02*
X2150000Y4350000D01*
%TO.N,Net-(U1-nFault)*%
X-3600000Y-3800000D02*
X-3600000Y-3500000D01*
X3450000Y9100000D02*
X3950000Y9100000D01*
X3318000Y7162500D02*
X3318000Y8968000D01*
X-3300000Y-3400000D02*
X-3150000Y-3400000D01*
X3318000Y8968000D02*
X3450000Y9100000D01*
X-3500000Y-3400000D02*
X-3300000Y-3400000D01*
X3200000Y-6762500D02*
X3200000Y-7950000D01*
X-3150000Y-3400000D02*
X-3000000Y-3550000D01*
X3950000Y9100000D02*
X4000000Y9050000D01*
X3200000Y-7950000D02*
X3647600Y-8397600D01*
X-3600000Y-3500000D02*
X-3500000Y-3400000D01*
X3647600Y-8397600D02*
X5020592Y-8397600D01*
X5020592Y-8397600D02*
X5534096Y-7884096D01*
%TD*%
%TA.AperFunction,Conductor*%
%TO.N,/Motor drive/MOT_B*%
G36*
X-7676760Y-5227648D02*
G01*
X-7105000Y-5695000D01*
X-6507167Y-5695000D01*
X-6504925Y-5695220D01*
X-6503522Y-5695500D01*
X-6503521Y-5695500D01*
X-6041500Y-5695500D01*
X-6033368Y-5698868D01*
X-6030000Y-5707000D01*
X-6030000Y-5883000D01*
X-6033368Y-5891132D01*
X-6041500Y-5894500D01*
X-6503522Y-5894500D01*
X-6527990Y-5899367D01*
X-6530062Y-5899779D01*
X-6532305Y-5900000D01*
X-6680000Y-5900000D01*
X-6771070Y-5916071D01*
X-7104998Y-5974999D01*
X-7104999Y-5974999D01*
X-7105000Y-5975000D01*
X-7315214Y-6138500D01*
X-7326886Y-6147578D01*
X-7333946Y-6150000D01*
X-9593500Y-6150000D01*
X-9601632Y-6146632D01*
X-9605000Y-6138500D01*
X-9605000Y-5261351D01*
X-9601632Y-5253219D01*
X-9593650Y-5249852D01*
X-7684184Y-5225054D01*
X-7676760Y-5227648D01*
G37*
%TD.AperFunction*%
%TD*%
%TA.AperFunction,Conductor*%
%TO.N,/Motor drive/CP*%
G36*
X-4226862Y-67593D02*
G01*
X-4201142Y-112142D01*
X-4200000Y-125200D01*
X-4200000Y-1230803D01*
X-4217593Y-1279141D01*
X-4222026Y-1283977D01*
X-5355173Y-2417124D01*
X-5366068Y-2425485D01*
X-5365991Y-2425587D01*
X-5369901Y-2428587D01*
X-5421413Y-2480099D01*
X-5457843Y-2543197D01*
X-5457844Y-2543199D01*
X-5476700Y-2613573D01*
X-5476700Y-3451320D01*
X-5486712Y-3484328D01*
X-5485568Y-3484803D01*
X-5488401Y-3491645D01*
X-5488403Y-3491647D01*
X-5500500Y-3552463D01*
X-5500499Y-3832664D01*
X-5500499Y-3974800D01*
X-5518092Y-4023137D01*
X-5562640Y-4048858D01*
X-5575699Y-4050000D01*
X-5624300Y-4050000D01*
X-5672638Y-4032407D01*
X-5698358Y-3987858D01*
X-5699500Y-3974800D01*
X-5699500Y-3552464D01*
X-5699501Y-3552459D01*
X-5711595Y-3491650D01*
X-5711597Y-3491645D01*
X-5720242Y-3478707D01*
X-5732912Y-3437432D01*
X-5744475Y-1703051D01*
X-5744454Y-1700698D01*
X-5734933Y-1314252D01*
X-5716155Y-1266362D01*
X-5712930Y-1262930D01*
X-5450000Y-1000000D01*
X-5450000Y-125200D01*
X-5432407Y-76862D01*
X-5387858Y-51142D01*
X-5374800Y-50000D01*
X-4275200Y-50000D01*
X-4226862Y-67593D01*
G37*
%TD.AperFunction*%
%TD*%
%TA.AperFunction,Conductor*%
%TO.N,/Motor drive/MOT_C*%
G36*
X-6056862Y-6117593D02*
G01*
X-6031142Y-6162142D01*
X-6030000Y-6175200D01*
X-6030000Y-6219300D01*
X-6047593Y-6267638D01*
X-6092142Y-6293358D01*
X-6105193Y-6294500D01*
X-6112536Y-6294500D01*
X-6129689Y-6297912D01*
X-6132919Y-6298555D01*
X-6147589Y-6300000D01*
X-6630000Y-6300000D01*
X-6630000Y-6663558D01*
X-6647593Y-6711896D01*
X-6658603Y-6722581D01*
X-7580000Y-7450000D01*
X-7580000Y-7572409D01*
X-7597593Y-7620747D01*
X-7602026Y-7625583D01*
X-7626215Y-7649772D01*
X-7662644Y-7712867D01*
X-7670492Y-7742157D01*
X-7681500Y-7783243D01*
X-7681500Y-7924800D01*
X-7699093Y-7973138D01*
X-7743642Y-7998858D01*
X-7756700Y-8000000D01*
X-9552414Y-8000000D01*
X-9600752Y-7982407D01*
X-9626472Y-7937858D01*
X-9627577Y-7922451D01*
X-9623226Y-7783243D01*
X-9582276Y-6472849D01*
X-9563183Y-6425087D01*
X-9517853Y-6400771D01*
X-9507114Y-6400000D01*
X-7480001Y-6400000D01*
X-7480000Y-6400000D01*
X-7443151Y-6371340D01*
X-7396985Y-6355500D01*
X-7333949Y-6355500D01*
X-7333946Y-6355500D01*
X-7267262Y-6344380D01*
X-7260202Y-6341958D01*
X-7200721Y-6309790D01*
X-7200717Y-6309787D01*
X-7200715Y-6309786D01*
X-7033805Y-6179967D01*
X-7000706Y-6165270D01*
X-6668490Y-6106644D01*
X-6655421Y-6105500D01*
X-6532314Y-6105500D01*
X-6532305Y-6105500D01*
X-6512155Y-6104510D01*
X-6509912Y-6104289D01*
X-6489972Y-6101331D01*
X-6489954Y-6101327D01*
X-6489085Y-6101177D01*
X-6489081Y-6101199D01*
X-6489057Y-6101196D01*
X-6489042Y-6101295D01*
X-6475875Y-6100000D01*
X-6105200Y-6100000D01*
X-6056862Y-6117593D01*
G37*
%TD.AperFunction*%
%TD*%
%TA.AperFunction,Conductor*%
%TO.N,/Motor drive/MOT_A*%
G36*
X-7823341Y-3867593D02*
G01*
X-7807910Y-3885344D01*
X-6930000Y-5290000D01*
X-6538579Y-5290000D01*
X-6523908Y-5291445D01*
X-6503523Y-5295500D01*
X-6105200Y-5295500D01*
X-6056862Y-5313093D01*
X-6031142Y-5357642D01*
X-6030000Y-5370700D01*
X-6030000Y-5414800D01*
X-6047593Y-5463138D01*
X-6092142Y-5488858D01*
X-6105200Y-5490000D01*
X-6495113Y-5490000D01*
X-6498787Y-5489910D01*
X-6507167Y-5489500D01*
X-7004875Y-5489500D01*
X-7052467Y-5472524D01*
X-7546703Y-5068539D01*
X-7608973Y-5033649D01*
X-7616397Y-5031055D01*
X-7616407Y-5031053D01*
X-7686845Y-5019571D01*
X-7686852Y-5019571D01*
X-7686853Y-5019571D01*
X-8570976Y-5031053D01*
X-9553823Y-5043817D01*
X-9602386Y-5026852D01*
X-9628682Y-4982642D01*
X-9630000Y-4968623D01*
X-9630000Y-4031148D01*
X-9612407Y-3982810D01*
X-9607974Y-3977974D01*
X-9502026Y-3872026D01*
X-9455406Y-3850286D01*
X-9448852Y-3850000D01*
X-7871679Y-3850000D01*
X-7823341Y-3867593D01*
G37*
%TD.AperFunction*%
%TD*%
%TA.AperFunction,Conductor*%
%TO.N,/Motor drive/CS_AREF*%
G36*
X-2886061Y-6091385D02*
G01*
X-2840306Y-6144189D01*
X-2829100Y-6195700D01*
X-2829100Y-7884027D01*
X-2829099Y-7884033D01*
X-2810244Y-7954403D01*
X-2810244Y-7954404D01*
X-2790052Y-7989375D01*
X-2773815Y-8017498D01*
X-2773812Y-8017501D01*
X-2736320Y-8054993D01*
X-2702834Y-8116316D01*
X-2700000Y-8142675D01*
X-2700000Y-9126000D01*
X-2719685Y-9193039D01*
X-2772489Y-9238794D01*
X-2824000Y-9250000D01*
X-3748638Y-9250000D01*
X-3815677Y-9230315D01*
X-3836319Y-9213681D01*
X-4063681Y-8986319D01*
X-4097166Y-8924996D01*
X-4100000Y-8898638D01*
X-4100000Y-7999999D01*
X-4513681Y-7586319D01*
X-4547166Y-7524996D01*
X-4550000Y-7498638D01*
X-4550000Y-7133442D01*
X-4530315Y-7066403D01*
X-4529102Y-7064551D01*
X-4511596Y-7038352D01*
X-4511595Y-7038351D01*
X-4499500Y-6977541D01*
X-4499500Y-6977538D01*
X-4499501Y-6539500D01*
X-4479817Y-6472461D01*
X-4427013Y-6426706D01*
X-4375501Y-6415500D01*
X-3830250Y-6415500D01*
X-3830247Y-6415499D01*
X-3771770Y-6403868D01*
X-3771769Y-6403867D01*
X-3705447Y-6359552D01*
X-3661132Y-6293230D01*
X-3661131Y-6293229D01*
X-3649500Y-6234752D01*
X-3649500Y-6219500D01*
X-3629815Y-6152461D01*
X-3577011Y-6106706D01*
X-3525500Y-6095500D01*
X-3096477Y-6095500D01*
X-3096473Y-6095499D01*
X-3032749Y-6082824D01*
X-3032748Y-6082823D01*
X-3032745Y-6082823D01*
X-3032742Y-6082821D01*
X-3028678Y-6081138D01*
X-2981226Y-6071700D01*
X-2953100Y-6071700D01*
X-2886061Y-6091385D01*
G37*
%TD.AperFunction*%
%TD*%
%TA.AperFunction,Conductor*%
%TO.N,/Motor drive/CS_AREF*%
G36*
X-178351Y-1217593D02*
G01*
X-152631Y-1262142D01*
X-151503Y-1276669D01*
X-200000Y-3750000D01*
X5774800Y-3750000D01*
X5823138Y-3767593D01*
X5848858Y-3812142D01*
X5850000Y-3825200D01*
X5850000Y-5624403D01*
X5832407Y-5672741D01*
X5787858Y-5698461D01*
X5774404Y-5699602D01*
X-2373614Y-5656717D01*
X-2421858Y-5638869D01*
X-2426392Y-5634693D01*
X-2487499Y-5573587D01*
X-2550599Y-5537155D01*
X-2550598Y-5537155D01*
X-2602117Y-5523351D01*
X-2620972Y-5518300D01*
X-2620973Y-5518300D01*
X-2993286Y-5518300D01*
X-3025310Y-5508586D01*
X-3025901Y-5510012D01*
X-3032746Y-5507176D01*
X-3096477Y-5494500D01*
X-3096478Y-5494500D01*
X-3573522Y-5494500D01*
X-3574300Y-5494500D01*
X-3622638Y-5476907D01*
X-3648358Y-5432358D01*
X-3649500Y-5419300D01*
X-3649500Y-4970700D01*
X-3631907Y-4922362D01*
X-3587358Y-4896642D01*
X-3574300Y-4895500D01*
X-3096477Y-4895500D01*
X-3064611Y-4889161D01*
X-3032745Y-4882823D01*
X-3031460Y-4881964D01*
X-3009142Y-4871852D01*
X-3008575Y-4871700D01*
X-3008572Y-4871700D01*
X-2938197Y-4852844D01*
X-2938195Y-4852843D01*
X-2938191Y-4852842D01*
X-2933642Y-4850958D01*
X-2932778Y-4853043D01*
X-2890428Y-4845563D01*
X-2882283Y-4847469D01*
X-2871961Y-4850500D01*
X-2871958Y-4850500D01*
X-2728042Y-4850500D01*
X-2728039Y-4850500D01*
X-2589947Y-4809953D01*
X-2468872Y-4732143D01*
X-2432932Y-4690666D01*
X-2374624Y-4623375D01*
X-2374622Y-4623372D01*
X-2314835Y-4492459D01*
X-2294353Y-4350000D01*
X-2314835Y-4207540D01*
X-2374622Y-4076627D01*
X-2374624Y-4076624D01*
X-2468872Y-3967857D01*
X-2546823Y-3917760D01*
X-2577975Y-3876825D01*
X-2575527Y-3825444D01*
X-2574570Y-3823259D01*
X-2514836Y-3692462D01*
X-2514836Y-3692460D01*
X-2514835Y-3692458D01*
X-2514835Y-3692457D01*
X-2494353Y-3550000D01*
X-2500610Y-3506483D01*
X-2514835Y-3407540D01*
X-2574622Y-3276627D01*
X-2574624Y-3276624D01*
X-2668872Y-3167856D01*
X-2668874Y-3167855D01*
X-2789948Y-3090046D01*
X-2789947Y-3090046D01*
X-2928036Y-3049500D01*
X-2928039Y-3049500D01*
X-3071961Y-3049500D01*
X-3071963Y-3049500D01*
X-3210051Y-3090046D01*
X-3243220Y-3111362D01*
X-3283876Y-3123300D01*
X-3536428Y-3123300D01*
X-3562184Y-3130201D01*
X-3606800Y-3142155D01*
X-3606811Y-3142160D01*
X-3651316Y-3167856D01*
X-3669897Y-3178584D01*
X-3669898Y-3178585D01*
X-3821415Y-3330102D01*
X-3857844Y-3393197D01*
X-3866284Y-3424696D01*
X-3877975Y-3468332D01*
X-3879397Y-3467950D01*
X-3885708Y-3484744D01*
X-3885568Y-3484803D01*
X-3887326Y-3489048D01*
X-3888174Y-3491304D01*
X-3888403Y-3491647D01*
X-3900500Y-3552463D01*
X-3900499Y-3812142D01*
X-3900499Y-4024800D01*
X-3918092Y-4073138D01*
X-3962641Y-4098858D01*
X-3975699Y-4100000D01*
X-4024300Y-4100000D01*
X-4072638Y-4082407D01*
X-4098358Y-4037858D01*
X-4099500Y-4024800D01*
X-4099500Y-3552464D01*
X-4099501Y-3552462D01*
X-4111597Y-3491644D01*
X-4114432Y-3484801D01*
X-4113287Y-3484327D01*
X-4123300Y-3451320D01*
X-4123300Y-3111561D01*
X-4105707Y-3063223D01*
X-4099967Y-3057112D01*
X-2679197Y-1703997D01*
X-2171782Y-1220745D01*
X-2124646Y-1200149D01*
X-2119920Y-1200000D01*
X-226689Y-1200000D01*
X-178351Y-1217593D01*
G37*
%TD.AperFunction*%
%TD*%
%TA.AperFunction,Conductor*%
%TO.N,GND*%
G36*
X7027577Y-994293D02*
G01*
X7032413Y-998726D01*
X7380102Y-1346415D01*
X7443197Y-1382844D01*
X7513572Y-1401700D01*
X7793925Y-1401700D01*
X7842263Y-1419293D01*
X7860146Y-1445805D01*
X7861667Y-1445031D01*
X7921951Y-1563344D01*
X8011655Y-1653048D01*
X8011657Y-1653049D01*
X8011658Y-1653050D01*
X8066483Y-1680984D01*
X8070430Y-1682996D01*
X8105512Y-1720617D01*
X8108204Y-1771987D01*
X8077247Y-1813068D01*
X8070430Y-1817004D01*
X8011655Y-1846951D01*
X7921951Y-1936655D01*
X7864354Y-2049694D01*
X7849500Y-2143478D01*
X7849500Y-2329238D01*
X7831907Y-2377576D01*
X7827474Y-2382412D01*
X6779788Y-3430097D01*
X6743356Y-3493197D01*
X6730752Y-3540239D01*
X6730751Y-3540238D01*
X6724500Y-3563572D01*
X6724500Y-7086100D01*
X6706907Y-7134438D01*
X6702474Y-7139274D01*
X6121193Y-7720554D01*
X6074573Y-7742294D01*
X6024886Y-7728980D01*
X5999615Y-7698620D01*
X5959473Y-7610723D01*
X5959471Y-7610720D01*
X5865223Y-7501952D01*
X5865221Y-7501951D01*
X5812146Y-7467842D01*
X5744149Y-7424143D01*
X5744148Y-7424142D01*
X5606059Y-7383596D01*
X5606057Y-7383596D01*
X5462135Y-7383596D01*
X5462132Y-7383596D01*
X5324044Y-7424142D01*
X5202970Y-7501951D01*
X5202968Y-7501952D01*
X5108720Y-7610720D01*
X5108718Y-7610723D01*
X5048931Y-7741636D01*
X5037560Y-7820727D01*
X5028449Y-7884096D01*
X5036078Y-7937161D01*
X5037464Y-7946797D01*
X5026928Y-7997147D01*
X5016204Y-8010673D01*
X4928005Y-8098874D01*
X4881385Y-8120614D01*
X4874830Y-8120900D01*
X3793361Y-8120900D01*
X3745023Y-8103307D01*
X3740187Y-8098874D01*
X3498726Y-7857413D01*
X3476986Y-7810793D01*
X3476700Y-7804239D01*
X3476700Y-7516180D01*
X3494293Y-7467842D01*
X3527060Y-7445201D01*
X3644475Y-7404116D01*
X3750711Y-7325711D01*
X3829116Y-7219475D01*
X3872725Y-7094849D01*
X3875499Y-7065263D01*
X3875500Y-7065262D01*
X3875500Y-6459738D01*
X3875499Y-6459735D01*
X3874615Y-6450304D01*
X3872725Y-6430151D01*
X3836862Y-6327661D01*
X3829117Y-6305527D01*
X3829115Y-6305524D01*
X3824256Y-6298940D01*
X3750711Y-6199289D01*
X3644475Y-6120884D01*
X3644472Y-6120882D01*
X3549766Y-6087743D01*
X3519849Y-6077275D01*
X3519844Y-6077274D01*
X3519842Y-6077274D01*
X3490264Y-6074500D01*
X3490256Y-6074500D01*
X2909744Y-6074500D01*
X2909735Y-6074500D01*
X2880157Y-6077274D01*
X2880153Y-6077274D01*
X2880151Y-6077275D01*
X2880148Y-6077275D01*
X2880148Y-6077276D01*
X2755527Y-6120882D01*
X2755524Y-6120884D01*
X2649289Y-6199289D01*
X2570884Y-6305524D01*
X2570882Y-6305527D01*
X2527276Y-6430148D01*
X2527274Y-6430157D01*
X2524871Y-6455781D01*
X2502841Y-6502265D01*
X2456086Y-6523712D01*
X2406483Y-6510089D01*
X2377242Y-6467768D01*
X2375129Y-6455781D01*
X2373869Y-6442356D01*
X2372725Y-6430151D01*
X2336862Y-6327661D01*
X2329117Y-6305527D01*
X2329115Y-6305524D01*
X2324256Y-6298940D01*
X2250711Y-6199289D01*
X2144475Y-6120884D01*
X2144472Y-6120882D01*
X2049766Y-6087743D01*
X2019849Y-6077275D01*
X2019844Y-6077274D01*
X2019842Y-6077274D01*
X1990264Y-6074500D01*
X1990256Y-6074500D01*
X1409744Y-6074500D01*
X1409735Y-6074500D01*
X1380157Y-6077274D01*
X1380153Y-6077274D01*
X1380151Y-6077275D01*
X1380148Y-6077275D01*
X1380148Y-6077276D01*
X1255527Y-6120882D01*
X1255524Y-6120884D01*
X1149289Y-6199289D01*
X1070884Y-6305524D01*
X1070882Y-6305527D01*
X1027276Y-6430148D01*
X1027274Y-6430157D01*
X1024500Y-6459735D01*
X1024500Y-7065264D01*
X1026485Y-7086426D01*
X1027275Y-7094849D01*
X1027276Y-7094851D01*
X1070882Y-7219472D01*
X1070884Y-7219475D01*
X1149289Y-7325711D01*
X1255524Y-7404115D01*
X1255527Y-7404117D01*
X1291312Y-7416638D01*
X1372938Y-7445201D01*
X1412751Y-7477771D01*
X1423300Y-7516180D01*
X1423300Y-8204239D01*
X1405707Y-8252577D01*
X1401274Y-8257413D01*
X882413Y-8776274D01*
X835793Y-8798014D01*
X829239Y-8798300D01*
X-1179239Y-8798300D01*
X-1227577Y-8780707D01*
X-1232413Y-8776274D01*
X-2253674Y-7755013D01*
X-2275414Y-7708393D01*
X-2275700Y-7701839D01*
X-2275700Y-5938331D01*
X-2258107Y-5889993D01*
X-2213558Y-5864273D01*
X-2200104Y-5863132D01*
X5773322Y-5905099D01*
X5791770Y-5904367D01*
X5805224Y-5903226D01*
X5890607Y-5876430D01*
X5935156Y-5850710D01*
X5935158Y-5850707D01*
X5935162Y-5850706D01*
X5949529Y-5839822D01*
X5975896Y-5819850D01*
X6025515Y-5743024D01*
X6043108Y-5694686D01*
X6055500Y-5624403D01*
X6055500Y-3825200D01*
X6054719Y-3807296D01*
X6053577Y-3794238D01*
X6026827Y-3709393D01*
X6001107Y-3664844D01*
X6001103Y-3664837D01*
X5970246Y-3624103D01*
X5893421Y-3574485D01*
X5893417Y-3574483D01*
X5845083Y-3556891D01*
X5774800Y-3544500D01*
X1176081Y-3544500D01*
X1127743Y-3526907D01*
X1102023Y-3482358D01*
X1108522Y-3436273D01*
X1125572Y-3401395D01*
X1125573Y-3401393D01*
X1135500Y-3333260D01*
X1135500Y-1616740D01*
X1125573Y-1548607D01*
X1074198Y-1443517D01*
X1074196Y-1443515D01*
X1074196Y-1443514D01*
X991485Y-1360803D01*
X982722Y-1356519D01*
X886393Y-1309427D01*
X818268Y-1299500D01*
X818260Y-1299500D01*
X451740Y-1299500D01*
X451731Y-1299500D01*
X383606Y-1309427D01*
X278514Y-1360803D01*
X195803Y-1443514D01*
X195800Y-1443518D01*
X194116Y-1446964D01*
X157079Y-1482661D01*
X105761Y-1486200D01*
X64174Y-1455923D01*
X51374Y-1412462D01*
X53958Y-1280698D01*
X53380Y-1260760D01*
X52252Y-1246233D01*
X25338Y-1159393D01*
X21259Y-1152329D01*
X-380Y-1114845D01*
X-13666Y-1097307D01*
X-28829Y-1048153D01*
X-8848Y-1000752D01*
X36926Y-977284D01*
X46278Y-976700D01*
X6979239Y-976700D01*
X7027577Y-994293D01*
G37*
%TD.AperFunction*%
%TA.AperFunction,Conductor*%
G36*
X-10276862Y14982407D02*
G01*
X-10251142Y14937858D01*
X-10250000Y14924800D01*
X-10250000Y11000000D01*
X10250000Y11000000D01*
X10250000Y12999998D01*
X11247422Y12999998D01*
X11267944Y12798179D01*
X11328671Y12604630D01*
X11427123Y12427253D01*
X11427124Y12427252D01*
X11559252Y12273342D01*
X11559262Y12273333D01*
X11719666Y12149171D01*
X11719671Y12149168D01*
X11719672Y12149168D01*
X11901799Y12059830D01*
X11901804Y12059828D01*
X11901806Y12059828D01*
X12098175Y12008984D01*
X12098189Y12008982D01*
X12300773Y11998707D01*
X12300780Y11998708D01*
X12501299Y12029427D01*
X12501300Y12029427D01*
X12501304Y12029428D01*
X12691526Y12099878D01*
X12691528Y12099879D01*
X12691530Y12099880D01*
X12789136Y12160718D01*
X12863683Y12207184D01*
X13010711Y12346944D01*
X13010714Y12346947D01*
X13066609Y12427253D01*
X13126601Y12513447D01*
X13206600Y12699865D01*
X13247435Y12898571D01*
X13250000Y13000000D01*
X13247435Y13101429D01*
X13206600Y13300135D01*
X13126601Y13486553D01*
X13010715Y13653052D01*
X12863684Y13792815D01*
X12691530Y13900120D01*
X12501299Y13970573D01*
X12300780Y14001292D01*
X12098182Y13991017D01*
X11901799Y13940170D01*
X11719672Y13850832D01*
X11719668Y13850829D01*
X11719666Y13850828D01*
X11559262Y13726666D01*
X11559257Y13726662D01*
X11559255Y13726659D01*
X11559252Y13726657D01*
X11427124Y13572747D01*
X11427123Y13572746D01*
X11427120Y13572741D01*
X11328673Y13395373D01*
X11328671Y13395369D01*
X11267944Y13201820D01*
X11247422Y13000001D01*
X11247422Y12999998D01*
X10250000Y12999998D01*
X10250000Y14924800D01*
X10267593Y14973138D01*
X10312142Y14998858D01*
X10325200Y15000000D01*
X14174800Y15000000D01*
X14223138Y14982407D01*
X14248858Y14937858D01*
X14250000Y14924800D01*
X14250000Y-14924800D01*
X14232407Y-14973138D01*
X14187858Y-14998858D01*
X14174800Y-15000000D01*
X10325200Y-15000000D01*
X10276862Y-14982407D01*
X10251142Y-14937858D01*
X10250000Y-14924800D01*
X10250000Y-13000001D01*
X11247422Y-13000001D01*
X11267944Y-13201820D01*
X11328671Y-13395369D01*
X11328672Y-13395372D01*
X11328673Y-13395373D01*
X11379281Y-13486552D01*
X11427123Y-13572746D01*
X11427124Y-13572747D01*
X11559252Y-13726657D01*
X11559255Y-13726659D01*
X11559257Y-13726662D01*
X11559260Y-13726665D01*
X11559262Y-13726666D01*
X11719666Y-13850828D01*
X11719668Y-13850829D01*
X11719672Y-13850832D01*
X11901799Y-13940170D01*
X12098182Y-13991017D01*
X12199481Y-13996154D01*
X12300773Y-14001292D01*
X12300774Y-14001291D01*
X12300780Y-14001292D01*
X12501299Y-13970573D01*
X12691530Y-13900120D01*
X12863684Y-13792815D01*
X13010715Y-13653052D01*
X13126601Y-13486553D01*
X13206600Y-13300135D01*
X13247435Y-13101429D01*
X13250000Y-13000000D01*
X13247435Y-12898571D01*
X13206600Y-12699865D01*
X13126601Y-12513447D01*
X13010715Y-12346948D01*
X12863684Y-12207185D01*
X12863683Y-12207184D01*
X12770605Y-12149168D01*
X12691530Y-12099880D01*
X12691528Y-12099879D01*
X12691526Y-12099878D01*
X12501304Y-12029428D01*
X12501300Y-12029427D01*
X12501299Y-12029427D01*
X12300780Y-11998708D01*
X12300778Y-11998708D01*
X12300772Y-11998707D01*
X12098189Y-12008982D01*
X12098175Y-12008984D01*
X11901806Y-12059828D01*
X11901804Y-12059828D01*
X11901799Y-12059830D01*
X11901795Y-12059832D01*
X11719666Y-12149171D01*
X11559262Y-12273333D01*
X11559252Y-12273342D01*
X11427124Y-12427252D01*
X11427123Y-12427253D01*
X11328671Y-12604630D01*
X11267944Y-12798179D01*
X11247422Y-12999998D01*
X11247422Y-13000001D01*
X10250000Y-13000001D01*
X10250000Y-11000000D01*
X-10250000Y-11000000D01*
X-10250000Y-14924800D01*
X-10267593Y-14973138D01*
X-10312142Y-14998858D01*
X-10325200Y-15000000D01*
X-14174800Y-15000000D01*
X-14223138Y-14982407D01*
X-14248858Y-14937858D01*
X-14250000Y-14924800D01*
X-14250000Y-13000000D01*
X-13252579Y-13000000D01*
X-13232056Y-13201818D01*
X-13171327Y-13395373D01*
X-13072880Y-13572741D01*
X-12940743Y-13726662D01*
X-12780328Y-13850832D01*
X-12598201Y-13940170D01*
X-12401818Y-13991017D01*
X-12286047Y-13996888D01*
X-12199226Y-14001292D01*
X-12199224Y-14001291D01*
X-12199220Y-14001292D01*
X-11998701Y-13970573D01*
X-11998696Y-13970571D01*
X-11998695Y-13970571D01*
X-11808473Y-13900121D01*
X-11808470Y-13900120D01*
X-11636316Y-13792815D01*
X-11489285Y-13653052D01*
X-11373399Y-13486553D01*
X-11373398Y-13486552D01*
X-11293400Y-13300135D01*
X-11293400Y-13300134D01*
X-11273196Y-13201819D01*
X-11252565Y-13101429D01*
X-11252564Y-13101427D01*
X-11252564Y-13101423D01*
X-11250000Y-13000000D01*
X-11252564Y-12898576D01*
X-11293400Y-12699865D01*
X-11293400Y-12699864D01*
X-11373398Y-12513447D01*
X-11489285Y-12346947D01*
X-11489288Y-12346944D01*
X-11636316Y-12207184D01*
X-11808473Y-12099878D01*
X-11998695Y-12029428D01*
X-11998700Y-12029427D01*
X-11998701Y-12029427D01*
X-12132156Y-12008982D01*
X-12199226Y-11998707D01*
X-12401810Y-12008982D01*
X-12401816Y-12008982D01*
X-12401818Y-12008983D01*
X-12401819Y-12008983D01*
X-12401824Y-12008984D01*
X-12575773Y-12054023D01*
X-12598201Y-12059830D01*
X-12780328Y-12149168D01*
X-12780329Y-12149169D01*
X-12780333Y-12149171D01*
X-12940737Y-12273333D01*
X-12940747Y-12273342D01*
X-13072875Y-12427252D01*
X-13072876Y-12427253D01*
X-13072878Y-12427256D01*
X-13072880Y-12427259D01*
X-13171327Y-12604627D01*
X-13232056Y-12798182D01*
X-13252579Y-13000000D01*
X-14250000Y-13000000D01*
X-14250000Y-8595735D01*
X-13350500Y-8595735D01*
X-13350499Y-10304264D01*
X-13347646Y-10334698D01*
X-13302793Y-10462882D01*
X-13222150Y-10572150D01*
X-13112882Y-10652793D01*
X-12984698Y-10697646D01*
X-12954265Y-10700500D01*
X-10345736Y-10700499D01*
X-10345735Y-10700499D01*
X-10315301Y-10697646D01*
X-10187120Y-10652794D01*
X-10187117Y-10652792D01*
X-10168043Y-10638715D01*
X-10077850Y-10572150D01*
X-9997207Y-10462882D01*
X-9997205Y-10462879D01*
X-9952355Y-10334700D01*
X-9952354Y-10334698D01*
X-9952353Y-10334691D01*
X-9949500Y-10304272D01*
X-9949500Y-8595735D01*
X-9952353Y-8565301D01*
X-9997205Y-8437120D01*
X-9997207Y-8437117D01*
X-10077850Y-8327850D01*
X-10187117Y-8247207D01*
X-10187120Y-8247205D01*
X-10315299Y-8202355D01*
X-10315299Y-8202354D01*
X-10315302Y-8202354D01*
X-10315304Y-8202353D01*
X-10315308Y-8202353D01*
X-10345727Y-8199500D01*
X-12954264Y-8199500D01*
X-12984698Y-8202353D01*
X-13112879Y-8247205D01*
X-13112882Y-8247207D01*
X-13222150Y-8327850D01*
X-13302793Y-8437118D01*
X-13347646Y-8565302D01*
X-13350500Y-8595735D01*
X-14250000Y-8595735D01*
X-14250000Y-4968623D01*
X-9835500Y-4968623D01*
X-9834598Y-4987858D01*
X-9833280Y-5001877D01*
X-9805301Y-5087694D01*
X-9795214Y-5104652D01*
X-9785622Y-5155186D01*
X-9790367Y-5171870D01*
X-9791490Y-5174583D01*
X-9791492Y-5174585D01*
X-9794860Y-5182717D01*
X-9794862Y-5182723D01*
X-9803815Y-5227741D01*
X-9810500Y-5261351D01*
X-9810500Y-6138500D01*
X-9809359Y-6144238D01*
X-9794862Y-6217127D01*
X-9794860Y-6217129D01*
X-9794860Y-6217134D01*
X-9791492Y-6225266D01*
X-9758750Y-6277373D01*
X-9747930Y-6327661D01*
X-9752597Y-6345295D01*
X-9754000Y-6348806D01*
X-9754001Y-6348807D01*
X-9773094Y-6396569D01*
X-9787676Y-6466430D01*
X-9832977Y-7916032D01*
X-9832550Y-7937152D01*
X-9831445Y-7952559D01*
X-9831397Y-7953214D01*
X-9804441Y-8040607D01*
X-9778721Y-8085156D01*
X-9778718Y-8085158D01*
X-9778717Y-8085162D01*
X-9768330Y-8098874D01*
X-9747861Y-8125896D01*
X-9671035Y-8175515D01*
X-9632256Y-8189629D01*
X-9622697Y-8193108D01*
X-9552414Y-8205500D01*
X-7756700Y-8205500D01*
X-7708362Y-8223093D01*
X-7682642Y-8267642D01*
X-7681500Y-8280700D01*
X-7681500Y-9255508D01*
X-7681500Y-9328364D01*
X-7662644Y-9398739D01*
X-7626215Y-9461834D01*
X-6449336Y-10638715D01*
X-6386241Y-10675144D01*
X-6315866Y-10694000D01*
X-6315865Y-10694000D01*
X4848925Y-10694000D01*
X4848926Y-10694000D01*
X4919301Y-10675144D01*
X4982396Y-10638715D01*
X6091846Y-9529264D01*
X10049500Y-9529264D01*
X10052353Y-9559698D01*
X10097205Y-9687879D01*
X10097207Y-9687882D01*
X10177850Y-9797150D01*
X10287117Y-9877792D01*
X10287120Y-9877794D01*
X10317890Y-9888560D01*
X10415302Y-9922646D01*
X10445735Y-9925500D01*
X13054264Y-9925499D01*
X13084698Y-9922646D01*
X13212882Y-9877793D01*
X13322150Y-9797150D01*
X13402793Y-9687882D01*
X13447646Y-9559698D01*
X13450500Y-9529265D01*
X13450499Y-7820736D01*
X13450268Y-7818266D01*
X13447646Y-7790301D01*
X13402794Y-7662120D01*
X13402792Y-7662117D01*
X13365760Y-7611940D01*
X13322150Y-7552850D01*
X13212882Y-7472207D01*
X13212879Y-7472205D01*
X13115470Y-7438121D01*
X13084698Y-7427354D01*
X13084693Y-7427353D01*
X13084691Y-7427353D01*
X13054272Y-7424500D01*
X10445735Y-7424500D01*
X10415301Y-7427353D01*
X10287120Y-7472205D01*
X10287117Y-7472207D01*
X10177850Y-7552850D01*
X10097207Y-7662117D01*
X10097205Y-7662120D01*
X10052355Y-7790299D01*
X10052355Y-7790301D01*
X10052353Y-7790308D01*
X10049500Y-7820727D01*
X10049500Y-9529264D01*
X6091846Y-9529264D01*
X6728919Y-8892191D01*
X6775537Y-8870452D01*
X6825224Y-8883766D01*
X6854729Y-8925903D01*
X6856526Y-8934664D01*
X6864835Y-8992459D01*
X6924622Y-9123372D01*
X6924624Y-9123375D01*
X7018872Y-9232143D01*
X7139947Y-9309953D01*
X7278039Y-9350500D01*
X7278042Y-9350500D01*
X7421958Y-9350500D01*
X7421961Y-9350500D01*
X7560053Y-9309953D01*
X7681128Y-9232143D01*
X7775377Y-9123373D01*
X7835165Y-8992457D01*
X7855647Y-8850000D01*
X7835165Y-8707543D01*
X7819983Y-8674300D01*
X7778039Y-8582456D01*
X7773962Y-8531178D01*
X7793267Y-8498044D01*
X8721415Y-7569898D01*
X9071415Y-7219898D01*
X9107844Y-7156803D01*
X9126700Y-7086428D01*
X9126700Y-7013572D01*
X9126700Y-6800699D01*
X9144293Y-6752361D01*
X9188842Y-6726641D01*
X9201900Y-6725499D01*
X9481513Y-6725499D01*
X9481518Y-6725499D01*
X9489646Y-6724211D01*
X9575301Y-6710647D01*
X9575302Y-6710646D01*
X9575304Y-6710646D01*
X9688342Y-6653050D01*
X9778050Y-6563342D01*
X9835646Y-6450304D01*
X9850500Y-6356519D01*
X9850499Y-5893482D01*
X9850498Y-5893475D01*
X9835647Y-5799698D01*
X9806768Y-5743020D01*
X9778050Y-5686658D01*
X9778049Y-5686657D01*
X9778048Y-5686655D01*
X9688344Y-5596951D01*
X9677410Y-5591380D01*
X9629568Y-5567003D01*
X9594487Y-5529383D01*
X9591795Y-5478014D01*
X9622752Y-5436932D01*
X9629561Y-5433000D01*
X9688342Y-5403050D01*
X9778050Y-5313342D01*
X9835646Y-5200304D01*
X9850500Y-5106519D01*
X9850499Y-4643482D01*
X9838941Y-4570500D01*
X9835647Y-4549698D01*
X9778048Y-4436655D01*
X9688344Y-4346951D01*
X9642980Y-4323837D01*
X9629568Y-4317003D01*
X9594487Y-4279383D01*
X9591795Y-4228014D01*
X9622752Y-4186932D01*
X9629561Y-4183000D01*
X9688342Y-4153050D01*
X9778050Y-4063342D01*
X9835646Y-3950304D01*
X9850500Y-3856519D01*
X9850499Y-3393482D01*
X9840962Y-3333260D01*
X9835647Y-3299698D01*
X9778048Y-3186655D01*
X9688344Y-3096951D01*
X9686079Y-3095797D01*
X9629568Y-3067003D01*
X9594487Y-3029383D01*
X9591795Y-2978014D01*
X9622752Y-2936932D01*
X9629561Y-2933000D01*
X9688342Y-2903050D01*
X9778050Y-2813342D01*
X9835646Y-2700304D01*
X9850500Y-2606519D01*
X9850499Y-2143482D01*
X9850498Y-2143475D01*
X9835647Y-2049698D01*
X9778048Y-1936655D01*
X9688344Y-1846951D01*
X9686079Y-1845797D01*
X9629568Y-1817003D01*
X9594487Y-1779383D01*
X9591795Y-1728014D01*
X9622752Y-1686932D01*
X9629561Y-1683000D01*
X9688342Y-1653050D01*
X9778050Y-1563342D01*
X9835646Y-1450304D01*
X9850500Y-1356519D01*
X9850499Y-893482D01*
X9850498Y-893475D01*
X9835647Y-799698D01*
X9778048Y-686655D01*
X9688344Y-596951D01*
X9686079Y-595797D01*
X9629568Y-567003D01*
X9594487Y-529383D01*
X9591795Y-478014D01*
X9622752Y-436932D01*
X9629561Y-433000D01*
X9688342Y-403050D01*
X9778050Y-313342D01*
X9835646Y-200304D01*
X9850500Y-106519D01*
X9850499Y356518D01*
X9849211Y364646D01*
X9835647Y450301D01*
X9835646Y450302D01*
X9835646Y450304D01*
X9778050Y563342D01*
X9688342Y653050D01*
X9629568Y682996D01*
X9594487Y720617D01*
X9591795Y771986D01*
X9622752Y813068D01*
X9629561Y816999D01*
X9688342Y846950D01*
X9688344Y846951D01*
X9778048Y936655D01*
X9835645Y1049694D01*
X9835646Y1049696D01*
X9850500Y1143481D01*
X9850499Y1606518D01*
X9843692Y1649501D01*
X9835647Y1700301D01*
X9835646Y1700302D01*
X9835646Y1700304D01*
X9778050Y1813342D01*
X9688342Y1903050D01*
X9629568Y1932996D01*
X9594487Y1970617D01*
X9591795Y2021986D01*
X9622752Y2063068D01*
X9629561Y2066999D01*
X9688342Y2096950D01*
X9688344Y2096951D01*
X9778048Y2186655D01*
X9835645Y2299694D01*
X9835646Y2299696D01*
X9850500Y2393481D01*
X9850499Y2856518D01*
X9849211Y2864646D01*
X9835647Y2950301D01*
X9835646Y2950302D01*
X9835646Y2950304D01*
X9778050Y3063342D01*
X9688342Y3153050D01*
X9629568Y3182996D01*
X9594487Y3220617D01*
X9591795Y3271986D01*
X9622752Y3313068D01*
X9629561Y3316999D01*
X9688342Y3346950D01*
X9688344Y3346951D01*
X9778048Y3436655D01*
X9835645Y3549694D01*
X9835646Y3549696D01*
X9850500Y3643481D01*
X9850499Y4106518D01*
X9843534Y4150500D01*
X9835647Y4200301D01*
X9835646Y4200302D01*
X9835646Y4200304D01*
X9778050Y4313342D01*
X9688342Y4403050D01*
X9575304Y4460646D01*
X9481519Y4475500D01*
X8218482Y4475499D01*
X8218476Y4475498D01*
X8218475Y4475498D01*
X8124698Y4460647D01*
X8124696Y4460646D01*
X8011658Y4403050D01*
X8011657Y4403049D01*
X8011655Y4403048D01*
X7921951Y4313344D01*
X7861667Y4195031D01*
X7859545Y4196111D01*
X7833772Y4163125D01*
X7793925Y4151700D01*
X7786428Y4151700D01*
X7713572Y4151700D01*
X7643197Y4132844D01*
X7580102Y4096415D01*
X7191085Y3707398D01*
X7154837Y3644617D01*
X7154655Y3644301D01*
X7144703Y3607156D01*
X7144702Y3607156D01*
X7135800Y3573927D01*
X7135800Y3256629D01*
X7118207Y3208291D01*
X7113774Y3203455D01*
X5009045Y1098726D01*
X4962425Y1076986D01*
X4955871Y1076700D01*
X1095761Y1076700D01*
X1047423Y1094293D01*
X1042587Y1098726D01*
X933726Y1207587D01*
X911986Y1254207D01*
X911700Y1260761D01*
X911700Y1274856D01*
X929293Y1323194D01*
X953872Y1342415D01*
X991485Y1360803D01*
X1074196Y1443514D01*
X1074196Y1443515D01*
X1074198Y1443517D01*
X1125573Y1548607D01*
X1135500Y1616740D01*
X1135500Y3333260D01*
X1125573Y3401393D01*
X1074198Y3506483D01*
X991483Y3589198D01*
X953870Y3607585D01*
X918174Y3644617D01*
X911700Y3675142D01*
X911700Y3901426D01*
X911700Y3901428D01*
X892844Y3971802D01*
X856415Y4034898D01*
X804898Y4086415D01*
X472726Y4418587D01*
X450986Y4465207D01*
X450700Y4471761D01*
X450700Y4583819D01*
X468293Y4632157D01*
X501063Y4654799D01*
X618472Y4695882D01*
X618475Y4695884D01*
X650536Y4719546D01*
X724711Y4774289D01*
X803116Y4880525D01*
X846725Y5005151D01*
X849499Y5034735D01*
X849500Y5034738D01*
X849500Y5079735D01*
X1070500Y5079735D01*
X1073274Y5050157D01*
X1073276Y5050148D01*
X1116882Y4925527D01*
X1116884Y4925524D01*
X1195289Y4819289D01*
X1301524Y4740884D01*
X1301527Y4740882D01*
X1426148Y4697276D01*
X1426151Y4697275D01*
X1426153Y4697274D01*
X1430622Y4696299D01*
X1430232Y4694515D01*
X1470466Y4675433D01*
X1486415Y4651396D01*
X1488150Y4647207D01*
X1524586Y4584100D01*
X1928585Y4180102D01*
X1945562Y4163125D01*
X1980101Y4128585D01*
X2043197Y4092156D01*
X2043199Y4092155D01*
X2094717Y4078352D01*
X2113572Y4073300D01*
X2113573Y4073300D01*
X2936427Y4073300D01*
X2936428Y4073300D01*
X2985376Y4086415D01*
X3006800Y4092155D01*
X3006803Y4092156D01*
X3069898Y4128585D01*
X3303741Y4362428D01*
X3539415Y4598101D01*
X3547449Y4612017D01*
X3586853Y4645083D01*
X3606532Y4649035D01*
X3606504Y4649335D01*
X3637842Y4652274D01*
X3637844Y4652274D01*
X3637849Y4652275D01*
X3684017Y4668430D01*
X3762472Y4695882D01*
X3762475Y4695884D01*
X3794536Y4719546D01*
X3868711Y4774289D01*
X3947116Y4880525D01*
X3990725Y5005151D01*
X3993499Y5034735D01*
X4174500Y5034735D01*
X4177274Y5005157D01*
X4177276Y5005148D01*
X4220882Y4880527D01*
X4220884Y4880524D01*
X4299289Y4774289D01*
X4405524Y4695884D01*
X4405527Y4695882D01*
X4522937Y4654799D01*
X4562751Y4622228D01*
X4573300Y4583819D01*
X4573300Y4463573D01*
X4592155Y4393199D01*
X4628586Y4330100D01*
X5030100Y3928586D01*
X5093199Y3892155D01*
X5093198Y3892155D01*
X5144717Y3878351D01*
X5163572Y3873300D01*
X5163573Y3873300D01*
X6136427Y3873300D01*
X6136428Y3873300D01*
X6177052Y3884184D01*
X6206800Y3892155D01*
X6206803Y3892156D01*
X6269898Y3928585D01*
X6643415Y4302102D01*
X6679844Y4365197D01*
X6698700Y4435572D01*
X6698700Y4508428D01*
X6698700Y4583819D01*
X6716293Y4632157D01*
X6749063Y4654799D01*
X6866472Y4695882D01*
X6866475Y4695884D01*
X6898536Y4719546D01*
X6972711Y4774289D01*
X7051116Y4880525D01*
X7094725Y5005151D01*
X7097499Y5034735D01*
X7097500Y5034738D01*
X7097500Y5715262D01*
X7097499Y5715264D01*
X7094725Y5744849D01*
X7051116Y5869475D01*
X6972711Y5975711D01*
X6866475Y6054116D01*
X6741849Y6097725D01*
X6712263Y6100499D01*
X6712262Y6100500D01*
X6712256Y6100500D01*
X6131744Y6100500D01*
X6131738Y6100500D01*
X6131735Y6100499D01*
X6102151Y6097725D01*
X6007442Y6064584D01*
X5977527Y6054117D01*
X5977526Y6054116D01*
X5977525Y6054116D01*
X5871289Y5975711D01*
X5826093Y5914472D01*
X5792884Y5869475D01*
X5792882Y5869472D01*
X5766640Y5794475D01*
X5749275Y5744849D01*
X5749274Y5744844D01*
X5749274Y5744842D01*
X5746500Y5715264D01*
X5746500Y5034735D01*
X5749274Y5005157D01*
X5749276Y5005148D01*
X5792882Y4880527D01*
X5792884Y4880524D01*
X5871289Y4774289D01*
X5977524Y4695884D01*
X5977526Y4695883D01*
X6069794Y4663597D01*
X6109608Y4631025D01*
X6119170Y4580482D01*
X6098130Y4539443D01*
X6007413Y4448726D01*
X5960793Y4426986D01*
X5954239Y4426700D01*
X5345761Y4426700D01*
X5297423Y4444293D01*
X5292598Y4448714D01*
X5194609Y4546703D01*
X5172871Y4593321D01*
X5186185Y4643008D01*
X5222948Y4670855D01*
X5294472Y4695882D01*
X5294475Y4695884D01*
X5326536Y4719546D01*
X5400711Y4774289D01*
X5479116Y4880525D01*
X5522725Y5005151D01*
X5525499Y5034735D01*
X5525500Y5034738D01*
X5525500Y5640262D01*
X5525499Y5640264D01*
X5522725Y5669849D01*
X5479116Y5794475D01*
X5400711Y5900711D01*
X5294475Y5979116D01*
X5169849Y6022725D01*
X5140263Y6025499D01*
X5140262Y6025500D01*
X5140256Y6025500D01*
X4559744Y6025500D01*
X4559738Y6025500D01*
X4559735Y6025499D01*
X4530151Y6022725D01*
X4435442Y5989584D01*
X4405527Y5979117D01*
X4405526Y5979116D01*
X4405525Y5979116D01*
X4299289Y5900711D01*
X4276234Y5869472D01*
X4220884Y5794475D01*
X4220882Y5794472D01*
X4193166Y5715262D01*
X4177275Y5669849D01*
X4177274Y5669844D01*
X4177274Y5669842D01*
X4174500Y5640264D01*
X4174500Y5034735D01*
X3993499Y5034735D01*
X3993500Y5034738D01*
X3993500Y5640262D01*
X3993499Y5640264D01*
X3990725Y5669849D01*
X3947116Y5794475D01*
X3868711Y5900711D01*
X3762475Y5979116D01*
X3637849Y6022725D01*
X3608263Y6025499D01*
X3608262Y6025500D01*
X3608256Y6025500D01*
X3027744Y6025500D01*
X3027738Y6025500D01*
X3027735Y6025499D01*
X2998151Y6022725D01*
X2903442Y5989584D01*
X2873527Y5979117D01*
X2873526Y5979116D01*
X2873525Y5979116D01*
X2767289Y5900711D01*
X2744234Y5869472D01*
X2688884Y5794475D01*
X2688882Y5794472D01*
X2661166Y5715262D01*
X2645275Y5669849D01*
X2645274Y5669844D01*
X2645274Y5669842D01*
X2642500Y5640264D01*
X2642500Y5034735D01*
X2645274Y5005157D01*
X2645276Y5005148D01*
X2688882Y4880527D01*
X2688884Y4880524D01*
X2767290Y4774287D01*
X2783390Y4762406D01*
X2811835Y4719546D01*
X2806076Y4668430D01*
X2768807Y4632975D01*
X2738735Y4626700D01*
X2295762Y4626700D01*
X2247424Y4644293D01*
X2242590Y4648724D01*
X2229226Y4662087D01*
X2207484Y4708706D01*
X2220796Y4758394D01*
X2237739Y4775766D01*
X2296711Y4819289D01*
X2375116Y4925525D01*
X2418725Y5050151D01*
X2421499Y5079735D01*
X2421500Y5079738D01*
X2421500Y5760262D01*
X2421499Y5760264D01*
X2418725Y5789849D01*
X2375116Y5914475D01*
X2296711Y6020711D01*
X2190475Y6099116D01*
X2065849Y6142725D01*
X2036263Y6145499D01*
X2036262Y6145500D01*
X2036256Y6145500D01*
X1455744Y6145500D01*
X1455738Y6145500D01*
X1455735Y6145499D01*
X1426151Y6142725D01*
X1333781Y6110403D01*
X1301527Y6099117D01*
X1301526Y6099116D01*
X1301525Y6099116D01*
X1195289Y6020711D01*
X1164592Y5979117D01*
X1116884Y5914475D01*
X1116882Y5914472D01*
X1083743Y5819766D01*
X1073275Y5789849D01*
X1073274Y5789844D01*
X1073274Y5789842D01*
X1070500Y5760264D01*
X1070500Y5079735D01*
X849500Y5079735D01*
X849500Y5640262D01*
X849499Y5640264D01*
X846725Y5669849D01*
X803116Y5794475D01*
X724711Y5900711D01*
X618475Y5979116D01*
X493849Y6022725D01*
X464263Y6025499D01*
X464262Y6025500D01*
X464256Y6025500D01*
X-116256Y6025500D01*
X-116262Y6025500D01*
X-116263Y6025499D01*
X-145849Y6022725D01*
X-270475Y5979116D01*
X-376711Y5900711D01*
X-455116Y5794475D01*
X-498725Y5669849D01*
X-501499Y5640264D01*
X-501500Y5640262D01*
X-501500Y5034738D01*
X-501499Y5034735D01*
X-498725Y5005151D01*
X-455116Y4880525D01*
X-376711Y4774289D01*
X-302536Y4719546D01*
X-270475Y4695884D01*
X-270472Y4695882D01*
X-153063Y4654799D01*
X-113249Y4622228D01*
X-102700Y4583819D01*
X-102700Y4362428D01*
X-102700Y4289572D01*
X-83844Y4219197D01*
X-47415Y4156102D01*
X-47413Y4156100D01*
X336274Y3772413D01*
X358014Y3725793D01*
X358300Y3719239D01*
X358300Y3675142D01*
X340707Y3626804D01*
X316131Y3607586D01*
X278517Y3589198D01*
X278515Y3589196D01*
X278513Y3589195D01*
X195803Y3506485D01*
X144427Y3401393D01*
X134500Y3333268D01*
X134500Y1616731D01*
X144427Y1548606D01*
X195803Y1443514D01*
X278514Y1360803D01*
X316128Y1342415D01*
X351827Y1305379D01*
X358300Y1274856D01*
X358300Y1078573D01*
X377155Y1008199D01*
X413586Y945100D01*
X553613Y805074D01*
X575353Y758454D01*
X562039Y708767D01*
X519902Y679262D01*
X500439Y676700D01*
X-4239Y676700D01*
X-52577Y694293D01*
X-57413Y698726D01*
X-336274Y977587D01*
X-358014Y1024207D01*
X-358300Y1030761D01*
X-358300Y1274856D01*
X-340707Y1323194D01*
X-316128Y1342415D01*
X-278514Y1360803D01*
X-195803Y1443514D01*
X-144427Y1548606D01*
X-134500Y1616731D01*
X-134500Y3333268D01*
X-144427Y3401393D01*
X-195803Y3506485D01*
X-278514Y3589196D01*
X-278516Y3589197D01*
X-278517Y3589198D01*
X-329636Y3614188D01*
X-365335Y3651223D01*
X-369247Y3662284D01*
X-377156Y3691801D01*
X-377156Y3691802D01*
X-413585Y3754898D01*
X-431100Y3772413D01*
X-465102Y3806415D01*
X-1059274Y4400587D01*
X-1081014Y4447207D01*
X-1081300Y4453761D01*
X-1081300Y4583819D01*
X-1063707Y4632157D01*
X-1030937Y4654799D01*
X-913527Y4695882D01*
X-913524Y4695884D01*
X-807289Y4774289D01*
X-728884Y4880524D01*
X-728882Y4880527D01*
X-685276Y5005148D01*
X-685274Y5005157D01*
X-682500Y5034735D01*
X-682500Y5640264D01*
X-685274Y5669842D01*
X-685274Y5669844D01*
X-685275Y5669849D01*
X-701166Y5715262D01*
X-728882Y5794472D01*
X-728884Y5794475D01*
X-784234Y5869472D01*
X-807289Y5900711D01*
X-913525Y5979116D01*
X-913526Y5979116D01*
X-913527Y5979117D01*
X-943442Y5989584D01*
X-1038151Y6022725D01*
X-1067735Y6025499D01*
X-1067738Y6025500D01*
X-1067744Y6025500D01*
X-1648256Y6025500D01*
X-1648262Y6025500D01*
X-1648263Y6025499D01*
X-1677849Y6022725D01*
X-1802475Y5979116D01*
X-1908711Y5900711D01*
X-1987116Y5794475D01*
X-2030725Y5669849D01*
X-2033499Y5640264D01*
X-2033500Y5640262D01*
X-2033500Y5034738D01*
X-2033499Y5034735D01*
X-2030725Y5005151D01*
X-1987116Y4880525D01*
X-1908711Y4774289D01*
X-1834536Y4719546D01*
X-1802475Y4695884D01*
X-1802472Y4695882D01*
X-1685063Y4654799D01*
X-1645249Y4622228D01*
X-1634700Y4583819D01*
X-1634700Y4344428D01*
X-1634700Y4271572D01*
X-1615844Y4201197D01*
X-1579415Y4138102D01*
X-1579413Y4138100D01*
X-1064171Y3622858D01*
X-1042431Y3576238D01*
X-1055745Y3526551D01*
X-1064166Y3516514D01*
X-1074198Y3506483D01*
X-1125573Y3401393D01*
X-1135500Y3333260D01*
X-1135500Y1616740D01*
X-1125573Y1548607D01*
X-1074198Y1443517D01*
X-1074196Y1443515D01*
X-1074196Y1443514D01*
X-991485Y1360803D01*
X-953872Y1342415D01*
X-918173Y1305379D01*
X-911700Y1274856D01*
X-911700Y921428D01*
X-911700Y848572D01*
X-892844Y778197D01*
X-856415Y715102D01*
X-856413Y715100D01*
X-593987Y452674D01*
X-572247Y406054D01*
X-585561Y356367D01*
X-627698Y326862D01*
X-647161Y324300D01*
X-2535564Y324300D01*
X-2605938Y305444D01*
X-2605943Y305441D01*
X-2627144Y293201D01*
X-2627146Y293198D01*
X-2627148Y293198D01*
X-2669034Y269015D01*
X-3866126Y-928076D01*
X-3912746Y-949816D01*
X-3962433Y-936502D01*
X-3991938Y-894365D01*
X-3994500Y-874902D01*
X-3994500Y-125210D01*
X-3995281Y-107287D01*
X-3996423Y-94239D01*
X-4023173Y-9394D01*
X-4023175Y-9389D01*
X-4048896Y35162D01*
X-4079753Y75896D01*
X-4156579Y125515D01*
X-4166323Y129061D01*
X-4204916Y143108D01*
X-4275200Y155500D01*
X-5374800Y155500D01*
X-5392704Y154719D01*
X-5405762Y153577D01*
X-5490607Y126827D01*
X-5535156Y101107D01*
X-5535158Y101104D01*
X-5535162Y101103D01*
X-5575897Y70246D01*
X-5580960Y62407D01*
X-5621963Y31346D01*
X-5673339Y33908D01*
X-5711048Y68895D01*
X-5719327Y103945D01*
X-5704423Y1616740D01*
X-2405500Y1616740D01*
X-2395573Y1548607D01*
X-2344198Y1443517D01*
X-2344196Y1443515D01*
X-2344196Y1443514D01*
X-2261485Y1360803D01*
X-2261483Y1360802D01*
X-2156393Y1309427D01*
X-2088268Y1299500D01*
X-2088260Y1299500D01*
X-1721731Y1299500D01*
X-1653606Y1309427D01*
X-1548514Y1360803D01*
X-1465803Y1443514D01*
X-1414427Y1548606D01*
X-1404500Y1616731D01*
X-1404500Y3333268D01*
X-1414427Y3401393D01*
X-1465803Y3506485D01*
X-1548514Y3589196D01*
X-1548516Y3589197D01*
X-1548517Y3589198D01*
X-1653607Y3640573D01*
X-1703536Y3647847D01*
X-1721731Y3650499D01*
X-1721736Y3650499D01*
X-1721740Y3650500D01*
X-2088260Y3650500D01*
X-2088264Y3650499D01*
X-2088268Y3650499D01*
X-2097946Y3649088D01*
X-2156393Y3640573D01*
X-2261483Y3589198D01*
X-2344198Y3506483D01*
X-2395573Y3401393D01*
X-2405500Y3333260D01*
X-2405500Y1616740D01*
X-5704423Y1616740D01*
X-5645436Y7603864D01*
X-5633916Y7643129D01*
X-5622105Y7661927D01*
X-5614390Y7677948D01*
X-5607144Y7689974D01*
X-5569429Y7741077D01*
X-5553577Y7756929D01*
X-5512391Y7787324D01*
X-5492576Y7797796D01*
X-5441188Y7815779D01*
X-5416349Y7820000D01*
X-4783649Y7820000D01*
X-4758812Y7815780D01*
X-4707426Y7797799D01*
X-4687608Y7787325D01*
X-4667634Y7772584D01*
X-4649062Y7758877D01*
X-4646331Y7756929D01*
X-4643590Y7754973D01*
X-4637057Y7750472D01*
X-4578349Y7722511D01*
X-4578340Y7722508D01*
X-4548317Y7713692D01*
X-4511307Y7702825D01*
X-4511304Y7702824D01*
X-4511299Y7702823D01*
X-4453421Y7694501D01*
X-4453412Y7694500D01*
X-4453409Y7694500D01*
X-4453405Y7694500D01*
X-3388365Y7694500D01*
X-3388361Y7694500D01*
X-3387507Y7694506D01*
X-3385364Y7694522D01*
X-3381796Y7694573D01*
X-3321225Y7704628D01*
X-3254784Y7726237D01*
X-3254775Y7726240D01*
X-3202300Y7752059D01*
X-3202290Y7752065D01*
X-2337932Y8343468D01*
X-2306595Y8369860D01*
X-2306572Y8369882D01*
X-2272293Y8405165D01*
X-2267160Y8410646D01*
X-2267153Y8410656D01*
X-2222510Y8490465D01*
X-2202825Y8557507D01*
X-2202823Y8557514D01*
X-2194501Y8615392D01*
X-2194500Y8615408D01*
X-2194500Y9198100D01*
X-2176907Y9246438D01*
X-2132358Y9272158D01*
X-2119300Y9273300D01*
X-1913573Y9273300D01*
X-1913572Y9273300D01*
X-1887816Y9280200D01*
X-1843199Y9292155D01*
X-1780100Y9328586D01*
X-1657413Y9451274D01*
X-1610793Y9473014D01*
X-1604239Y9473300D01*
X-347044Y9473300D01*
X-298706Y9455707D01*
X-272986Y9411158D01*
X-277568Y9369322D01*
X-297411Y9321416D01*
X-335044Y9230562D01*
X-355682Y9073800D01*
X-335044Y8917038D01*
X-335043Y8917036D01*
X-278562Y8780678D01*
X-276319Y8729287D01*
X-307633Y8688477D01*
X-348038Y8676700D01*
X-913572Y8676700D01*
X-1163572Y8676700D01*
X-1236428Y8676700D01*
X-1306803Y8657844D01*
X-1369898Y8621415D01*
X-1579415Y8411898D01*
X-1615844Y8348803D01*
X-1626026Y8310802D01*
X-1634700Y8278428D01*
X-1634700Y8278426D01*
X-1634700Y7916180D01*
X-1652293Y7867842D01*
X-1685060Y7845201D01*
X-1802475Y7804116D01*
X-1908711Y7725711D01*
X-1987116Y7619475D01*
X-2030725Y7494849D01*
X-2033499Y7465264D01*
X-2033500Y7465262D01*
X-2033500Y6859738D01*
X-2033499Y6859735D01*
X-2030725Y6830151D01*
X-1987116Y6705525D01*
X-1908711Y6599289D01*
X-1802475Y6520884D01*
X-1802472Y6520882D01*
X-1716741Y6490884D01*
X-1677849Y6477275D01*
X-1677844Y6477274D01*
X-1677842Y6477274D01*
X-1648264Y6474500D01*
X-1648256Y6474500D01*
X-1067735Y6474500D01*
X-1038157Y6477274D01*
X-1038153Y6477274D01*
X-1038151Y6477275D01*
X-1038148Y6477276D01*
X-913527Y6520882D01*
X-913524Y6520884D01*
X-807289Y6599289D01*
X-728884Y6705524D01*
X-728882Y6705527D01*
X-685276Y6830148D01*
X-685274Y6830157D01*
X-682500Y6859735D01*
X-682500Y7465264D01*
X-685274Y7494842D01*
X-685274Y7494844D01*
X-685275Y7494849D01*
X-723421Y7603864D01*
X-728882Y7619472D01*
X-728884Y7619475D01*
X-746341Y7643129D01*
X-807289Y7725711D01*
X-913525Y7804116D01*
X-913526Y7804116D01*
X-913527Y7804117D01*
X-949312Y7816638D01*
X-1030938Y7845201D01*
X-1070751Y7877771D01*
X-1081300Y7916180D01*
X-1081300Y8048100D01*
X-1063707Y8096438D01*
X-1019158Y8122158D01*
X-1006100Y8123300D01*
X-986428Y8123300D01*
X-177900Y8123300D01*
X-129562Y8105707D01*
X-103842Y8061158D01*
X-102700Y8048100D01*
X-102700Y7916180D01*
X-120293Y7867842D01*
X-153060Y7845201D01*
X-270475Y7804116D01*
X-376711Y7725711D01*
X-455116Y7619475D01*
X-498725Y7494849D01*
X-501499Y7465264D01*
X-501500Y7465262D01*
X-501500Y6859738D01*
X-501499Y6859735D01*
X-498725Y6830151D01*
X-455116Y6705525D01*
X-376711Y6599289D01*
X-270475Y6520884D01*
X-270472Y6520882D01*
X-184741Y6490884D01*
X-145849Y6477275D01*
X-145844Y6477274D01*
X-145842Y6477274D01*
X-116264Y6474500D01*
X-116256Y6474500D01*
X464264Y6474500D01*
X493842Y6477274D01*
X493844Y6477274D01*
X493849Y6477275D01*
X532741Y6490884D01*
X618472Y6520882D01*
X618475Y6520884D01*
X724711Y6599289D01*
X803116Y6705525D01*
X846725Y6830151D01*
X849499Y6859735D01*
X849500Y6859738D01*
X849500Y7465262D01*
X849499Y7465264D01*
X846725Y7494849D01*
X803116Y7619475D01*
X724711Y7725711D01*
X618475Y7804116D01*
X501061Y7845201D01*
X461249Y7877771D01*
X450700Y7916180D01*
X450700Y8048100D01*
X468293Y8096438D01*
X512842Y8122158D01*
X525900Y8123300D01*
X1394100Y8123300D01*
X1442438Y8105707D01*
X1468158Y8061158D01*
X1469300Y8048100D01*
X1469300Y7961180D01*
X1451707Y7912842D01*
X1418939Y7890201D01*
X1337312Y7861638D01*
X1301527Y7849117D01*
X1301526Y7849116D01*
X1301525Y7849116D01*
X1195289Y7770711D01*
X1116884Y7664475D01*
X1116882Y7664472D01*
X1095675Y7603864D01*
X1073275Y7539849D01*
X1073274Y7539844D01*
X1073274Y7539842D01*
X1070500Y7510264D01*
X1070500Y6829735D01*
X1073274Y6800157D01*
X1073276Y6800148D01*
X1116882Y6675527D01*
X1116884Y6675524D01*
X1195289Y6569289D01*
X1301524Y6490884D01*
X1301527Y6490882D01*
X1426148Y6447276D01*
X1426151Y6447275D01*
X1426153Y6447274D01*
X1426157Y6447274D01*
X1455735Y6444500D01*
X1455744Y6444500D01*
X2036264Y6444500D01*
X2065842Y6447274D01*
X2065844Y6447274D01*
X2065849Y6447275D01*
X2095766Y6457743D01*
X2190472Y6490882D01*
X2190475Y6490884D01*
X2231124Y6520884D01*
X2296711Y6569289D01*
X2375116Y6675525D01*
X2418725Y6800151D01*
X2421499Y6829735D01*
X2421500Y6829738D01*
X2421500Y7510262D01*
X2421499Y7510264D01*
X2418725Y7539849D01*
X2375116Y7664475D01*
X2296711Y7770711D01*
X2190475Y7849116D01*
X2073061Y7890201D01*
X2033249Y7922771D01*
X2022700Y7961180D01*
X2022700Y8240426D01*
X2022700Y8240428D01*
X2012519Y8278428D01*
X2007318Y8297840D01*
X2003845Y8310798D01*
X2003844Y8310803D01*
X1967415Y8373898D01*
X1719898Y8621415D01*
X1656803Y8657844D01*
X1586428Y8676700D01*
X1586427Y8676700D01*
X848038Y8676700D01*
X799700Y8694293D01*
X773980Y8738842D01*
X778562Y8780678D01*
X835043Y8917036D01*
X835044Y8917038D01*
X855682Y9073800D01*
X835044Y9230562D01*
X797411Y9321416D01*
X777568Y9369322D01*
X775325Y9420713D01*
X806639Y9461523D01*
X847044Y9473300D01*
X3262524Y9473300D01*
X3310862Y9455707D01*
X3336582Y9411158D01*
X3327649Y9360500D01*
X3300125Y9332976D01*
X3280103Y9321416D01*
X3280102Y9321415D01*
X3096585Y9137898D01*
X3060156Y9074803D01*
X3060155Y9074800D01*
X3048179Y9030102D01*
X3041300Y9004427D01*
X3041300Y7916180D01*
X3023707Y7867842D01*
X2990939Y7845201D01*
X2909312Y7816638D01*
X2873527Y7804117D01*
X2873526Y7804116D01*
X2873525Y7804116D01*
X2767289Y7725711D01*
X2706341Y7643129D01*
X2688884Y7619475D01*
X2688882Y7619472D01*
X2683421Y7603864D01*
X2645275Y7494849D01*
X2645274Y7494844D01*
X2645274Y7494842D01*
X2642500Y7465264D01*
X2642500Y6859735D01*
X2645274Y6830157D01*
X2645276Y6830148D01*
X2688882Y6705527D01*
X2688884Y6705524D01*
X2767289Y6599289D01*
X2873524Y6520884D01*
X2873527Y6520882D01*
X2998148Y6477276D01*
X2998151Y6477275D01*
X2998153Y6477274D01*
X2998157Y6477274D01*
X3027735Y6474500D01*
X3027744Y6474500D01*
X3608264Y6474500D01*
X3637842Y6477274D01*
X3637844Y6477274D01*
X3637849Y6477275D01*
X3676741Y6490884D01*
X3762472Y6520882D01*
X3762475Y6520884D01*
X3868711Y6599289D01*
X3947116Y6705525D01*
X3990725Y6830151D01*
X3993499Y6859735D01*
X3993500Y6859738D01*
X3993500Y7465262D01*
X3993499Y7465264D01*
X3990725Y7494849D01*
X3947116Y7619475D01*
X3868711Y7725711D01*
X3762475Y7804116D01*
X3645061Y7845201D01*
X3605249Y7877771D01*
X3594700Y7916180D01*
X3594700Y8577805D01*
X3612293Y8626143D01*
X3656842Y8651863D01*
X3707500Y8642930D01*
X3710555Y8641068D01*
X3789948Y8590046D01*
X3928036Y8549500D01*
X3928039Y8549500D01*
X4071963Y8549500D01*
X4210051Y8590046D01*
X4249491Y8615392D01*
X4331125Y8667855D01*
X4331127Y8667856D01*
X4425375Y8776624D01*
X4425379Y8776630D01*
X4429697Y8786084D01*
X4465781Y8822744D01*
X4516988Y8827632D01*
X4559357Y8798462D01*
X4573300Y8754843D01*
X4573300Y7916180D01*
X4555707Y7867842D01*
X4522939Y7845201D01*
X4441312Y7816638D01*
X4405527Y7804117D01*
X4405526Y7804116D01*
X4405525Y7804116D01*
X4299289Y7725711D01*
X4238341Y7643129D01*
X4220884Y7619475D01*
X4220882Y7619472D01*
X4215421Y7603864D01*
X4177275Y7494849D01*
X4177274Y7494844D01*
X4177274Y7494842D01*
X4174500Y7465264D01*
X4174500Y6859735D01*
X4177274Y6830157D01*
X4177276Y6830148D01*
X4220882Y6705527D01*
X4220884Y6705524D01*
X4299289Y6599289D01*
X4405524Y6520884D01*
X4405527Y6520882D01*
X4530148Y6477276D01*
X4530151Y6477275D01*
X4530153Y6477274D01*
X4530157Y6477274D01*
X4559735Y6474500D01*
X4559744Y6474500D01*
X5140264Y6474500D01*
X5169842Y6477274D01*
X5169844Y6477274D01*
X5169849Y6477275D01*
X5208741Y6490884D01*
X5294472Y6520882D01*
X5294475Y6520884D01*
X5400711Y6599289D01*
X5479116Y6705525D01*
X5519430Y6820735D01*
X10049500Y6820735D01*
X10052353Y6790301D01*
X10097205Y6662120D01*
X10097207Y6662117D01*
X10177850Y6552850D01*
X10287117Y6472207D01*
X10287120Y6472205D01*
X10415299Y6427355D01*
X10415302Y6427354D01*
X10415304Y6427353D01*
X10415308Y6427353D01*
X10445728Y6424500D01*
X10445735Y6424500D01*
X13054264Y6424500D01*
X13084698Y6427353D01*
X13212879Y6472205D01*
X13212882Y6472207D01*
X13238186Y6490882D01*
X13322150Y6552850D01*
X13402793Y6662118D01*
X13447646Y6790302D01*
X13450500Y6820735D01*
X13450499Y8529264D01*
X13447646Y8559698D01*
X13402793Y8687882D01*
X13322150Y8797150D01*
X13212882Y8877793D01*
X13084698Y8922646D01*
X13054265Y8925500D01*
X10445736Y8925499D01*
X10445735Y8925499D01*
X10415301Y8922646D01*
X10287120Y8877794D01*
X10287119Y8877793D01*
X10287118Y8877793D01*
X10177850Y8797150D01*
X10145603Y8753456D01*
X10097207Y8687882D01*
X10097205Y8687879D01*
X10071846Y8615405D01*
X10052354Y8559698D01*
X10052353Y8559693D01*
X10052353Y8559691D01*
X10049500Y8529272D01*
X10049500Y6820735D01*
X5519430Y6820735D01*
X5522725Y6830151D01*
X5525499Y6859735D01*
X5525500Y6859738D01*
X5525500Y7465262D01*
X5525499Y7465264D01*
X5522725Y7494849D01*
X5479116Y7619475D01*
X5400711Y7725711D01*
X5294475Y7804116D01*
X5177061Y7845201D01*
X5137249Y7877771D01*
X5126700Y7916180D01*
X5126700Y9236426D01*
X5126700Y9236428D01*
X5107844Y9306802D01*
X5071415Y9369898D01*
X5019898Y9421415D01*
X4469898Y9971415D01*
X4406803Y10007844D01*
X4336428Y10026700D01*
X-1613572Y10026700D01*
X-1713572Y10026700D01*
X-1786428Y10026700D01*
X-1856803Y10007844D01*
X-1919898Y9971415D01*
X-1989413Y9901900D01*
X-2042587Y9848726D01*
X-2089207Y9826986D01*
X-2095761Y9826700D01*
X-2119300Y9826700D01*
X-2167638Y9844293D01*
X-2193358Y9888842D01*
X-2194500Y9901900D01*
X-2194500Y10226004D01*
X-2199194Y10269667D01*
X-2199199Y10269694D01*
X-2210397Y10321171D01*
X-2212889Y10331370D01*
X-2212889Y10331371D01*
X-2212890Y10331373D01*
X-2255900Y10412085D01*
X-2272080Y10430758D01*
X-2301656Y10464891D01*
X-2301662Y10464897D01*
X-2319241Y10482839D01*
X-2319243Y10482840D01*
X-2319246Y10482843D01*
X-2376738Y10515002D01*
X-2399062Y10527490D01*
X-2414279Y10531957D01*
X-2466102Y10547175D01*
X-2524000Y10555500D01*
X-5476000Y10555500D01*
X-5509538Y10551893D01*
X-5519667Y10550805D01*
X-5519669Y10550804D01*
X-5519684Y10550803D01*
X-5571195Y10539597D01*
X-5581373Y10537110D01*
X-5655434Y10497644D01*
X-5665812Y10492114D01*
X-5666565Y10493527D01*
X-5710512Y10482161D01*
X-5740014Y10491383D01*
X-5784191Y10516095D01*
X-5804562Y10527490D01*
X-5819779Y10531957D01*
X-5871602Y10547175D01*
X-5929500Y10555500D01*
X-9426000Y10555500D01*
X-9459538Y10551893D01*
X-9469667Y10550805D01*
X-9469669Y10550804D01*
X-9469684Y10550803D01*
X-9521195Y10539597D01*
X-9531373Y10537110D01*
X-9612085Y10494100D01*
X-9664889Y10448345D01*
X-9682843Y10430754D01*
X-9727490Y10350937D01*
X-9747175Y10283898D01*
X-9755500Y10226000D01*
X-9755500Y6424000D01*
X-9750803Y6380316D01*
X-9739597Y6328805D01*
X-9737110Y6318627D01*
X-9694100Y6237915D01*
X-9694099Y6237914D01*
X-9648343Y6185108D01*
X-9648337Y6185102D01*
X-9630758Y6167160D01*
X-9630755Y6167158D01*
X-9630754Y6167157D01*
X-9592037Y6145500D01*
X-9550937Y6122509D01*
X-9509706Y6110403D01*
X-9483898Y6102825D01*
X-9483895Y6102824D01*
X-9483890Y6102823D01*
X-9426012Y6094501D01*
X-9426003Y6094500D01*
X-9426000Y6094500D01*
X-9425996Y6094500D01*
X-7723995Y6094500D01*
X-7680332Y6099194D01*
X-7680315Y6099197D01*
X-7646683Y6106513D01*
X-7595711Y6099595D01*
X-7561110Y6061531D01*
X-7555500Y6033031D01*
X-7555500Y5350505D01*
X-7572590Y5302774D01*
X-8091667Y4670855D01*
X-8614060Y4034898D01*
X-8630613Y4014747D01*
X-8637942Y4005275D01*
X-8646439Y3993606D01*
X-8677490Y3930537D01*
X-8697175Y3863498D01*
X-8705500Y3805600D01*
X-8705500Y-1704129D01*
X-8705015Y-1718238D01*
X-8703846Y-1735225D01*
X-8703845Y-1735227D01*
X-8703845Y-1735231D01*
X-8695031Y-1770351D01*
X-8686217Y-1805478D01*
X-8657534Y-1869189D01*
X-8626175Y-1918565D01*
X-7206813Y-3574485D01*
X-7186945Y-3597664D01*
X-7174021Y-3619177D01*
X-6754355Y-4690666D01*
X-6752210Y-4695927D01*
X-6750409Y-4700175D01*
X-6749544Y-4702216D01*
X-6749542Y-4702219D01*
X-6725926Y-4740100D01*
X-6715648Y-4756585D01*
X-6669893Y-4809389D01*
X-6652302Y-4827343D01*
X-6642514Y-4832816D01*
X-6637491Y-4835892D01*
X-6567255Y-4882823D01*
X-6524766Y-4891274D01*
X-6503523Y-4895500D01*
X-6503522Y-4895500D01*
X-6484220Y-4895500D01*
X-6473517Y-4896265D01*
X-6447548Y-4900000D01*
X-6447544Y-4900000D01*
X-6074506Y-4900000D01*
X-6074500Y-4900000D01*
X-6036655Y-4895930D01*
X-6028618Y-4895500D01*
X-6026477Y-4895500D01*
X-5994611Y-4889161D01*
X-5962745Y-4882823D01*
X-5931753Y-4862114D01*
X-5925348Y-4858281D01*
X-5888416Y-4838601D01*
X-5888415Y-4838600D01*
X-5835608Y-4792843D01*
X-5835602Y-4792837D01*
X-5817660Y-4775258D01*
X-5817658Y-4775255D01*
X-5817657Y-4775254D01*
X-5778365Y-4705011D01*
X-5773009Y-4695437D01*
X-5753325Y-4628397D01*
X-5753323Y-4628390D01*
X-5745001Y-4570512D01*
X-5745000Y-4570496D01*
X-5745000Y-4323837D01*
X-5727407Y-4275499D01*
X-5682858Y-4249779D01*
X-5656741Y-4249779D01*
X-5624302Y-4255499D01*
X-5624302Y-4255500D01*
X-5624300Y-4255500D01*
X-5575709Y-4255500D01*
X-5575699Y-4255500D01*
X-5557796Y-4254719D01*
X-5544737Y-4253577D01*
X-5491190Y-4236693D01*
X-5483276Y-4234665D01*
X-5426647Y-4223403D01*
X-5426644Y-4223401D01*
X-5419381Y-4221957D01*
X-5419003Y-4223857D01*
X-5380662Y-4222185D01*
X-5380617Y-4221958D01*
X-5379689Y-4222142D01*
X-5377384Y-4222042D01*
X-5373997Y-4223274D01*
X-5373354Y-4223401D01*
X-5373353Y-4223403D01*
X-5312537Y-4235500D01*
X-5087464Y-4235499D01*
X-5026647Y-4223403D01*
X-5026646Y-4223402D01*
X-5019383Y-4221958D01*
X-5019005Y-4223857D01*
X-4980662Y-4222185D01*
X-4980617Y-4221958D01*
X-4979689Y-4222142D01*
X-4977384Y-4222042D01*
X-4973997Y-4223274D01*
X-4973354Y-4223401D01*
X-4973353Y-4223403D01*
X-4912537Y-4235500D01*
X-4687464Y-4235499D01*
X-4626647Y-4223403D01*
X-4626646Y-4223402D01*
X-4619383Y-4221958D01*
X-4619005Y-4223857D01*
X-4580662Y-4222185D01*
X-4580617Y-4221958D01*
X-4579689Y-4222142D01*
X-4577384Y-4222042D01*
X-4573997Y-4223274D01*
X-4573354Y-4223401D01*
X-4573353Y-4223403D01*
X-4512537Y-4235500D01*
X-4287464Y-4235499D01*
X-4254200Y-4228883D01*
X-4203360Y-4236708D01*
X-4198759Y-4239450D01*
X-4142921Y-4275515D01*
X-4094583Y-4293108D01*
X-4024300Y-4305500D01*
X-3975709Y-4305500D01*
X-3975699Y-4305500D01*
X-3957795Y-4304719D01*
X-3944737Y-4303577D01*
X-3859892Y-4276827D01*
X-3815343Y-4251107D01*
X-3815335Y-4251101D01*
X-3813390Y-4249811D01*
X-3812832Y-4250651D01*
X-3766895Y-4236491D01*
X-3719498Y-4256481D01*
X-3696039Y-4302260D01*
X-3707495Y-4352408D01*
X-3708131Y-4353376D01*
X-3757821Y-4427741D01*
X-3757822Y-4427743D01*
X-3757823Y-4427745D01*
X-3770500Y-4491478D01*
X-3770500Y-4698522D01*
X-3769765Y-4702219D01*
X-3765927Y-4721510D01*
X-3773752Y-4772352D01*
X-3776511Y-4776979D01*
X-3825015Y-4852079D01*
X-3825016Y-4852082D01*
X-3842456Y-4900000D01*
X-3842608Y-4900417D01*
X-3855000Y-4970700D01*
X-3855000Y-5419300D01*
X-3854219Y-5437204D01*
X-3853077Y-5450262D01*
X-3826327Y-5535107D01*
X-3800607Y-5579656D01*
X-3779548Y-5607456D01*
X-3764385Y-5656609D01*
X-3765736Y-5667528D01*
X-3770500Y-5691478D01*
X-3770500Y-5898522D01*
X-3762582Y-5938331D01*
X-3761022Y-5946170D01*
X-3768847Y-5997011D01*
X-3782150Y-6014557D01*
X-3782343Y-6014746D01*
X-3826990Y-6094563D01*
X-3845026Y-6155986D01*
X-3875524Y-6197408D01*
X-3917179Y-6209999D01*
X-4375494Y-6209999D01*
X-4375503Y-6210000D01*
X-4419170Y-6214695D01*
X-4419174Y-6214695D01*
X-4419184Y-6214697D01*
X-4470696Y-6225903D01*
X-4470704Y-6225904D01*
X-4470718Y-6225908D01*
X-4480873Y-6228389D01*
X-4480877Y-6228391D01*
X-4561587Y-6271400D01*
X-4614393Y-6317156D01*
X-4614399Y-6317162D01*
X-4621788Y-6324402D01*
X-4632347Y-6334748D01*
X-4640211Y-6348807D01*
X-4641224Y-6350618D01*
X-4644316Y-6355668D01*
X-4688403Y-6421647D01*
X-4700500Y-6482463D01*
X-4700499Y-6502265D01*
X-4700499Y-6502814D01*
X-4701264Y-6513518D01*
X-4705001Y-6539500D01*
X-4705000Y-6752361D01*
X-4705000Y-6943289D01*
X-4711931Y-6974824D01*
X-4727490Y-7008505D01*
X-4747175Y-7075544D01*
X-4755500Y-7133442D01*
X-4755500Y-7498638D01*
X-4754322Y-7520607D01*
X-4751488Y-7546965D01*
X-4727529Y-7623482D01*
X-4694044Y-7684805D01*
X-4658991Y-7731630D01*
X-4487928Y-7902692D01*
X-4327526Y-8063095D01*
X-4305786Y-8109715D01*
X-4305500Y-8116269D01*
X-4305500Y-8898638D01*
X-4304322Y-8920607D01*
X-4301488Y-8946965D01*
X-4277529Y-9023482D01*
X-4244044Y-9084805D01*
X-4208991Y-9131629D01*
X-4044206Y-9296414D01*
X-4033194Y-9307426D01*
X-4011455Y-9354046D01*
X-4024769Y-9403733D01*
X-4066906Y-9433238D01*
X-4086369Y-9435800D01*
X-5841739Y-9435800D01*
X-5890077Y-9418207D01*
X-5894913Y-9413774D01*
X-6401274Y-8907413D01*
X-6423014Y-8860793D01*
X-6423300Y-8854239D01*
X-6423300Y-8395761D01*
X-6405707Y-8347423D01*
X-6401274Y-8342587D01*
X-6357413Y-8298726D01*
X-6310793Y-8276986D01*
X-6304239Y-8276700D01*
X-5515205Y-8276700D01*
X-5515204Y-8276700D01*
X-5444829Y-8257844D01*
X-5381734Y-8221415D01*
X-4978585Y-7818266D01*
X-4942156Y-7755171D01*
X-4942113Y-7755013D01*
X-4935849Y-7731630D01*
X-4923300Y-7684796D01*
X-4923300Y-7611940D01*
X-4923300Y-7078680D01*
X-4913286Y-7045673D01*
X-4914432Y-7045199D01*
X-4911597Y-7038355D01*
X-4899500Y-6977537D01*
X-4899500Y-6482464D01*
X-4899501Y-6482462D01*
X-4911597Y-6421647D01*
X-4957680Y-6352680D01*
X-5026646Y-6306597D01*
X-5026648Y-6306596D01*
X-5087462Y-6294500D01*
X-5312535Y-6294500D01*
X-5312537Y-6294501D01*
X-5332753Y-6298522D01*
X-5373353Y-6306597D01*
X-5380617Y-6308042D01*
X-5380994Y-6306142D01*
X-5419337Y-6307811D01*
X-5419383Y-6308042D01*
X-5420327Y-6307854D01*
X-5422622Y-6307954D01*
X-5425994Y-6306726D01*
X-5487462Y-6294500D01*
X-5712535Y-6294500D01*
X-5712540Y-6294501D01*
X-5734858Y-6298940D01*
X-5785699Y-6291114D01*
X-5819615Y-6252438D01*
X-5823880Y-6222583D01*
X-5824500Y-6222583D01*
X-5824500Y-6175210D01*
X-5825281Y-6157287D01*
X-5826423Y-6144238D01*
X-5827225Y-6140206D01*
X-5826848Y-6140131D01*
X-5829500Y-6122904D01*
X-5829500Y-6091477D01*
X-5842177Y-6027741D01*
X-5842932Y-6025920D01*
X-5843041Y-6023397D01*
X-5843622Y-6020481D01*
X-5843172Y-6020391D01*
X-5845171Y-5974528D01*
X-5842932Y-5968377D01*
X-5840140Y-5961634D01*
X-5840138Y-5961628D01*
X-5824500Y-5883004D01*
X-5824500Y-5706995D01*
X-5840138Y-5628371D01*
X-5840139Y-5628365D01*
X-5842933Y-5621620D01*
X-5845171Y-5570229D01*
X-5842932Y-5564079D01*
X-5842177Y-5562257D01*
X-5829500Y-5498522D01*
X-5829500Y-5449738D01*
X-5828358Y-5436680D01*
X-5825918Y-5422841D01*
X-5824500Y-5414800D01*
X-5824500Y-5370700D01*
X-5825281Y-5352796D01*
X-5825281Y-5352787D01*
X-5826423Y-5339738D01*
X-5827225Y-5335706D01*
X-5826848Y-5335631D01*
X-5829500Y-5318404D01*
X-5829500Y-5291477D01*
X-5842176Y-5227746D01*
X-5842178Y-5227741D01*
X-5890469Y-5155469D01*
X-5962741Y-5107178D01*
X-5962746Y-5107176D01*
X-6026477Y-5094500D01*
X-6026478Y-5094500D01*
X-6073097Y-5094500D01*
X-6086154Y-5093358D01*
X-6105200Y-5090000D01*
X-6477552Y-5090000D01*
X-6488585Y-5089186D01*
X-6503722Y-5086940D01*
X-6503758Y-5086936D01*
X-6503758Y-5086935D01*
X-6503765Y-5086935D01*
X-6518436Y-5085490D01*
X-6518445Y-5085489D01*
X-6518451Y-5085489D01*
X-6538548Y-5084500D01*
X-6538579Y-5084500D01*
X-6774423Y-5084500D01*
X-6822761Y-5066907D01*
X-6838192Y-5049156D01*
X-7633639Y-3776439D01*
X-7633658Y-3776411D01*
X-7652812Y-3750529D01*
X-7668257Y-3732760D01*
X-7676228Y-3724107D01*
X-7676234Y-3724102D01*
X-7753057Y-3674485D01*
X-7753061Y-3674483D01*
X-7801395Y-3656891D01*
X-7871679Y-3644500D01*
X-9448852Y-3644500D01*
X-9448857Y-3644500D01*
X-9457825Y-3644695D01*
X-9464357Y-3644980D01*
X-9464362Y-3644980D01*
X-9464365Y-3644981D01*
X-9464369Y-3644982D01*
X-9542251Y-3664039D01*
X-9542254Y-3664040D01*
X-9542256Y-3664041D01*
X-9588876Y-3685781D01*
X-9588877Y-3685782D01*
X-9588880Y-3685784D01*
X-9647330Y-3726711D01*
X-9647336Y-3726716D01*
X-9753284Y-3832664D01*
X-9759459Y-3839113D01*
X-9763892Y-3843949D01*
X-9763894Y-3843953D01*
X-9763896Y-3843955D01*
X-9805514Y-3912524D01*
X-9819264Y-3950304D01*
X-9823108Y-3960865D01*
X-9835500Y-4031148D01*
X-9835500Y-4968623D01*
X-14250000Y-4968623D01*
X-14250000Y-995735D01*
X-13350500Y-995735D01*
X-13350499Y-2704264D01*
X-13347646Y-2734698D01*
X-13302793Y-2862882D01*
X-13222150Y-2972150D01*
X-13112882Y-3052793D01*
X-12984698Y-3097646D01*
X-12954265Y-3100500D01*
X-10345736Y-3100499D01*
X-10345735Y-3100499D01*
X-10315301Y-3097646D01*
X-10187120Y-3052794D01*
X-10187117Y-3052792D01*
X-10168909Y-3039354D01*
X-10077850Y-2972150D01*
X-9997207Y-2862882D01*
X-9997205Y-2862879D01*
X-9952355Y-2734700D01*
X-9952354Y-2734698D01*
X-9952353Y-2734691D01*
X-9949500Y-2704272D01*
X-9949500Y-995735D01*
X-9952353Y-965301D01*
X-9997205Y-837120D01*
X-9997207Y-837117D01*
X-10077850Y-727850D01*
X-10187117Y-647207D01*
X-10187120Y-647205D01*
X-10315299Y-602355D01*
X-10315299Y-602354D01*
X-10315302Y-602354D01*
X-10315304Y-602353D01*
X-10315308Y-602353D01*
X-10345727Y-599500D01*
X-12954264Y-599500D01*
X-12984698Y-602353D01*
X-13112879Y-647205D01*
X-13112882Y-647207D01*
X-13222150Y-727850D01*
X-13302793Y-837118D01*
X-13347646Y-965302D01*
X-13350500Y-995735D01*
X-14250000Y-995735D01*
X-14250000Y3754265D01*
X-13350500Y3754265D01*
X-13350499Y2856524D01*
X-13350499Y2045735D01*
X-13347646Y2015301D01*
X-13308368Y1903050D01*
X-13302793Y1887118D01*
X-13222150Y1777850D01*
X-13135422Y1713842D01*
X-13112882Y1697207D01*
X-13112879Y1697205D01*
X-13015480Y1663125D01*
X-12984698Y1652354D01*
X-12984693Y1652353D01*
X-12984691Y1652353D01*
X-12954272Y1649500D01*
X-12954265Y1649500D01*
X-10345735Y1649500D01*
X-10315301Y1652353D01*
X-10187120Y1697205D01*
X-10187117Y1697207D01*
X-10077850Y1777850D01*
X-9997207Y1887117D01*
X-9997205Y1887120D01*
X-9952355Y2015299D01*
X-9952354Y2015299D01*
X-9952354Y2015302D01*
X-9950098Y2039354D01*
X-9949500Y2045727D01*
X-9949500Y3754264D01*
X-9952353Y3784698D01*
X-9997205Y3912879D01*
X-9997207Y3912882D01*
X-10008797Y3928586D01*
X-10077850Y4022150D01*
X-10187118Y4102793D01*
X-10187119Y4102793D01*
X-10187120Y4102794D01*
X-10217890Y4113560D01*
X-10315302Y4147646D01*
X-10345735Y4150500D01*
X-12954264Y4150499D01*
X-12984698Y4147646D01*
X-13112882Y4102793D01*
X-13222150Y4022150D01*
X-13302793Y3912882D01*
X-13347646Y3784698D01*
X-13350500Y3754265D01*
X-14250000Y3754265D01*
X-14250000Y10104265D01*
X-13350500Y10104265D01*
X-13350499Y9246438D01*
X-13350499Y8395735D01*
X-13347646Y8365301D01*
X-13303951Y8240426D01*
X-13302793Y8237118D01*
X-13222150Y8127850D01*
X-13170034Y8089387D01*
X-13112882Y8047207D01*
X-13112879Y8047205D01*
X-13015470Y8013121D01*
X-12984698Y8002354D01*
X-12984693Y8002353D01*
X-12984691Y8002353D01*
X-12954272Y7999500D01*
X-12954265Y7999500D01*
X-10345735Y7999500D01*
X-10315301Y8002353D01*
X-10187120Y8047205D01*
X-10187117Y8047207D01*
X-10077850Y8127850D01*
X-9997207Y8237117D01*
X-9997205Y8237120D01*
X-9952355Y8365299D01*
X-9952354Y8365299D01*
X-9952354Y8365302D01*
X-9952353Y8365308D01*
X-9949500Y8395727D01*
X-9949500Y10104264D01*
X-9952353Y10134698D01*
X-9997205Y10262879D01*
X-9997207Y10262882D01*
X-10002227Y10269684D01*
X-10077850Y10372150D01*
X-10187118Y10452793D01*
X-10187119Y10452793D01*
X-10187120Y10452794D01*
X-10221687Y10464889D01*
X-10315302Y10497646D01*
X-10345735Y10500500D01*
X-12954264Y10500499D01*
X-12984698Y10497646D01*
X-13112882Y10452793D01*
X-13222150Y10372150D01*
X-13302793Y10262882D01*
X-13347646Y10134698D01*
X-13350500Y10104265D01*
X-14250000Y10104265D01*
X-14250000Y13000000D01*
X-13252579Y13000000D01*
X-13232056Y12798182D01*
X-13171327Y12604627D01*
X-13072880Y12427259D01*
X-13072878Y12427256D01*
X-13072876Y12427253D01*
X-13072875Y12427252D01*
X-12940747Y12273342D01*
X-12940737Y12273333D01*
X-12780333Y12149171D01*
X-12780329Y12149169D01*
X-12780328Y12149168D01*
X-12598201Y12059830D01*
X-12598193Y12059828D01*
X-12401824Y12008984D01*
X-12401819Y12008983D01*
X-12401818Y12008983D01*
X-12401816Y12008982D01*
X-12401810Y12008982D01*
X-12199226Y11998707D01*
X-12098960Y12014067D01*
X-11998701Y12029427D01*
X-11998700Y12029427D01*
X-11998695Y12029428D01*
X-11808473Y12099878D01*
X-11636316Y12207184D01*
X-11489288Y12346944D01*
X-11489285Y12346947D01*
X-11373398Y12513447D01*
X-11293400Y12699864D01*
X-11293400Y12699865D01*
X-11252564Y12898576D01*
X-11250000Y13000000D01*
X-11252564Y13101423D01*
X-11273196Y13201818D01*
X-11293400Y13300135D01*
X-11373398Y13486552D01*
X-11489285Y13653052D01*
X-11489288Y13653055D01*
X-11636316Y13792815D01*
X-11729389Y13850828D01*
X-11808470Y13900120D01*
X-11916612Y13940171D01*
X-11998695Y13970571D01*
X-11998696Y13970571D01*
X-11998701Y13970573D01*
X-12199220Y14001292D01*
X-12401818Y13991017D01*
X-12598201Y13940170D01*
X-12780328Y13850832D01*
X-12940743Y13726662D01*
X-13072880Y13572741D01*
X-13171327Y13395373D01*
X-13232056Y13201818D01*
X-13252579Y13000000D01*
X-14250000Y13000000D01*
X-14250000Y14924800D01*
X-14232407Y14973138D01*
X-14187858Y14998858D01*
X-14174800Y15000000D01*
X-10325200Y15000000D01*
X-10276862Y14982407D01*
G37*
%TD.AperFunction*%
%TD*%
%TA.AperFunction,Conductor*%
%TO.N,/Vin_Protected*%
G36*
X-2456961Y10330315D02*
G01*
X-2411206Y10277511D01*
X-2400000Y10226000D01*
X-2400000Y8615405D01*
X-2419685Y8548366D01*
X-2453979Y8513067D01*
X-3236302Y7977793D01*
X-3318340Y7921662D01*
X-3384784Y7900052D01*
X-3388361Y7900000D01*
X-4453409Y7900000D01*
X-4520448Y7919685D01*
X-4527032Y7924222D01*
X-4599618Y7977793D01*
X-4663082Y8000000D01*
X-4727799Y8022646D01*
X-4758230Y8025500D01*
X-4758234Y8025500D01*
X-5441766Y8025500D01*
X-5441770Y8025500D01*
X-5472199Y8022646D01*
X-5472201Y8022646D01*
X-5536290Y8000219D01*
X-5600382Y7977793D01*
X-5709650Y7897150D01*
X-5790293Y7787882D01*
X-5796111Y7771254D01*
X-5825471Y7724528D01*
X-5850000Y7700000D01*
X-5937677Y-1199232D01*
X-5937708Y-1201031D01*
X-5950000Y-1700000D01*
X-5933347Y-4197946D01*
X-5938518Y-4224385D01*
X-5936485Y-4224790D01*
X-5950499Y-4295247D01*
X-5950500Y-4295249D01*
X-5950500Y-4570500D01*
X-5970185Y-4637539D01*
X-6022989Y-4683294D01*
X-6074500Y-4694500D01*
X-6447548Y-4694500D01*
X-6514587Y-4674815D01*
X-6560342Y-4622011D01*
X-6563008Y-4615722D01*
X-7000000Y-3499999D01*
X-8470148Y-1784827D01*
X-8498831Y-1721116D01*
X-8500000Y-1704129D01*
X-8500000Y3805600D01*
X-8480315Y3872639D01*
X-8471818Y3884308D01*
X-7350000Y5250000D01*
X-7350000Y7512456D01*
X-7330315Y7579495D01*
X-7329174Y7581239D01*
X-6886811Y8244783D01*
X-6833246Y8289644D01*
X-6783637Y8300000D01*
X-6099999Y8300000D01*
X-5600000Y8799999D01*
X-5600000Y10226000D01*
X-5580315Y10293039D01*
X-5527511Y10338794D01*
X-5476000Y10350000D01*
X-2524000Y10350000D01*
X-2456961Y10330315D01*
G37*
%TD.AperFunction*%
%TD*%
%TA.AperFunction,Conductor*%
%TO.N,Net-(J1-Pin_1)*%
G36*
X-5862461Y10330315D02*
G01*
X-5816706Y10277511D01*
X-5805500Y10226000D01*
X-5805500Y8936481D01*
X-5825185Y8869442D01*
X-5841819Y8848800D01*
X-6148800Y8541819D01*
X-6210123Y8508334D01*
X-6236481Y8505500D01*
X-6783638Y8505500D01*
X-6789920Y8504851D01*
X-6825630Y8501164D01*
X-6875239Y8490808D01*
X-6883768Y8488837D01*
X-6965191Y8447190D01*
X-7018756Y8402329D01*
X-7057797Y8358774D01*
X-7057800Y8358769D01*
X-7057804Y8358764D01*
X-7270908Y8039107D01*
X-7274861Y8033518D01*
X-7600000Y7600000D01*
X-7600000Y7599999D01*
X-7600000Y6424000D01*
X-7619685Y6356961D01*
X-7672489Y6311206D01*
X-7724000Y6300000D01*
X-9426000Y6300000D01*
X-9493039Y6319685D01*
X-9538794Y6372489D01*
X-9550000Y6424000D01*
X-9550000Y10226000D01*
X-9530315Y10293039D01*
X-9477511Y10338794D01*
X-9426000Y10350000D01*
X-5929500Y10350000D01*
X-5862461Y10330315D01*
G37*
%TD.AperFunction*%
%TD*%
M02*
