%TF.GenerationSoftware,KiCad,Pcbnew,8.0.1*%
%TF.CreationDate,2024-05-05T22:16:20+02:00*%
%TF.ProjectId,pro_micro,70726f5f-6d69-4637-926f-2e6b69636164,rev?*%
%TF.SameCoordinates,Original*%
%TF.FileFunction,Soldermask,Top*%
%TF.FilePolarity,Negative*%
%FSLAX46Y46*%
G04 Gerber Fmt 4.6, Leading zero omitted, Abs format (unit mm)*
G04 Created by KiCad (PCBNEW 8.0.1) date 2024-05-05 22:16:20*
%MOMM*%
%LPD*%
G01*
G04 APERTURE LIST*
G04 Aperture macros list*
%AMRoundRect*
0 Rectangle with rounded corners*
0 $1 Rounding radius*
0 $2 $3 $4 $5 $6 $7 $8 $9 X,Y pos of 4 corners*
0 Add a 4 corners polygon primitive as box body*
4,1,4,$2,$3,$4,$5,$6,$7,$8,$9,$2,$3,0*
0 Add four circle primitives for the rounded corners*
1,1,$1+$1,$2,$3*
1,1,$1+$1,$4,$5*
1,1,$1+$1,$6,$7*
1,1,$1+$1,$8,$9*
0 Add four rect primitives between the rounded corners*
20,1,$1+$1,$2,$3,$4,$5,0*
20,1,$1+$1,$4,$5,$6,$7,0*
20,1,$1+$1,$6,$7,$8,$9,0*
20,1,$1+$1,$8,$9,$2,$3,0*%
G04 Aperture macros list end*
%ADD10C,0.010000*%
%ADD11RoundRect,0.237500X0.300000X0.237500X-0.300000X0.237500X-0.300000X-0.237500X0.300000X-0.237500X0*%
%ADD12RoundRect,0.250000X-0.325000X-0.450000X0.325000X-0.450000X0.325000X0.450000X-0.325000X0.450000X0*%
%ADD13RoundRect,0.237500X-0.237500X0.250000X-0.237500X-0.250000X0.237500X-0.250000X0.237500X0.250000X0*%
%ADD14RoundRect,0.150000X0.150000X-0.825000X0.150000X0.825000X-0.150000X0.825000X-0.150000X-0.825000X0*%
%ADD15RoundRect,0.250000X0.287500X0.275000X-0.287500X0.275000X-0.287500X-0.275000X0.287500X-0.275000X0*%
%ADD16RoundRect,0.237500X-0.237500X0.287500X-0.237500X-0.287500X0.237500X-0.287500X0.237500X0.287500X0*%
%ADD17RoundRect,0.237500X0.237500X-0.250000X0.237500X0.250000X-0.237500X0.250000X-0.237500X-0.250000X0*%
%ADD18RoundRect,0.237500X0.237500X-0.300000X0.237500X0.300000X-0.237500X0.300000X-0.237500X-0.300000X0*%
%ADD19RoundRect,0.102000X-0.950000X0.950000X-0.950000X-0.950000X0.950000X-0.950000X0.950000X0.950000X0*%
%ADD20RoundRect,0.237500X0.237500X-0.287500X0.237500X0.287500X-0.237500X0.287500X-0.237500X-0.287500X0*%
%ADD21RoundRect,0.200000X-0.600000X0.200000X-0.600000X-0.200000X0.600000X-0.200000X0.600000X0.200000X0*%
%ADD22RoundRect,0.250001X-1.249999X0.799999X-1.249999X-0.799999X1.249999X-0.799999X1.249999X0.799999X0*%
%ADD23RoundRect,0.237500X-0.300000X-0.237500X0.300000X-0.237500X0.300000X0.237500X-0.300000X0.237500X0*%
%ADD24RoundRect,0.200000X0.600000X-0.200000X0.600000X0.200000X-0.600000X0.200000X-0.600000X-0.200000X0*%
%ADD25RoundRect,0.250001X1.249999X-0.799999X1.249999X0.799999X-1.249999X0.799999X-1.249999X-0.799999X0*%
%ADD26C,0.800000*%
%ADD27C,0.600000*%
G04 APERTURE END LIST*
D10*
%TO.C,U1*%
X-6022000Y-4446000D02*
X-6020000Y-4446000D01*
X-6017000Y-4447000D01*
X-6015000Y-4447000D01*
X-6012000Y-4448000D01*
X-6010000Y-4449000D01*
X-6007000Y-4450000D01*
X-6005000Y-4452000D01*
X-6003000Y-4453000D01*
X-6001000Y-4455000D01*
X-5999000Y-4456000D01*
X-5997000Y-4458000D01*
X-5995000Y-4460000D01*
X-5993000Y-4462000D01*
X-5991000Y-4464000D01*
X-5990000Y-4466000D01*
X-5988000Y-4468000D01*
X-5987000Y-4470000D01*
X-5985000Y-4472000D01*
X-5984000Y-4475000D01*
X-5983000Y-4477000D01*
X-5982000Y-4480000D01*
X-5982000Y-4482000D01*
X-5981000Y-4485000D01*
X-5981000Y-4487000D01*
X-5980000Y-4490000D01*
X-5980000Y-4492000D01*
X-5980000Y-4495000D01*
X-5980000Y-4695000D01*
X-5980000Y-4698000D01*
X-5980000Y-4700000D01*
X-5981000Y-4703000D01*
X-5981000Y-4705000D01*
X-5982000Y-4708000D01*
X-5982000Y-4710000D01*
X-5983000Y-4713000D01*
X-5984000Y-4715000D01*
X-5985000Y-4718000D01*
X-5987000Y-4720000D01*
X-5988000Y-4722000D01*
X-5990000Y-4724000D01*
X-5991000Y-4726000D01*
X-5993000Y-4728000D01*
X-5995000Y-4730000D01*
X-5997000Y-4732000D01*
X-5999000Y-4734000D01*
X-6001000Y-4735000D01*
X-6003000Y-4737000D01*
X-6005000Y-4738000D01*
X-6007000Y-4740000D01*
X-6010000Y-4741000D01*
X-6012000Y-4742000D01*
X-6015000Y-4743000D01*
X-6017000Y-4743000D01*
X-6020000Y-4744000D01*
X-6022000Y-4744000D01*
X-6025000Y-4745000D01*
X-6027000Y-4745000D01*
X-6030000Y-4745000D01*
X-6500000Y-4745000D01*
X-6503000Y-4745000D01*
X-6505000Y-4745000D01*
X-6508000Y-4744000D01*
X-6510000Y-4744000D01*
X-6513000Y-4743000D01*
X-6515000Y-4743000D01*
X-6518000Y-4742000D01*
X-6520000Y-4741000D01*
X-6523000Y-4740000D01*
X-6525000Y-4738000D01*
X-6527000Y-4737000D01*
X-6529000Y-4735000D01*
X-6531000Y-4734000D01*
X-6533000Y-4732000D01*
X-6535000Y-4730000D01*
X-6537000Y-4728000D01*
X-6539000Y-4726000D01*
X-6540000Y-4724000D01*
X-6542000Y-4722000D01*
X-6543000Y-4720000D01*
X-6545000Y-4718000D01*
X-6546000Y-4715000D01*
X-6547000Y-4713000D01*
X-6548000Y-4710000D01*
X-6548000Y-4708000D01*
X-6549000Y-4705000D01*
X-6549000Y-4703000D01*
X-6550000Y-4700000D01*
X-6550000Y-4698000D01*
X-6550000Y-4695000D01*
X-6550000Y-4495000D01*
X-6550000Y-4492000D01*
X-6550000Y-4490000D01*
X-6549000Y-4487000D01*
X-6549000Y-4485000D01*
X-6548000Y-4482000D01*
X-6548000Y-4480000D01*
X-6547000Y-4477000D01*
X-6546000Y-4475000D01*
X-6545000Y-4472000D01*
X-6543000Y-4470000D01*
X-6542000Y-4468000D01*
X-6540000Y-4466000D01*
X-6539000Y-4464000D01*
X-6537000Y-4462000D01*
X-6535000Y-4460000D01*
X-6533000Y-4458000D01*
X-6531000Y-4456000D01*
X-6529000Y-4455000D01*
X-6527000Y-4453000D01*
X-6525000Y-4452000D01*
X-6523000Y-4450000D01*
X-6520000Y-4449000D01*
X-6518000Y-4448000D01*
X-6515000Y-4447000D01*
X-6513000Y-4447000D01*
X-6510000Y-4446000D01*
X-6508000Y-4446000D01*
X-6505000Y-4445000D01*
X-6503000Y-4445000D01*
X-6500000Y-4445000D01*
X-6030000Y-4445000D01*
X-6027000Y-4445000D01*
X-6025000Y-4445000D01*
X-6022000Y-4446000D01*
G36*
X-6022000Y-4446000D02*
G01*
X-6020000Y-4446000D01*
X-6017000Y-4447000D01*
X-6015000Y-4447000D01*
X-6012000Y-4448000D01*
X-6010000Y-4449000D01*
X-6007000Y-4450000D01*
X-6005000Y-4452000D01*
X-6003000Y-4453000D01*
X-6001000Y-4455000D01*
X-5999000Y-4456000D01*
X-5997000Y-4458000D01*
X-5995000Y-4460000D01*
X-5993000Y-4462000D01*
X-5991000Y-4464000D01*
X-5990000Y-4466000D01*
X-5988000Y-4468000D01*
X-5987000Y-4470000D01*
X-5985000Y-4472000D01*
X-5984000Y-4475000D01*
X-5983000Y-4477000D01*
X-5982000Y-4480000D01*
X-5982000Y-4482000D01*
X-5981000Y-4485000D01*
X-5981000Y-4487000D01*
X-5980000Y-4490000D01*
X-5980000Y-4492000D01*
X-5980000Y-4495000D01*
X-5980000Y-4695000D01*
X-5980000Y-4698000D01*
X-5980000Y-4700000D01*
X-5981000Y-4703000D01*
X-5981000Y-4705000D01*
X-5982000Y-4708000D01*
X-5982000Y-4710000D01*
X-5983000Y-4713000D01*
X-5984000Y-4715000D01*
X-5985000Y-4718000D01*
X-5987000Y-4720000D01*
X-5988000Y-4722000D01*
X-5990000Y-4724000D01*
X-5991000Y-4726000D01*
X-5993000Y-4728000D01*
X-5995000Y-4730000D01*
X-5997000Y-4732000D01*
X-5999000Y-4734000D01*
X-6001000Y-4735000D01*
X-6003000Y-4737000D01*
X-6005000Y-4738000D01*
X-6007000Y-4740000D01*
X-6010000Y-4741000D01*
X-6012000Y-4742000D01*
X-6015000Y-4743000D01*
X-6017000Y-4743000D01*
X-6020000Y-4744000D01*
X-6022000Y-4744000D01*
X-6025000Y-4745000D01*
X-6027000Y-4745000D01*
X-6030000Y-4745000D01*
X-6500000Y-4745000D01*
X-6503000Y-4745000D01*
X-6505000Y-4745000D01*
X-6508000Y-4744000D01*
X-6510000Y-4744000D01*
X-6513000Y-4743000D01*
X-6515000Y-4743000D01*
X-6518000Y-4742000D01*
X-6520000Y-4741000D01*
X-6523000Y-4740000D01*
X-6525000Y-4738000D01*
X-6527000Y-4737000D01*
X-6529000Y-4735000D01*
X-6531000Y-4734000D01*
X-6533000Y-4732000D01*
X-6535000Y-4730000D01*
X-6537000Y-4728000D01*
X-6539000Y-4726000D01*
X-6540000Y-4724000D01*
X-6542000Y-4722000D01*
X-6543000Y-4720000D01*
X-6545000Y-4718000D01*
X-6546000Y-4715000D01*
X-6547000Y-4713000D01*
X-6548000Y-4710000D01*
X-6548000Y-4708000D01*
X-6549000Y-4705000D01*
X-6549000Y-4703000D01*
X-6550000Y-4700000D01*
X-6550000Y-4698000D01*
X-6550000Y-4695000D01*
X-6550000Y-4495000D01*
X-6550000Y-4492000D01*
X-6550000Y-4490000D01*
X-6549000Y-4487000D01*
X-6549000Y-4485000D01*
X-6548000Y-4482000D01*
X-6548000Y-4480000D01*
X-6547000Y-4477000D01*
X-6546000Y-4475000D01*
X-6545000Y-4472000D01*
X-6543000Y-4470000D01*
X-6542000Y-4468000D01*
X-6540000Y-4466000D01*
X-6539000Y-4464000D01*
X-6537000Y-4462000D01*
X-6535000Y-4460000D01*
X-6533000Y-4458000D01*
X-6531000Y-4456000D01*
X-6529000Y-4455000D01*
X-6527000Y-4453000D01*
X-6525000Y-4452000D01*
X-6523000Y-4450000D01*
X-6520000Y-4449000D01*
X-6518000Y-4448000D01*
X-6515000Y-4447000D01*
X-6513000Y-4447000D01*
X-6510000Y-4446000D01*
X-6508000Y-4446000D01*
X-6505000Y-4445000D01*
X-6503000Y-4445000D01*
X-6500000Y-4445000D01*
X-6030000Y-4445000D01*
X-6027000Y-4445000D01*
X-6025000Y-4445000D01*
X-6022000Y-4446000D01*
G37*
X-6022000Y-4846000D02*
X-6020000Y-4846000D01*
X-6017000Y-4847000D01*
X-6015000Y-4847000D01*
X-6012000Y-4848000D01*
X-6010000Y-4849000D01*
X-6007000Y-4850000D01*
X-6005000Y-4852000D01*
X-6003000Y-4853000D01*
X-6001000Y-4855000D01*
X-5999000Y-4856000D01*
X-5997000Y-4858000D01*
X-5995000Y-4860000D01*
X-5993000Y-4862000D01*
X-5991000Y-4864000D01*
X-5990000Y-4866000D01*
X-5988000Y-4868000D01*
X-5987000Y-4870000D01*
X-5985000Y-4872000D01*
X-5984000Y-4875000D01*
X-5983000Y-4877000D01*
X-5982000Y-4880000D01*
X-5982000Y-4882000D01*
X-5981000Y-4885000D01*
X-5981000Y-4887000D01*
X-5980000Y-4890000D01*
X-5980000Y-4892000D01*
X-5980000Y-4895000D01*
X-5980000Y-5095000D01*
X-5980000Y-5098000D01*
X-5980000Y-5100000D01*
X-5981000Y-5103000D01*
X-5981000Y-5105000D01*
X-5982000Y-5108000D01*
X-5982000Y-5110000D01*
X-5983000Y-5113000D01*
X-5984000Y-5115000D01*
X-5985000Y-5118000D01*
X-5987000Y-5120000D01*
X-5988000Y-5122000D01*
X-5990000Y-5124000D01*
X-5991000Y-5126000D01*
X-5993000Y-5128000D01*
X-5995000Y-5130000D01*
X-5997000Y-5132000D01*
X-5999000Y-5134000D01*
X-6001000Y-5135000D01*
X-6003000Y-5137000D01*
X-6005000Y-5138000D01*
X-6007000Y-5140000D01*
X-6010000Y-5141000D01*
X-6012000Y-5142000D01*
X-6015000Y-5143000D01*
X-6017000Y-5143000D01*
X-6020000Y-5144000D01*
X-6022000Y-5144000D01*
X-6025000Y-5145000D01*
X-6027000Y-5145000D01*
X-6030000Y-5145000D01*
X-6500000Y-5145000D01*
X-6503000Y-5145000D01*
X-6505000Y-5145000D01*
X-6508000Y-5144000D01*
X-6510000Y-5144000D01*
X-6513000Y-5143000D01*
X-6515000Y-5143000D01*
X-6518000Y-5142000D01*
X-6520000Y-5141000D01*
X-6523000Y-5140000D01*
X-6525000Y-5138000D01*
X-6527000Y-5137000D01*
X-6529000Y-5135000D01*
X-6531000Y-5134000D01*
X-6533000Y-5132000D01*
X-6535000Y-5130000D01*
X-6537000Y-5128000D01*
X-6539000Y-5126000D01*
X-6540000Y-5124000D01*
X-6542000Y-5122000D01*
X-6543000Y-5120000D01*
X-6545000Y-5118000D01*
X-6546000Y-5115000D01*
X-6547000Y-5113000D01*
X-6548000Y-5110000D01*
X-6548000Y-5108000D01*
X-6549000Y-5105000D01*
X-6549000Y-5103000D01*
X-6550000Y-5100000D01*
X-6550000Y-5098000D01*
X-6550000Y-5095000D01*
X-6550000Y-4895000D01*
X-6550000Y-4892000D01*
X-6550000Y-4890000D01*
X-6549000Y-4887000D01*
X-6549000Y-4885000D01*
X-6548000Y-4882000D01*
X-6548000Y-4880000D01*
X-6547000Y-4877000D01*
X-6546000Y-4875000D01*
X-6545000Y-4872000D01*
X-6543000Y-4870000D01*
X-6542000Y-4868000D01*
X-6540000Y-4866000D01*
X-6539000Y-4864000D01*
X-6537000Y-4862000D01*
X-6535000Y-4860000D01*
X-6533000Y-4858000D01*
X-6531000Y-4856000D01*
X-6529000Y-4855000D01*
X-6527000Y-4853000D01*
X-6525000Y-4852000D01*
X-6523000Y-4850000D01*
X-6520000Y-4849000D01*
X-6518000Y-4848000D01*
X-6515000Y-4847000D01*
X-6513000Y-4847000D01*
X-6510000Y-4846000D01*
X-6508000Y-4846000D01*
X-6505000Y-4845000D01*
X-6503000Y-4845000D01*
X-6500000Y-4845000D01*
X-6030000Y-4845000D01*
X-6027000Y-4845000D01*
X-6025000Y-4845000D01*
X-6022000Y-4846000D01*
G36*
X-6022000Y-4846000D02*
G01*
X-6020000Y-4846000D01*
X-6017000Y-4847000D01*
X-6015000Y-4847000D01*
X-6012000Y-4848000D01*
X-6010000Y-4849000D01*
X-6007000Y-4850000D01*
X-6005000Y-4852000D01*
X-6003000Y-4853000D01*
X-6001000Y-4855000D01*
X-5999000Y-4856000D01*
X-5997000Y-4858000D01*
X-5995000Y-4860000D01*
X-5993000Y-4862000D01*
X-5991000Y-4864000D01*
X-5990000Y-4866000D01*
X-5988000Y-4868000D01*
X-5987000Y-4870000D01*
X-5985000Y-4872000D01*
X-5984000Y-4875000D01*
X-5983000Y-4877000D01*
X-5982000Y-4880000D01*
X-5982000Y-4882000D01*
X-5981000Y-4885000D01*
X-5981000Y-4887000D01*
X-5980000Y-4890000D01*
X-5980000Y-4892000D01*
X-5980000Y-4895000D01*
X-5980000Y-5095000D01*
X-5980000Y-5098000D01*
X-5980000Y-5100000D01*
X-5981000Y-5103000D01*
X-5981000Y-5105000D01*
X-5982000Y-5108000D01*
X-5982000Y-5110000D01*
X-5983000Y-5113000D01*
X-5984000Y-5115000D01*
X-5985000Y-5118000D01*
X-5987000Y-5120000D01*
X-5988000Y-5122000D01*
X-5990000Y-5124000D01*
X-5991000Y-5126000D01*
X-5993000Y-5128000D01*
X-5995000Y-5130000D01*
X-5997000Y-5132000D01*
X-5999000Y-5134000D01*
X-6001000Y-5135000D01*
X-6003000Y-5137000D01*
X-6005000Y-5138000D01*
X-6007000Y-5140000D01*
X-6010000Y-5141000D01*
X-6012000Y-5142000D01*
X-6015000Y-5143000D01*
X-6017000Y-5143000D01*
X-6020000Y-5144000D01*
X-6022000Y-5144000D01*
X-6025000Y-5145000D01*
X-6027000Y-5145000D01*
X-6030000Y-5145000D01*
X-6500000Y-5145000D01*
X-6503000Y-5145000D01*
X-6505000Y-5145000D01*
X-6508000Y-5144000D01*
X-6510000Y-5144000D01*
X-6513000Y-5143000D01*
X-6515000Y-5143000D01*
X-6518000Y-5142000D01*
X-6520000Y-5141000D01*
X-6523000Y-5140000D01*
X-6525000Y-5138000D01*
X-6527000Y-5137000D01*
X-6529000Y-5135000D01*
X-6531000Y-5134000D01*
X-6533000Y-5132000D01*
X-6535000Y-5130000D01*
X-6537000Y-5128000D01*
X-6539000Y-5126000D01*
X-6540000Y-5124000D01*
X-6542000Y-5122000D01*
X-6543000Y-5120000D01*
X-6545000Y-5118000D01*
X-6546000Y-5115000D01*
X-6547000Y-5113000D01*
X-6548000Y-5110000D01*
X-6548000Y-5108000D01*
X-6549000Y-5105000D01*
X-6549000Y-5103000D01*
X-6550000Y-5100000D01*
X-6550000Y-5098000D01*
X-6550000Y-5095000D01*
X-6550000Y-4895000D01*
X-6550000Y-4892000D01*
X-6550000Y-4890000D01*
X-6549000Y-4887000D01*
X-6549000Y-4885000D01*
X-6548000Y-4882000D01*
X-6548000Y-4880000D01*
X-6547000Y-4877000D01*
X-6546000Y-4875000D01*
X-6545000Y-4872000D01*
X-6543000Y-4870000D01*
X-6542000Y-4868000D01*
X-6540000Y-4866000D01*
X-6539000Y-4864000D01*
X-6537000Y-4862000D01*
X-6535000Y-4860000D01*
X-6533000Y-4858000D01*
X-6531000Y-4856000D01*
X-6529000Y-4855000D01*
X-6527000Y-4853000D01*
X-6525000Y-4852000D01*
X-6523000Y-4850000D01*
X-6520000Y-4849000D01*
X-6518000Y-4848000D01*
X-6515000Y-4847000D01*
X-6513000Y-4847000D01*
X-6510000Y-4846000D01*
X-6508000Y-4846000D01*
X-6505000Y-4845000D01*
X-6503000Y-4845000D01*
X-6500000Y-4845000D01*
X-6030000Y-4845000D01*
X-6027000Y-4845000D01*
X-6025000Y-4845000D01*
X-6022000Y-4846000D01*
G37*
X-6022000Y-5246000D02*
X-6020000Y-5246000D01*
X-6017000Y-5247000D01*
X-6015000Y-5247000D01*
X-6012000Y-5248000D01*
X-6010000Y-5249000D01*
X-6007000Y-5250000D01*
X-6005000Y-5252000D01*
X-6003000Y-5253000D01*
X-6001000Y-5255000D01*
X-5999000Y-5256000D01*
X-5997000Y-5258000D01*
X-5995000Y-5260000D01*
X-5993000Y-5262000D01*
X-5991000Y-5264000D01*
X-5990000Y-5266000D01*
X-5988000Y-5268000D01*
X-5987000Y-5270000D01*
X-5985000Y-5272000D01*
X-5984000Y-5275000D01*
X-5983000Y-5277000D01*
X-5982000Y-5280000D01*
X-5982000Y-5282000D01*
X-5981000Y-5285000D01*
X-5981000Y-5287000D01*
X-5980000Y-5290000D01*
X-5980000Y-5292000D01*
X-5980000Y-5295000D01*
X-5980000Y-5495000D01*
X-5980000Y-5498000D01*
X-5980000Y-5500000D01*
X-5981000Y-5503000D01*
X-5981000Y-5505000D01*
X-5982000Y-5508000D01*
X-5982000Y-5510000D01*
X-5983000Y-5513000D01*
X-5984000Y-5515000D01*
X-5985000Y-5518000D01*
X-5987000Y-5520000D01*
X-5988000Y-5522000D01*
X-5990000Y-5524000D01*
X-5991000Y-5526000D01*
X-5993000Y-5528000D01*
X-5995000Y-5530000D01*
X-5997000Y-5532000D01*
X-5999000Y-5534000D01*
X-6001000Y-5535000D01*
X-6003000Y-5537000D01*
X-6005000Y-5538000D01*
X-6007000Y-5540000D01*
X-6010000Y-5541000D01*
X-6012000Y-5542000D01*
X-6015000Y-5543000D01*
X-6017000Y-5543000D01*
X-6020000Y-5544000D01*
X-6022000Y-5544000D01*
X-6025000Y-5545000D01*
X-6027000Y-5545000D01*
X-6030000Y-5545000D01*
X-6500000Y-5545000D01*
X-6503000Y-5545000D01*
X-6505000Y-5545000D01*
X-6508000Y-5544000D01*
X-6510000Y-5544000D01*
X-6513000Y-5543000D01*
X-6515000Y-5543000D01*
X-6518000Y-5542000D01*
X-6520000Y-5541000D01*
X-6523000Y-5540000D01*
X-6525000Y-5538000D01*
X-6527000Y-5537000D01*
X-6529000Y-5535000D01*
X-6531000Y-5534000D01*
X-6533000Y-5532000D01*
X-6535000Y-5530000D01*
X-6537000Y-5528000D01*
X-6539000Y-5526000D01*
X-6540000Y-5524000D01*
X-6542000Y-5522000D01*
X-6543000Y-5520000D01*
X-6545000Y-5518000D01*
X-6546000Y-5515000D01*
X-6547000Y-5513000D01*
X-6548000Y-5510000D01*
X-6548000Y-5508000D01*
X-6549000Y-5505000D01*
X-6549000Y-5503000D01*
X-6550000Y-5500000D01*
X-6550000Y-5498000D01*
X-6550000Y-5495000D01*
X-6550000Y-5295000D01*
X-6550000Y-5292000D01*
X-6550000Y-5290000D01*
X-6549000Y-5287000D01*
X-6549000Y-5285000D01*
X-6548000Y-5282000D01*
X-6548000Y-5280000D01*
X-6547000Y-5277000D01*
X-6546000Y-5275000D01*
X-6545000Y-5272000D01*
X-6543000Y-5270000D01*
X-6542000Y-5268000D01*
X-6540000Y-5266000D01*
X-6539000Y-5264000D01*
X-6537000Y-5262000D01*
X-6535000Y-5260000D01*
X-6533000Y-5258000D01*
X-6531000Y-5256000D01*
X-6529000Y-5255000D01*
X-6527000Y-5253000D01*
X-6525000Y-5252000D01*
X-6523000Y-5250000D01*
X-6520000Y-5249000D01*
X-6518000Y-5248000D01*
X-6515000Y-5247000D01*
X-6513000Y-5247000D01*
X-6510000Y-5246000D01*
X-6508000Y-5246000D01*
X-6505000Y-5245000D01*
X-6503000Y-5245000D01*
X-6500000Y-5245000D01*
X-6030000Y-5245000D01*
X-6027000Y-5245000D01*
X-6025000Y-5245000D01*
X-6022000Y-5246000D01*
G36*
X-6022000Y-5246000D02*
G01*
X-6020000Y-5246000D01*
X-6017000Y-5247000D01*
X-6015000Y-5247000D01*
X-6012000Y-5248000D01*
X-6010000Y-5249000D01*
X-6007000Y-5250000D01*
X-6005000Y-5252000D01*
X-6003000Y-5253000D01*
X-6001000Y-5255000D01*
X-5999000Y-5256000D01*
X-5997000Y-5258000D01*
X-5995000Y-5260000D01*
X-5993000Y-5262000D01*
X-5991000Y-5264000D01*
X-5990000Y-5266000D01*
X-5988000Y-5268000D01*
X-5987000Y-5270000D01*
X-5985000Y-5272000D01*
X-5984000Y-5275000D01*
X-5983000Y-5277000D01*
X-5982000Y-5280000D01*
X-5982000Y-5282000D01*
X-5981000Y-5285000D01*
X-5981000Y-5287000D01*
X-5980000Y-5290000D01*
X-5980000Y-5292000D01*
X-5980000Y-5295000D01*
X-5980000Y-5495000D01*
X-5980000Y-5498000D01*
X-5980000Y-5500000D01*
X-5981000Y-5503000D01*
X-5981000Y-5505000D01*
X-5982000Y-5508000D01*
X-5982000Y-5510000D01*
X-5983000Y-5513000D01*
X-5984000Y-5515000D01*
X-5985000Y-5518000D01*
X-5987000Y-5520000D01*
X-5988000Y-5522000D01*
X-5990000Y-5524000D01*
X-5991000Y-5526000D01*
X-5993000Y-5528000D01*
X-5995000Y-5530000D01*
X-5997000Y-5532000D01*
X-5999000Y-5534000D01*
X-6001000Y-5535000D01*
X-6003000Y-5537000D01*
X-6005000Y-5538000D01*
X-6007000Y-5540000D01*
X-6010000Y-5541000D01*
X-6012000Y-5542000D01*
X-6015000Y-5543000D01*
X-6017000Y-5543000D01*
X-6020000Y-5544000D01*
X-6022000Y-5544000D01*
X-6025000Y-5545000D01*
X-6027000Y-5545000D01*
X-6030000Y-5545000D01*
X-6500000Y-5545000D01*
X-6503000Y-5545000D01*
X-6505000Y-5545000D01*
X-6508000Y-5544000D01*
X-6510000Y-5544000D01*
X-6513000Y-5543000D01*
X-6515000Y-5543000D01*
X-6518000Y-5542000D01*
X-6520000Y-5541000D01*
X-6523000Y-5540000D01*
X-6525000Y-5538000D01*
X-6527000Y-5537000D01*
X-6529000Y-5535000D01*
X-6531000Y-5534000D01*
X-6533000Y-5532000D01*
X-6535000Y-5530000D01*
X-6537000Y-5528000D01*
X-6539000Y-5526000D01*
X-6540000Y-5524000D01*
X-6542000Y-5522000D01*
X-6543000Y-5520000D01*
X-6545000Y-5518000D01*
X-6546000Y-5515000D01*
X-6547000Y-5513000D01*
X-6548000Y-5510000D01*
X-6548000Y-5508000D01*
X-6549000Y-5505000D01*
X-6549000Y-5503000D01*
X-6550000Y-5500000D01*
X-6550000Y-5498000D01*
X-6550000Y-5495000D01*
X-6550000Y-5295000D01*
X-6550000Y-5292000D01*
X-6550000Y-5290000D01*
X-6549000Y-5287000D01*
X-6549000Y-5285000D01*
X-6548000Y-5282000D01*
X-6548000Y-5280000D01*
X-6547000Y-5277000D01*
X-6546000Y-5275000D01*
X-6545000Y-5272000D01*
X-6543000Y-5270000D01*
X-6542000Y-5268000D01*
X-6540000Y-5266000D01*
X-6539000Y-5264000D01*
X-6537000Y-5262000D01*
X-6535000Y-5260000D01*
X-6533000Y-5258000D01*
X-6531000Y-5256000D01*
X-6529000Y-5255000D01*
X-6527000Y-5253000D01*
X-6525000Y-5252000D01*
X-6523000Y-5250000D01*
X-6520000Y-5249000D01*
X-6518000Y-5248000D01*
X-6515000Y-5247000D01*
X-6513000Y-5247000D01*
X-6510000Y-5246000D01*
X-6508000Y-5246000D01*
X-6505000Y-5245000D01*
X-6503000Y-5245000D01*
X-6500000Y-5245000D01*
X-6030000Y-5245000D01*
X-6027000Y-5245000D01*
X-6025000Y-5245000D01*
X-6022000Y-5246000D01*
G37*
X-6022000Y-5646000D02*
X-6020000Y-5646000D01*
X-6017000Y-5647000D01*
X-6015000Y-5647000D01*
X-6012000Y-5648000D01*
X-6010000Y-5649000D01*
X-6007000Y-5650000D01*
X-6005000Y-5652000D01*
X-6003000Y-5653000D01*
X-6001000Y-5655000D01*
X-5999000Y-5656000D01*
X-5997000Y-5658000D01*
X-5995000Y-5660000D01*
X-5993000Y-5662000D01*
X-5991000Y-5664000D01*
X-5990000Y-5666000D01*
X-5988000Y-5668000D01*
X-5987000Y-5670000D01*
X-5985000Y-5672000D01*
X-5984000Y-5675000D01*
X-5983000Y-5677000D01*
X-5982000Y-5680000D01*
X-5982000Y-5682000D01*
X-5981000Y-5685000D01*
X-5981000Y-5687000D01*
X-5980000Y-5690000D01*
X-5980000Y-5692000D01*
X-5980000Y-5695000D01*
X-5980000Y-5895000D01*
X-5980000Y-5898000D01*
X-5980000Y-5900000D01*
X-5981000Y-5903000D01*
X-5981000Y-5905000D01*
X-5982000Y-5908000D01*
X-5982000Y-5910000D01*
X-5983000Y-5913000D01*
X-5984000Y-5915000D01*
X-5985000Y-5918000D01*
X-5987000Y-5920000D01*
X-5988000Y-5922000D01*
X-5990000Y-5924000D01*
X-5991000Y-5926000D01*
X-5993000Y-5928000D01*
X-5995000Y-5930000D01*
X-5997000Y-5932000D01*
X-5999000Y-5934000D01*
X-6001000Y-5935000D01*
X-6003000Y-5937000D01*
X-6005000Y-5938000D01*
X-6007000Y-5940000D01*
X-6010000Y-5941000D01*
X-6012000Y-5942000D01*
X-6015000Y-5943000D01*
X-6017000Y-5943000D01*
X-6020000Y-5944000D01*
X-6022000Y-5944000D01*
X-6025000Y-5945000D01*
X-6027000Y-5945000D01*
X-6030000Y-5945000D01*
X-6500000Y-5945000D01*
X-6503000Y-5945000D01*
X-6505000Y-5945000D01*
X-6508000Y-5944000D01*
X-6510000Y-5944000D01*
X-6513000Y-5943000D01*
X-6515000Y-5943000D01*
X-6518000Y-5942000D01*
X-6520000Y-5941000D01*
X-6523000Y-5940000D01*
X-6525000Y-5938000D01*
X-6527000Y-5937000D01*
X-6529000Y-5935000D01*
X-6531000Y-5934000D01*
X-6533000Y-5932000D01*
X-6535000Y-5930000D01*
X-6537000Y-5928000D01*
X-6539000Y-5926000D01*
X-6540000Y-5924000D01*
X-6542000Y-5922000D01*
X-6543000Y-5920000D01*
X-6545000Y-5918000D01*
X-6546000Y-5915000D01*
X-6547000Y-5913000D01*
X-6548000Y-5910000D01*
X-6548000Y-5908000D01*
X-6549000Y-5905000D01*
X-6549000Y-5903000D01*
X-6550000Y-5900000D01*
X-6550000Y-5898000D01*
X-6550000Y-5895000D01*
X-6550000Y-5695000D01*
X-6550000Y-5692000D01*
X-6550000Y-5690000D01*
X-6549000Y-5687000D01*
X-6549000Y-5685000D01*
X-6548000Y-5682000D01*
X-6548000Y-5680000D01*
X-6547000Y-5677000D01*
X-6546000Y-5675000D01*
X-6545000Y-5672000D01*
X-6543000Y-5670000D01*
X-6542000Y-5668000D01*
X-6540000Y-5666000D01*
X-6539000Y-5664000D01*
X-6537000Y-5662000D01*
X-6535000Y-5660000D01*
X-6533000Y-5658000D01*
X-6531000Y-5656000D01*
X-6529000Y-5655000D01*
X-6527000Y-5653000D01*
X-6525000Y-5652000D01*
X-6523000Y-5650000D01*
X-6520000Y-5649000D01*
X-6518000Y-5648000D01*
X-6515000Y-5647000D01*
X-6513000Y-5647000D01*
X-6510000Y-5646000D01*
X-6508000Y-5646000D01*
X-6505000Y-5645000D01*
X-6503000Y-5645000D01*
X-6500000Y-5645000D01*
X-6030000Y-5645000D01*
X-6027000Y-5645000D01*
X-6025000Y-5645000D01*
X-6022000Y-5646000D01*
G36*
X-6022000Y-5646000D02*
G01*
X-6020000Y-5646000D01*
X-6017000Y-5647000D01*
X-6015000Y-5647000D01*
X-6012000Y-5648000D01*
X-6010000Y-5649000D01*
X-6007000Y-5650000D01*
X-6005000Y-5652000D01*
X-6003000Y-5653000D01*
X-6001000Y-5655000D01*
X-5999000Y-5656000D01*
X-5997000Y-5658000D01*
X-5995000Y-5660000D01*
X-5993000Y-5662000D01*
X-5991000Y-5664000D01*
X-5990000Y-5666000D01*
X-5988000Y-5668000D01*
X-5987000Y-5670000D01*
X-5985000Y-5672000D01*
X-5984000Y-5675000D01*
X-5983000Y-5677000D01*
X-5982000Y-5680000D01*
X-5982000Y-5682000D01*
X-5981000Y-5685000D01*
X-5981000Y-5687000D01*
X-5980000Y-5690000D01*
X-5980000Y-5692000D01*
X-5980000Y-5695000D01*
X-5980000Y-5895000D01*
X-5980000Y-5898000D01*
X-5980000Y-5900000D01*
X-5981000Y-5903000D01*
X-5981000Y-5905000D01*
X-5982000Y-5908000D01*
X-5982000Y-5910000D01*
X-5983000Y-5913000D01*
X-5984000Y-5915000D01*
X-5985000Y-5918000D01*
X-5987000Y-5920000D01*
X-5988000Y-5922000D01*
X-5990000Y-5924000D01*
X-5991000Y-5926000D01*
X-5993000Y-5928000D01*
X-5995000Y-5930000D01*
X-5997000Y-5932000D01*
X-5999000Y-5934000D01*
X-6001000Y-5935000D01*
X-6003000Y-5937000D01*
X-6005000Y-5938000D01*
X-6007000Y-5940000D01*
X-6010000Y-5941000D01*
X-6012000Y-5942000D01*
X-6015000Y-5943000D01*
X-6017000Y-5943000D01*
X-6020000Y-5944000D01*
X-6022000Y-5944000D01*
X-6025000Y-5945000D01*
X-6027000Y-5945000D01*
X-6030000Y-5945000D01*
X-6500000Y-5945000D01*
X-6503000Y-5945000D01*
X-6505000Y-5945000D01*
X-6508000Y-5944000D01*
X-6510000Y-5944000D01*
X-6513000Y-5943000D01*
X-6515000Y-5943000D01*
X-6518000Y-5942000D01*
X-6520000Y-5941000D01*
X-6523000Y-5940000D01*
X-6525000Y-5938000D01*
X-6527000Y-5937000D01*
X-6529000Y-5935000D01*
X-6531000Y-5934000D01*
X-6533000Y-5932000D01*
X-6535000Y-5930000D01*
X-6537000Y-5928000D01*
X-6539000Y-5926000D01*
X-6540000Y-5924000D01*
X-6542000Y-5922000D01*
X-6543000Y-5920000D01*
X-6545000Y-5918000D01*
X-6546000Y-5915000D01*
X-6547000Y-5913000D01*
X-6548000Y-5910000D01*
X-6548000Y-5908000D01*
X-6549000Y-5905000D01*
X-6549000Y-5903000D01*
X-6550000Y-5900000D01*
X-6550000Y-5898000D01*
X-6550000Y-5895000D01*
X-6550000Y-5695000D01*
X-6550000Y-5692000D01*
X-6550000Y-5690000D01*
X-6549000Y-5687000D01*
X-6549000Y-5685000D01*
X-6548000Y-5682000D01*
X-6548000Y-5680000D01*
X-6547000Y-5677000D01*
X-6546000Y-5675000D01*
X-6545000Y-5672000D01*
X-6543000Y-5670000D01*
X-6542000Y-5668000D01*
X-6540000Y-5666000D01*
X-6539000Y-5664000D01*
X-6537000Y-5662000D01*
X-6535000Y-5660000D01*
X-6533000Y-5658000D01*
X-6531000Y-5656000D01*
X-6529000Y-5655000D01*
X-6527000Y-5653000D01*
X-6525000Y-5652000D01*
X-6523000Y-5650000D01*
X-6520000Y-5649000D01*
X-6518000Y-5648000D01*
X-6515000Y-5647000D01*
X-6513000Y-5647000D01*
X-6510000Y-5646000D01*
X-6508000Y-5646000D01*
X-6505000Y-5645000D01*
X-6503000Y-5645000D01*
X-6500000Y-5645000D01*
X-6030000Y-5645000D01*
X-6027000Y-5645000D01*
X-6025000Y-5645000D01*
X-6022000Y-5646000D01*
G37*
X-6022000Y-6046000D02*
X-6020000Y-6046000D01*
X-6017000Y-6047000D01*
X-6015000Y-6047000D01*
X-6012000Y-6048000D01*
X-6010000Y-6049000D01*
X-6007000Y-6050000D01*
X-6005000Y-6052000D01*
X-6003000Y-6053000D01*
X-6001000Y-6055000D01*
X-5999000Y-6056000D01*
X-5997000Y-6058000D01*
X-5995000Y-6060000D01*
X-5993000Y-6062000D01*
X-5991000Y-6064000D01*
X-5990000Y-6066000D01*
X-5988000Y-6068000D01*
X-5987000Y-6070000D01*
X-5985000Y-6072000D01*
X-5984000Y-6075000D01*
X-5983000Y-6077000D01*
X-5982000Y-6080000D01*
X-5982000Y-6082000D01*
X-5981000Y-6085000D01*
X-5981000Y-6087000D01*
X-5980000Y-6090000D01*
X-5980000Y-6092000D01*
X-5980000Y-6095000D01*
X-5980000Y-6295000D01*
X-5980000Y-6298000D01*
X-5980000Y-6300000D01*
X-5981000Y-6303000D01*
X-5981000Y-6305000D01*
X-5982000Y-6308000D01*
X-5982000Y-6310000D01*
X-5983000Y-6313000D01*
X-5984000Y-6315000D01*
X-5985000Y-6318000D01*
X-5987000Y-6320000D01*
X-5988000Y-6322000D01*
X-5990000Y-6324000D01*
X-5991000Y-6326000D01*
X-5993000Y-6328000D01*
X-5995000Y-6330000D01*
X-5997000Y-6332000D01*
X-5999000Y-6334000D01*
X-6001000Y-6335000D01*
X-6003000Y-6337000D01*
X-6005000Y-6338000D01*
X-6007000Y-6340000D01*
X-6010000Y-6341000D01*
X-6012000Y-6342000D01*
X-6015000Y-6343000D01*
X-6017000Y-6343000D01*
X-6020000Y-6344000D01*
X-6022000Y-6344000D01*
X-6025000Y-6345000D01*
X-6027000Y-6345000D01*
X-6030000Y-6345000D01*
X-6500000Y-6345000D01*
X-6503000Y-6345000D01*
X-6505000Y-6345000D01*
X-6508000Y-6344000D01*
X-6510000Y-6344000D01*
X-6513000Y-6343000D01*
X-6515000Y-6343000D01*
X-6518000Y-6342000D01*
X-6520000Y-6341000D01*
X-6523000Y-6340000D01*
X-6525000Y-6338000D01*
X-6527000Y-6337000D01*
X-6529000Y-6335000D01*
X-6531000Y-6334000D01*
X-6533000Y-6332000D01*
X-6535000Y-6330000D01*
X-6537000Y-6328000D01*
X-6539000Y-6326000D01*
X-6540000Y-6324000D01*
X-6542000Y-6322000D01*
X-6543000Y-6320000D01*
X-6545000Y-6318000D01*
X-6546000Y-6315000D01*
X-6547000Y-6313000D01*
X-6548000Y-6310000D01*
X-6548000Y-6308000D01*
X-6549000Y-6305000D01*
X-6549000Y-6303000D01*
X-6550000Y-6300000D01*
X-6550000Y-6298000D01*
X-6550000Y-6295000D01*
X-6550000Y-6095000D01*
X-6550000Y-6092000D01*
X-6550000Y-6090000D01*
X-6549000Y-6087000D01*
X-6549000Y-6085000D01*
X-6548000Y-6082000D01*
X-6548000Y-6080000D01*
X-6547000Y-6077000D01*
X-6546000Y-6075000D01*
X-6545000Y-6072000D01*
X-6543000Y-6070000D01*
X-6542000Y-6068000D01*
X-6540000Y-6066000D01*
X-6539000Y-6064000D01*
X-6537000Y-6062000D01*
X-6535000Y-6060000D01*
X-6533000Y-6058000D01*
X-6531000Y-6056000D01*
X-6529000Y-6055000D01*
X-6527000Y-6053000D01*
X-6525000Y-6052000D01*
X-6523000Y-6050000D01*
X-6520000Y-6049000D01*
X-6518000Y-6048000D01*
X-6515000Y-6047000D01*
X-6513000Y-6047000D01*
X-6510000Y-6046000D01*
X-6508000Y-6046000D01*
X-6505000Y-6045000D01*
X-6503000Y-6045000D01*
X-6500000Y-6045000D01*
X-6030000Y-6045000D01*
X-6027000Y-6045000D01*
X-6025000Y-6045000D01*
X-6022000Y-6046000D01*
G36*
X-6022000Y-6046000D02*
G01*
X-6020000Y-6046000D01*
X-6017000Y-6047000D01*
X-6015000Y-6047000D01*
X-6012000Y-6048000D01*
X-6010000Y-6049000D01*
X-6007000Y-6050000D01*
X-6005000Y-6052000D01*
X-6003000Y-6053000D01*
X-6001000Y-6055000D01*
X-5999000Y-6056000D01*
X-5997000Y-6058000D01*
X-5995000Y-6060000D01*
X-5993000Y-6062000D01*
X-5991000Y-6064000D01*
X-5990000Y-6066000D01*
X-5988000Y-6068000D01*
X-5987000Y-6070000D01*
X-5985000Y-6072000D01*
X-5984000Y-6075000D01*
X-5983000Y-6077000D01*
X-5982000Y-6080000D01*
X-5982000Y-6082000D01*
X-5981000Y-6085000D01*
X-5981000Y-6087000D01*
X-5980000Y-6090000D01*
X-5980000Y-6092000D01*
X-5980000Y-6095000D01*
X-5980000Y-6295000D01*
X-5980000Y-6298000D01*
X-5980000Y-6300000D01*
X-5981000Y-6303000D01*
X-5981000Y-6305000D01*
X-5982000Y-6308000D01*
X-5982000Y-6310000D01*
X-5983000Y-6313000D01*
X-5984000Y-6315000D01*
X-5985000Y-6318000D01*
X-5987000Y-6320000D01*
X-5988000Y-6322000D01*
X-5990000Y-6324000D01*
X-5991000Y-6326000D01*
X-5993000Y-6328000D01*
X-5995000Y-6330000D01*
X-5997000Y-6332000D01*
X-5999000Y-6334000D01*
X-6001000Y-6335000D01*
X-6003000Y-6337000D01*
X-6005000Y-6338000D01*
X-6007000Y-6340000D01*
X-6010000Y-6341000D01*
X-6012000Y-6342000D01*
X-6015000Y-6343000D01*
X-6017000Y-6343000D01*
X-6020000Y-6344000D01*
X-6022000Y-6344000D01*
X-6025000Y-6345000D01*
X-6027000Y-6345000D01*
X-6030000Y-6345000D01*
X-6500000Y-6345000D01*
X-6503000Y-6345000D01*
X-6505000Y-6345000D01*
X-6508000Y-6344000D01*
X-6510000Y-6344000D01*
X-6513000Y-6343000D01*
X-6515000Y-6343000D01*
X-6518000Y-6342000D01*
X-6520000Y-6341000D01*
X-6523000Y-6340000D01*
X-6525000Y-6338000D01*
X-6527000Y-6337000D01*
X-6529000Y-6335000D01*
X-6531000Y-6334000D01*
X-6533000Y-6332000D01*
X-6535000Y-6330000D01*
X-6537000Y-6328000D01*
X-6539000Y-6326000D01*
X-6540000Y-6324000D01*
X-6542000Y-6322000D01*
X-6543000Y-6320000D01*
X-6545000Y-6318000D01*
X-6546000Y-6315000D01*
X-6547000Y-6313000D01*
X-6548000Y-6310000D01*
X-6548000Y-6308000D01*
X-6549000Y-6305000D01*
X-6549000Y-6303000D01*
X-6550000Y-6300000D01*
X-6550000Y-6298000D01*
X-6550000Y-6295000D01*
X-6550000Y-6095000D01*
X-6550000Y-6092000D01*
X-6550000Y-6090000D01*
X-6549000Y-6087000D01*
X-6549000Y-6085000D01*
X-6548000Y-6082000D01*
X-6548000Y-6080000D01*
X-6547000Y-6077000D01*
X-6546000Y-6075000D01*
X-6545000Y-6072000D01*
X-6543000Y-6070000D01*
X-6542000Y-6068000D01*
X-6540000Y-6066000D01*
X-6539000Y-6064000D01*
X-6537000Y-6062000D01*
X-6535000Y-6060000D01*
X-6533000Y-6058000D01*
X-6531000Y-6056000D01*
X-6529000Y-6055000D01*
X-6527000Y-6053000D01*
X-6525000Y-6052000D01*
X-6523000Y-6050000D01*
X-6520000Y-6049000D01*
X-6518000Y-6048000D01*
X-6515000Y-6047000D01*
X-6513000Y-6047000D01*
X-6510000Y-6046000D01*
X-6508000Y-6046000D01*
X-6505000Y-6045000D01*
X-6503000Y-6045000D01*
X-6500000Y-6045000D01*
X-6030000Y-6045000D01*
X-6027000Y-6045000D01*
X-6025000Y-6045000D01*
X-6022000Y-6046000D01*
G37*
X-5892000Y-3516000D02*
X-5890000Y-3516000D01*
X-5887000Y-3517000D01*
X-5885000Y-3517000D01*
X-5882000Y-3518000D01*
X-5880000Y-3519000D01*
X-5877000Y-3520000D01*
X-5875000Y-3522000D01*
X-5873000Y-3523000D01*
X-5871000Y-3525000D01*
X-5869000Y-3526000D01*
X-5867000Y-3528000D01*
X-5865000Y-3530000D01*
X-5863000Y-3532000D01*
X-5861000Y-3534000D01*
X-5860000Y-3536000D01*
X-5858000Y-3538000D01*
X-5857000Y-3540000D01*
X-5855000Y-3542000D01*
X-5854000Y-3545000D01*
X-5853000Y-3547000D01*
X-5852000Y-3550000D01*
X-5852000Y-3552000D01*
X-5851000Y-3555000D01*
X-5851000Y-3557000D01*
X-5850000Y-3560000D01*
X-5850000Y-3562000D01*
X-5850000Y-3565000D01*
X-5850000Y-4035000D01*
X-5850000Y-4038000D01*
X-5850000Y-4040000D01*
X-5851000Y-4043000D01*
X-5851000Y-4045000D01*
X-5852000Y-4048000D01*
X-5852000Y-4050000D01*
X-5853000Y-4053000D01*
X-5854000Y-4055000D01*
X-5855000Y-4058000D01*
X-5857000Y-4060000D01*
X-5858000Y-4062000D01*
X-5860000Y-4064000D01*
X-5861000Y-4066000D01*
X-5863000Y-4068000D01*
X-5865000Y-4070000D01*
X-5867000Y-4072000D01*
X-5869000Y-4074000D01*
X-5871000Y-4075000D01*
X-5873000Y-4077000D01*
X-5875000Y-4078000D01*
X-5877000Y-4080000D01*
X-5880000Y-4081000D01*
X-5882000Y-4082000D01*
X-5885000Y-4083000D01*
X-5887000Y-4083000D01*
X-5890000Y-4084000D01*
X-5892000Y-4084000D01*
X-5895000Y-4085000D01*
X-5897000Y-4085000D01*
X-5900000Y-4085000D01*
X-6100000Y-4085000D01*
X-6103000Y-4085000D01*
X-6105000Y-4085000D01*
X-6108000Y-4084000D01*
X-6110000Y-4084000D01*
X-6113000Y-4083000D01*
X-6115000Y-4083000D01*
X-6118000Y-4082000D01*
X-6120000Y-4081000D01*
X-6123000Y-4080000D01*
X-6125000Y-4078000D01*
X-6127000Y-4077000D01*
X-6129000Y-4075000D01*
X-6131000Y-4074000D01*
X-6133000Y-4072000D01*
X-6135000Y-4070000D01*
X-6137000Y-4068000D01*
X-6139000Y-4066000D01*
X-6140000Y-4064000D01*
X-6142000Y-4062000D01*
X-6143000Y-4060000D01*
X-6145000Y-4058000D01*
X-6146000Y-4055000D01*
X-6147000Y-4053000D01*
X-6148000Y-4050000D01*
X-6148000Y-4048000D01*
X-6149000Y-4045000D01*
X-6149000Y-4043000D01*
X-6150000Y-4040000D01*
X-6150000Y-4038000D01*
X-6150000Y-4035000D01*
X-6150000Y-3565000D01*
X-6150000Y-3562000D01*
X-6150000Y-3560000D01*
X-6149000Y-3557000D01*
X-6149000Y-3555000D01*
X-6148000Y-3552000D01*
X-6148000Y-3550000D01*
X-6147000Y-3547000D01*
X-6146000Y-3545000D01*
X-6145000Y-3542000D01*
X-6143000Y-3540000D01*
X-6142000Y-3538000D01*
X-6140000Y-3536000D01*
X-6139000Y-3534000D01*
X-6137000Y-3532000D01*
X-6135000Y-3530000D01*
X-6133000Y-3528000D01*
X-6131000Y-3526000D01*
X-6129000Y-3525000D01*
X-6127000Y-3523000D01*
X-6125000Y-3522000D01*
X-6123000Y-3520000D01*
X-6120000Y-3519000D01*
X-6118000Y-3518000D01*
X-6115000Y-3517000D01*
X-6113000Y-3517000D01*
X-6110000Y-3516000D01*
X-6108000Y-3516000D01*
X-6105000Y-3515000D01*
X-6103000Y-3515000D01*
X-6100000Y-3515000D01*
X-5900000Y-3515000D01*
X-5897000Y-3515000D01*
X-5895000Y-3515000D01*
X-5892000Y-3516000D01*
G36*
X-5892000Y-3516000D02*
G01*
X-5890000Y-3516000D01*
X-5887000Y-3517000D01*
X-5885000Y-3517000D01*
X-5882000Y-3518000D01*
X-5880000Y-3519000D01*
X-5877000Y-3520000D01*
X-5875000Y-3522000D01*
X-5873000Y-3523000D01*
X-5871000Y-3525000D01*
X-5869000Y-3526000D01*
X-5867000Y-3528000D01*
X-5865000Y-3530000D01*
X-5863000Y-3532000D01*
X-5861000Y-3534000D01*
X-5860000Y-3536000D01*
X-5858000Y-3538000D01*
X-5857000Y-3540000D01*
X-5855000Y-3542000D01*
X-5854000Y-3545000D01*
X-5853000Y-3547000D01*
X-5852000Y-3550000D01*
X-5852000Y-3552000D01*
X-5851000Y-3555000D01*
X-5851000Y-3557000D01*
X-5850000Y-3560000D01*
X-5850000Y-3562000D01*
X-5850000Y-3565000D01*
X-5850000Y-4035000D01*
X-5850000Y-4038000D01*
X-5850000Y-4040000D01*
X-5851000Y-4043000D01*
X-5851000Y-4045000D01*
X-5852000Y-4048000D01*
X-5852000Y-4050000D01*
X-5853000Y-4053000D01*
X-5854000Y-4055000D01*
X-5855000Y-4058000D01*
X-5857000Y-4060000D01*
X-5858000Y-4062000D01*
X-5860000Y-4064000D01*
X-5861000Y-4066000D01*
X-5863000Y-4068000D01*
X-5865000Y-4070000D01*
X-5867000Y-4072000D01*
X-5869000Y-4074000D01*
X-5871000Y-4075000D01*
X-5873000Y-4077000D01*
X-5875000Y-4078000D01*
X-5877000Y-4080000D01*
X-5880000Y-4081000D01*
X-5882000Y-4082000D01*
X-5885000Y-4083000D01*
X-5887000Y-4083000D01*
X-5890000Y-4084000D01*
X-5892000Y-4084000D01*
X-5895000Y-4085000D01*
X-5897000Y-4085000D01*
X-5900000Y-4085000D01*
X-6100000Y-4085000D01*
X-6103000Y-4085000D01*
X-6105000Y-4085000D01*
X-6108000Y-4084000D01*
X-6110000Y-4084000D01*
X-6113000Y-4083000D01*
X-6115000Y-4083000D01*
X-6118000Y-4082000D01*
X-6120000Y-4081000D01*
X-6123000Y-4080000D01*
X-6125000Y-4078000D01*
X-6127000Y-4077000D01*
X-6129000Y-4075000D01*
X-6131000Y-4074000D01*
X-6133000Y-4072000D01*
X-6135000Y-4070000D01*
X-6137000Y-4068000D01*
X-6139000Y-4066000D01*
X-6140000Y-4064000D01*
X-6142000Y-4062000D01*
X-6143000Y-4060000D01*
X-6145000Y-4058000D01*
X-6146000Y-4055000D01*
X-6147000Y-4053000D01*
X-6148000Y-4050000D01*
X-6148000Y-4048000D01*
X-6149000Y-4045000D01*
X-6149000Y-4043000D01*
X-6150000Y-4040000D01*
X-6150000Y-4038000D01*
X-6150000Y-4035000D01*
X-6150000Y-3565000D01*
X-6150000Y-3562000D01*
X-6150000Y-3560000D01*
X-6149000Y-3557000D01*
X-6149000Y-3555000D01*
X-6148000Y-3552000D01*
X-6148000Y-3550000D01*
X-6147000Y-3547000D01*
X-6146000Y-3545000D01*
X-6145000Y-3542000D01*
X-6143000Y-3540000D01*
X-6142000Y-3538000D01*
X-6140000Y-3536000D01*
X-6139000Y-3534000D01*
X-6137000Y-3532000D01*
X-6135000Y-3530000D01*
X-6133000Y-3528000D01*
X-6131000Y-3526000D01*
X-6129000Y-3525000D01*
X-6127000Y-3523000D01*
X-6125000Y-3522000D01*
X-6123000Y-3520000D01*
X-6120000Y-3519000D01*
X-6118000Y-3518000D01*
X-6115000Y-3517000D01*
X-6113000Y-3517000D01*
X-6110000Y-3516000D01*
X-6108000Y-3516000D01*
X-6105000Y-3515000D01*
X-6103000Y-3515000D01*
X-6100000Y-3515000D01*
X-5900000Y-3515000D01*
X-5897000Y-3515000D01*
X-5895000Y-3515000D01*
X-5892000Y-3516000D01*
G37*
X-5892000Y-6446000D02*
X-5890000Y-6446000D01*
X-5887000Y-6447000D01*
X-5885000Y-6447000D01*
X-5882000Y-6448000D01*
X-5880000Y-6449000D01*
X-5877000Y-6450000D01*
X-5875000Y-6452000D01*
X-5873000Y-6453000D01*
X-5871000Y-6455000D01*
X-5869000Y-6456000D01*
X-5867000Y-6458000D01*
X-5865000Y-6460000D01*
X-5863000Y-6462000D01*
X-5861000Y-6464000D01*
X-5860000Y-6466000D01*
X-5858000Y-6468000D01*
X-5857000Y-6470000D01*
X-5855000Y-6472000D01*
X-5854000Y-6475000D01*
X-5853000Y-6477000D01*
X-5852000Y-6480000D01*
X-5852000Y-6482000D01*
X-5851000Y-6485000D01*
X-5851000Y-6487000D01*
X-5850000Y-6490000D01*
X-5850000Y-6492000D01*
X-5850000Y-6495000D01*
X-5850000Y-6965000D01*
X-5850000Y-6968000D01*
X-5850000Y-6970000D01*
X-5851000Y-6973000D01*
X-5851000Y-6975000D01*
X-5852000Y-6978000D01*
X-5852000Y-6980000D01*
X-5853000Y-6983000D01*
X-5854000Y-6985000D01*
X-5855000Y-6988000D01*
X-5857000Y-6990000D01*
X-5858000Y-6992000D01*
X-5860000Y-6994000D01*
X-5861000Y-6996000D01*
X-5863000Y-6998000D01*
X-5865000Y-7000000D01*
X-5867000Y-7002000D01*
X-5869000Y-7004000D01*
X-5871000Y-7005000D01*
X-5873000Y-7007000D01*
X-5875000Y-7008000D01*
X-5877000Y-7010000D01*
X-5880000Y-7011000D01*
X-5882000Y-7012000D01*
X-5885000Y-7013000D01*
X-5887000Y-7013000D01*
X-5890000Y-7014000D01*
X-5892000Y-7014000D01*
X-5895000Y-7015000D01*
X-5897000Y-7015000D01*
X-5900000Y-7015000D01*
X-6100000Y-7015000D01*
X-6103000Y-7015000D01*
X-6105000Y-7015000D01*
X-6108000Y-7014000D01*
X-6110000Y-7014000D01*
X-6113000Y-7013000D01*
X-6115000Y-7013000D01*
X-6118000Y-7012000D01*
X-6120000Y-7011000D01*
X-6123000Y-7010000D01*
X-6125000Y-7008000D01*
X-6127000Y-7007000D01*
X-6129000Y-7005000D01*
X-6131000Y-7004000D01*
X-6133000Y-7002000D01*
X-6135000Y-7000000D01*
X-6137000Y-6998000D01*
X-6139000Y-6996000D01*
X-6140000Y-6994000D01*
X-6142000Y-6992000D01*
X-6143000Y-6990000D01*
X-6145000Y-6988000D01*
X-6146000Y-6985000D01*
X-6147000Y-6983000D01*
X-6148000Y-6980000D01*
X-6148000Y-6978000D01*
X-6149000Y-6975000D01*
X-6149000Y-6973000D01*
X-6150000Y-6970000D01*
X-6150000Y-6968000D01*
X-6150000Y-6965000D01*
X-6150000Y-6495000D01*
X-6150000Y-6492000D01*
X-6150000Y-6490000D01*
X-6149000Y-6487000D01*
X-6149000Y-6485000D01*
X-6148000Y-6482000D01*
X-6148000Y-6480000D01*
X-6147000Y-6477000D01*
X-6146000Y-6475000D01*
X-6145000Y-6472000D01*
X-6143000Y-6470000D01*
X-6142000Y-6468000D01*
X-6140000Y-6466000D01*
X-6139000Y-6464000D01*
X-6137000Y-6462000D01*
X-6135000Y-6460000D01*
X-6133000Y-6458000D01*
X-6131000Y-6456000D01*
X-6129000Y-6455000D01*
X-6127000Y-6453000D01*
X-6125000Y-6452000D01*
X-6123000Y-6450000D01*
X-6120000Y-6449000D01*
X-6118000Y-6448000D01*
X-6115000Y-6447000D01*
X-6113000Y-6447000D01*
X-6110000Y-6446000D01*
X-6108000Y-6446000D01*
X-6105000Y-6445000D01*
X-6103000Y-6445000D01*
X-6100000Y-6445000D01*
X-5900000Y-6445000D01*
X-5897000Y-6445000D01*
X-5895000Y-6445000D01*
X-5892000Y-6446000D01*
G36*
X-5892000Y-6446000D02*
G01*
X-5890000Y-6446000D01*
X-5887000Y-6447000D01*
X-5885000Y-6447000D01*
X-5882000Y-6448000D01*
X-5880000Y-6449000D01*
X-5877000Y-6450000D01*
X-5875000Y-6452000D01*
X-5873000Y-6453000D01*
X-5871000Y-6455000D01*
X-5869000Y-6456000D01*
X-5867000Y-6458000D01*
X-5865000Y-6460000D01*
X-5863000Y-6462000D01*
X-5861000Y-6464000D01*
X-5860000Y-6466000D01*
X-5858000Y-6468000D01*
X-5857000Y-6470000D01*
X-5855000Y-6472000D01*
X-5854000Y-6475000D01*
X-5853000Y-6477000D01*
X-5852000Y-6480000D01*
X-5852000Y-6482000D01*
X-5851000Y-6485000D01*
X-5851000Y-6487000D01*
X-5850000Y-6490000D01*
X-5850000Y-6492000D01*
X-5850000Y-6495000D01*
X-5850000Y-6965000D01*
X-5850000Y-6968000D01*
X-5850000Y-6970000D01*
X-5851000Y-6973000D01*
X-5851000Y-6975000D01*
X-5852000Y-6978000D01*
X-5852000Y-6980000D01*
X-5853000Y-6983000D01*
X-5854000Y-6985000D01*
X-5855000Y-6988000D01*
X-5857000Y-6990000D01*
X-5858000Y-6992000D01*
X-5860000Y-6994000D01*
X-5861000Y-6996000D01*
X-5863000Y-6998000D01*
X-5865000Y-7000000D01*
X-5867000Y-7002000D01*
X-5869000Y-7004000D01*
X-5871000Y-7005000D01*
X-5873000Y-7007000D01*
X-5875000Y-7008000D01*
X-5877000Y-7010000D01*
X-5880000Y-7011000D01*
X-5882000Y-7012000D01*
X-5885000Y-7013000D01*
X-5887000Y-7013000D01*
X-5890000Y-7014000D01*
X-5892000Y-7014000D01*
X-5895000Y-7015000D01*
X-5897000Y-7015000D01*
X-5900000Y-7015000D01*
X-6100000Y-7015000D01*
X-6103000Y-7015000D01*
X-6105000Y-7015000D01*
X-6108000Y-7014000D01*
X-6110000Y-7014000D01*
X-6113000Y-7013000D01*
X-6115000Y-7013000D01*
X-6118000Y-7012000D01*
X-6120000Y-7011000D01*
X-6123000Y-7010000D01*
X-6125000Y-7008000D01*
X-6127000Y-7007000D01*
X-6129000Y-7005000D01*
X-6131000Y-7004000D01*
X-6133000Y-7002000D01*
X-6135000Y-7000000D01*
X-6137000Y-6998000D01*
X-6139000Y-6996000D01*
X-6140000Y-6994000D01*
X-6142000Y-6992000D01*
X-6143000Y-6990000D01*
X-6145000Y-6988000D01*
X-6146000Y-6985000D01*
X-6147000Y-6983000D01*
X-6148000Y-6980000D01*
X-6148000Y-6978000D01*
X-6149000Y-6975000D01*
X-6149000Y-6973000D01*
X-6150000Y-6970000D01*
X-6150000Y-6968000D01*
X-6150000Y-6965000D01*
X-6150000Y-6495000D01*
X-6150000Y-6492000D01*
X-6150000Y-6490000D01*
X-6149000Y-6487000D01*
X-6149000Y-6485000D01*
X-6148000Y-6482000D01*
X-6148000Y-6480000D01*
X-6147000Y-6477000D01*
X-6146000Y-6475000D01*
X-6145000Y-6472000D01*
X-6143000Y-6470000D01*
X-6142000Y-6468000D01*
X-6140000Y-6466000D01*
X-6139000Y-6464000D01*
X-6137000Y-6462000D01*
X-6135000Y-6460000D01*
X-6133000Y-6458000D01*
X-6131000Y-6456000D01*
X-6129000Y-6455000D01*
X-6127000Y-6453000D01*
X-6125000Y-6452000D01*
X-6123000Y-6450000D01*
X-6120000Y-6449000D01*
X-6118000Y-6448000D01*
X-6115000Y-6447000D01*
X-6113000Y-6447000D01*
X-6110000Y-6446000D01*
X-6108000Y-6446000D01*
X-6105000Y-6445000D01*
X-6103000Y-6445000D01*
X-6100000Y-6445000D01*
X-5900000Y-6445000D01*
X-5897000Y-6445000D01*
X-5895000Y-6445000D01*
X-5892000Y-6446000D01*
G37*
X-5492000Y-3516000D02*
X-5490000Y-3516000D01*
X-5487000Y-3517000D01*
X-5485000Y-3517000D01*
X-5482000Y-3518000D01*
X-5480000Y-3519000D01*
X-5477000Y-3520000D01*
X-5475000Y-3522000D01*
X-5473000Y-3523000D01*
X-5471000Y-3525000D01*
X-5469000Y-3526000D01*
X-5467000Y-3528000D01*
X-5465000Y-3530000D01*
X-5463000Y-3532000D01*
X-5461000Y-3534000D01*
X-5460000Y-3536000D01*
X-5458000Y-3538000D01*
X-5457000Y-3540000D01*
X-5455000Y-3542000D01*
X-5454000Y-3545000D01*
X-5453000Y-3547000D01*
X-5452000Y-3550000D01*
X-5452000Y-3552000D01*
X-5451000Y-3555000D01*
X-5451000Y-3557000D01*
X-5450000Y-3560000D01*
X-5450000Y-3562000D01*
X-5450000Y-3565000D01*
X-5450000Y-4035000D01*
X-5450000Y-4038000D01*
X-5450000Y-4040000D01*
X-5451000Y-4043000D01*
X-5451000Y-4045000D01*
X-5452000Y-4048000D01*
X-5452000Y-4050000D01*
X-5453000Y-4053000D01*
X-5454000Y-4055000D01*
X-5455000Y-4058000D01*
X-5457000Y-4060000D01*
X-5458000Y-4062000D01*
X-5460000Y-4064000D01*
X-5461000Y-4066000D01*
X-5463000Y-4068000D01*
X-5465000Y-4070000D01*
X-5467000Y-4072000D01*
X-5469000Y-4074000D01*
X-5471000Y-4075000D01*
X-5473000Y-4077000D01*
X-5475000Y-4078000D01*
X-5477000Y-4080000D01*
X-5480000Y-4081000D01*
X-5482000Y-4082000D01*
X-5485000Y-4083000D01*
X-5487000Y-4083000D01*
X-5490000Y-4084000D01*
X-5492000Y-4084000D01*
X-5495000Y-4085000D01*
X-5497000Y-4085000D01*
X-5500000Y-4085000D01*
X-5700000Y-4085000D01*
X-5703000Y-4085000D01*
X-5705000Y-4085000D01*
X-5708000Y-4084000D01*
X-5710000Y-4084000D01*
X-5713000Y-4083000D01*
X-5715000Y-4083000D01*
X-5718000Y-4082000D01*
X-5720000Y-4081000D01*
X-5723000Y-4080000D01*
X-5725000Y-4078000D01*
X-5727000Y-4077000D01*
X-5729000Y-4075000D01*
X-5731000Y-4074000D01*
X-5733000Y-4072000D01*
X-5735000Y-4070000D01*
X-5737000Y-4068000D01*
X-5739000Y-4066000D01*
X-5740000Y-4064000D01*
X-5742000Y-4062000D01*
X-5743000Y-4060000D01*
X-5745000Y-4058000D01*
X-5746000Y-4055000D01*
X-5747000Y-4053000D01*
X-5748000Y-4050000D01*
X-5748000Y-4048000D01*
X-5749000Y-4045000D01*
X-5749000Y-4043000D01*
X-5750000Y-4040000D01*
X-5750000Y-4038000D01*
X-5750000Y-4035000D01*
X-5750000Y-3565000D01*
X-5750000Y-3562000D01*
X-5750000Y-3560000D01*
X-5749000Y-3557000D01*
X-5749000Y-3555000D01*
X-5748000Y-3552000D01*
X-5748000Y-3550000D01*
X-5747000Y-3547000D01*
X-5746000Y-3545000D01*
X-5745000Y-3542000D01*
X-5743000Y-3540000D01*
X-5742000Y-3538000D01*
X-5740000Y-3536000D01*
X-5739000Y-3534000D01*
X-5737000Y-3532000D01*
X-5735000Y-3530000D01*
X-5733000Y-3528000D01*
X-5731000Y-3526000D01*
X-5729000Y-3525000D01*
X-5727000Y-3523000D01*
X-5725000Y-3522000D01*
X-5723000Y-3520000D01*
X-5720000Y-3519000D01*
X-5718000Y-3518000D01*
X-5715000Y-3517000D01*
X-5713000Y-3517000D01*
X-5710000Y-3516000D01*
X-5708000Y-3516000D01*
X-5705000Y-3515000D01*
X-5703000Y-3515000D01*
X-5700000Y-3515000D01*
X-5500000Y-3515000D01*
X-5497000Y-3515000D01*
X-5495000Y-3515000D01*
X-5492000Y-3516000D01*
G36*
X-5492000Y-3516000D02*
G01*
X-5490000Y-3516000D01*
X-5487000Y-3517000D01*
X-5485000Y-3517000D01*
X-5482000Y-3518000D01*
X-5480000Y-3519000D01*
X-5477000Y-3520000D01*
X-5475000Y-3522000D01*
X-5473000Y-3523000D01*
X-5471000Y-3525000D01*
X-5469000Y-3526000D01*
X-5467000Y-3528000D01*
X-5465000Y-3530000D01*
X-5463000Y-3532000D01*
X-5461000Y-3534000D01*
X-5460000Y-3536000D01*
X-5458000Y-3538000D01*
X-5457000Y-3540000D01*
X-5455000Y-3542000D01*
X-5454000Y-3545000D01*
X-5453000Y-3547000D01*
X-5452000Y-3550000D01*
X-5452000Y-3552000D01*
X-5451000Y-3555000D01*
X-5451000Y-3557000D01*
X-5450000Y-3560000D01*
X-5450000Y-3562000D01*
X-5450000Y-3565000D01*
X-5450000Y-4035000D01*
X-5450000Y-4038000D01*
X-5450000Y-4040000D01*
X-5451000Y-4043000D01*
X-5451000Y-4045000D01*
X-5452000Y-4048000D01*
X-5452000Y-4050000D01*
X-5453000Y-4053000D01*
X-5454000Y-4055000D01*
X-5455000Y-4058000D01*
X-5457000Y-4060000D01*
X-5458000Y-4062000D01*
X-5460000Y-4064000D01*
X-5461000Y-4066000D01*
X-5463000Y-4068000D01*
X-5465000Y-4070000D01*
X-5467000Y-4072000D01*
X-5469000Y-4074000D01*
X-5471000Y-4075000D01*
X-5473000Y-4077000D01*
X-5475000Y-4078000D01*
X-5477000Y-4080000D01*
X-5480000Y-4081000D01*
X-5482000Y-4082000D01*
X-5485000Y-4083000D01*
X-5487000Y-4083000D01*
X-5490000Y-4084000D01*
X-5492000Y-4084000D01*
X-5495000Y-4085000D01*
X-5497000Y-4085000D01*
X-5500000Y-4085000D01*
X-5700000Y-4085000D01*
X-5703000Y-4085000D01*
X-5705000Y-4085000D01*
X-5708000Y-4084000D01*
X-5710000Y-4084000D01*
X-5713000Y-4083000D01*
X-5715000Y-4083000D01*
X-5718000Y-4082000D01*
X-5720000Y-4081000D01*
X-5723000Y-4080000D01*
X-5725000Y-4078000D01*
X-5727000Y-4077000D01*
X-5729000Y-4075000D01*
X-5731000Y-4074000D01*
X-5733000Y-4072000D01*
X-5735000Y-4070000D01*
X-5737000Y-4068000D01*
X-5739000Y-4066000D01*
X-5740000Y-4064000D01*
X-5742000Y-4062000D01*
X-5743000Y-4060000D01*
X-5745000Y-4058000D01*
X-5746000Y-4055000D01*
X-5747000Y-4053000D01*
X-5748000Y-4050000D01*
X-5748000Y-4048000D01*
X-5749000Y-4045000D01*
X-5749000Y-4043000D01*
X-5750000Y-4040000D01*
X-5750000Y-4038000D01*
X-5750000Y-4035000D01*
X-5750000Y-3565000D01*
X-5750000Y-3562000D01*
X-5750000Y-3560000D01*
X-5749000Y-3557000D01*
X-5749000Y-3555000D01*
X-5748000Y-3552000D01*
X-5748000Y-3550000D01*
X-5747000Y-3547000D01*
X-5746000Y-3545000D01*
X-5745000Y-3542000D01*
X-5743000Y-3540000D01*
X-5742000Y-3538000D01*
X-5740000Y-3536000D01*
X-5739000Y-3534000D01*
X-5737000Y-3532000D01*
X-5735000Y-3530000D01*
X-5733000Y-3528000D01*
X-5731000Y-3526000D01*
X-5729000Y-3525000D01*
X-5727000Y-3523000D01*
X-5725000Y-3522000D01*
X-5723000Y-3520000D01*
X-5720000Y-3519000D01*
X-5718000Y-3518000D01*
X-5715000Y-3517000D01*
X-5713000Y-3517000D01*
X-5710000Y-3516000D01*
X-5708000Y-3516000D01*
X-5705000Y-3515000D01*
X-5703000Y-3515000D01*
X-5700000Y-3515000D01*
X-5500000Y-3515000D01*
X-5497000Y-3515000D01*
X-5495000Y-3515000D01*
X-5492000Y-3516000D01*
G37*
X-5492000Y-6446000D02*
X-5490000Y-6446000D01*
X-5487000Y-6447000D01*
X-5485000Y-6447000D01*
X-5482000Y-6448000D01*
X-5480000Y-6449000D01*
X-5477000Y-6450000D01*
X-5475000Y-6452000D01*
X-5473000Y-6453000D01*
X-5471000Y-6455000D01*
X-5469000Y-6456000D01*
X-5467000Y-6458000D01*
X-5465000Y-6460000D01*
X-5463000Y-6462000D01*
X-5461000Y-6464000D01*
X-5460000Y-6466000D01*
X-5458000Y-6468000D01*
X-5457000Y-6470000D01*
X-5455000Y-6472000D01*
X-5454000Y-6475000D01*
X-5453000Y-6477000D01*
X-5452000Y-6480000D01*
X-5452000Y-6482000D01*
X-5451000Y-6485000D01*
X-5451000Y-6487000D01*
X-5450000Y-6490000D01*
X-5450000Y-6492000D01*
X-5450000Y-6495000D01*
X-5450000Y-6965000D01*
X-5450000Y-6968000D01*
X-5450000Y-6970000D01*
X-5451000Y-6973000D01*
X-5451000Y-6975000D01*
X-5452000Y-6978000D01*
X-5452000Y-6980000D01*
X-5453000Y-6983000D01*
X-5454000Y-6985000D01*
X-5455000Y-6988000D01*
X-5457000Y-6990000D01*
X-5458000Y-6992000D01*
X-5460000Y-6994000D01*
X-5461000Y-6996000D01*
X-5463000Y-6998000D01*
X-5465000Y-7000000D01*
X-5467000Y-7002000D01*
X-5469000Y-7004000D01*
X-5471000Y-7005000D01*
X-5473000Y-7007000D01*
X-5475000Y-7008000D01*
X-5477000Y-7010000D01*
X-5480000Y-7011000D01*
X-5482000Y-7012000D01*
X-5485000Y-7013000D01*
X-5487000Y-7013000D01*
X-5490000Y-7014000D01*
X-5492000Y-7014000D01*
X-5495000Y-7015000D01*
X-5497000Y-7015000D01*
X-5500000Y-7015000D01*
X-5700000Y-7015000D01*
X-5703000Y-7015000D01*
X-5705000Y-7015000D01*
X-5708000Y-7014000D01*
X-5710000Y-7014000D01*
X-5713000Y-7013000D01*
X-5715000Y-7013000D01*
X-5718000Y-7012000D01*
X-5720000Y-7011000D01*
X-5723000Y-7010000D01*
X-5725000Y-7008000D01*
X-5727000Y-7007000D01*
X-5729000Y-7005000D01*
X-5731000Y-7004000D01*
X-5733000Y-7002000D01*
X-5735000Y-7000000D01*
X-5737000Y-6998000D01*
X-5739000Y-6996000D01*
X-5740000Y-6994000D01*
X-5742000Y-6992000D01*
X-5743000Y-6990000D01*
X-5745000Y-6988000D01*
X-5746000Y-6985000D01*
X-5747000Y-6983000D01*
X-5748000Y-6980000D01*
X-5748000Y-6978000D01*
X-5749000Y-6975000D01*
X-5749000Y-6973000D01*
X-5750000Y-6970000D01*
X-5750000Y-6968000D01*
X-5750000Y-6965000D01*
X-5750000Y-6495000D01*
X-5750000Y-6492000D01*
X-5750000Y-6490000D01*
X-5749000Y-6487000D01*
X-5749000Y-6485000D01*
X-5748000Y-6482000D01*
X-5748000Y-6480000D01*
X-5747000Y-6477000D01*
X-5746000Y-6475000D01*
X-5745000Y-6472000D01*
X-5743000Y-6470000D01*
X-5742000Y-6468000D01*
X-5740000Y-6466000D01*
X-5739000Y-6464000D01*
X-5737000Y-6462000D01*
X-5735000Y-6460000D01*
X-5733000Y-6458000D01*
X-5731000Y-6456000D01*
X-5729000Y-6455000D01*
X-5727000Y-6453000D01*
X-5725000Y-6452000D01*
X-5723000Y-6450000D01*
X-5720000Y-6449000D01*
X-5718000Y-6448000D01*
X-5715000Y-6447000D01*
X-5713000Y-6447000D01*
X-5710000Y-6446000D01*
X-5708000Y-6446000D01*
X-5705000Y-6445000D01*
X-5703000Y-6445000D01*
X-5700000Y-6445000D01*
X-5500000Y-6445000D01*
X-5497000Y-6445000D01*
X-5495000Y-6445000D01*
X-5492000Y-6446000D01*
G36*
X-5492000Y-6446000D02*
G01*
X-5490000Y-6446000D01*
X-5487000Y-6447000D01*
X-5485000Y-6447000D01*
X-5482000Y-6448000D01*
X-5480000Y-6449000D01*
X-5477000Y-6450000D01*
X-5475000Y-6452000D01*
X-5473000Y-6453000D01*
X-5471000Y-6455000D01*
X-5469000Y-6456000D01*
X-5467000Y-6458000D01*
X-5465000Y-6460000D01*
X-5463000Y-6462000D01*
X-5461000Y-6464000D01*
X-5460000Y-6466000D01*
X-5458000Y-6468000D01*
X-5457000Y-6470000D01*
X-5455000Y-6472000D01*
X-5454000Y-6475000D01*
X-5453000Y-6477000D01*
X-5452000Y-6480000D01*
X-5452000Y-6482000D01*
X-5451000Y-6485000D01*
X-5451000Y-6487000D01*
X-5450000Y-6490000D01*
X-5450000Y-6492000D01*
X-5450000Y-6495000D01*
X-5450000Y-6965000D01*
X-5450000Y-6968000D01*
X-5450000Y-6970000D01*
X-5451000Y-6973000D01*
X-5451000Y-6975000D01*
X-5452000Y-6978000D01*
X-5452000Y-6980000D01*
X-5453000Y-6983000D01*
X-5454000Y-6985000D01*
X-5455000Y-6988000D01*
X-5457000Y-6990000D01*
X-5458000Y-6992000D01*
X-5460000Y-6994000D01*
X-5461000Y-6996000D01*
X-5463000Y-6998000D01*
X-5465000Y-7000000D01*
X-5467000Y-7002000D01*
X-5469000Y-7004000D01*
X-5471000Y-7005000D01*
X-5473000Y-7007000D01*
X-5475000Y-7008000D01*
X-5477000Y-7010000D01*
X-5480000Y-7011000D01*
X-5482000Y-7012000D01*
X-5485000Y-7013000D01*
X-5487000Y-7013000D01*
X-5490000Y-7014000D01*
X-5492000Y-7014000D01*
X-5495000Y-7015000D01*
X-5497000Y-7015000D01*
X-5500000Y-7015000D01*
X-5700000Y-7015000D01*
X-5703000Y-7015000D01*
X-5705000Y-7015000D01*
X-5708000Y-7014000D01*
X-5710000Y-7014000D01*
X-5713000Y-7013000D01*
X-5715000Y-7013000D01*
X-5718000Y-7012000D01*
X-5720000Y-7011000D01*
X-5723000Y-7010000D01*
X-5725000Y-7008000D01*
X-5727000Y-7007000D01*
X-5729000Y-7005000D01*
X-5731000Y-7004000D01*
X-5733000Y-7002000D01*
X-5735000Y-7000000D01*
X-5737000Y-6998000D01*
X-5739000Y-6996000D01*
X-5740000Y-6994000D01*
X-5742000Y-6992000D01*
X-5743000Y-6990000D01*
X-5745000Y-6988000D01*
X-5746000Y-6985000D01*
X-5747000Y-6983000D01*
X-5748000Y-6980000D01*
X-5748000Y-6978000D01*
X-5749000Y-6975000D01*
X-5749000Y-6973000D01*
X-5750000Y-6970000D01*
X-5750000Y-6968000D01*
X-5750000Y-6965000D01*
X-5750000Y-6495000D01*
X-5750000Y-6492000D01*
X-5750000Y-6490000D01*
X-5749000Y-6487000D01*
X-5749000Y-6485000D01*
X-5748000Y-6482000D01*
X-5748000Y-6480000D01*
X-5747000Y-6477000D01*
X-5746000Y-6475000D01*
X-5745000Y-6472000D01*
X-5743000Y-6470000D01*
X-5742000Y-6468000D01*
X-5740000Y-6466000D01*
X-5739000Y-6464000D01*
X-5737000Y-6462000D01*
X-5735000Y-6460000D01*
X-5733000Y-6458000D01*
X-5731000Y-6456000D01*
X-5729000Y-6455000D01*
X-5727000Y-6453000D01*
X-5725000Y-6452000D01*
X-5723000Y-6450000D01*
X-5720000Y-6449000D01*
X-5718000Y-6448000D01*
X-5715000Y-6447000D01*
X-5713000Y-6447000D01*
X-5710000Y-6446000D01*
X-5708000Y-6446000D01*
X-5705000Y-6445000D01*
X-5703000Y-6445000D01*
X-5700000Y-6445000D01*
X-5500000Y-6445000D01*
X-5497000Y-6445000D01*
X-5495000Y-6445000D01*
X-5492000Y-6446000D01*
G37*
X-5092000Y-3516000D02*
X-5090000Y-3516000D01*
X-5087000Y-3517000D01*
X-5085000Y-3517000D01*
X-5082000Y-3518000D01*
X-5080000Y-3519000D01*
X-5077000Y-3520000D01*
X-5075000Y-3522000D01*
X-5073000Y-3523000D01*
X-5071000Y-3525000D01*
X-5069000Y-3526000D01*
X-5067000Y-3528000D01*
X-5065000Y-3530000D01*
X-5063000Y-3532000D01*
X-5061000Y-3534000D01*
X-5060000Y-3536000D01*
X-5058000Y-3538000D01*
X-5057000Y-3540000D01*
X-5055000Y-3542000D01*
X-5054000Y-3545000D01*
X-5053000Y-3547000D01*
X-5052000Y-3550000D01*
X-5052000Y-3552000D01*
X-5051000Y-3555000D01*
X-5051000Y-3557000D01*
X-5050000Y-3560000D01*
X-5050000Y-3562000D01*
X-5050000Y-3565000D01*
X-5050000Y-4035000D01*
X-5050000Y-4038000D01*
X-5050000Y-4040000D01*
X-5051000Y-4043000D01*
X-5051000Y-4045000D01*
X-5052000Y-4048000D01*
X-5052000Y-4050000D01*
X-5053000Y-4053000D01*
X-5054000Y-4055000D01*
X-5055000Y-4058000D01*
X-5057000Y-4060000D01*
X-5058000Y-4062000D01*
X-5060000Y-4064000D01*
X-5061000Y-4066000D01*
X-5063000Y-4068000D01*
X-5065000Y-4070000D01*
X-5067000Y-4072000D01*
X-5069000Y-4074000D01*
X-5071000Y-4075000D01*
X-5073000Y-4077000D01*
X-5075000Y-4078000D01*
X-5077000Y-4080000D01*
X-5080000Y-4081000D01*
X-5082000Y-4082000D01*
X-5085000Y-4083000D01*
X-5087000Y-4083000D01*
X-5090000Y-4084000D01*
X-5092000Y-4084000D01*
X-5095000Y-4085000D01*
X-5097000Y-4085000D01*
X-5100000Y-4085000D01*
X-5300000Y-4085000D01*
X-5303000Y-4085000D01*
X-5305000Y-4085000D01*
X-5308000Y-4084000D01*
X-5310000Y-4084000D01*
X-5313000Y-4083000D01*
X-5315000Y-4083000D01*
X-5318000Y-4082000D01*
X-5320000Y-4081000D01*
X-5323000Y-4080000D01*
X-5325000Y-4078000D01*
X-5327000Y-4077000D01*
X-5329000Y-4075000D01*
X-5331000Y-4074000D01*
X-5333000Y-4072000D01*
X-5335000Y-4070000D01*
X-5337000Y-4068000D01*
X-5339000Y-4066000D01*
X-5340000Y-4064000D01*
X-5342000Y-4062000D01*
X-5343000Y-4060000D01*
X-5345000Y-4058000D01*
X-5346000Y-4055000D01*
X-5347000Y-4053000D01*
X-5348000Y-4050000D01*
X-5348000Y-4048000D01*
X-5349000Y-4045000D01*
X-5349000Y-4043000D01*
X-5350000Y-4040000D01*
X-5350000Y-4038000D01*
X-5350000Y-4035000D01*
X-5350000Y-3565000D01*
X-5350000Y-3562000D01*
X-5350000Y-3560000D01*
X-5349000Y-3557000D01*
X-5349000Y-3555000D01*
X-5348000Y-3552000D01*
X-5348000Y-3550000D01*
X-5347000Y-3547000D01*
X-5346000Y-3545000D01*
X-5345000Y-3542000D01*
X-5343000Y-3540000D01*
X-5342000Y-3538000D01*
X-5340000Y-3536000D01*
X-5339000Y-3534000D01*
X-5337000Y-3532000D01*
X-5335000Y-3530000D01*
X-5333000Y-3528000D01*
X-5331000Y-3526000D01*
X-5329000Y-3525000D01*
X-5327000Y-3523000D01*
X-5325000Y-3522000D01*
X-5323000Y-3520000D01*
X-5320000Y-3519000D01*
X-5318000Y-3518000D01*
X-5315000Y-3517000D01*
X-5313000Y-3517000D01*
X-5310000Y-3516000D01*
X-5308000Y-3516000D01*
X-5305000Y-3515000D01*
X-5303000Y-3515000D01*
X-5300000Y-3515000D01*
X-5100000Y-3515000D01*
X-5097000Y-3515000D01*
X-5095000Y-3515000D01*
X-5092000Y-3516000D01*
G36*
X-5092000Y-3516000D02*
G01*
X-5090000Y-3516000D01*
X-5087000Y-3517000D01*
X-5085000Y-3517000D01*
X-5082000Y-3518000D01*
X-5080000Y-3519000D01*
X-5077000Y-3520000D01*
X-5075000Y-3522000D01*
X-5073000Y-3523000D01*
X-5071000Y-3525000D01*
X-5069000Y-3526000D01*
X-5067000Y-3528000D01*
X-5065000Y-3530000D01*
X-5063000Y-3532000D01*
X-5061000Y-3534000D01*
X-5060000Y-3536000D01*
X-5058000Y-3538000D01*
X-5057000Y-3540000D01*
X-5055000Y-3542000D01*
X-5054000Y-3545000D01*
X-5053000Y-3547000D01*
X-5052000Y-3550000D01*
X-5052000Y-3552000D01*
X-5051000Y-3555000D01*
X-5051000Y-3557000D01*
X-5050000Y-3560000D01*
X-5050000Y-3562000D01*
X-5050000Y-3565000D01*
X-5050000Y-4035000D01*
X-5050000Y-4038000D01*
X-5050000Y-4040000D01*
X-5051000Y-4043000D01*
X-5051000Y-4045000D01*
X-5052000Y-4048000D01*
X-5052000Y-4050000D01*
X-5053000Y-4053000D01*
X-5054000Y-4055000D01*
X-5055000Y-4058000D01*
X-5057000Y-4060000D01*
X-5058000Y-4062000D01*
X-5060000Y-4064000D01*
X-5061000Y-4066000D01*
X-5063000Y-4068000D01*
X-5065000Y-4070000D01*
X-5067000Y-4072000D01*
X-5069000Y-4074000D01*
X-5071000Y-4075000D01*
X-5073000Y-4077000D01*
X-5075000Y-4078000D01*
X-5077000Y-4080000D01*
X-5080000Y-4081000D01*
X-5082000Y-4082000D01*
X-5085000Y-4083000D01*
X-5087000Y-4083000D01*
X-5090000Y-4084000D01*
X-5092000Y-4084000D01*
X-5095000Y-4085000D01*
X-5097000Y-4085000D01*
X-5100000Y-4085000D01*
X-5300000Y-4085000D01*
X-5303000Y-4085000D01*
X-5305000Y-4085000D01*
X-5308000Y-4084000D01*
X-5310000Y-4084000D01*
X-5313000Y-4083000D01*
X-5315000Y-4083000D01*
X-5318000Y-4082000D01*
X-5320000Y-4081000D01*
X-5323000Y-4080000D01*
X-5325000Y-4078000D01*
X-5327000Y-4077000D01*
X-5329000Y-4075000D01*
X-5331000Y-4074000D01*
X-5333000Y-4072000D01*
X-5335000Y-4070000D01*
X-5337000Y-4068000D01*
X-5339000Y-4066000D01*
X-5340000Y-4064000D01*
X-5342000Y-4062000D01*
X-5343000Y-4060000D01*
X-5345000Y-4058000D01*
X-5346000Y-4055000D01*
X-5347000Y-4053000D01*
X-5348000Y-4050000D01*
X-5348000Y-4048000D01*
X-5349000Y-4045000D01*
X-5349000Y-4043000D01*
X-5350000Y-4040000D01*
X-5350000Y-4038000D01*
X-5350000Y-4035000D01*
X-5350000Y-3565000D01*
X-5350000Y-3562000D01*
X-5350000Y-3560000D01*
X-5349000Y-3557000D01*
X-5349000Y-3555000D01*
X-5348000Y-3552000D01*
X-5348000Y-3550000D01*
X-5347000Y-3547000D01*
X-5346000Y-3545000D01*
X-5345000Y-3542000D01*
X-5343000Y-3540000D01*
X-5342000Y-3538000D01*
X-5340000Y-3536000D01*
X-5339000Y-3534000D01*
X-5337000Y-3532000D01*
X-5335000Y-3530000D01*
X-5333000Y-3528000D01*
X-5331000Y-3526000D01*
X-5329000Y-3525000D01*
X-5327000Y-3523000D01*
X-5325000Y-3522000D01*
X-5323000Y-3520000D01*
X-5320000Y-3519000D01*
X-5318000Y-3518000D01*
X-5315000Y-3517000D01*
X-5313000Y-3517000D01*
X-5310000Y-3516000D01*
X-5308000Y-3516000D01*
X-5305000Y-3515000D01*
X-5303000Y-3515000D01*
X-5300000Y-3515000D01*
X-5100000Y-3515000D01*
X-5097000Y-3515000D01*
X-5095000Y-3515000D01*
X-5092000Y-3516000D01*
G37*
X-5092000Y-6446000D02*
X-5090000Y-6446000D01*
X-5087000Y-6447000D01*
X-5085000Y-6447000D01*
X-5082000Y-6448000D01*
X-5080000Y-6449000D01*
X-5077000Y-6450000D01*
X-5075000Y-6452000D01*
X-5073000Y-6453000D01*
X-5071000Y-6455000D01*
X-5069000Y-6456000D01*
X-5067000Y-6458000D01*
X-5065000Y-6460000D01*
X-5063000Y-6462000D01*
X-5061000Y-6464000D01*
X-5060000Y-6466000D01*
X-5058000Y-6468000D01*
X-5057000Y-6470000D01*
X-5055000Y-6472000D01*
X-5054000Y-6475000D01*
X-5053000Y-6477000D01*
X-5052000Y-6480000D01*
X-5052000Y-6482000D01*
X-5051000Y-6485000D01*
X-5051000Y-6487000D01*
X-5050000Y-6490000D01*
X-5050000Y-6492000D01*
X-5050000Y-6495000D01*
X-5050000Y-6965000D01*
X-5050000Y-6968000D01*
X-5050000Y-6970000D01*
X-5051000Y-6973000D01*
X-5051000Y-6975000D01*
X-5052000Y-6978000D01*
X-5052000Y-6980000D01*
X-5053000Y-6983000D01*
X-5054000Y-6985000D01*
X-5055000Y-6988000D01*
X-5057000Y-6990000D01*
X-5058000Y-6992000D01*
X-5060000Y-6994000D01*
X-5061000Y-6996000D01*
X-5063000Y-6998000D01*
X-5065000Y-7000000D01*
X-5067000Y-7002000D01*
X-5069000Y-7004000D01*
X-5071000Y-7005000D01*
X-5073000Y-7007000D01*
X-5075000Y-7008000D01*
X-5077000Y-7010000D01*
X-5080000Y-7011000D01*
X-5082000Y-7012000D01*
X-5085000Y-7013000D01*
X-5087000Y-7013000D01*
X-5090000Y-7014000D01*
X-5092000Y-7014000D01*
X-5095000Y-7015000D01*
X-5097000Y-7015000D01*
X-5100000Y-7015000D01*
X-5300000Y-7015000D01*
X-5303000Y-7015000D01*
X-5305000Y-7015000D01*
X-5308000Y-7014000D01*
X-5310000Y-7014000D01*
X-5313000Y-7013000D01*
X-5315000Y-7013000D01*
X-5318000Y-7012000D01*
X-5320000Y-7011000D01*
X-5323000Y-7010000D01*
X-5325000Y-7008000D01*
X-5327000Y-7007000D01*
X-5329000Y-7005000D01*
X-5331000Y-7004000D01*
X-5333000Y-7002000D01*
X-5335000Y-7000000D01*
X-5337000Y-6998000D01*
X-5339000Y-6996000D01*
X-5340000Y-6994000D01*
X-5342000Y-6992000D01*
X-5343000Y-6990000D01*
X-5345000Y-6988000D01*
X-5346000Y-6985000D01*
X-5347000Y-6983000D01*
X-5348000Y-6980000D01*
X-5348000Y-6978000D01*
X-5349000Y-6975000D01*
X-5349000Y-6973000D01*
X-5350000Y-6970000D01*
X-5350000Y-6968000D01*
X-5350000Y-6965000D01*
X-5350000Y-6495000D01*
X-5350000Y-6492000D01*
X-5350000Y-6490000D01*
X-5349000Y-6487000D01*
X-5349000Y-6485000D01*
X-5348000Y-6482000D01*
X-5348000Y-6480000D01*
X-5347000Y-6477000D01*
X-5346000Y-6475000D01*
X-5345000Y-6472000D01*
X-5343000Y-6470000D01*
X-5342000Y-6468000D01*
X-5340000Y-6466000D01*
X-5339000Y-6464000D01*
X-5337000Y-6462000D01*
X-5335000Y-6460000D01*
X-5333000Y-6458000D01*
X-5331000Y-6456000D01*
X-5329000Y-6455000D01*
X-5327000Y-6453000D01*
X-5325000Y-6452000D01*
X-5323000Y-6450000D01*
X-5320000Y-6449000D01*
X-5318000Y-6448000D01*
X-5315000Y-6447000D01*
X-5313000Y-6447000D01*
X-5310000Y-6446000D01*
X-5308000Y-6446000D01*
X-5305000Y-6445000D01*
X-5303000Y-6445000D01*
X-5300000Y-6445000D01*
X-5100000Y-6445000D01*
X-5097000Y-6445000D01*
X-5095000Y-6445000D01*
X-5092000Y-6446000D01*
G36*
X-5092000Y-6446000D02*
G01*
X-5090000Y-6446000D01*
X-5087000Y-6447000D01*
X-5085000Y-6447000D01*
X-5082000Y-6448000D01*
X-5080000Y-6449000D01*
X-5077000Y-6450000D01*
X-5075000Y-6452000D01*
X-5073000Y-6453000D01*
X-5071000Y-6455000D01*
X-5069000Y-6456000D01*
X-5067000Y-6458000D01*
X-5065000Y-6460000D01*
X-5063000Y-6462000D01*
X-5061000Y-6464000D01*
X-5060000Y-6466000D01*
X-5058000Y-6468000D01*
X-5057000Y-6470000D01*
X-5055000Y-6472000D01*
X-5054000Y-6475000D01*
X-5053000Y-6477000D01*
X-5052000Y-6480000D01*
X-5052000Y-6482000D01*
X-5051000Y-6485000D01*
X-5051000Y-6487000D01*
X-5050000Y-6490000D01*
X-5050000Y-6492000D01*
X-5050000Y-6495000D01*
X-5050000Y-6965000D01*
X-5050000Y-6968000D01*
X-5050000Y-6970000D01*
X-5051000Y-6973000D01*
X-5051000Y-6975000D01*
X-5052000Y-6978000D01*
X-5052000Y-6980000D01*
X-5053000Y-6983000D01*
X-5054000Y-6985000D01*
X-5055000Y-6988000D01*
X-5057000Y-6990000D01*
X-5058000Y-6992000D01*
X-5060000Y-6994000D01*
X-5061000Y-6996000D01*
X-5063000Y-6998000D01*
X-5065000Y-7000000D01*
X-5067000Y-7002000D01*
X-5069000Y-7004000D01*
X-5071000Y-7005000D01*
X-5073000Y-7007000D01*
X-5075000Y-7008000D01*
X-5077000Y-7010000D01*
X-5080000Y-7011000D01*
X-5082000Y-7012000D01*
X-5085000Y-7013000D01*
X-5087000Y-7013000D01*
X-5090000Y-7014000D01*
X-5092000Y-7014000D01*
X-5095000Y-7015000D01*
X-5097000Y-7015000D01*
X-5100000Y-7015000D01*
X-5300000Y-7015000D01*
X-5303000Y-7015000D01*
X-5305000Y-7015000D01*
X-5308000Y-7014000D01*
X-5310000Y-7014000D01*
X-5313000Y-7013000D01*
X-5315000Y-7013000D01*
X-5318000Y-7012000D01*
X-5320000Y-7011000D01*
X-5323000Y-7010000D01*
X-5325000Y-7008000D01*
X-5327000Y-7007000D01*
X-5329000Y-7005000D01*
X-5331000Y-7004000D01*
X-5333000Y-7002000D01*
X-5335000Y-7000000D01*
X-5337000Y-6998000D01*
X-5339000Y-6996000D01*
X-5340000Y-6994000D01*
X-5342000Y-6992000D01*
X-5343000Y-6990000D01*
X-5345000Y-6988000D01*
X-5346000Y-6985000D01*
X-5347000Y-6983000D01*
X-5348000Y-6980000D01*
X-5348000Y-6978000D01*
X-5349000Y-6975000D01*
X-5349000Y-6973000D01*
X-5350000Y-6970000D01*
X-5350000Y-6968000D01*
X-5350000Y-6965000D01*
X-5350000Y-6495000D01*
X-5350000Y-6492000D01*
X-5350000Y-6490000D01*
X-5349000Y-6487000D01*
X-5349000Y-6485000D01*
X-5348000Y-6482000D01*
X-5348000Y-6480000D01*
X-5347000Y-6477000D01*
X-5346000Y-6475000D01*
X-5345000Y-6472000D01*
X-5343000Y-6470000D01*
X-5342000Y-6468000D01*
X-5340000Y-6466000D01*
X-5339000Y-6464000D01*
X-5337000Y-6462000D01*
X-5335000Y-6460000D01*
X-5333000Y-6458000D01*
X-5331000Y-6456000D01*
X-5329000Y-6455000D01*
X-5327000Y-6453000D01*
X-5325000Y-6452000D01*
X-5323000Y-6450000D01*
X-5320000Y-6449000D01*
X-5318000Y-6448000D01*
X-5315000Y-6447000D01*
X-5313000Y-6447000D01*
X-5310000Y-6446000D01*
X-5308000Y-6446000D01*
X-5305000Y-6445000D01*
X-5303000Y-6445000D01*
X-5300000Y-6445000D01*
X-5100000Y-6445000D01*
X-5097000Y-6445000D01*
X-5095000Y-6445000D01*
X-5092000Y-6446000D01*
G37*
X-4692000Y-3516000D02*
X-4690000Y-3516000D01*
X-4687000Y-3517000D01*
X-4685000Y-3517000D01*
X-4682000Y-3518000D01*
X-4680000Y-3519000D01*
X-4677000Y-3520000D01*
X-4675000Y-3522000D01*
X-4673000Y-3523000D01*
X-4671000Y-3525000D01*
X-4669000Y-3526000D01*
X-4667000Y-3528000D01*
X-4665000Y-3530000D01*
X-4663000Y-3532000D01*
X-4661000Y-3534000D01*
X-4660000Y-3536000D01*
X-4658000Y-3538000D01*
X-4657000Y-3540000D01*
X-4655000Y-3542000D01*
X-4654000Y-3545000D01*
X-4653000Y-3547000D01*
X-4652000Y-3550000D01*
X-4652000Y-3552000D01*
X-4651000Y-3555000D01*
X-4651000Y-3557000D01*
X-4650000Y-3560000D01*
X-4650000Y-3562000D01*
X-4650000Y-3565000D01*
X-4650000Y-4035000D01*
X-4650000Y-4038000D01*
X-4650000Y-4040000D01*
X-4651000Y-4043000D01*
X-4651000Y-4045000D01*
X-4652000Y-4048000D01*
X-4652000Y-4050000D01*
X-4653000Y-4053000D01*
X-4654000Y-4055000D01*
X-4655000Y-4058000D01*
X-4657000Y-4060000D01*
X-4658000Y-4062000D01*
X-4660000Y-4064000D01*
X-4661000Y-4066000D01*
X-4663000Y-4068000D01*
X-4665000Y-4070000D01*
X-4667000Y-4072000D01*
X-4669000Y-4074000D01*
X-4671000Y-4075000D01*
X-4673000Y-4077000D01*
X-4675000Y-4078000D01*
X-4677000Y-4080000D01*
X-4680000Y-4081000D01*
X-4682000Y-4082000D01*
X-4685000Y-4083000D01*
X-4687000Y-4083000D01*
X-4690000Y-4084000D01*
X-4692000Y-4084000D01*
X-4695000Y-4085000D01*
X-4697000Y-4085000D01*
X-4700000Y-4085000D01*
X-4900000Y-4085000D01*
X-4903000Y-4085000D01*
X-4905000Y-4085000D01*
X-4908000Y-4084000D01*
X-4910000Y-4084000D01*
X-4913000Y-4083000D01*
X-4915000Y-4083000D01*
X-4918000Y-4082000D01*
X-4920000Y-4081000D01*
X-4923000Y-4080000D01*
X-4925000Y-4078000D01*
X-4927000Y-4077000D01*
X-4929000Y-4075000D01*
X-4931000Y-4074000D01*
X-4933000Y-4072000D01*
X-4935000Y-4070000D01*
X-4937000Y-4068000D01*
X-4939000Y-4066000D01*
X-4940000Y-4064000D01*
X-4942000Y-4062000D01*
X-4943000Y-4060000D01*
X-4945000Y-4058000D01*
X-4946000Y-4055000D01*
X-4947000Y-4053000D01*
X-4948000Y-4050000D01*
X-4948000Y-4048000D01*
X-4949000Y-4045000D01*
X-4949000Y-4043000D01*
X-4950000Y-4040000D01*
X-4950000Y-4038000D01*
X-4950000Y-4035000D01*
X-4950000Y-3565000D01*
X-4950000Y-3562000D01*
X-4950000Y-3560000D01*
X-4949000Y-3557000D01*
X-4949000Y-3555000D01*
X-4948000Y-3552000D01*
X-4948000Y-3550000D01*
X-4947000Y-3547000D01*
X-4946000Y-3545000D01*
X-4945000Y-3542000D01*
X-4943000Y-3540000D01*
X-4942000Y-3538000D01*
X-4940000Y-3536000D01*
X-4939000Y-3534000D01*
X-4937000Y-3532000D01*
X-4935000Y-3530000D01*
X-4933000Y-3528000D01*
X-4931000Y-3526000D01*
X-4929000Y-3525000D01*
X-4927000Y-3523000D01*
X-4925000Y-3522000D01*
X-4923000Y-3520000D01*
X-4920000Y-3519000D01*
X-4918000Y-3518000D01*
X-4915000Y-3517000D01*
X-4913000Y-3517000D01*
X-4910000Y-3516000D01*
X-4908000Y-3516000D01*
X-4905000Y-3515000D01*
X-4903000Y-3515000D01*
X-4900000Y-3515000D01*
X-4700000Y-3515000D01*
X-4697000Y-3515000D01*
X-4695000Y-3515000D01*
X-4692000Y-3516000D01*
G36*
X-4692000Y-3516000D02*
G01*
X-4690000Y-3516000D01*
X-4687000Y-3517000D01*
X-4685000Y-3517000D01*
X-4682000Y-3518000D01*
X-4680000Y-3519000D01*
X-4677000Y-3520000D01*
X-4675000Y-3522000D01*
X-4673000Y-3523000D01*
X-4671000Y-3525000D01*
X-4669000Y-3526000D01*
X-4667000Y-3528000D01*
X-4665000Y-3530000D01*
X-4663000Y-3532000D01*
X-4661000Y-3534000D01*
X-4660000Y-3536000D01*
X-4658000Y-3538000D01*
X-4657000Y-3540000D01*
X-4655000Y-3542000D01*
X-4654000Y-3545000D01*
X-4653000Y-3547000D01*
X-4652000Y-3550000D01*
X-4652000Y-3552000D01*
X-4651000Y-3555000D01*
X-4651000Y-3557000D01*
X-4650000Y-3560000D01*
X-4650000Y-3562000D01*
X-4650000Y-3565000D01*
X-4650000Y-4035000D01*
X-4650000Y-4038000D01*
X-4650000Y-4040000D01*
X-4651000Y-4043000D01*
X-4651000Y-4045000D01*
X-4652000Y-4048000D01*
X-4652000Y-4050000D01*
X-4653000Y-4053000D01*
X-4654000Y-4055000D01*
X-4655000Y-4058000D01*
X-4657000Y-4060000D01*
X-4658000Y-4062000D01*
X-4660000Y-4064000D01*
X-4661000Y-4066000D01*
X-4663000Y-4068000D01*
X-4665000Y-4070000D01*
X-4667000Y-4072000D01*
X-4669000Y-4074000D01*
X-4671000Y-4075000D01*
X-4673000Y-4077000D01*
X-4675000Y-4078000D01*
X-4677000Y-4080000D01*
X-4680000Y-4081000D01*
X-4682000Y-4082000D01*
X-4685000Y-4083000D01*
X-4687000Y-4083000D01*
X-4690000Y-4084000D01*
X-4692000Y-4084000D01*
X-4695000Y-4085000D01*
X-4697000Y-4085000D01*
X-4700000Y-4085000D01*
X-4900000Y-4085000D01*
X-4903000Y-4085000D01*
X-4905000Y-4085000D01*
X-4908000Y-4084000D01*
X-4910000Y-4084000D01*
X-4913000Y-4083000D01*
X-4915000Y-4083000D01*
X-4918000Y-4082000D01*
X-4920000Y-4081000D01*
X-4923000Y-4080000D01*
X-4925000Y-4078000D01*
X-4927000Y-4077000D01*
X-4929000Y-4075000D01*
X-4931000Y-4074000D01*
X-4933000Y-4072000D01*
X-4935000Y-4070000D01*
X-4937000Y-4068000D01*
X-4939000Y-4066000D01*
X-4940000Y-4064000D01*
X-4942000Y-4062000D01*
X-4943000Y-4060000D01*
X-4945000Y-4058000D01*
X-4946000Y-4055000D01*
X-4947000Y-4053000D01*
X-4948000Y-4050000D01*
X-4948000Y-4048000D01*
X-4949000Y-4045000D01*
X-4949000Y-4043000D01*
X-4950000Y-4040000D01*
X-4950000Y-4038000D01*
X-4950000Y-4035000D01*
X-4950000Y-3565000D01*
X-4950000Y-3562000D01*
X-4950000Y-3560000D01*
X-4949000Y-3557000D01*
X-4949000Y-3555000D01*
X-4948000Y-3552000D01*
X-4948000Y-3550000D01*
X-4947000Y-3547000D01*
X-4946000Y-3545000D01*
X-4945000Y-3542000D01*
X-4943000Y-3540000D01*
X-4942000Y-3538000D01*
X-4940000Y-3536000D01*
X-4939000Y-3534000D01*
X-4937000Y-3532000D01*
X-4935000Y-3530000D01*
X-4933000Y-3528000D01*
X-4931000Y-3526000D01*
X-4929000Y-3525000D01*
X-4927000Y-3523000D01*
X-4925000Y-3522000D01*
X-4923000Y-3520000D01*
X-4920000Y-3519000D01*
X-4918000Y-3518000D01*
X-4915000Y-3517000D01*
X-4913000Y-3517000D01*
X-4910000Y-3516000D01*
X-4908000Y-3516000D01*
X-4905000Y-3515000D01*
X-4903000Y-3515000D01*
X-4900000Y-3515000D01*
X-4700000Y-3515000D01*
X-4697000Y-3515000D01*
X-4695000Y-3515000D01*
X-4692000Y-3516000D01*
G37*
X-4692000Y-6446000D02*
X-4690000Y-6446000D01*
X-4687000Y-6447000D01*
X-4685000Y-6447000D01*
X-4682000Y-6448000D01*
X-4680000Y-6449000D01*
X-4677000Y-6450000D01*
X-4675000Y-6452000D01*
X-4673000Y-6453000D01*
X-4671000Y-6455000D01*
X-4669000Y-6456000D01*
X-4667000Y-6458000D01*
X-4665000Y-6460000D01*
X-4663000Y-6462000D01*
X-4661000Y-6464000D01*
X-4660000Y-6466000D01*
X-4658000Y-6468000D01*
X-4657000Y-6470000D01*
X-4655000Y-6472000D01*
X-4654000Y-6475000D01*
X-4653000Y-6477000D01*
X-4652000Y-6480000D01*
X-4652000Y-6482000D01*
X-4651000Y-6485000D01*
X-4651000Y-6487000D01*
X-4650000Y-6490000D01*
X-4650000Y-6492000D01*
X-4650000Y-6495000D01*
X-4650000Y-6965000D01*
X-4650000Y-6968000D01*
X-4650000Y-6970000D01*
X-4651000Y-6973000D01*
X-4651000Y-6975000D01*
X-4652000Y-6978000D01*
X-4652000Y-6980000D01*
X-4653000Y-6983000D01*
X-4654000Y-6985000D01*
X-4655000Y-6988000D01*
X-4657000Y-6990000D01*
X-4658000Y-6992000D01*
X-4660000Y-6994000D01*
X-4661000Y-6996000D01*
X-4663000Y-6998000D01*
X-4665000Y-7000000D01*
X-4667000Y-7002000D01*
X-4669000Y-7004000D01*
X-4671000Y-7005000D01*
X-4673000Y-7007000D01*
X-4675000Y-7008000D01*
X-4677000Y-7010000D01*
X-4680000Y-7011000D01*
X-4682000Y-7012000D01*
X-4685000Y-7013000D01*
X-4687000Y-7013000D01*
X-4690000Y-7014000D01*
X-4692000Y-7014000D01*
X-4695000Y-7015000D01*
X-4697000Y-7015000D01*
X-4700000Y-7015000D01*
X-4900000Y-7015000D01*
X-4903000Y-7015000D01*
X-4905000Y-7015000D01*
X-4908000Y-7014000D01*
X-4910000Y-7014000D01*
X-4913000Y-7013000D01*
X-4915000Y-7013000D01*
X-4918000Y-7012000D01*
X-4920000Y-7011000D01*
X-4923000Y-7010000D01*
X-4925000Y-7008000D01*
X-4927000Y-7007000D01*
X-4929000Y-7005000D01*
X-4931000Y-7004000D01*
X-4933000Y-7002000D01*
X-4935000Y-7000000D01*
X-4937000Y-6998000D01*
X-4939000Y-6996000D01*
X-4940000Y-6994000D01*
X-4942000Y-6992000D01*
X-4943000Y-6990000D01*
X-4945000Y-6988000D01*
X-4946000Y-6985000D01*
X-4947000Y-6983000D01*
X-4948000Y-6980000D01*
X-4948000Y-6978000D01*
X-4949000Y-6975000D01*
X-4949000Y-6973000D01*
X-4950000Y-6970000D01*
X-4950000Y-6968000D01*
X-4950000Y-6965000D01*
X-4950000Y-6495000D01*
X-4950000Y-6492000D01*
X-4950000Y-6490000D01*
X-4949000Y-6487000D01*
X-4949000Y-6485000D01*
X-4948000Y-6482000D01*
X-4948000Y-6480000D01*
X-4947000Y-6477000D01*
X-4946000Y-6475000D01*
X-4945000Y-6472000D01*
X-4943000Y-6470000D01*
X-4942000Y-6468000D01*
X-4940000Y-6466000D01*
X-4939000Y-6464000D01*
X-4937000Y-6462000D01*
X-4935000Y-6460000D01*
X-4933000Y-6458000D01*
X-4931000Y-6456000D01*
X-4929000Y-6455000D01*
X-4927000Y-6453000D01*
X-4925000Y-6452000D01*
X-4923000Y-6450000D01*
X-4920000Y-6449000D01*
X-4918000Y-6448000D01*
X-4915000Y-6447000D01*
X-4913000Y-6447000D01*
X-4910000Y-6446000D01*
X-4908000Y-6446000D01*
X-4905000Y-6445000D01*
X-4903000Y-6445000D01*
X-4900000Y-6445000D01*
X-4700000Y-6445000D01*
X-4697000Y-6445000D01*
X-4695000Y-6445000D01*
X-4692000Y-6446000D01*
G36*
X-4692000Y-6446000D02*
G01*
X-4690000Y-6446000D01*
X-4687000Y-6447000D01*
X-4685000Y-6447000D01*
X-4682000Y-6448000D01*
X-4680000Y-6449000D01*
X-4677000Y-6450000D01*
X-4675000Y-6452000D01*
X-4673000Y-6453000D01*
X-4671000Y-6455000D01*
X-4669000Y-6456000D01*
X-4667000Y-6458000D01*
X-4665000Y-6460000D01*
X-4663000Y-6462000D01*
X-4661000Y-6464000D01*
X-4660000Y-6466000D01*
X-4658000Y-6468000D01*
X-4657000Y-6470000D01*
X-4655000Y-6472000D01*
X-4654000Y-6475000D01*
X-4653000Y-6477000D01*
X-4652000Y-6480000D01*
X-4652000Y-6482000D01*
X-4651000Y-6485000D01*
X-4651000Y-6487000D01*
X-4650000Y-6490000D01*
X-4650000Y-6492000D01*
X-4650000Y-6495000D01*
X-4650000Y-6965000D01*
X-4650000Y-6968000D01*
X-4650000Y-6970000D01*
X-4651000Y-6973000D01*
X-4651000Y-6975000D01*
X-4652000Y-6978000D01*
X-4652000Y-6980000D01*
X-4653000Y-6983000D01*
X-4654000Y-6985000D01*
X-4655000Y-6988000D01*
X-4657000Y-6990000D01*
X-4658000Y-6992000D01*
X-4660000Y-6994000D01*
X-4661000Y-6996000D01*
X-4663000Y-6998000D01*
X-4665000Y-7000000D01*
X-4667000Y-7002000D01*
X-4669000Y-7004000D01*
X-4671000Y-7005000D01*
X-4673000Y-7007000D01*
X-4675000Y-7008000D01*
X-4677000Y-7010000D01*
X-4680000Y-7011000D01*
X-4682000Y-7012000D01*
X-4685000Y-7013000D01*
X-4687000Y-7013000D01*
X-4690000Y-7014000D01*
X-4692000Y-7014000D01*
X-4695000Y-7015000D01*
X-4697000Y-7015000D01*
X-4700000Y-7015000D01*
X-4900000Y-7015000D01*
X-4903000Y-7015000D01*
X-4905000Y-7015000D01*
X-4908000Y-7014000D01*
X-4910000Y-7014000D01*
X-4913000Y-7013000D01*
X-4915000Y-7013000D01*
X-4918000Y-7012000D01*
X-4920000Y-7011000D01*
X-4923000Y-7010000D01*
X-4925000Y-7008000D01*
X-4927000Y-7007000D01*
X-4929000Y-7005000D01*
X-4931000Y-7004000D01*
X-4933000Y-7002000D01*
X-4935000Y-7000000D01*
X-4937000Y-6998000D01*
X-4939000Y-6996000D01*
X-4940000Y-6994000D01*
X-4942000Y-6992000D01*
X-4943000Y-6990000D01*
X-4945000Y-6988000D01*
X-4946000Y-6985000D01*
X-4947000Y-6983000D01*
X-4948000Y-6980000D01*
X-4948000Y-6978000D01*
X-4949000Y-6975000D01*
X-4949000Y-6973000D01*
X-4950000Y-6970000D01*
X-4950000Y-6968000D01*
X-4950000Y-6965000D01*
X-4950000Y-6495000D01*
X-4950000Y-6492000D01*
X-4950000Y-6490000D01*
X-4949000Y-6487000D01*
X-4949000Y-6485000D01*
X-4948000Y-6482000D01*
X-4948000Y-6480000D01*
X-4947000Y-6477000D01*
X-4946000Y-6475000D01*
X-4945000Y-6472000D01*
X-4943000Y-6470000D01*
X-4942000Y-6468000D01*
X-4940000Y-6466000D01*
X-4939000Y-6464000D01*
X-4937000Y-6462000D01*
X-4935000Y-6460000D01*
X-4933000Y-6458000D01*
X-4931000Y-6456000D01*
X-4929000Y-6455000D01*
X-4927000Y-6453000D01*
X-4925000Y-6452000D01*
X-4923000Y-6450000D01*
X-4920000Y-6449000D01*
X-4918000Y-6448000D01*
X-4915000Y-6447000D01*
X-4913000Y-6447000D01*
X-4910000Y-6446000D01*
X-4908000Y-6446000D01*
X-4905000Y-6445000D01*
X-4903000Y-6445000D01*
X-4900000Y-6445000D01*
X-4700000Y-6445000D01*
X-4697000Y-6445000D01*
X-4695000Y-6445000D01*
X-4692000Y-6446000D01*
G37*
X-4292000Y-3516000D02*
X-4290000Y-3516000D01*
X-4287000Y-3517000D01*
X-4285000Y-3517000D01*
X-4282000Y-3518000D01*
X-4280000Y-3519000D01*
X-4277000Y-3520000D01*
X-4275000Y-3522000D01*
X-4273000Y-3523000D01*
X-4271000Y-3525000D01*
X-4269000Y-3526000D01*
X-4267000Y-3528000D01*
X-4265000Y-3530000D01*
X-4263000Y-3532000D01*
X-4261000Y-3534000D01*
X-4260000Y-3536000D01*
X-4258000Y-3538000D01*
X-4257000Y-3540000D01*
X-4255000Y-3542000D01*
X-4254000Y-3545000D01*
X-4253000Y-3547000D01*
X-4252000Y-3550000D01*
X-4252000Y-3552000D01*
X-4251000Y-3555000D01*
X-4251000Y-3557000D01*
X-4250000Y-3560000D01*
X-4250000Y-3562000D01*
X-4250000Y-3565000D01*
X-4250000Y-4035000D01*
X-4250000Y-4038000D01*
X-4250000Y-4040000D01*
X-4251000Y-4043000D01*
X-4251000Y-4045000D01*
X-4252000Y-4048000D01*
X-4252000Y-4050000D01*
X-4253000Y-4053000D01*
X-4254000Y-4055000D01*
X-4255000Y-4058000D01*
X-4257000Y-4060000D01*
X-4258000Y-4062000D01*
X-4260000Y-4064000D01*
X-4261000Y-4066000D01*
X-4263000Y-4068000D01*
X-4265000Y-4070000D01*
X-4267000Y-4072000D01*
X-4269000Y-4074000D01*
X-4271000Y-4075000D01*
X-4273000Y-4077000D01*
X-4275000Y-4078000D01*
X-4277000Y-4080000D01*
X-4280000Y-4081000D01*
X-4282000Y-4082000D01*
X-4285000Y-4083000D01*
X-4287000Y-4083000D01*
X-4290000Y-4084000D01*
X-4292000Y-4084000D01*
X-4295000Y-4085000D01*
X-4297000Y-4085000D01*
X-4300000Y-4085000D01*
X-4500000Y-4085000D01*
X-4503000Y-4085000D01*
X-4505000Y-4085000D01*
X-4508000Y-4084000D01*
X-4510000Y-4084000D01*
X-4513000Y-4083000D01*
X-4515000Y-4083000D01*
X-4518000Y-4082000D01*
X-4520000Y-4081000D01*
X-4523000Y-4080000D01*
X-4525000Y-4078000D01*
X-4527000Y-4077000D01*
X-4529000Y-4075000D01*
X-4531000Y-4074000D01*
X-4533000Y-4072000D01*
X-4535000Y-4070000D01*
X-4537000Y-4068000D01*
X-4539000Y-4066000D01*
X-4540000Y-4064000D01*
X-4542000Y-4062000D01*
X-4543000Y-4060000D01*
X-4545000Y-4058000D01*
X-4546000Y-4055000D01*
X-4547000Y-4053000D01*
X-4548000Y-4050000D01*
X-4548000Y-4048000D01*
X-4549000Y-4045000D01*
X-4549000Y-4043000D01*
X-4550000Y-4040000D01*
X-4550000Y-4038000D01*
X-4550000Y-4035000D01*
X-4550000Y-3565000D01*
X-4550000Y-3562000D01*
X-4550000Y-3560000D01*
X-4549000Y-3557000D01*
X-4549000Y-3555000D01*
X-4548000Y-3552000D01*
X-4548000Y-3550000D01*
X-4547000Y-3547000D01*
X-4546000Y-3545000D01*
X-4545000Y-3542000D01*
X-4543000Y-3540000D01*
X-4542000Y-3538000D01*
X-4540000Y-3536000D01*
X-4539000Y-3534000D01*
X-4537000Y-3532000D01*
X-4535000Y-3530000D01*
X-4533000Y-3528000D01*
X-4531000Y-3526000D01*
X-4529000Y-3525000D01*
X-4527000Y-3523000D01*
X-4525000Y-3522000D01*
X-4523000Y-3520000D01*
X-4520000Y-3519000D01*
X-4518000Y-3518000D01*
X-4515000Y-3517000D01*
X-4513000Y-3517000D01*
X-4510000Y-3516000D01*
X-4508000Y-3516000D01*
X-4505000Y-3515000D01*
X-4503000Y-3515000D01*
X-4500000Y-3515000D01*
X-4300000Y-3515000D01*
X-4297000Y-3515000D01*
X-4295000Y-3515000D01*
X-4292000Y-3516000D01*
G36*
X-4292000Y-3516000D02*
G01*
X-4290000Y-3516000D01*
X-4287000Y-3517000D01*
X-4285000Y-3517000D01*
X-4282000Y-3518000D01*
X-4280000Y-3519000D01*
X-4277000Y-3520000D01*
X-4275000Y-3522000D01*
X-4273000Y-3523000D01*
X-4271000Y-3525000D01*
X-4269000Y-3526000D01*
X-4267000Y-3528000D01*
X-4265000Y-3530000D01*
X-4263000Y-3532000D01*
X-4261000Y-3534000D01*
X-4260000Y-3536000D01*
X-4258000Y-3538000D01*
X-4257000Y-3540000D01*
X-4255000Y-3542000D01*
X-4254000Y-3545000D01*
X-4253000Y-3547000D01*
X-4252000Y-3550000D01*
X-4252000Y-3552000D01*
X-4251000Y-3555000D01*
X-4251000Y-3557000D01*
X-4250000Y-3560000D01*
X-4250000Y-3562000D01*
X-4250000Y-3565000D01*
X-4250000Y-4035000D01*
X-4250000Y-4038000D01*
X-4250000Y-4040000D01*
X-4251000Y-4043000D01*
X-4251000Y-4045000D01*
X-4252000Y-4048000D01*
X-4252000Y-4050000D01*
X-4253000Y-4053000D01*
X-4254000Y-4055000D01*
X-4255000Y-4058000D01*
X-4257000Y-4060000D01*
X-4258000Y-4062000D01*
X-4260000Y-4064000D01*
X-4261000Y-4066000D01*
X-4263000Y-4068000D01*
X-4265000Y-4070000D01*
X-4267000Y-4072000D01*
X-4269000Y-4074000D01*
X-4271000Y-4075000D01*
X-4273000Y-4077000D01*
X-4275000Y-4078000D01*
X-4277000Y-4080000D01*
X-4280000Y-4081000D01*
X-4282000Y-4082000D01*
X-4285000Y-4083000D01*
X-4287000Y-4083000D01*
X-4290000Y-4084000D01*
X-4292000Y-4084000D01*
X-4295000Y-4085000D01*
X-4297000Y-4085000D01*
X-4300000Y-4085000D01*
X-4500000Y-4085000D01*
X-4503000Y-4085000D01*
X-4505000Y-4085000D01*
X-4508000Y-4084000D01*
X-4510000Y-4084000D01*
X-4513000Y-4083000D01*
X-4515000Y-4083000D01*
X-4518000Y-4082000D01*
X-4520000Y-4081000D01*
X-4523000Y-4080000D01*
X-4525000Y-4078000D01*
X-4527000Y-4077000D01*
X-4529000Y-4075000D01*
X-4531000Y-4074000D01*
X-4533000Y-4072000D01*
X-4535000Y-4070000D01*
X-4537000Y-4068000D01*
X-4539000Y-4066000D01*
X-4540000Y-4064000D01*
X-4542000Y-4062000D01*
X-4543000Y-4060000D01*
X-4545000Y-4058000D01*
X-4546000Y-4055000D01*
X-4547000Y-4053000D01*
X-4548000Y-4050000D01*
X-4548000Y-4048000D01*
X-4549000Y-4045000D01*
X-4549000Y-4043000D01*
X-4550000Y-4040000D01*
X-4550000Y-4038000D01*
X-4550000Y-4035000D01*
X-4550000Y-3565000D01*
X-4550000Y-3562000D01*
X-4550000Y-3560000D01*
X-4549000Y-3557000D01*
X-4549000Y-3555000D01*
X-4548000Y-3552000D01*
X-4548000Y-3550000D01*
X-4547000Y-3547000D01*
X-4546000Y-3545000D01*
X-4545000Y-3542000D01*
X-4543000Y-3540000D01*
X-4542000Y-3538000D01*
X-4540000Y-3536000D01*
X-4539000Y-3534000D01*
X-4537000Y-3532000D01*
X-4535000Y-3530000D01*
X-4533000Y-3528000D01*
X-4531000Y-3526000D01*
X-4529000Y-3525000D01*
X-4527000Y-3523000D01*
X-4525000Y-3522000D01*
X-4523000Y-3520000D01*
X-4520000Y-3519000D01*
X-4518000Y-3518000D01*
X-4515000Y-3517000D01*
X-4513000Y-3517000D01*
X-4510000Y-3516000D01*
X-4508000Y-3516000D01*
X-4505000Y-3515000D01*
X-4503000Y-3515000D01*
X-4500000Y-3515000D01*
X-4300000Y-3515000D01*
X-4297000Y-3515000D01*
X-4295000Y-3515000D01*
X-4292000Y-3516000D01*
G37*
X-4292000Y-6446000D02*
X-4290000Y-6446000D01*
X-4287000Y-6447000D01*
X-4285000Y-6447000D01*
X-4282000Y-6448000D01*
X-4280000Y-6449000D01*
X-4277000Y-6450000D01*
X-4275000Y-6452000D01*
X-4273000Y-6453000D01*
X-4271000Y-6455000D01*
X-4269000Y-6456000D01*
X-4267000Y-6458000D01*
X-4265000Y-6460000D01*
X-4263000Y-6462000D01*
X-4261000Y-6464000D01*
X-4260000Y-6466000D01*
X-4258000Y-6468000D01*
X-4257000Y-6470000D01*
X-4255000Y-6472000D01*
X-4254000Y-6475000D01*
X-4253000Y-6477000D01*
X-4252000Y-6480000D01*
X-4252000Y-6482000D01*
X-4251000Y-6485000D01*
X-4251000Y-6487000D01*
X-4250000Y-6490000D01*
X-4250000Y-6492000D01*
X-4250000Y-6495000D01*
X-4250000Y-6965000D01*
X-4250000Y-6968000D01*
X-4250000Y-6970000D01*
X-4251000Y-6973000D01*
X-4251000Y-6975000D01*
X-4252000Y-6978000D01*
X-4252000Y-6980000D01*
X-4253000Y-6983000D01*
X-4254000Y-6985000D01*
X-4255000Y-6988000D01*
X-4257000Y-6990000D01*
X-4258000Y-6992000D01*
X-4260000Y-6994000D01*
X-4261000Y-6996000D01*
X-4263000Y-6998000D01*
X-4265000Y-7000000D01*
X-4267000Y-7002000D01*
X-4269000Y-7004000D01*
X-4271000Y-7005000D01*
X-4273000Y-7007000D01*
X-4275000Y-7008000D01*
X-4277000Y-7010000D01*
X-4280000Y-7011000D01*
X-4282000Y-7012000D01*
X-4285000Y-7013000D01*
X-4287000Y-7013000D01*
X-4290000Y-7014000D01*
X-4292000Y-7014000D01*
X-4295000Y-7015000D01*
X-4297000Y-7015000D01*
X-4300000Y-7015000D01*
X-4500000Y-7015000D01*
X-4503000Y-7015000D01*
X-4505000Y-7015000D01*
X-4508000Y-7014000D01*
X-4510000Y-7014000D01*
X-4513000Y-7013000D01*
X-4515000Y-7013000D01*
X-4518000Y-7012000D01*
X-4520000Y-7011000D01*
X-4523000Y-7010000D01*
X-4525000Y-7008000D01*
X-4527000Y-7007000D01*
X-4529000Y-7005000D01*
X-4531000Y-7004000D01*
X-4533000Y-7002000D01*
X-4535000Y-7000000D01*
X-4537000Y-6998000D01*
X-4539000Y-6996000D01*
X-4540000Y-6994000D01*
X-4542000Y-6992000D01*
X-4543000Y-6990000D01*
X-4545000Y-6988000D01*
X-4546000Y-6985000D01*
X-4547000Y-6983000D01*
X-4548000Y-6980000D01*
X-4548000Y-6978000D01*
X-4549000Y-6975000D01*
X-4549000Y-6973000D01*
X-4550000Y-6970000D01*
X-4550000Y-6968000D01*
X-4550000Y-6965000D01*
X-4550000Y-6495000D01*
X-4550000Y-6492000D01*
X-4550000Y-6490000D01*
X-4549000Y-6487000D01*
X-4549000Y-6485000D01*
X-4548000Y-6482000D01*
X-4548000Y-6480000D01*
X-4547000Y-6477000D01*
X-4546000Y-6475000D01*
X-4545000Y-6472000D01*
X-4543000Y-6470000D01*
X-4542000Y-6468000D01*
X-4540000Y-6466000D01*
X-4539000Y-6464000D01*
X-4537000Y-6462000D01*
X-4535000Y-6460000D01*
X-4533000Y-6458000D01*
X-4531000Y-6456000D01*
X-4529000Y-6455000D01*
X-4527000Y-6453000D01*
X-4525000Y-6452000D01*
X-4523000Y-6450000D01*
X-4520000Y-6449000D01*
X-4518000Y-6448000D01*
X-4515000Y-6447000D01*
X-4513000Y-6447000D01*
X-4510000Y-6446000D01*
X-4508000Y-6446000D01*
X-4505000Y-6445000D01*
X-4503000Y-6445000D01*
X-4500000Y-6445000D01*
X-4300000Y-6445000D01*
X-4297000Y-6445000D01*
X-4295000Y-6445000D01*
X-4292000Y-6446000D01*
G36*
X-4292000Y-6446000D02*
G01*
X-4290000Y-6446000D01*
X-4287000Y-6447000D01*
X-4285000Y-6447000D01*
X-4282000Y-6448000D01*
X-4280000Y-6449000D01*
X-4277000Y-6450000D01*
X-4275000Y-6452000D01*
X-4273000Y-6453000D01*
X-4271000Y-6455000D01*
X-4269000Y-6456000D01*
X-4267000Y-6458000D01*
X-4265000Y-6460000D01*
X-4263000Y-6462000D01*
X-4261000Y-6464000D01*
X-4260000Y-6466000D01*
X-4258000Y-6468000D01*
X-4257000Y-6470000D01*
X-4255000Y-6472000D01*
X-4254000Y-6475000D01*
X-4253000Y-6477000D01*
X-4252000Y-6480000D01*
X-4252000Y-6482000D01*
X-4251000Y-6485000D01*
X-4251000Y-6487000D01*
X-4250000Y-6490000D01*
X-4250000Y-6492000D01*
X-4250000Y-6495000D01*
X-4250000Y-6965000D01*
X-4250000Y-6968000D01*
X-4250000Y-6970000D01*
X-4251000Y-6973000D01*
X-4251000Y-6975000D01*
X-4252000Y-6978000D01*
X-4252000Y-6980000D01*
X-4253000Y-6983000D01*
X-4254000Y-6985000D01*
X-4255000Y-6988000D01*
X-4257000Y-6990000D01*
X-4258000Y-6992000D01*
X-4260000Y-6994000D01*
X-4261000Y-6996000D01*
X-4263000Y-6998000D01*
X-4265000Y-7000000D01*
X-4267000Y-7002000D01*
X-4269000Y-7004000D01*
X-4271000Y-7005000D01*
X-4273000Y-7007000D01*
X-4275000Y-7008000D01*
X-4277000Y-7010000D01*
X-4280000Y-7011000D01*
X-4282000Y-7012000D01*
X-4285000Y-7013000D01*
X-4287000Y-7013000D01*
X-4290000Y-7014000D01*
X-4292000Y-7014000D01*
X-4295000Y-7015000D01*
X-4297000Y-7015000D01*
X-4300000Y-7015000D01*
X-4500000Y-7015000D01*
X-4503000Y-7015000D01*
X-4505000Y-7015000D01*
X-4508000Y-7014000D01*
X-4510000Y-7014000D01*
X-4513000Y-7013000D01*
X-4515000Y-7013000D01*
X-4518000Y-7012000D01*
X-4520000Y-7011000D01*
X-4523000Y-7010000D01*
X-4525000Y-7008000D01*
X-4527000Y-7007000D01*
X-4529000Y-7005000D01*
X-4531000Y-7004000D01*
X-4533000Y-7002000D01*
X-4535000Y-7000000D01*
X-4537000Y-6998000D01*
X-4539000Y-6996000D01*
X-4540000Y-6994000D01*
X-4542000Y-6992000D01*
X-4543000Y-6990000D01*
X-4545000Y-6988000D01*
X-4546000Y-6985000D01*
X-4547000Y-6983000D01*
X-4548000Y-6980000D01*
X-4548000Y-6978000D01*
X-4549000Y-6975000D01*
X-4549000Y-6973000D01*
X-4550000Y-6970000D01*
X-4550000Y-6968000D01*
X-4550000Y-6965000D01*
X-4550000Y-6495000D01*
X-4550000Y-6492000D01*
X-4550000Y-6490000D01*
X-4549000Y-6487000D01*
X-4549000Y-6485000D01*
X-4548000Y-6482000D01*
X-4548000Y-6480000D01*
X-4547000Y-6477000D01*
X-4546000Y-6475000D01*
X-4545000Y-6472000D01*
X-4543000Y-6470000D01*
X-4542000Y-6468000D01*
X-4540000Y-6466000D01*
X-4539000Y-6464000D01*
X-4537000Y-6462000D01*
X-4535000Y-6460000D01*
X-4533000Y-6458000D01*
X-4531000Y-6456000D01*
X-4529000Y-6455000D01*
X-4527000Y-6453000D01*
X-4525000Y-6452000D01*
X-4523000Y-6450000D01*
X-4520000Y-6449000D01*
X-4518000Y-6448000D01*
X-4515000Y-6447000D01*
X-4513000Y-6447000D01*
X-4510000Y-6446000D01*
X-4508000Y-6446000D01*
X-4505000Y-6445000D01*
X-4503000Y-6445000D01*
X-4500000Y-6445000D01*
X-4300000Y-6445000D01*
X-4297000Y-6445000D01*
X-4295000Y-6445000D01*
X-4292000Y-6446000D01*
G37*
X-3892000Y-3516000D02*
X-3890000Y-3516000D01*
X-3887000Y-3517000D01*
X-3885000Y-3517000D01*
X-3882000Y-3518000D01*
X-3880000Y-3519000D01*
X-3877000Y-3520000D01*
X-3875000Y-3522000D01*
X-3873000Y-3523000D01*
X-3871000Y-3525000D01*
X-3869000Y-3526000D01*
X-3867000Y-3528000D01*
X-3865000Y-3530000D01*
X-3863000Y-3532000D01*
X-3861000Y-3534000D01*
X-3860000Y-3536000D01*
X-3858000Y-3538000D01*
X-3857000Y-3540000D01*
X-3855000Y-3542000D01*
X-3854000Y-3545000D01*
X-3853000Y-3547000D01*
X-3852000Y-3550000D01*
X-3852000Y-3552000D01*
X-3851000Y-3555000D01*
X-3851000Y-3557000D01*
X-3850000Y-3560000D01*
X-3850000Y-3562000D01*
X-3850000Y-3565000D01*
X-3850000Y-4035000D01*
X-3850000Y-4038000D01*
X-3850000Y-4040000D01*
X-3851000Y-4043000D01*
X-3851000Y-4045000D01*
X-3852000Y-4048000D01*
X-3852000Y-4050000D01*
X-3853000Y-4053000D01*
X-3854000Y-4055000D01*
X-3855000Y-4058000D01*
X-3857000Y-4060000D01*
X-3858000Y-4062000D01*
X-3860000Y-4064000D01*
X-3861000Y-4066000D01*
X-3863000Y-4068000D01*
X-3865000Y-4070000D01*
X-3867000Y-4072000D01*
X-3869000Y-4074000D01*
X-3871000Y-4075000D01*
X-3873000Y-4077000D01*
X-3875000Y-4078000D01*
X-3877000Y-4080000D01*
X-3880000Y-4081000D01*
X-3882000Y-4082000D01*
X-3885000Y-4083000D01*
X-3887000Y-4083000D01*
X-3890000Y-4084000D01*
X-3892000Y-4084000D01*
X-3895000Y-4085000D01*
X-3897000Y-4085000D01*
X-3900000Y-4085000D01*
X-4100000Y-4085000D01*
X-4103000Y-4085000D01*
X-4105000Y-4085000D01*
X-4108000Y-4084000D01*
X-4110000Y-4084000D01*
X-4113000Y-4083000D01*
X-4115000Y-4083000D01*
X-4118000Y-4082000D01*
X-4120000Y-4081000D01*
X-4123000Y-4080000D01*
X-4125000Y-4078000D01*
X-4127000Y-4077000D01*
X-4129000Y-4075000D01*
X-4131000Y-4074000D01*
X-4133000Y-4072000D01*
X-4135000Y-4070000D01*
X-4137000Y-4068000D01*
X-4139000Y-4066000D01*
X-4140000Y-4064000D01*
X-4142000Y-4062000D01*
X-4143000Y-4060000D01*
X-4145000Y-4058000D01*
X-4146000Y-4055000D01*
X-4147000Y-4053000D01*
X-4148000Y-4050000D01*
X-4148000Y-4048000D01*
X-4149000Y-4045000D01*
X-4149000Y-4043000D01*
X-4150000Y-4040000D01*
X-4150000Y-4038000D01*
X-4150000Y-4035000D01*
X-4150000Y-3565000D01*
X-4150000Y-3562000D01*
X-4150000Y-3560000D01*
X-4149000Y-3557000D01*
X-4149000Y-3555000D01*
X-4148000Y-3552000D01*
X-4148000Y-3550000D01*
X-4147000Y-3547000D01*
X-4146000Y-3545000D01*
X-4145000Y-3542000D01*
X-4143000Y-3540000D01*
X-4142000Y-3538000D01*
X-4140000Y-3536000D01*
X-4139000Y-3534000D01*
X-4137000Y-3532000D01*
X-4135000Y-3530000D01*
X-4133000Y-3528000D01*
X-4131000Y-3526000D01*
X-4129000Y-3525000D01*
X-4127000Y-3523000D01*
X-4125000Y-3522000D01*
X-4123000Y-3520000D01*
X-4120000Y-3519000D01*
X-4118000Y-3518000D01*
X-4115000Y-3517000D01*
X-4113000Y-3517000D01*
X-4110000Y-3516000D01*
X-4108000Y-3516000D01*
X-4105000Y-3515000D01*
X-4103000Y-3515000D01*
X-4100000Y-3515000D01*
X-3900000Y-3515000D01*
X-3897000Y-3515000D01*
X-3895000Y-3515000D01*
X-3892000Y-3516000D01*
G36*
X-3892000Y-3516000D02*
G01*
X-3890000Y-3516000D01*
X-3887000Y-3517000D01*
X-3885000Y-3517000D01*
X-3882000Y-3518000D01*
X-3880000Y-3519000D01*
X-3877000Y-3520000D01*
X-3875000Y-3522000D01*
X-3873000Y-3523000D01*
X-3871000Y-3525000D01*
X-3869000Y-3526000D01*
X-3867000Y-3528000D01*
X-3865000Y-3530000D01*
X-3863000Y-3532000D01*
X-3861000Y-3534000D01*
X-3860000Y-3536000D01*
X-3858000Y-3538000D01*
X-3857000Y-3540000D01*
X-3855000Y-3542000D01*
X-3854000Y-3545000D01*
X-3853000Y-3547000D01*
X-3852000Y-3550000D01*
X-3852000Y-3552000D01*
X-3851000Y-3555000D01*
X-3851000Y-3557000D01*
X-3850000Y-3560000D01*
X-3850000Y-3562000D01*
X-3850000Y-3565000D01*
X-3850000Y-4035000D01*
X-3850000Y-4038000D01*
X-3850000Y-4040000D01*
X-3851000Y-4043000D01*
X-3851000Y-4045000D01*
X-3852000Y-4048000D01*
X-3852000Y-4050000D01*
X-3853000Y-4053000D01*
X-3854000Y-4055000D01*
X-3855000Y-4058000D01*
X-3857000Y-4060000D01*
X-3858000Y-4062000D01*
X-3860000Y-4064000D01*
X-3861000Y-4066000D01*
X-3863000Y-4068000D01*
X-3865000Y-4070000D01*
X-3867000Y-4072000D01*
X-3869000Y-4074000D01*
X-3871000Y-4075000D01*
X-3873000Y-4077000D01*
X-3875000Y-4078000D01*
X-3877000Y-4080000D01*
X-3880000Y-4081000D01*
X-3882000Y-4082000D01*
X-3885000Y-4083000D01*
X-3887000Y-4083000D01*
X-3890000Y-4084000D01*
X-3892000Y-4084000D01*
X-3895000Y-4085000D01*
X-3897000Y-4085000D01*
X-3900000Y-4085000D01*
X-4100000Y-4085000D01*
X-4103000Y-4085000D01*
X-4105000Y-4085000D01*
X-4108000Y-4084000D01*
X-4110000Y-4084000D01*
X-4113000Y-4083000D01*
X-4115000Y-4083000D01*
X-4118000Y-4082000D01*
X-4120000Y-4081000D01*
X-4123000Y-4080000D01*
X-4125000Y-4078000D01*
X-4127000Y-4077000D01*
X-4129000Y-4075000D01*
X-4131000Y-4074000D01*
X-4133000Y-4072000D01*
X-4135000Y-4070000D01*
X-4137000Y-4068000D01*
X-4139000Y-4066000D01*
X-4140000Y-4064000D01*
X-4142000Y-4062000D01*
X-4143000Y-4060000D01*
X-4145000Y-4058000D01*
X-4146000Y-4055000D01*
X-4147000Y-4053000D01*
X-4148000Y-4050000D01*
X-4148000Y-4048000D01*
X-4149000Y-4045000D01*
X-4149000Y-4043000D01*
X-4150000Y-4040000D01*
X-4150000Y-4038000D01*
X-4150000Y-4035000D01*
X-4150000Y-3565000D01*
X-4150000Y-3562000D01*
X-4150000Y-3560000D01*
X-4149000Y-3557000D01*
X-4149000Y-3555000D01*
X-4148000Y-3552000D01*
X-4148000Y-3550000D01*
X-4147000Y-3547000D01*
X-4146000Y-3545000D01*
X-4145000Y-3542000D01*
X-4143000Y-3540000D01*
X-4142000Y-3538000D01*
X-4140000Y-3536000D01*
X-4139000Y-3534000D01*
X-4137000Y-3532000D01*
X-4135000Y-3530000D01*
X-4133000Y-3528000D01*
X-4131000Y-3526000D01*
X-4129000Y-3525000D01*
X-4127000Y-3523000D01*
X-4125000Y-3522000D01*
X-4123000Y-3520000D01*
X-4120000Y-3519000D01*
X-4118000Y-3518000D01*
X-4115000Y-3517000D01*
X-4113000Y-3517000D01*
X-4110000Y-3516000D01*
X-4108000Y-3516000D01*
X-4105000Y-3515000D01*
X-4103000Y-3515000D01*
X-4100000Y-3515000D01*
X-3900000Y-3515000D01*
X-3897000Y-3515000D01*
X-3895000Y-3515000D01*
X-3892000Y-3516000D01*
G37*
X-3892000Y-6446000D02*
X-3890000Y-6446000D01*
X-3887000Y-6447000D01*
X-3885000Y-6447000D01*
X-3882000Y-6448000D01*
X-3880000Y-6449000D01*
X-3877000Y-6450000D01*
X-3875000Y-6452000D01*
X-3873000Y-6453000D01*
X-3871000Y-6455000D01*
X-3869000Y-6456000D01*
X-3867000Y-6458000D01*
X-3865000Y-6460000D01*
X-3863000Y-6462000D01*
X-3861000Y-6464000D01*
X-3860000Y-6466000D01*
X-3858000Y-6468000D01*
X-3857000Y-6470000D01*
X-3855000Y-6472000D01*
X-3854000Y-6475000D01*
X-3853000Y-6477000D01*
X-3852000Y-6480000D01*
X-3852000Y-6482000D01*
X-3851000Y-6485000D01*
X-3851000Y-6487000D01*
X-3850000Y-6490000D01*
X-3850000Y-6492000D01*
X-3850000Y-6495000D01*
X-3850000Y-6965000D01*
X-3850000Y-6968000D01*
X-3850000Y-6970000D01*
X-3851000Y-6973000D01*
X-3851000Y-6975000D01*
X-3852000Y-6978000D01*
X-3852000Y-6980000D01*
X-3853000Y-6983000D01*
X-3854000Y-6985000D01*
X-3855000Y-6988000D01*
X-3857000Y-6990000D01*
X-3858000Y-6992000D01*
X-3860000Y-6994000D01*
X-3861000Y-6996000D01*
X-3863000Y-6998000D01*
X-3865000Y-7000000D01*
X-3867000Y-7002000D01*
X-3869000Y-7004000D01*
X-3871000Y-7005000D01*
X-3873000Y-7007000D01*
X-3875000Y-7008000D01*
X-3877000Y-7010000D01*
X-3880000Y-7011000D01*
X-3882000Y-7012000D01*
X-3885000Y-7013000D01*
X-3887000Y-7013000D01*
X-3890000Y-7014000D01*
X-3892000Y-7014000D01*
X-3895000Y-7015000D01*
X-3897000Y-7015000D01*
X-3900000Y-7015000D01*
X-4100000Y-7015000D01*
X-4103000Y-7015000D01*
X-4105000Y-7015000D01*
X-4108000Y-7014000D01*
X-4110000Y-7014000D01*
X-4113000Y-7013000D01*
X-4115000Y-7013000D01*
X-4118000Y-7012000D01*
X-4120000Y-7011000D01*
X-4123000Y-7010000D01*
X-4125000Y-7008000D01*
X-4127000Y-7007000D01*
X-4129000Y-7005000D01*
X-4131000Y-7004000D01*
X-4133000Y-7002000D01*
X-4135000Y-7000000D01*
X-4137000Y-6998000D01*
X-4139000Y-6996000D01*
X-4140000Y-6994000D01*
X-4142000Y-6992000D01*
X-4143000Y-6990000D01*
X-4145000Y-6988000D01*
X-4146000Y-6985000D01*
X-4147000Y-6983000D01*
X-4148000Y-6980000D01*
X-4148000Y-6978000D01*
X-4149000Y-6975000D01*
X-4149000Y-6973000D01*
X-4150000Y-6970000D01*
X-4150000Y-6968000D01*
X-4150000Y-6965000D01*
X-4150000Y-6495000D01*
X-4150000Y-6492000D01*
X-4150000Y-6490000D01*
X-4149000Y-6487000D01*
X-4149000Y-6485000D01*
X-4148000Y-6482000D01*
X-4148000Y-6480000D01*
X-4147000Y-6477000D01*
X-4146000Y-6475000D01*
X-4145000Y-6472000D01*
X-4143000Y-6470000D01*
X-4142000Y-6468000D01*
X-4140000Y-6466000D01*
X-4139000Y-6464000D01*
X-4137000Y-6462000D01*
X-4135000Y-6460000D01*
X-4133000Y-6458000D01*
X-4131000Y-6456000D01*
X-4129000Y-6455000D01*
X-4127000Y-6453000D01*
X-4125000Y-6452000D01*
X-4123000Y-6450000D01*
X-4120000Y-6449000D01*
X-4118000Y-6448000D01*
X-4115000Y-6447000D01*
X-4113000Y-6447000D01*
X-4110000Y-6446000D01*
X-4108000Y-6446000D01*
X-4105000Y-6445000D01*
X-4103000Y-6445000D01*
X-4100000Y-6445000D01*
X-3900000Y-6445000D01*
X-3897000Y-6445000D01*
X-3895000Y-6445000D01*
X-3892000Y-6446000D01*
G36*
X-3892000Y-6446000D02*
G01*
X-3890000Y-6446000D01*
X-3887000Y-6447000D01*
X-3885000Y-6447000D01*
X-3882000Y-6448000D01*
X-3880000Y-6449000D01*
X-3877000Y-6450000D01*
X-3875000Y-6452000D01*
X-3873000Y-6453000D01*
X-3871000Y-6455000D01*
X-3869000Y-6456000D01*
X-3867000Y-6458000D01*
X-3865000Y-6460000D01*
X-3863000Y-6462000D01*
X-3861000Y-6464000D01*
X-3860000Y-6466000D01*
X-3858000Y-6468000D01*
X-3857000Y-6470000D01*
X-3855000Y-6472000D01*
X-3854000Y-6475000D01*
X-3853000Y-6477000D01*
X-3852000Y-6480000D01*
X-3852000Y-6482000D01*
X-3851000Y-6485000D01*
X-3851000Y-6487000D01*
X-3850000Y-6490000D01*
X-3850000Y-6492000D01*
X-3850000Y-6495000D01*
X-3850000Y-6965000D01*
X-3850000Y-6968000D01*
X-3850000Y-6970000D01*
X-3851000Y-6973000D01*
X-3851000Y-6975000D01*
X-3852000Y-6978000D01*
X-3852000Y-6980000D01*
X-3853000Y-6983000D01*
X-3854000Y-6985000D01*
X-3855000Y-6988000D01*
X-3857000Y-6990000D01*
X-3858000Y-6992000D01*
X-3860000Y-6994000D01*
X-3861000Y-6996000D01*
X-3863000Y-6998000D01*
X-3865000Y-7000000D01*
X-3867000Y-7002000D01*
X-3869000Y-7004000D01*
X-3871000Y-7005000D01*
X-3873000Y-7007000D01*
X-3875000Y-7008000D01*
X-3877000Y-7010000D01*
X-3880000Y-7011000D01*
X-3882000Y-7012000D01*
X-3885000Y-7013000D01*
X-3887000Y-7013000D01*
X-3890000Y-7014000D01*
X-3892000Y-7014000D01*
X-3895000Y-7015000D01*
X-3897000Y-7015000D01*
X-3900000Y-7015000D01*
X-4100000Y-7015000D01*
X-4103000Y-7015000D01*
X-4105000Y-7015000D01*
X-4108000Y-7014000D01*
X-4110000Y-7014000D01*
X-4113000Y-7013000D01*
X-4115000Y-7013000D01*
X-4118000Y-7012000D01*
X-4120000Y-7011000D01*
X-4123000Y-7010000D01*
X-4125000Y-7008000D01*
X-4127000Y-7007000D01*
X-4129000Y-7005000D01*
X-4131000Y-7004000D01*
X-4133000Y-7002000D01*
X-4135000Y-7000000D01*
X-4137000Y-6998000D01*
X-4139000Y-6996000D01*
X-4140000Y-6994000D01*
X-4142000Y-6992000D01*
X-4143000Y-6990000D01*
X-4145000Y-6988000D01*
X-4146000Y-6985000D01*
X-4147000Y-6983000D01*
X-4148000Y-6980000D01*
X-4148000Y-6978000D01*
X-4149000Y-6975000D01*
X-4149000Y-6973000D01*
X-4150000Y-6970000D01*
X-4150000Y-6968000D01*
X-4150000Y-6965000D01*
X-4150000Y-6495000D01*
X-4150000Y-6492000D01*
X-4150000Y-6490000D01*
X-4149000Y-6487000D01*
X-4149000Y-6485000D01*
X-4148000Y-6482000D01*
X-4148000Y-6480000D01*
X-4147000Y-6477000D01*
X-4146000Y-6475000D01*
X-4145000Y-6472000D01*
X-4143000Y-6470000D01*
X-4142000Y-6468000D01*
X-4140000Y-6466000D01*
X-4139000Y-6464000D01*
X-4137000Y-6462000D01*
X-4135000Y-6460000D01*
X-4133000Y-6458000D01*
X-4131000Y-6456000D01*
X-4129000Y-6455000D01*
X-4127000Y-6453000D01*
X-4125000Y-6452000D01*
X-4123000Y-6450000D01*
X-4120000Y-6449000D01*
X-4118000Y-6448000D01*
X-4115000Y-6447000D01*
X-4113000Y-6447000D01*
X-4110000Y-6446000D01*
X-4108000Y-6446000D01*
X-4105000Y-6445000D01*
X-4103000Y-6445000D01*
X-4100000Y-6445000D01*
X-3900000Y-6445000D01*
X-3897000Y-6445000D01*
X-3895000Y-6445000D01*
X-3892000Y-6446000D01*
G37*
X-3492000Y-3516000D02*
X-3490000Y-3516000D01*
X-3487000Y-3517000D01*
X-3485000Y-3517000D01*
X-3482000Y-3518000D01*
X-3480000Y-3519000D01*
X-3477000Y-3520000D01*
X-3475000Y-3522000D01*
X-3473000Y-3523000D01*
X-3471000Y-3525000D01*
X-3469000Y-3526000D01*
X-3467000Y-3528000D01*
X-3465000Y-3530000D01*
X-3463000Y-3532000D01*
X-3461000Y-3534000D01*
X-3460000Y-3536000D01*
X-3458000Y-3538000D01*
X-3457000Y-3540000D01*
X-3455000Y-3542000D01*
X-3454000Y-3545000D01*
X-3453000Y-3547000D01*
X-3452000Y-3550000D01*
X-3452000Y-3552000D01*
X-3451000Y-3555000D01*
X-3451000Y-3557000D01*
X-3450000Y-3560000D01*
X-3450000Y-3562000D01*
X-3450000Y-3565000D01*
X-3450000Y-4035000D01*
X-3450000Y-4038000D01*
X-3450000Y-4040000D01*
X-3451000Y-4043000D01*
X-3451000Y-4045000D01*
X-3452000Y-4048000D01*
X-3452000Y-4050000D01*
X-3453000Y-4053000D01*
X-3454000Y-4055000D01*
X-3455000Y-4058000D01*
X-3457000Y-4060000D01*
X-3458000Y-4062000D01*
X-3460000Y-4064000D01*
X-3461000Y-4066000D01*
X-3463000Y-4068000D01*
X-3465000Y-4070000D01*
X-3467000Y-4072000D01*
X-3469000Y-4074000D01*
X-3471000Y-4075000D01*
X-3473000Y-4077000D01*
X-3475000Y-4078000D01*
X-3477000Y-4080000D01*
X-3480000Y-4081000D01*
X-3482000Y-4082000D01*
X-3485000Y-4083000D01*
X-3487000Y-4083000D01*
X-3490000Y-4084000D01*
X-3492000Y-4084000D01*
X-3495000Y-4085000D01*
X-3497000Y-4085000D01*
X-3500000Y-4085000D01*
X-3700000Y-4085000D01*
X-3703000Y-4085000D01*
X-3705000Y-4085000D01*
X-3708000Y-4084000D01*
X-3710000Y-4084000D01*
X-3713000Y-4083000D01*
X-3715000Y-4083000D01*
X-3718000Y-4082000D01*
X-3720000Y-4081000D01*
X-3723000Y-4080000D01*
X-3725000Y-4078000D01*
X-3727000Y-4077000D01*
X-3729000Y-4075000D01*
X-3731000Y-4074000D01*
X-3733000Y-4072000D01*
X-3735000Y-4070000D01*
X-3737000Y-4068000D01*
X-3739000Y-4066000D01*
X-3740000Y-4064000D01*
X-3742000Y-4062000D01*
X-3743000Y-4060000D01*
X-3745000Y-4058000D01*
X-3746000Y-4055000D01*
X-3747000Y-4053000D01*
X-3748000Y-4050000D01*
X-3748000Y-4048000D01*
X-3749000Y-4045000D01*
X-3749000Y-4043000D01*
X-3750000Y-4040000D01*
X-3750000Y-4038000D01*
X-3750000Y-4035000D01*
X-3750000Y-3565000D01*
X-3750000Y-3562000D01*
X-3750000Y-3560000D01*
X-3749000Y-3557000D01*
X-3749000Y-3555000D01*
X-3748000Y-3552000D01*
X-3748000Y-3550000D01*
X-3747000Y-3547000D01*
X-3746000Y-3545000D01*
X-3745000Y-3542000D01*
X-3743000Y-3540000D01*
X-3742000Y-3538000D01*
X-3740000Y-3536000D01*
X-3739000Y-3534000D01*
X-3737000Y-3532000D01*
X-3735000Y-3530000D01*
X-3733000Y-3528000D01*
X-3731000Y-3526000D01*
X-3729000Y-3525000D01*
X-3727000Y-3523000D01*
X-3725000Y-3522000D01*
X-3723000Y-3520000D01*
X-3720000Y-3519000D01*
X-3718000Y-3518000D01*
X-3715000Y-3517000D01*
X-3713000Y-3517000D01*
X-3710000Y-3516000D01*
X-3708000Y-3516000D01*
X-3705000Y-3515000D01*
X-3703000Y-3515000D01*
X-3700000Y-3515000D01*
X-3500000Y-3515000D01*
X-3497000Y-3515000D01*
X-3495000Y-3515000D01*
X-3492000Y-3516000D01*
G36*
X-3492000Y-3516000D02*
G01*
X-3490000Y-3516000D01*
X-3487000Y-3517000D01*
X-3485000Y-3517000D01*
X-3482000Y-3518000D01*
X-3480000Y-3519000D01*
X-3477000Y-3520000D01*
X-3475000Y-3522000D01*
X-3473000Y-3523000D01*
X-3471000Y-3525000D01*
X-3469000Y-3526000D01*
X-3467000Y-3528000D01*
X-3465000Y-3530000D01*
X-3463000Y-3532000D01*
X-3461000Y-3534000D01*
X-3460000Y-3536000D01*
X-3458000Y-3538000D01*
X-3457000Y-3540000D01*
X-3455000Y-3542000D01*
X-3454000Y-3545000D01*
X-3453000Y-3547000D01*
X-3452000Y-3550000D01*
X-3452000Y-3552000D01*
X-3451000Y-3555000D01*
X-3451000Y-3557000D01*
X-3450000Y-3560000D01*
X-3450000Y-3562000D01*
X-3450000Y-3565000D01*
X-3450000Y-4035000D01*
X-3450000Y-4038000D01*
X-3450000Y-4040000D01*
X-3451000Y-4043000D01*
X-3451000Y-4045000D01*
X-3452000Y-4048000D01*
X-3452000Y-4050000D01*
X-3453000Y-4053000D01*
X-3454000Y-4055000D01*
X-3455000Y-4058000D01*
X-3457000Y-4060000D01*
X-3458000Y-4062000D01*
X-3460000Y-4064000D01*
X-3461000Y-4066000D01*
X-3463000Y-4068000D01*
X-3465000Y-4070000D01*
X-3467000Y-4072000D01*
X-3469000Y-4074000D01*
X-3471000Y-4075000D01*
X-3473000Y-4077000D01*
X-3475000Y-4078000D01*
X-3477000Y-4080000D01*
X-3480000Y-4081000D01*
X-3482000Y-4082000D01*
X-3485000Y-4083000D01*
X-3487000Y-4083000D01*
X-3490000Y-4084000D01*
X-3492000Y-4084000D01*
X-3495000Y-4085000D01*
X-3497000Y-4085000D01*
X-3500000Y-4085000D01*
X-3700000Y-4085000D01*
X-3703000Y-4085000D01*
X-3705000Y-4085000D01*
X-3708000Y-4084000D01*
X-3710000Y-4084000D01*
X-3713000Y-4083000D01*
X-3715000Y-4083000D01*
X-3718000Y-4082000D01*
X-3720000Y-4081000D01*
X-3723000Y-4080000D01*
X-3725000Y-4078000D01*
X-3727000Y-4077000D01*
X-3729000Y-4075000D01*
X-3731000Y-4074000D01*
X-3733000Y-4072000D01*
X-3735000Y-4070000D01*
X-3737000Y-4068000D01*
X-3739000Y-4066000D01*
X-3740000Y-4064000D01*
X-3742000Y-4062000D01*
X-3743000Y-4060000D01*
X-3745000Y-4058000D01*
X-3746000Y-4055000D01*
X-3747000Y-4053000D01*
X-3748000Y-4050000D01*
X-3748000Y-4048000D01*
X-3749000Y-4045000D01*
X-3749000Y-4043000D01*
X-3750000Y-4040000D01*
X-3750000Y-4038000D01*
X-3750000Y-4035000D01*
X-3750000Y-3565000D01*
X-3750000Y-3562000D01*
X-3750000Y-3560000D01*
X-3749000Y-3557000D01*
X-3749000Y-3555000D01*
X-3748000Y-3552000D01*
X-3748000Y-3550000D01*
X-3747000Y-3547000D01*
X-3746000Y-3545000D01*
X-3745000Y-3542000D01*
X-3743000Y-3540000D01*
X-3742000Y-3538000D01*
X-3740000Y-3536000D01*
X-3739000Y-3534000D01*
X-3737000Y-3532000D01*
X-3735000Y-3530000D01*
X-3733000Y-3528000D01*
X-3731000Y-3526000D01*
X-3729000Y-3525000D01*
X-3727000Y-3523000D01*
X-3725000Y-3522000D01*
X-3723000Y-3520000D01*
X-3720000Y-3519000D01*
X-3718000Y-3518000D01*
X-3715000Y-3517000D01*
X-3713000Y-3517000D01*
X-3710000Y-3516000D01*
X-3708000Y-3516000D01*
X-3705000Y-3515000D01*
X-3703000Y-3515000D01*
X-3700000Y-3515000D01*
X-3500000Y-3515000D01*
X-3497000Y-3515000D01*
X-3495000Y-3515000D01*
X-3492000Y-3516000D01*
G37*
X-3492000Y-6446000D02*
X-3490000Y-6446000D01*
X-3487000Y-6447000D01*
X-3485000Y-6447000D01*
X-3482000Y-6448000D01*
X-3480000Y-6449000D01*
X-3477000Y-6450000D01*
X-3475000Y-6452000D01*
X-3473000Y-6453000D01*
X-3471000Y-6455000D01*
X-3469000Y-6456000D01*
X-3467000Y-6458000D01*
X-3465000Y-6460000D01*
X-3463000Y-6462000D01*
X-3461000Y-6464000D01*
X-3460000Y-6466000D01*
X-3458000Y-6468000D01*
X-3457000Y-6470000D01*
X-3455000Y-6472000D01*
X-3454000Y-6475000D01*
X-3453000Y-6477000D01*
X-3452000Y-6480000D01*
X-3452000Y-6482000D01*
X-3451000Y-6485000D01*
X-3451000Y-6487000D01*
X-3450000Y-6490000D01*
X-3450000Y-6492000D01*
X-3450000Y-6495000D01*
X-3450000Y-6965000D01*
X-3450000Y-6968000D01*
X-3450000Y-6970000D01*
X-3451000Y-6973000D01*
X-3451000Y-6975000D01*
X-3452000Y-6978000D01*
X-3452000Y-6980000D01*
X-3453000Y-6983000D01*
X-3454000Y-6985000D01*
X-3455000Y-6988000D01*
X-3457000Y-6990000D01*
X-3458000Y-6992000D01*
X-3460000Y-6994000D01*
X-3461000Y-6996000D01*
X-3463000Y-6998000D01*
X-3465000Y-7000000D01*
X-3467000Y-7002000D01*
X-3469000Y-7004000D01*
X-3471000Y-7005000D01*
X-3473000Y-7007000D01*
X-3475000Y-7008000D01*
X-3477000Y-7010000D01*
X-3480000Y-7011000D01*
X-3482000Y-7012000D01*
X-3485000Y-7013000D01*
X-3487000Y-7013000D01*
X-3490000Y-7014000D01*
X-3492000Y-7014000D01*
X-3495000Y-7015000D01*
X-3497000Y-7015000D01*
X-3500000Y-7015000D01*
X-3700000Y-7015000D01*
X-3703000Y-7015000D01*
X-3705000Y-7015000D01*
X-3708000Y-7014000D01*
X-3710000Y-7014000D01*
X-3713000Y-7013000D01*
X-3715000Y-7013000D01*
X-3718000Y-7012000D01*
X-3720000Y-7011000D01*
X-3723000Y-7010000D01*
X-3725000Y-7008000D01*
X-3727000Y-7007000D01*
X-3729000Y-7005000D01*
X-3731000Y-7004000D01*
X-3733000Y-7002000D01*
X-3735000Y-7000000D01*
X-3737000Y-6998000D01*
X-3739000Y-6996000D01*
X-3740000Y-6994000D01*
X-3742000Y-6992000D01*
X-3743000Y-6990000D01*
X-3745000Y-6988000D01*
X-3746000Y-6985000D01*
X-3747000Y-6983000D01*
X-3748000Y-6980000D01*
X-3748000Y-6978000D01*
X-3749000Y-6975000D01*
X-3749000Y-6973000D01*
X-3750000Y-6970000D01*
X-3750000Y-6968000D01*
X-3750000Y-6965000D01*
X-3750000Y-6495000D01*
X-3750000Y-6492000D01*
X-3750000Y-6490000D01*
X-3749000Y-6487000D01*
X-3749000Y-6485000D01*
X-3748000Y-6482000D01*
X-3748000Y-6480000D01*
X-3747000Y-6477000D01*
X-3746000Y-6475000D01*
X-3745000Y-6472000D01*
X-3743000Y-6470000D01*
X-3742000Y-6468000D01*
X-3740000Y-6466000D01*
X-3739000Y-6464000D01*
X-3737000Y-6462000D01*
X-3735000Y-6460000D01*
X-3733000Y-6458000D01*
X-3731000Y-6456000D01*
X-3729000Y-6455000D01*
X-3727000Y-6453000D01*
X-3725000Y-6452000D01*
X-3723000Y-6450000D01*
X-3720000Y-6449000D01*
X-3718000Y-6448000D01*
X-3715000Y-6447000D01*
X-3713000Y-6447000D01*
X-3710000Y-6446000D01*
X-3708000Y-6446000D01*
X-3705000Y-6445000D01*
X-3703000Y-6445000D01*
X-3700000Y-6445000D01*
X-3500000Y-6445000D01*
X-3497000Y-6445000D01*
X-3495000Y-6445000D01*
X-3492000Y-6446000D01*
G36*
X-3492000Y-6446000D02*
G01*
X-3490000Y-6446000D01*
X-3487000Y-6447000D01*
X-3485000Y-6447000D01*
X-3482000Y-6448000D01*
X-3480000Y-6449000D01*
X-3477000Y-6450000D01*
X-3475000Y-6452000D01*
X-3473000Y-6453000D01*
X-3471000Y-6455000D01*
X-3469000Y-6456000D01*
X-3467000Y-6458000D01*
X-3465000Y-6460000D01*
X-3463000Y-6462000D01*
X-3461000Y-6464000D01*
X-3460000Y-6466000D01*
X-3458000Y-6468000D01*
X-3457000Y-6470000D01*
X-3455000Y-6472000D01*
X-3454000Y-6475000D01*
X-3453000Y-6477000D01*
X-3452000Y-6480000D01*
X-3452000Y-6482000D01*
X-3451000Y-6485000D01*
X-3451000Y-6487000D01*
X-3450000Y-6490000D01*
X-3450000Y-6492000D01*
X-3450000Y-6495000D01*
X-3450000Y-6965000D01*
X-3450000Y-6968000D01*
X-3450000Y-6970000D01*
X-3451000Y-6973000D01*
X-3451000Y-6975000D01*
X-3452000Y-6978000D01*
X-3452000Y-6980000D01*
X-3453000Y-6983000D01*
X-3454000Y-6985000D01*
X-3455000Y-6988000D01*
X-3457000Y-6990000D01*
X-3458000Y-6992000D01*
X-3460000Y-6994000D01*
X-3461000Y-6996000D01*
X-3463000Y-6998000D01*
X-3465000Y-7000000D01*
X-3467000Y-7002000D01*
X-3469000Y-7004000D01*
X-3471000Y-7005000D01*
X-3473000Y-7007000D01*
X-3475000Y-7008000D01*
X-3477000Y-7010000D01*
X-3480000Y-7011000D01*
X-3482000Y-7012000D01*
X-3485000Y-7013000D01*
X-3487000Y-7013000D01*
X-3490000Y-7014000D01*
X-3492000Y-7014000D01*
X-3495000Y-7015000D01*
X-3497000Y-7015000D01*
X-3500000Y-7015000D01*
X-3700000Y-7015000D01*
X-3703000Y-7015000D01*
X-3705000Y-7015000D01*
X-3708000Y-7014000D01*
X-3710000Y-7014000D01*
X-3713000Y-7013000D01*
X-3715000Y-7013000D01*
X-3718000Y-7012000D01*
X-3720000Y-7011000D01*
X-3723000Y-7010000D01*
X-3725000Y-7008000D01*
X-3727000Y-7007000D01*
X-3729000Y-7005000D01*
X-3731000Y-7004000D01*
X-3733000Y-7002000D01*
X-3735000Y-7000000D01*
X-3737000Y-6998000D01*
X-3739000Y-6996000D01*
X-3740000Y-6994000D01*
X-3742000Y-6992000D01*
X-3743000Y-6990000D01*
X-3745000Y-6988000D01*
X-3746000Y-6985000D01*
X-3747000Y-6983000D01*
X-3748000Y-6980000D01*
X-3748000Y-6978000D01*
X-3749000Y-6975000D01*
X-3749000Y-6973000D01*
X-3750000Y-6970000D01*
X-3750000Y-6968000D01*
X-3750000Y-6965000D01*
X-3750000Y-6495000D01*
X-3750000Y-6492000D01*
X-3750000Y-6490000D01*
X-3749000Y-6487000D01*
X-3749000Y-6485000D01*
X-3748000Y-6482000D01*
X-3748000Y-6480000D01*
X-3747000Y-6477000D01*
X-3746000Y-6475000D01*
X-3745000Y-6472000D01*
X-3743000Y-6470000D01*
X-3742000Y-6468000D01*
X-3740000Y-6466000D01*
X-3739000Y-6464000D01*
X-3737000Y-6462000D01*
X-3735000Y-6460000D01*
X-3733000Y-6458000D01*
X-3731000Y-6456000D01*
X-3729000Y-6455000D01*
X-3727000Y-6453000D01*
X-3725000Y-6452000D01*
X-3723000Y-6450000D01*
X-3720000Y-6449000D01*
X-3718000Y-6448000D01*
X-3715000Y-6447000D01*
X-3713000Y-6447000D01*
X-3710000Y-6446000D01*
X-3708000Y-6446000D01*
X-3705000Y-6445000D01*
X-3703000Y-6445000D01*
X-3700000Y-6445000D01*
X-3500000Y-6445000D01*
X-3497000Y-6445000D01*
X-3495000Y-6445000D01*
X-3492000Y-6446000D01*
G37*
X-3092000Y-4446000D02*
X-3090000Y-4446000D01*
X-3087000Y-4447000D01*
X-3085000Y-4447000D01*
X-3082000Y-4448000D01*
X-3080000Y-4449000D01*
X-3077000Y-4450000D01*
X-3075000Y-4452000D01*
X-3073000Y-4453000D01*
X-3071000Y-4455000D01*
X-3069000Y-4456000D01*
X-3067000Y-4458000D01*
X-3065000Y-4460000D01*
X-3063000Y-4462000D01*
X-3061000Y-4464000D01*
X-3060000Y-4466000D01*
X-3058000Y-4468000D01*
X-3057000Y-4470000D01*
X-3055000Y-4472000D01*
X-3054000Y-4475000D01*
X-3053000Y-4477000D01*
X-3052000Y-4480000D01*
X-3052000Y-4482000D01*
X-3051000Y-4485000D01*
X-3051000Y-4487000D01*
X-3050000Y-4490000D01*
X-3050000Y-4492000D01*
X-3050000Y-4495000D01*
X-3050000Y-4695000D01*
X-3050000Y-4698000D01*
X-3050000Y-4700000D01*
X-3051000Y-4703000D01*
X-3051000Y-4705000D01*
X-3052000Y-4708000D01*
X-3052000Y-4710000D01*
X-3053000Y-4713000D01*
X-3054000Y-4715000D01*
X-3055000Y-4718000D01*
X-3057000Y-4720000D01*
X-3058000Y-4722000D01*
X-3060000Y-4724000D01*
X-3061000Y-4726000D01*
X-3063000Y-4728000D01*
X-3065000Y-4730000D01*
X-3067000Y-4732000D01*
X-3069000Y-4734000D01*
X-3071000Y-4735000D01*
X-3073000Y-4737000D01*
X-3075000Y-4738000D01*
X-3077000Y-4740000D01*
X-3080000Y-4741000D01*
X-3082000Y-4742000D01*
X-3085000Y-4743000D01*
X-3087000Y-4743000D01*
X-3090000Y-4744000D01*
X-3092000Y-4744000D01*
X-3095000Y-4745000D01*
X-3097000Y-4745000D01*
X-3100000Y-4745000D01*
X-3570000Y-4745000D01*
X-3573000Y-4745000D01*
X-3575000Y-4745000D01*
X-3578000Y-4744000D01*
X-3580000Y-4744000D01*
X-3583000Y-4743000D01*
X-3585000Y-4743000D01*
X-3588000Y-4742000D01*
X-3590000Y-4741000D01*
X-3593000Y-4740000D01*
X-3595000Y-4738000D01*
X-3597000Y-4737000D01*
X-3599000Y-4735000D01*
X-3601000Y-4734000D01*
X-3603000Y-4732000D01*
X-3605000Y-4730000D01*
X-3607000Y-4728000D01*
X-3609000Y-4726000D01*
X-3610000Y-4724000D01*
X-3612000Y-4722000D01*
X-3613000Y-4720000D01*
X-3615000Y-4718000D01*
X-3616000Y-4715000D01*
X-3617000Y-4713000D01*
X-3618000Y-4710000D01*
X-3618000Y-4708000D01*
X-3619000Y-4705000D01*
X-3619000Y-4703000D01*
X-3620000Y-4700000D01*
X-3620000Y-4698000D01*
X-3620000Y-4695000D01*
X-3620000Y-4495000D01*
X-3620000Y-4492000D01*
X-3620000Y-4490000D01*
X-3619000Y-4487000D01*
X-3619000Y-4485000D01*
X-3618000Y-4482000D01*
X-3618000Y-4480000D01*
X-3617000Y-4477000D01*
X-3616000Y-4475000D01*
X-3615000Y-4472000D01*
X-3613000Y-4470000D01*
X-3612000Y-4468000D01*
X-3610000Y-4466000D01*
X-3609000Y-4464000D01*
X-3607000Y-4462000D01*
X-3605000Y-4460000D01*
X-3603000Y-4458000D01*
X-3601000Y-4456000D01*
X-3599000Y-4455000D01*
X-3597000Y-4453000D01*
X-3595000Y-4452000D01*
X-3593000Y-4450000D01*
X-3590000Y-4449000D01*
X-3588000Y-4448000D01*
X-3585000Y-4447000D01*
X-3583000Y-4447000D01*
X-3580000Y-4446000D01*
X-3578000Y-4446000D01*
X-3575000Y-4445000D01*
X-3573000Y-4445000D01*
X-3570000Y-4445000D01*
X-3100000Y-4445000D01*
X-3097000Y-4445000D01*
X-3095000Y-4445000D01*
X-3092000Y-4446000D01*
G36*
X-3092000Y-4446000D02*
G01*
X-3090000Y-4446000D01*
X-3087000Y-4447000D01*
X-3085000Y-4447000D01*
X-3082000Y-4448000D01*
X-3080000Y-4449000D01*
X-3077000Y-4450000D01*
X-3075000Y-4452000D01*
X-3073000Y-4453000D01*
X-3071000Y-4455000D01*
X-3069000Y-4456000D01*
X-3067000Y-4458000D01*
X-3065000Y-4460000D01*
X-3063000Y-4462000D01*
X-3061000Y-4464000D01*
X-3060000Y-4466000D01*
X-3058000Y-4468000D01*
X-3057000Y-4470000D01*
X-3055000Y-4472000D01*
X-3054000Y-4475000D01*
X-3053000Y-4477000D01*
X-3052000Y-4480000D01*
X-3052000Y-4482000D01*
X-3051000Y-4485000D01*
X-3051000Y-4487000D01*
X-3050000Y-4490000D01*
X-3050000Y-4492000D01*
X-3050000Y-4495000D01*
X-3050000Y-4695000D01*
X-3050000Y-4698000D01*
X-3050000Y-4700000D01*
X-3051000Y-4703000D01*
X-3051000Y-4705000D01*
X-3052000Y-4708000D01*
X-3052000Y-4710000D01*
X-3053000Y-4713000D01*
X-3054000Y-4715000D01*
X-3055000Y-4718000D01*
X-3057000Y-4720000D01*
X-3058000Y-4722000D01*
X-3060000Y-4724000D01*
X-3061000Y-4726000D01*
X-3063000Y-4728000D01*
X-3065000Y-4730000D01*
X-3067000Y-4732000D01*
X-3069000Y-4734000D01*
X-3071000Y-4735000D01*
X-3073000Y-4737000D01*
X-3075000Y-4738000D01*
X-3077000Y-4740000D01*
X-3080000Y-4741000D01*
X-3082000Y-4742000D01*
X-3085000Y-4743000D01*
X-3087000Y-4743000D01*
X-3090000Y-4744000D01*
X-3092000Y-4744000D01*
X-3095000Y-4745000D01*
X-3097000Y-4745000D01*
X-3100000Y-4745000D01*
X-3570000Y-4745000D01*
X-3573000Y-4745000D01*
X-3575000Y-4745000D01*
X-3578000Y-4744000D01*
X-3580000Y-4744000D01*
X-3583000Y-4743000D01*
X-3585000Y-4743000D01*
X-3588000Y-4742000D01*
X-3590000Y-4741000D01*
X-3593000Y-4740000D01*
X-3595000Y-4738000D01*
X-3597000Y-4737000D01*
X-3599000Y-4735000D01*
X-3601000Y-4734000D01*
X-3603000Y-4732000D01*
X-3605000Y-4730000D01*
X-3607000Y-4728000D01*
X-3609000Y-4726000D01*
X-3610000Y-4724000D01*
X-3612000Y-4722000D01*
X-3613000Y-4720000D01*
X-3615000Y-4718000D01*
X-3616000Y-4715000D01*
X-3617000Y-4713000D01*
X-3618000Y-4710000D01*
X-3618000Y-4708000D01*
X-3619000Y-4705000D01*
X-3619000Y-4703000D01*
X-3620000Y-4700000D01*
X-3620000Y-4698000D01*
X-3620000Y-4695000D01*
X-3620000Y-4495000D01*
X-3620000Y-4492000D01*
X-3620000Y-4490000D01*
X-3619000Y-4487000D01*
X-3619000Y-4485000D01*
X-3618000Y-4482000D01*
X-3618000Y-4480000D01*
X-3617000Y-4477000D01*
X-3616000Y-4475000D01*
X-3615000Y-4472000D01*
X-3613000Y-4470000D01*
X-3612000Y-4468000D01*
X-3610000Y-4466000D01*
X-3609000Y-4464000D01*
X-3607000Y-4462000D01*
X-3605000Y-4460000D01*
X-3603000Y-4458000D01*
X-3601000Y-4456000D01*
X-3599000Y-4455000D01*
X-3597000Y-4453000D01*
X-3595000Y-4452000D01*
X-3593000Y-4450000D01*
X-3590000Y-4449000D01*
X-3588000Y-4448000D01*
X-3585000Y-4447000D01*
X-3583000Y-4447000D01*
X-3580000Y-4446000D01*
X-3578000Y-4446000D01*
X-3575000Y-4445000D01*
X-3573000Y-4445000D01*
X-3570000Y-4445000D01*
X-3100000Y-4445000D01*
X-3097000Y-4445000D01*
X-3095000Y-4445000D01*
X-3092000Y-4446000D01*
G37*
X-3092000Y-4846000D02*
X-3090000Y-4846000D01*
X-3087000Y-4847000D01*
X-3085000Y-4847000D01*
X-3082000Y-4848000D01*
X-3080000Y-4849000D01*
X-3077000Y-4850000D01*
X-3075000Y-4852000D01*
X-3073000Y-4853000D01*
X-3071000Y-4855000D01*
X-3069000Y-4856000D01*
X-3067000Y-4858000D01*
X-3065000Y-4860000D01*
X-3063000Y-4862000D01*
X-3061000Y-4864000D01*
X-3060000Y-4866000D01*
X-3058000Y-4868000D01*
X-3057000Y-4870000D01*
X-3055000Y-4872000D01*
X-3054000Y-4875000D01*
X-3053000Y-4877000D01*
X-3052000Y-4880000D01*
X-3052000Y-4882000D01*
X-3051000Y-4885000D01*
X-3051000Y-4887000D01*
X-3050000Y-4890000D01*
X-3050000Y-4892000D01*
X-3050000Y-4895000D01*
X-3050000Y-5095000D01*
X-3050000Y-5098000D01*
X-3050000Y-5100000D01*
X-3051000Y-5103000D01*
X-3051000Y-5105000D01*
X-3052000Y-5108000D01*
X-3052000Y-5110000D01*
X-3053000Y-5113000D01*
X-3054000Y-5115000D01*
X-3055000Y-5118000D01*
X-3057000Y-5120000D01*
X-3058000Y-5122000D01*
X-3060000Y-5124000D01*
X-3061000Y-5126000D01*
X-3063000Y-5128000D01*
X-3065000Y-5130000D01*
X-3067000Y-5132000D01*
X-3069000Y-5134000D01*
X-3071000Y-5135000D01*
X-3073000Y-5137000D01*
X-3075000Y-5138000D01*
X-3077000Y-5140000D01*
X-3080000Y-5141000D01*
X-3082000Y-5142000D01*
X-3085000Y-5143000D01*
X-3087000Y-5143000D01*
X-3090000Y-5144000D01*
X-3092000Y-5144000D01*
X-3095000Y-5145000D01*
X-3097000Y-5145000D01*
X-3100000Y-5145000D01*
X-3570000Y-5145000D01*
X-3573000Y-5145000D01*
X-3575000Y-5145000D01*
X-3578000Y-5144000D01*
X-3580000Y-5144000D01*
X-3583000Y-5143000D01*
X-3585000Y-5143000D01*
X-3588000Y-5142000D01*
X-3590000Y-5141000D01*
X-3593000Y-5140000D01*
X-3595000Y-5138000D01*
X-3597000Y-5137000D01*
X-3599000Y-5135000D01*
X-3601000Y-5134000D01*
X-3603000Y-5132000D01*
X-3605000Y-5130000D01*
X-3607000Y-5128000D01*
X-3609000Y-5126000D01*
X-3610000Y-5124000D01*
X-3612000Y-5122000D01*
X-3613000Y-5120000D01*
X-3615000Y-5118000D01*
X-3616000Y-5115000D01*
X-3617000Y-5113000D01*
X-3618000Y-5110000D01*
X-3618000Y-5108000D01*
X-3619000Y-5105000D01*
X-3619000Y-5103000D01*
X-3620000Y-5100000D01*
X-3620000Y-5098000D01*
X-3620000Y-5095000D01*
X-3620000Y-4895000D01*
X-3620000Y-4892000D01*
X-3620000Y-4890000D01*
X-3619000Y-4887000D01*
X-3619000Y-4885000D01*
X-3618000Y-4882000D01*
X-3618000Y-4880000D01*
X-3617000Y-4877000D01*
X-3616000Y-4875000D01*
X-3615000Y-4872000D01*
X-3613000Y-4870000D01*
X-3612000Y-4868000D01*
X-3610000Y-4866000D01*
X-3609000Y-4864000D01*
X-3607000Y-4862000D01*
X-3605000Y-4860000D01*
X-3603000Y-4858000D01*
X-3601000Y-4856000D01*
X-3599000Y-4855000D01*
X-3597000Y-4853000D01*
X-3595000Y-4852000D01*
X-3593000Y-4850000D01*
X-3590000Y-4849000D01*
X-3588000Y-4848000D01*
X-3585000Y-4847000D01*
X-3583000Y-4847000D01*
X-3580000Y-4846000D01*
X-3578000Y-4846000D01*
X-3575000Y-4845000D01*
X-3573000Y-4845000D01*
X-3570000Y-4845000D01*
X-3100000Y-4845000D01*
X-3097000Y-4845000D01*
X-3095000Y-4845000D01*
X-3092000Y-4846000D01*
G36*
X-3092000Y-4846000D02*
G01*
X-3090000Y-4846000D01*
X-3087000Y-4847000D01*
X-3085000Y-4847000D01*
X-3082000Y-4848000D01*
X-3080000Y-4849000D01*
X-3077000Y-4850000D01*
X-3075000Y-4852000D01*
X-3073000Y-4853000D01*
X-3071000Y-4855000D01*
X-3069000Y-4856000D01*
X-3067000Y-4858000D01*
X-3065000Y-4860000D01*
X-3063000Y-4862000D01*
X-3061000Y-4864000D01*
X-3060000Y-4866000D01*
X-3058000Y-4868000D01*
X-3057000Y-4870000D01*
X-3055000Y-4872000D01*
X-3054000Y-4875000D01*
X-3053000Y-4877000D01*
X-3052000Y-4880000D01*
X-3052000Y-4882000D01*
X-3051000Y-4885000D01*
X-3051000Y-4887000D01*
X-3050000Y-4890000D01*
X-3050000Y-4892000D01*
X-3050000Y-4895000D01*
X-3050000Y-5095000D01*
X-3050000Y-5098000D01*
X-3050000Y-5100000D01*
X-3051000Y-5103000D01*
X-3051000Y-5105000D01*
X-3052000Y-5108000D01*
X-3052000Y-5110000D01*
X-3053000Y-5113000D01*
X-3054000Y-5115000D01*
X-3055000Y-5118000D01*
X-3057000Y-5120000D01*
X-3058000Y-5122000D01*
X-3060000Y-5124000D01*
X-3061000Y-5126000D01*
X-3063000Y-5128000D01*
X-3065000Y-5130000D01*
X-3067000Y-5132000D01*
X-3069000Y-5134000D01*
X-3071000Y-5135000D01*
X-3073000Y-5137000D01*
X-3075000Y-5138000D01*
X-3077000Y-5140000D01*
X-3080000Y-5141000D01*
X-3082000Y-5142000D01*
X-3085000Y-5143000D01*
X-3087000Y-5143000D01*
X-3090000Y-5144000D01*
X-3092000Y-5144000D01*
X-3095000Y-5145000D01*
X-3097000Y-5145000D01*
X-3100000Y-5145000D01*
X-3570000Y-5145000D01*
X-3573000Y-5145000D01*
X-3575000Y-5145000D01*
X-3578000Y-5144000D01*
X-3580000Y-5144000D01*
X-3583000Y-5143000D01*
X-3585000Y-5143000D01*
X-3588000Y-5142000D01*
X-3590000Y-5141000D01*
X-3593000Y-5140000D01*
X-3595000Y-5138000D01*
X-3597000Y-5137000D01*
X-3599000Y-5135000D01*
X-3601000Y-5134000D01*
X-3603000Y-5132000D01*
X-3605000Y-5130000D01*
X-3607000Y-5128000D01*
X-3609000Y-5126000D01*
X-3610000Y-5124000D01*
X-3612000Y-5122000D01*
X-3613000Y-5120000D01*
X-3615000Y-5118000D01*
X-3616000Y-5115000D01*
X-3617000Y-5113000D01*
X-3618000Y-5110000D01*
X-3618000Y-5108000D01*
X-3619000Y-5105000D01*
X-3619000Y-5103000D01*
X-3620000Y-5100000D01*
X-3620000Y-5098000D01*
X-3620000Y-5095000D01*
X-3620000Y-4895000D01*
X-3620000Y-4892000D01*
X-3620000Y-4890000D01*
X-3619000Y-4887000D01*
X-3619000Y-4885000D01*
X-3618000Y-4882000D01*
X-3618000Y-4880000D01*
X-3617000Y-4877000D01*
X-3616000Y-4875000D01*
X-3615000Y-4872000D01*
X-3613000Y-4870000D01*
X-3612000Y-4868000D01*
X-3610000Y-4866000D01*
X-3609000Y-4864000D01*
X-3607000Y-4862000D01*
X-3605000Y-4860000D01*
X-3603000Y-4858000D01*
X-3601000Y-4856000D01*
X-3599000Y-4855000D01*
X-3597000Y-4853000D01*
X-3595000Y-4852000D01*
X-3593000Y-4850000D01*
X-3590000Y-4849000D01*
X-3588000Y-4848000D01*
X-3585000Y-4847000D01*
X-3583000Y-4847000D01*
X-3580000Y-4846000D01*
X-3578000Y-4846000D01*
X-3575000Y-4845000D01*
X-3573000Y-4845000D01*
X-3570000Y-4845000D01*
X-3100000Y-4845000D01*
X-3097000Y-4845000D01*
X-3095000Y-4845000D01*
X-3092000Y-4846000D01*
G37*
X-3092000Y-5246000D02*
X-3090000Y-5246000D01*
X-3087000Y-5247000D01*
X-3085000Y-5247000D01*
X-3082000Y-5248000D01*
X-3080000Y-5249000D01*
X-3077000Y-5250000D01*
X-3075000Y-5252000D01*
X-3073000Y-5253000D01*
X-3071000Y-5255000D01*
X-3069000Y-5256000D01*
X-3067000Y-5258000D01*
X-3065000Y-5260000D01*
X-3063000Y-5262000D01*
X-3061000Y-5264000D01*
X-3060000Y-5266000D01*
X-3058000Y-5268000D01*
X-3057000Y-5270000D01*
X-3055000Y-5272000D01*
X-3054000Y-5275000D01*
X-3053000Y-5277000D01*
X-3052000Y-5280000D01*
X-3052000Y-5282000D01*
X-3051000Y-5285000D01*
X-3051000Y-5287000D01*
X-3050000Y-5290000D01*
X-3050000Y-5292000D01*
X-3050000Y-5295000D01*
X-3050000Y-5495000D01*
X-3050000Y-5498000D01*
X-3050000Y-5500000D01*
X-3051000Y-5503000D01*
X-3051000Y-5505000D01*
X-3052000Y-5508000D01*
X-3052000Y-5510000D01*
X-3053000Y-5513000D01*
X-3054000Y-5515000D01*
X-3055000Y-5518000D01*
X-3057000Y-5520000D01*
X-3058000Y-5522000D01*
X-3060000Y-5524000D01*
X-3061000Y-5526000D01*
X-3063000Y-5528000D01*
X-3065000Y-5530000D01*
X-3067000Y-5532000D01*
X-3069000Y-5534000D01*
X-3071000Y-5535000D01*
X-3073000Y-5537000D01*
X-3075000Y-5538000D01*
X-3077000Y-5540000D01*
X-3080000Y-5541000D01*
X-3082000Y-5542000D01*
X-3085000Y-5543000D01*
X-3087000Y-5543000D01*
X-3090000Y-5544000D01*
X-3092000Y-5544000D01*
X-3095000Y-5545000D01*
X-3097000Y-5545000D01*
X-3100000Y-5545000D01*
X-3570000Y-5545000D01*
X-3573000Y-5545000D01*
X-3575000Y-5545000D01*
X-3578000Y-5544000D01*
X-3580000Y-5544000D01*
X-3583000Y-5543000D01*
X-3585000Y-5543000D01*
X-3588000Y-5542000D01*
X-3590000Y-5541000D01*
X-3593000Y-5540000D01*
X-3595000Y-5538000D01*
X-3597000Y-5537000D01*
X-3599000Y-5535000D01*
X-3601000Y-5534000D01*
X-3603000Y-5532000D01*
X-3605000Y-5530000D01*
X-3607000Y-5528000D01*
X-3609000Y-5526000D01*
X-3610000Y-5524000D01*
X-3612000Y-5522000D01*
X-3613000Y-5520000D01*
X-3615000Y-5518000D01*
X-3616000Y-5515000D01*
X-3617000Y-5513000D01*
X-3618000Y-5510000D01*
X-3618000Y-5508000D01*
X-3619000Y-5505000D01*
X-3619000Y-5503000D01*
X-3620000Y-5500000D01*
X-3620000Y-5498000D01*
X-3620000Y-5495000D01*
X-3620000Y-5295000D01*
X-3620000Y-5292000D01*
X-3620000Y-5290000D01*
X-3619000Y-5287000D01*
X-3619000Y-5285000D01*
X-3618000Y-5282000D01*
X-3618000Y-5280000D01*
X-3617000Y-5277000D01*
X-3616000Y-5275000D01*
X-3615000Y-5272000D01*
X-3613000Y-5270000D01*
X-3612000Y-5268000D01*
X-3610000Y-5266000D01*
X-3609000Y-5264000D01*
X-3607000Y-5262000D01*
X-3605000Y-5260000D01*
X-3603000Y-5258000D01*
X-3601000Y-5256000D01*
X-3599000Y-5255000D01*
X-3597000Y-5253000D01*
X-3595000Y-5252000D01*
X-3593000Y-5250000D01*
X-3590000Y-5249000D01*
X-3588000Y-5248000D01*
X-3585000Y-5247000D01*
X-3583000Y-5247000D01*
X-3580000Y-5246000D01*
X-3578000Y-5246000D01*
X-3575000Y-5245000D01*
X-3573000Y-5245000D01*
X-3570000Y-5245000D01*
X-3100000Y-5245000D01*
X-3097000Y-5245000D01*
X-3095000Y-5245000D01*
X-3092000Y-5246000D01*
G36*
X-3092000Y-5246000D02*
G01*
X-3090000Y-5246000D01*
X-3087000Y-5247000D01*
X-3085000Y-5247000D01*
X-3082000Y-5248000D01*
X-3080000Y-5249000D01*
X-3077000Y-5250000D01*
X-3075000Y-5252000D01*
X-3073000Y-5253000D01*
X-3071000Y-5255000D01*
X-3069000Y-5256000D01*
X-3067000Y-5258000D01*
X-3065000Y-5260000D01*
X-3063000Y-5262000D01*
X-3061000Y-5264000D01*
X-3060000Y-5266000D01*
X-3058000Y-5268000D01*
X-3057000Y-5270000D01*
X-3055000Y-5272000D01*
X-3054000Y-5275000D01*
X-3053000Y-5277000D01*
X-3052000Y-5280000D01*
X-3052000Y-5282000D01*
X-3051000Y-5285000D01*
X-3051000Y-5287000D01*
X-3050000Y-5290000D01*
X-3050000Y-5292000D01*
X-3050000Y-5295000D01*
X-3050000Y-5495000D01*
X-3050000Y-5498000D01*
X-3050000Y-5500000D01*
X-3051000Y-5503000D01*
X-3051000Y-5505000D01*
X-3052000Y-5508000D01*
X-3052000Y-5510000D01*
X-3053000Y-5513000D01*
X-3054000Y-5515000D01*
X-3055000Y-5518000D01*
X-3057000Y-5520000D01*
X-3058000Y-5522000D01*
X-3060000Y-5524000D01*
X-3061000Y-5526000D01*
X-3063000Y-5528000D01*
X-3065000Y-5530000D01*
X-3067000Y-5532000D01*
X-3069000Y-5534000D01*
X-3071000Y-5535000D01*
X-3073000Y-5537000D01*
X-3075000Y-5538000D01*
X-3077000Y-5540000D01*
X-3080000Y-5541000D01*
X-3082000Y-5542000D01*
X-3085000Y-5543000D01*
X-3087000Y-5543000D01*
X-3090000Y-5544000D01*
X-3092000Y-5544000D01*
X-3095000Y-5545000D01*
X-3097000Y-5545000D01*
X-3100000Y-5545000D01*
X-3570000Y-5545000D01*
X-3573000Y-5545000D01*
X-3575000Y-5545000D01*
X-3578000Y-5544000D01*
X-3580000Y-5544000D01*
X-3583000Y-5543000D01*
X-3585000Y-5543000D01*
X-3588000Y-5542000D01*
X-3590000Y-5541000D01*
X-3593000Y-5540000D01*
X-3595000Y-5538000D01*
X-3597000Y-5537000D01*
X-3599000Y-5535000D01*
X-3601000Y-5534000D01*
X-3603000Y-5532000D01*
X-3605000Y-5530000D01*
X-3607000Y-5528000D01*
X-3609000Y-5526000D01*
X-3610000Y-5524000D01*
X-3612000Y-5522000D01*
X-3613000Y-5520000D01*
X-3615000Y-5518000D01*
X-3616000Y-5515000D01*
X-3617000Y-5513000D01*
X-3618000Y-5510000D01*
X-3618000Y-5508000D01*
X-3619000Y-5505000D01*
X-3619000Y-5503000D01*
X-3620000Y-5500000D01*
X-3620000Y-5498000D01*
X-3620000Y-5495000D01*
X-3620000Y-5295000D01*
X-3620000Y-5292000D01*
X-3620000Y-5290000D01*
X-3619000Y-5287000D01*
X-3619000Y-5285000D01*
X-3618000Y-5282000D01*
X-3618000Y-5280000D01*
X-3617000Y-5277000D01*
X-3616000Y-5275000D01*
X-3615000Y-5272000D01*
X-3613000Y-5270000D01*
X-3612000Y-5268000D01*
X-3610000Y-5266000D01*
X-3609000Y-5264000D01*
X-3607000Y-5262000D01*
X-3605000Y-5260000D01*
X-3603000Y-5258000D01*
X-3601000Y-5256000D01*
X-3599000Y-5255000D01*
X-3597000Y-5253000D01*
X-3595000Y-5252000D01*
X-3593000Y-5250000D01*
X-3590000Y-5249000D01*
X-3588000Y-5248000D01*
X-3585000Y-5247000D01*
X-3583000Y-5247000D01*
X-3580000Y-5246000D01*
X-3578000Y-5246000D01*
X-3575000Y-5245000D01*
X-3573000Y-5245000D01*
X-3570000Y-5245000D01*
X-3100000Y-5245000D01*
X-3097000Y-5245000D01*
X-3095000Y-5245000D01*
X-3092000Y-5246000D01*
G37*
X-3092000Y-5646000D02*
X-3090000Y-5646000D01*
X-3087000Y-5647000D01*
X-3085000Y-5647000D01*
X-3082000Y-5648000D01*
X-3080000Y-5649000D01*
X-3077000Y-5650000D01*
X-3075000Y-5652000D01*
X-3073000Y-5653000D01*
X-3071000Y-5655000D01*
X-3069000Y-5656000D01*
X-3067000Y-5658000D01*
X-3065000Y-5660000D01*
X-3063000Y-5662000D01*
X-3061000Y-5664000D01*
X-3060000Y-5666000D01*
X-3058000Y-5668000D01*
X-3057000Y-5670000D01*
X-3055000Y-5672000D01*
X-3054000Y-5675000D01*
X-3053000Y-5677000D01*
X-3052000Y-5680000D01*
X-3052000Y-5682000D01*
X-3051000Y-5685000D01*
X-3051000Y-5687000D01*
X-3050000Y-5690000D01*
X-3050000Y-5692000D01*
X-3050000Y-5695000D01*
X-3050000Y-5895000D01*
X-3050000Y-5898000D01*
X-3050000Y-5900000D01*
X-3051000Y-5903000D01*
X-3051000Y-5905000D01*
X-3052000Y-5908000D01*
X-3052000Y-5910000D01*
X-3053000Y-5913000D01*
X-3054000Y-5915000D01*
X-3055000Y-5918000D01*
X-3057000Y-5920000D01*
X-3058000Y-5922000D01*
X-3060000Y-5924000D01*
X-3061000Y-5926000D01*
X-3063000Y-5928000D01*
X-3065000Y-5930000D01*
X-3067000Y-5932000D01*
X-3069000Y-5934000D01*
X-3071000Y-5935000D01*
X-3073000Y-5937000D01*
X-3075000Y-5938000D01*
X-3077000Y-5940000D01*
X-3080000Y-5941000D01*
X-3082000Y-5942000D01*
X-3085000Y-5943000D01*
X-3087000Y-5943000D01*
X-3090000Y-5944000D01*
X-3092000Y-5944000D01*
X-3095000Y-5945000D01*
X-3097000Y-5945000D01*
X-3100000Y-5945000D01*
X-3570000Y-5945000D01*
X-3573000Y-5945000D01*
X-3575000Y-5945000D01*
X-3578000Y-5944000D01*
X-3580000Y-5944000D01*
X-3583000Y-5943000D01*
X-3585000Y-5943000D01*
X-3588000Y-5942000D01*
X-3590000Y-5941000D01*
X-3593000Y-5940000D01*
X-3595000Y-5938000D01*
X-3597000Y-5937000D01*
X-3599000Y-5935000D01*
X-3601000Y-5934000D01*
X-3603000Y-5932000D01*
X-3605000Y-5930000D01*
X-3607000Y-5928000D01*
X-3609000Y-5926000D01*
X-3610000Y-5924000D01*
X-3612000Y-5922000D01*
X-3613000Y-5920000D01*
X-3615000Y-5918000D01*
X-3616000Y-5915000D01*
X-3617000Y-5913000D01*
X-3618000Y-5910000D01*
X-3618000Y-5908000D01*
X-3619000Y-5905000D01*
X-3619000Y-5903000D01*
X-3620000Y-5900000D01*
X-3620000Y-5898000D01*
X-3620000Y-5895000D01*
X-3620000Y-5695000D01*
X-3620000Y-5692000D01*
X-3620000Y-5690000D01*
X-3619000Y-5687000D01*
X-3619000Y-5685000D01*
X-3618000Y-5682000D01*
X-3618000Y-5680000D01*
X-3617000Y-5677000D01*
X-3616000Y-5675000D01*
X-3615000Y-5672000D01*
X-3613000Y-5670000D01*
X-3612000Y-5668000D01*
X-3610000Y-5666000D01*
X-3609000Y-5664000D01*
X-3607000Y-5662000D01*
X-3605000Y-5660000D01*
X-3603000Y-5658000D01*
X-3601000Y-5656000D01*
X-3599000Y-5655000D01*
X-3597000Y-5653000D01*
X-3595000Y-5652000D01*
X-3593000Y-5650000D01*
X-3590000Y-5649000D01*
X-3588000Y-5648000D01*
X-3585000Y-5647000D01*
X-3583000Y-5647000D01*
X-3580000Y-5646000D01*
X-3578000Y-5646000D01*
X-3575000Y-5645000D01*
X-3573000Y-5645000D01*
X-3570000Y-5645000D01*
X-3100000Y-5645000D01*
X-3097000Y-5645000D01*
X-3095000Y-5645000D01*
X-3092000Y-5646000D01*
G36*
X-3092000Y-5646000D02*
G01*
X-3090000Y-5646000D01*
X-3087000Y-5647000D01*
X-3085000Y-5647000D01*
X-3082000Y-5648000D01*
X-3080000Y-5649000D01*
X-3077000Y-5650000D01*
X-3075000Y-5652000D01*
X-3073000Y-5653000D01*
X-3071000Y-5655000D01*
X-3069000Y-5656000D01*
X-3067000Y-5658000D01*
X-3065000Y-5660000D01*
X-3063000Y-5662000D01*
X-3061000Y-5664000D01*
X-3060000Y-5666000D01*
X-3058000Y-5668000D01*
X-3057000Y-5670000D01*
X-3055000Y-5672000D01*
X-3054000Y-5675000D01*
X-3053000Y-5677000D01*
X-3052000Y-5680000D01*
X-3052000Y-5682000D01*
X-3051000Y-5685000D01*
X-3051000Y-5687000D01*
X-3050000Y-5690000D01*
X-3050000Y-5692000D01*
X-3050000Y-5695000D01*
X-3050000Y-5895000D01*
X-3050000Y-5898000D01*
X-3050000Y-5900000D01*
X-3051000Y-5903000D01*
X-3051000Y-5905000D01*
X-3052000Y-5908000D01*
X-3052000Y-5910000D01*
X-3053000Y-5913000D01*
X-3054000Y-5915000D01*
X-3055000Y-5918000D01*
X-3057000Y-5920000D01*
X-3058000Y-5922000D01*
X-3060000Y-5924000D01*
X-3061000Y-5926000D01*
X-3063000Y-5928000D01*
X-3065000Y-5930000D01*
X-3067000Y-5932000D01*
X-3069000Y-5934000D01*
X-3071000Y-5935000D01*
X-3073000Y-5937000D01*
X-3075000Y-5938000D01*
X-3077000Y-5940000D01*
X-3080000Y-5941000D01*
X-3082000Y-5942000D01*
X-3085000Y-5943000D01*
X-3087000Y-5943000D01*
X-3090000Y-5944000D01*
X-3092000Y-5944000D01*
X-3095000Y-5945000D01*
X-3097000Y-5945000D01*
X-3100000Y-5945000D01*
X-3570000Y-5945000D01*
X-3573000Y-5945000D01*
X-3575000Y-5945000D01*
X-3578000Y-5944000D01*
X-3580000Y-5944000D01*
X-3583000Y-5943000D01*
X-3585000Y-5943000D01*
X-3588000Y-5942000D01*
X-3590000Y-5941000D01*
X-3593000Y-5940000D01*
X-3595000Y-5938000D01*
X-3597000Y-5937000D01*
X-3599000Y-5935000D01*
X-3601000Y-5934000D01*
X-3603000Y-5932000D01*
X-3605000Y-5930000D01*
X-3607000Y-5928000D01*
X-3609000Y-5926000D01*
X-3610000Y-5924000D01*
X-3612000Y-5922000D01*
X-3613000Y-5920000D01*
X-3615000Y-5918000D01*
X-3616000Y-5915000D01*
X-3617000Y-5913000D01*
X-3618000Y-5910000D01*
X-3618000Y-5908000D01*
X-3619000Y-5905000D01*
X-3619000Y-5903000D01*
X-3620000Y-5900000D01*
X-3620000Y-5898000D01*
X-3620000Y-5895000D01*
X-3620000Y-5695000D01*
X-3620000Y-5692000D01*
X-3620000Y-5690000D01*
X-3619000Y-5687000D01*
X-3619000Y-5685000D01*
X-3618000Y-5682000D01*
X-3618000Y-5680000D01*
X-3617000Y-5677000D01*
X-3616000Y-5675000D01*
X-3615000Y-5672000D01*
X-3613000Y-5670000D01*
X-3612000Y-5668000D01*
X-3610000Y-5666000D01*
X-3609000Y-5664000D01*
X-3607000Y-5662000D01*
X-3605000Y-5660000D01*
X-3603000Y-5658000D01*
X-3601000Y-5656000D01*
X-3599000Y-5655000D01*
X-3597000Y-5653000D01*
X-3595000Y-5652000D01*
X-3593000Y-5650000D01*
X-3590000Y-5649000D01*
X-3588000Y-5648000D01*
X-3585000Y-5647000D01*
X-3583000Y-5647000D01*
X-3580000Y-5646000D01*
X-3578000Y-5646000D01*
X-3575000Y-5645000D01*
X-3573000Y-5645000D01*
X-3570000Y-5645000D01*
X-3100000Y-5645000D01*
X-3097000Y-5645000D01*
X-3095000Y-5645000D01*
X-3092000Y-5646000D01*
G37*
X-3092000Y-6046000D02*
X-3090000Y-6046000D01*
X-3087000Y-6047000D01*
X-3085000Y-6047000D01*
X-3082000Y-6048000D01*
X-3080000Y-6049000D01*
X-3077000Y-6050000D01*
X-3075000Y-6052000D01*
X-3073000Y-6053000D01*
X-3071000Y-6055000D01*
X-3069000Y-6056000D01*
X-3067000Y-6058000D01*
X-3065000Y-6060000D01*
X-3063000Y-6062000D01*
X-3061000Y-6064000D01*
X-3060000Y-6066000D01*
X-3058000Y-6068000D01*
X-3057000Y-6070000D01*
X-3055000Y-6072000D01*
X-3054000Y-6075000D01*
X-3053000Y-6077000D01*
X-3052000Y-6080000D01*
X-3052000Y-6082000D01*
X-3051000Y-6085000D01*
X-3051000Y-6087000D01*
X-3050000Y-6090000D01*
X-3050000Y-6092000D01*
X-3050000Y-6095000D01*
X-3050000Y-6295000D01*
X-3050000Y-6298000D01*
X-3050000Y-6300000D01*
X-3051000Y-6303000D01*
X-3051000Y-6305000D01*
X-3052000Y-6308000D01*
X-3052000Y-6310000D01*
X-3053000Y-6313000D01*
X-3054000Y-6315000D01*
X-3055000Y-6318000D01*
X-3057000Y-6320000D01*
X-3058000Y-6322000D01*
X-3060000Y-6324000D01*
X-3061000Y-6326000D01*
X-3063000Y-6328000D01*
X-3065000Y-6330000D01*
X-3067000Y-6332000D01*
X-3069000Y-6334000D01*
X-3071000Y-6335000D01*
X-3073000Y-6337000D01*
X-3075000Y-6338000D01*
X-3077000Y-6340000D01*
X-3080000Y-6341000D01*
X-3082000Y-6342000D01*
X-3085000Y-6343000D01*
X-3087000Y-6343000D01*
X-3090000Y-6344000D01*
X-3092000Y-6344000D01*
X-3095000Y-6345000D01*
X-3097000Y-6345000D01*
X-3100000Y-6345000D01*
X-3570000Y-6345000D01*
X-3573000Y-6345000D01*
X-3575000Y-6345000D01*
X-3578000Y-6344000D01*
X-3580000Y-6344000D01*
X-3583000Y-6343000D01*
X-3585000Y-6343000D01*
X-3588000Y-6342000D01*
X-3590000Y-6341000D01*
X-3593000Y-6340000D01*
X-3595000Y-6338000D01*
X-3597000Y-6337000D01*
X-3599000Y-6335000D01*
X-3601000Y-6334000D01*
X-3603000Y-6332000D01*
X-3605000Y-6330000D01*
X-3607000Y-6328000D01*
X-3609000Y-6326000D01*
X-3610000Y-6324000D01*
X-3612000Y-6322000D01*
X-3613000Y-6320000D01*
X-3615000Y-6318000D01*
X-3616000Y-6315000D01*
X-3617000Y-6313000D01*
X-3618000Y-6310000D01*
X-3618000Y-6308000D01*
X-3619000Y-6305000D01*
X-3619000Y-6303000D01*
X-3620000Y-6300000D01*
X-3620000Y-6298000D01*
X-3620000Y-6295000D01*
X-3620000Y-6095000D01*
X-3620000Y-6092000D01*
X-3620000Y-6090000D01*
X-3619000Y-6087000D01*
X-3619000Y-6085000D01*
X-3618000Y-6082000D01*
X-3618000Y-6080000D01*
X-3617000Y-6077000D01*
X-3616000Y-6075000D01*
X-3615000Y-6072000D01*
X-3613000Y-6070000D01*
X-3612000Y-6068000D01*
X-3610000Y-6066000D01*
X-3609000Y-6064000D01*
X-3607000Y-6062000D01*
X-3605000Y-6060000D01*
X-3603000Y-6058000D01*
X-3601000Y-6056000D01*
X-3599000Y-6055000D01*
X-3597000Y-6053000D01*
X-3595000Y-6052000D01*
X-3593000Y-6050000D01*
X-3590000Y-6049000D01*
X-3588000Y-6048000D01*
X-3585000Y-6047000D01*
X-3583000Y-6047000D01*
X-3580000Y-6046000D01*
X-3578000Y-6046000D01*
X-3575000Y-6045000D01*
X-3573000Y-6045000D01*
X-3570000Y-6045000D01*
X-3100000Y-6045000D01*
X-3097000Y-6045000D01*
X-3095000Y-6045000D01*
X-3092000Y-6046000D01*
G36*
X-3092000Y-6046000D02*
G01*
X-3090000Y-6046000D01*
X-3087000Y-6047000D01*
X-3085000Y-6047000D01*
X-3082000Y-6048000D01*
X-3080000Y-6049000D01*
X-3077000Y-6050000D01*
X-3075000Y-6052000D01*
X-3073000Y-6053000D01*
X-3071000Y-6055000D01*
X-3069000Y-6056000D01*
X-3067000Y-6058000D01*
X-3065000Y-6060000D01*
X-3063000Y-6062000D01*
X-3061000Y-6064000D01*
X-3060000Y-6066000D01*
X-3058000Y-6068000D01*
X-3057000Y-6070000D01*
X-3055000Y-6072000D01*
X-3054000Y-6075000D01*
X-3053000Y-6077000D01*
X-3052000Y-6080000D01*
X-3052000Y-6082000D01*
X-3051000Y-6085000D01*
X-3051000Y-6087000D01*
X-3050000Y-6090000D01*
X-3050000Y-6092000D01*
X-3050000Y-6095000D01*
X-3050000Y-6295000D01*
X-3050000Y-6298000D01*
X-3050000Y-6300000D01*
X-3051000Y-6303000D01*
X-3051000Y-6305000D01*
X-3052000Y-6308000D01*
X-3052000Y-6310000D01*
X-3053000Y-6313000D01*
X-3054000Y-6315000D01*
X-3055000Y-6318000D01*
X-3057000Y-6320000D01*
X-3058000Y-6322000D01*
X-3060000Y-6324000D01*
X-3061000Y-6326000D01*
X-3063000Y-6328000D01*
X-3065000Y-6330000D01*
X-3067000Y-6332000D01*
X-3069000Y-6334000D01*
X-3071000Y-6335000D01*
X-3073000Y-6337000D01*
X-3075000Y-6338000D01*
X-3077000Y-6340000D01*
X-3080000Y-6341000D01*
X-3082000Y-6342000D01*
X-3085000Y-6343000D01*
X-3087000Y-6343000D01*
X-3090000Y-6344000D01*
X-3092000Y-6344000D01*
X-3095000Y-6345000D01*
X-3097000Y-6345000D01*
X-3100000Y-6345000D01*
X-3570000Y-6345000D01*
X-3573000Y-6345000D01*
X-3575000Y-6345000D01*
X-3578000Y-6344000D01*
X-3580000Y-6344000D01*
X-3583000Y-6343000D01*
X-3585000Y-6343000D01*
X-3588000Y-6342000D01*
X-3590000Y-6341000D01*
X-3593000Y-6340000D01*
X-3595000Y-6338000D01*
X-3597000Y-6337000D01*
X-3599000Y-6335000D01*
X-3601000Y-6334000D01*
X-3603000Y-6332000D01*
X-3605000Y-6330000D01*
X-3607000Y-6328000D01*
X-3609000Y-6326000D01*
X-3610000Y-6324000D01*
X-3612000Y-6322000D01*
X-3613000Y-6320000D01*
X-3615000Y-6318000D01*
X-3616000Y-6315000D01*
X-3617000Y-6313000D01*
X-3618000Y-6310000D01*
X-3618000Y-6308000D01*
X-3619000Y-6305000D01*
X-3619000Y-6303000D01*
X-3620000Y-6300000D01*
X-3620000Y-6298000D01*
X-3620000Y-6295000D01*
X-3620000Y-6095000D01*
X-3620000Y-6092000D01*
X-3620000Y-6090000D01*
X-3619000Y-6087000D01*
X-3619000Y-6085000D01*
X-3618000Y-6082000D01*
X-3618000Y-6080000D01*
X-3617000Y-6077000D01*
X-3616000Y-6075000D01*
X-3615000Y-6072000D01*
X-3613000Y-6070000D01*
X-3612000Y-6068000D01*
X-3610000Y-6066000D01*
X-3609000Y-6064000D01*
X-3607000Y-6062000D01*
X-3605000Y-6060000D01*
X-3603000Y-6058000D01*
X-3601000Y-6056000D01*
X-3599000Y-6055000D01*
X-3597000Y-6053000D01*
X-3595000Y-6052000D01*
X-3593000Y-6050000D01*
X-3590000Y-6049000D01*
X-3588000Y-6048000D01*
X-3585000Y-6047000D01*
X-3583000Y-6047000D01*
X-3580000Y-6046000D01*
X-3578000Y-6046000D01*
X-3575000Y-6045000D01*
X-3573000Y-6045000D01*
X-3570000Y-6045000D01*
X-3100000Y-6045000D01*
X-3097000Y-6045000D01*
X-3095000Y-6045000D01*
X-3092000Y-6046000D01*
G37*
%TD*%
D11*
%TO.C,C3*%
X-4812500Y2466667D03*
X-6537500Y2466667D03*
%TD*%
D12*
%TO.C,F1*%
X-6425000Y9550000D03*
X-4375000Y9550000D03*
%TD*%
D13*
%TO.C,R3*%
X3318000Y7162500D03*
X3318000Y5337500D03*
%TD*%
D14*
%TO.C,U2*%
X-1905000Y-2475000D03*
X-635000Y-2475000D03*
X635000Y-2475000D03*
X1905000Y-2475000D03*
X1905000Y2475000D03*
X635000Y2475000D03*
X-635000Y2475000D03*
X-1905000Y2475000D03*
%TD*%
D15*
%TO.C,C1*%
X-5100000Y7300000D03*
X-6525000Y7300000D03*
%TD*%
D16*
%TO.C,D1*%
X6422000Y7125000D03*
X6422000Y5375000D03*
%TD*%
D17*
%TO.C,R2*%
X3200000Y-6762500D03*
X3200000Y-4937500D03*
%TD*%
D18*
%TO.C,C2*%
X-1300000Y-6712500D03*
X-1300000Y-4987500D03*
%TD*%
D17*
%TO.C,R5*%
X174000Y5337500D03*
X174000Y7162500D03*
%TD*%
D11*
%TO.C,C6*%
X-4812500Y933334D03*
X-6537500Y933334D03*
%TD*%
D17*
%TO.C,R6*%
X-1358000Y5337500D03*
X-1358000Y7162500D03*
%TD*%
D19*
%TO.C,U1*%
X-4800000Y-5265000D03*
%TD*%
D15*
%TO.C,C7*%
X-5100000Y5600000D03*
X-6525000Y5600000D03*
%TD*%
D20*
%TO.C,D2*%
X1746000Y5420000D03*
X1746000Y7170000D03*
%TD*%
D18*
%TO.C,C9*%
X200000Y-6712500D03*
X200000Y-4987500D03*
%TD*%
D17*
%TO.C,R4*%
X1700000Y-6762500D03*
X1700000Y-4937500D03*
%TD*%
D11*
%TO.C,C4*%
X-4812500Y4000000D03*
X-6537500Y4000000D03*
%TD*%
D21*
%TO.C,J1*%
X-8750000Y6700000D03*
X-8750000Y5450000D03*
D22*
X-11650000Y9250000D03*
X-11650000Y2900000D03*
%TD*%
D21*
%TO.C,J3*%
X-8750000Y-4400000D03*
X-8750000Y-5650000D03*
X-8750000Y-6900000D03*
D22*
X-11650000Y-1850000D03*
X-11650000Y-9450000D03*
%TD*%
D17*
%TO.C,R1*%
X4850000Y5337500D03*
X4850000Y7162500D03*
%TD*%
D23*
%TO.C,C5*%
X-6537500Y-600000D03*
X-4812500Y-600000D03*
%TD*%
D24*
%TO.C,J2*%
X8850000Y-6125000D03*
X8850000Y-4875000D03*
X8850000Y-3625000D03*
X8850000Y-2375000D03*
X8850000Y-1125000D03*
X8850000Y125000D03*
X8850000Y1375000D03*
X8850000Y2625000D03*
X8850000Y3875000D03*
X8850000Y5125000D03*
D25*
X11750000Y-8675000D03*
X11750000Y7675000D03*
%TD*%
D23*
%TO.C,C8*%
X-4962500Y-8800000D03*
X-3237500Y-8800000D03*
%TD*%
D26*
X3500000Y2000000D03*
X-8000000Y-10250000D03*
D27*
X-13500000Y500000D03*
X3500000Y-2750000D03*
D26*
X-9000000Y-10250000D03*
D27*
X10000000Y9750000D03*
X9500000Y-8750000D03*
D26*
X-3500000Y3250000D03*
X-3500000Y4750000D03*
D27*
X850000Y-8050000D03*
X3500000Y-1750000D03*
X-650000Y-8050000D03*
X-12000000Y500000D03*
X11250000Y9750000D03*
X13750000Y9750000D03*
X-10500000Y500000D03*
X5500000Y-2750000D03*
X-8500000Y-3000000D03*
X12500000Y9750000D03*
D26*
X3500000Y3000000D03*
D27*
X8750000Y9750000D03*
X-6050000Y-8800000D03*
D26*
X-3500000Y6500000D03*
D27*
X5500000Y-1750000D03*
X-7750000Y500000D03*
X-3000000Y10000000D03*
D26*
X-6500000Y-2000000D03*
D27*
X-7750000Y1500000D03*
X-7750000Y3500000D03*
X-7750000Y-500000D03*
X-7750000Y2500000D03*
X-3000000Y9000000D03*
X5500000Y-5250000D03*
X4730000Y-4250000D03*
X5500000Y-4250000D03*
D26*
X250000Y9073800D03*
D27*
X-3150000Y-7610000D03*
X4730000Y-5250000D03*
X-3790000Y-7620000D03*
X7350000Y-8850000D03*
X-2800000Y-4350000D03*
X-9150000Y10000000D03*
X-7850000Y8000000D03*
X-7850000Y9000000D03*
X-7850000Y10000000D03*
X-9150000Y9000000D03*
X5534096Y-7884096D03*
X-3000000Y-3550000D03*
X4000000Y9050000D03*
M02*
