%TF.GenerationSoftware,KiCad,Pcbnew,8.0.1*%
%TF.CreationDate,2024-05-05T22:16:20+02:00*%
%TF.ProjectId,pro_micro,70726f5f-6d69-4637-926f-2e6b69636164,rev?*%
%TF.SameCoordinates,Original*%
%TF.FileFunction,Copper,L2,Bot*%
%TF.FilePolarity,Positive*%
%FSLAX46Y46*%
G04 Gerber Fmt 4.6, Leading zero omitted, Abs format (unit mm)*
G04 Created by KiCad (PCBNEW 8.0.1) date 2024-05-05 22:16:20*
%MOMM*%
%LPD*%
G01*
G04 APERTURE LIST*
%TA.AperFunction,ComponentPad*%
%ADD10C,0.600000*%
%TD*%
%TA.AperFunction,ViaPad*%
%ADD11C,0.800000*%
%TD*%
%TA.AperFunction,ViaPad*%
%ADD12C,0.600000*%
%TD*%
%TA.AperFunction,Conductor*%
%ADD13C,0.254000*%
%TD*%
%TA.AperFunction,Conductor*%
%ADD14C,0.152400*%
%TD*%
G04 APERTURE END LIST*
D10*
%TO.P,U1,25,GND*%
%TO.N,GND*%
X-4300000Y-4765000D03*
X-5300000Y-4765000D03*
X-4800000Y-5265000D03*
X-4300000Y-5765000D03*
X-5300000Y-5765000D03*
%TD*%
D11*
%TO.N,GND*%
X3500000Y2000000D03*
X-8000000Y-10250000D03*
D12*
X-13500000Y500000D03*
X3500000Y-2750000D03*
D11*
X-9000000Y-10250000D03*
D12*
X10000000Y9750000D03*
X9500000Y-8750000D03*
D11*
X-3500000Y3250000D03*
X-3500000Y4750000D03*
D12*
X850000Y-8050000D03*
X3500000Y-1750000D03*
X-650000Y-8050000D03*
X-12000000Y500000D03*
X11250000Y9750000D03*
X13750000Y9750000D03*
X-10500000Y500000D03*
X5500000Y-2750000D03*
X-8500000Y-3000000D03*
X12500000Y9750000D03*
D11*
X3500000Y3000000D03*
D12*
X8750000Y9750000D03*
X-6050000Y-8800000D03*
D11*
X-3500000Y6500000D03*
D12*
X5500000Y-1750000D03*
%TO.N,/Vin_Protected*%
X-7750000Y500000D03*
X-3000000Y10000000D03*
D11*
X-6500000Y-2000000D03*
D12*
X-7750000Y1500000D03*
X-7750000Y3500000D03*
X-7750000Y-500000D03*
X-7750000Y2500000D03*
X-3000000Y9000000D03*
%TO.N,/Motor drive/CS_AREF*%
X5500000Y-5250000D03*
X4730000Y-4250000D03*
X5500000Y-4250000D03*
D11*
X250000Y9073800D03*
D12*
X-3150000Y-7610000D03*
X4730000Y-5250000D03*
X-3790000Y-7620000D03*
%TO.N,/Motor drive/EN*%
X7350000Y-8850000D03*
X-2800000Y-4350000D03*
%TO.N,Net-(J1-Pin_1)*%
X-9150000Y10000000D03*
X-7850000Y8000000D03*
X-7850000Y9000000D03*
X-7850000Y10000000D03*
X-9150000Y9000000D03*
%TO.N,Net-(U1-nFault)*%
X5534096Y-7884096D03*
X-3000000Y-3550000D03*
X4000000Y9050000D03*
%TD*%
D13*
%TO.N,/Motor drive/CS_AREF*%
X4730000Y-3250000D02*
X4730000Y9206712D01*
D14*
X-3250000Y-7600000D02*
X-3350000Y-7600000D01*
D13*
X-3780000Y-7610000D02*
X-3790000Y-7620000D01*
X-2963000Y-7423000D02*
X-3150000Y-7610000D01*
X4730000Y9206712D02*
X4343356Y9593356D01*
X4343356Y9593356D02*
X4259712Y9677000D01*
X4259712Y9677000D02*
X853200Y9677000D01*
X-3150000Y-7610000D02*
X-2250000Y-6710000D01*
X-2250000Y-6710000D02*
X-2250000Y-5500000D01*
X4730000Y-3250000D02*
X4730000Y-4250000D01*
X853200Y9677000D02*
X250000Y9073800D01*
X-3150000Y-7610000D02*
X-3780000Y-7610000D01*
D14*
%TO.N,/Motor drive/EN*%
X-4018670Y-7033800D02*
X-4520000Y-7535130D01*
X6810000Y-9390000D02*
X7350000Y-8850000D01*
X-3283800Y-7033800D02*
X-4018670Y-7033800D01*
X-2800000Y-4350000D02*
X-2800000Y-6550000D01*
X-2800000Y-6550000D02*
X-3283800Y-7033800D01*
X-4520000Y-8210000D02*
X-3340000Y-9390000D01*
X-4520000Y-7535130D02*
X-4520000Y-8210000D01*
X-3340000Y-9390000D02*
X6810000Y-9390000D01*
X-2800000Y-4350000D02*
X-2800000Y-4250000D01*
%TO.N,Net-(U1-nFault)*%
X7926200Y-9088670D02*
X7926200Y-8611330D01*
X7160000Y-8273800D02*
X5923800Y-8273800D01*
X-3429768Y-6681400D02*
X-4164638Y-6681400D01*
X-3152400Y-4812470D02*
X-3152400Y-6404032D01*
X7644870Y-8330000D02*
X7588670Y-8273800D01*
X-2700000Y-3550000D02*
X-2250000Y-4000000D01*
X7588670Y-8273800D02*
X7160000Y-8273800D01*
X7272470Y-9742400D02*
X7926200Y-9088670D01*
X-2250000Y-4000000D02*
X4000000Y-4000000D01*
X-3376200Y-3926200D02*
X-3376200Y-4588670D01*
X4250000Y-3750000D02*
X4250000Y8800000D01*
X-4164638Y-6681400D02*
X-4920000Y-7436762D01*
X-3376200Y-4588670D02*
X-3152400Y-4812470D01*
X5923800Y-8273800D02*
X5534096Y-7884096D01*
X-3497600Y-9742400D02*
X2630000Y-9742400D01*
X2630000Y-9742400D02*
X7272470Y-9742400D01*
X4000000Y-4000000D02*
X4250000Y-3750000D01*
X-4920000Y-8320000D02*
X-3497600Y-9742400D01*
X-3000000Y-3550000D02*
X-2700000Y-3550000D01*
X4250000Y8800000D02*
X4000000Y9050000D01*
X-3152400Y-6404032D02*
X-3429768Y-6681400D01*
X7926200Y-8611330D02*
X7644870Y-8330000D01*
X-4920000Y-7436762D02*
X-4920000Y-8320000D01*
X-3000000Y-3550000D02*
X-3376200Y-3926200D01*
%TD*%
%TA.AperFunction,Conductor*%
%TO.N,/Motor drive/CS_AREF*%
G36*
X5823138Y-3767593D02*
G01*
X5848858Y-3812142D01*
X5850000Y-3825200D01*
X5850000Y-5624403D01*
X5832407Y-5672741D01*
X5787858Y-5698461D01*
X5774404Y-5699602D01*
X-2448496Y-5656323D01*
X-2496740Y-5638475D01*
X-2522225Y-5593792D01*
X-2523300Y-5581124D01*
X-2523300Y-4808184D01*
X-2505707Y-4759846D01*
X-2488756Y-4744922D01*
X-2468874Y-4732145D01*
X-2468873Y-4732143D01*
X-2468872Y-4732143D01*
X-2414488Y-4669380D01*
X-2374624Y-4623375D01*
X-2374622Y-4623372D01*
X-2314835Y-4492459D01*
X-2293588Y-4344677D01*
X-2291816Y-4344931D01*
X-2276760Y-4303562D01*
X-2232211Y-4277842D01*
X-2219153Y-4276700D01*
X4036427Y-4276700D01*
X4036428Y-4276700D01*
X4106803Y-4257844D01*
X4169898Y-4221415D01*
X4471415Y-3919898D01*
X4507843Y-3856803D01*
X4507844Y-3856802D01*
X4521526Y-3805736D01*
X4551031Y-3763600D01*
X4594164Y-3750000D01*
X5774800Y-3750000D01*
X5823138Y-3767593D01*
G37*
%TD.AperFunction*%
%TD*%
%TA.AperFunction,Conductor*%
%TO.N,GND*%
G36*
X-10276862Y14982407D02*
G01*
X-10251142Y14937858D01*
X-10250000Y14924800D01*
X-10250000Y11000000D01*
X10250000Y11000000D01*
X10250000Y12999998D01*
X11247422Y12999998D01*
X11267944Y12798179D01*
X11328671Y12604630D01*
X11427123Y12427253D01*
X11427124Y12427252D01*
X11559252Y12273342D01*
X11559262Y12273333D01*
X11719666Y12149171D01*
X11719671Y12149168D01*
X11719672Y12149168D01*
X11901799Y12059830D01*
X11901804Y12059828D01*
X11901806Y12059828D01*
X12098175Y12008984D01*
X12098189Y12008982D01*
X12300773Y11998707D01*
X12300780Y11998708D01*
X12501299Y12029427D01*
X12501300Y12029427D01*
X12501304Y12029428D01*
X12691526Y12099878D01*
X12691528Y12099879D01*
X12691530Y12099880D01*
X12789136Y12160718D01*
X12863683Y12207184D01*
X13010711Y12346944D01*
X13010714Y12346947D01*
X13066609Y12427253D01*
X13126601Y12513447D01*
X13206600Y12699865D01*
X13247435Y12898571D01*
X13250000Y13000000D01*
X13247435Y13101429D01*
X13206600Y13300135D01*
X13126601Y13486553D01*
X13010715Y13653052D01*
X12863684Y13792815D01*
X12691530Y13900120D01*
X12501299Y13970573D01*
X12300780Y14001292D01*
X12098182Y13991017D01*
X11901799Y13940170D01*
X11719672Y13850832D01*
X11719668Y13850829D01*
X11719666Y13850828D01*
X11559262Y13726666D01*
X11559257Y13726662D01*
X11559255Y13726659D01*
X11559252Y13726657D01*
X11427124Y13572747D01*
X11427123Y13572746D01*
X11427120Y13572741D01*
X11328673Y13395373D01*
X11328671Y13395369D01*
X11267944Y13201820D01*
X11247422Y13000001D01*
X11247422Y12999998D01*
X10250000Y12999998D01*
X10250000Y14924800D01*
X10267593Y14973138D01*
X10312142Y14998858D01*
X10325200Y15000000D01*
X14174800Y15000000D01*
X14223138Y14982407D01*
X14248858Y14937858D01*
X14250000Y14924800D01*
X14250000Y-14924800D01*
X14232407Y-14973138D01*
X14187858Y-14998858D01*
X14174800Y-15000000D01*
X10325200Y-15000000D01*
X10276862Y-14982407D01*
X10251142Y-14937858D01*
X10250000Y-14924800D01*
X10250000Y-13000001D01*
X11247422Y-13000001D01*
X11267944Y-13201820D01*
X11328671Y-13395369D01*
X11328672Y-13395372D01*
X11328673Y-13395373D01*
X11379281Y-13486552D01*
X11427123Y-13572746D01*
X11427124Y-13572747D01*
X11559252Y-13726657D01*
X11559255Y-13726659D01*
X11559257Y-13726662D01*
X11559260Y-13726665D01*
X11559262Y-13726666D01*
X11719666Y-13850828D01*
X11719668Y-13850829D01*
X11719672Y-13850832D01*
X11901799Y-13940170D01*
X12098182Y-13991017D01*
X12199481Y-13996154D01*
X12300773Y-14001292D01*
X12300774Y-14001291D01*
X12300780Y-14001292D01*
X12501299Y-13970573D01*
X12691530Y-13900120D01*
X12863684Y-13792815D01*
X13010715Y-13653052D01*
X13126601Y-13486553D01*
X13206600Y-13300135D01*
X13247435Y-13101429D01*
X13250000Y-13000000D01*
X13247435Y-12898571D01*
X13206600Y-12699865D01*
X13126601Y-12513447D01*
X13010715Y-12346948D01*
X12863684Y-12207185D01*
X12863683Y-12207184D01*
X12770605Y-12149168D01*
X12691530Y-12099880D01*
X12691528Y-12099879D01*
X12691526Y-12099878D01*
X12501304Y-12029428D01*
X12501300Y-12029427D01*
X12501299Y-12029427D01*
X12300780Y-11998708D01*
X12300778Y-11998708D01*
X12300772Y-11998707D01*
X12098189Y-12008982D01*
X12098175Y-12008984D01*
X11901806Y-12059828D01*
X11901804Y-12059828D01*
X11901799Y-12059830D01*
X11901795Y-12059832D01*
X11719666Y-12149171D01*
X11559262Y-12273333D01*
X11559252Y-12273342D01*
X11427124Y-12427252D01*
X11427123Y-12427253D01*
X11328671Y-12604630D01*
X11267944Y-12798179D01*
X11247422Y-12999998D01*
X11247422Y-13000001D01*
X10250000Y-13000001D01*
X10250000Y-11000000D01*
X-10250000Y-11000000D01*
X-10250000Y-14924800D01*
X-10267593Y-14973138D01*
X-10312142Y-14998858D01*
X-10325200Y-15000000D01*
X-14174800Y-15000000D01*
X-14223138Y-14982407D01*
X-14248858Y-14937858D01*
X-14250000Y-14924800D01*
X-14250000Y-13000000D01*
X-13252579Y-13000000D01*
X-13232056Y-13201818D01*
X-13171327Y-13395373D01*
X-13072880Y-13572741D01*
X-12940743Y-13726662D01*
X-12780328Y-13850832D01*
X-12598201Y-13940170D01*
X-12401818Y-13991017D01*
X-12286047Y-13996888D01*
X-12199226Y-14001292D01*
X-12199224Y-14001291D01*
X-12199220Y-14001292D01*
X-11998701Y-13970573D01*
X-11998696Y-13970571D01*
X-11998695Y-13970571D01*
X-11808473Y-13900121D01*
X-11808470Y-13900120D01*
X-11636316Y-13792815D01*
X-11489285Y-13653052D01*
X-11373399Y-13486553D01*
X-11373398Y-13486552D01*
X-11293400Y-13300135D01*
X-11293400Y-13300134D01*
X-11273196Y-13201819D01*
X-11252565Y-13101429D01*
X-11252564Y-13101427D01*
X-11252564Y-13101423D01*
X-11250000Y-13000000D01*
X-11252564Y-12898576D01*
X-11293400Y-12699865D01*
X-11293400Y-12699864D01*
X-11373398Y-12513447D01*
X-11489285Y-12346947D01*
X-11489288Y-12346944D01*
X-11636316Y-12207184D01*
X-11808473Y-12099878D01*
X-11998695Y-12029428D01*
X-11998700Y-12029427D01*
X-11998701Y-12029427D01*
X-12132156Y-12008982D01*
X-12199226Y-11998707D01*
X-12401810Y-12008982D01*
X-12401816Y-12008982D01*
X-12401818Y-12008983D01*
X-12401819Y-12008983D01*
X-12401824Y-12008984D01*
X-12575773Y-12054023D01*
X-12598201Y-12059830D01*
X-12780328Y-12149168D01*
X-12780329Y-12149169D01*
X-12780333Y-12149171D01*
X-12940737Y-12273333D01*
X-12940747Y-12273342D01*
X-13072875Y-12427252D01*
X-13072876Y-12427253D01*
X-13072878Y-12427256D01*
X-13072880Y-12427259D01*
X-13171327Y-12604627D01*
X-13232056Y-12798182D01*
X-13252579Y-13000000D01*
X-14250000Y-13000000D01*
X-14250000Y-8356428D01*
X-5196700Y-8356428D01*
X-5177844Y-8426803D01*
X-5141415Y-8489898D01*
X-3719015Y-9912298D01*
X-3667498Y-9963815D01*
X-3604402Y-10000244D01*
X-3534028Y-10019100D01*
X-3534027Y-10019100D01*
X7308897Y-10019100D01*
X7308898Y-10019100D01*
X7379273Y-10000244D01*
X7442368Y-9963815D01*
X8147615Y-9258568D01*
X8184044Y-9195473D01*
X8202900Y-9125098D01*
X8202900Y-9052242D01*
X8202900Y-8574902D01*
X8196362Y-8550500D01*
X8184044Y-8504527D01*
X8147615Y-8441432D01*
X7814768Y-8108585D01*
X7758568Y-8052385D01*
X7695473Y-8015956D01*
X7695470Y-8015955D01*
X7695471Y-8015955D01*
X7650853Y-8004000D01*
X7625098Y-7997100D01*
X7625097Y-7997100D01*
X6110281Y-7997100D01*
X6061943Y-7979507D01*
X6036223Y-7934958D01*
X6035846Y-7911198D01*
X6039743Y-7884096D01*
X6019261Y-7741639D01*
X5959473Y-7610723D01*
X5959471Y-7610720D01*
X5865223Y-7501952D01*
X5865221Y-7501951D01*
X5744147Y-7424142D01*
X5744148Y-7424142D01*
X5606059Y-7383596D01*
X5606057Y-7383596D01*
X5462135Y-7383596D01*
X5462132Y-7383596D01*
X5324044Y-7424142D01*
X5202970Y-7501951D01*
X5202968Y-7501952D01*
X5108720Y-7610720D01*
X5108718Y-7610723D01*
X5048931Y-7741636D01*
X5028449Y-7884096D01*
X5048931Y-8026555D01*
X5108718Y-8157468D01*
X5108720Y-8157471D01*
X5202968Y-8266239D01*
X5324043Y-8344049D01*
X5462135Y-8384596D01*
X5462138Y-8384596D01*
X5611436Y-8384596D01*
X5611436Y-8387388D01*
X5651679Y-8395799D01*
X5665221Y-8406534D01*
X5753902Y-8495215D01*
X5816997Y-8531644D01*
X5887372Y-8550500D01*
X5960228Y-8550500D01*
X6819541Y-8550500D01*
X6867879Y-8568093D01*
X6893599Y-8612642D01*
X6887945Y-8656940D01*
X6864835Y-8707540D01*
X6844353Y-8850000D01*
X6853368Y-8912701D01*
X6842832Y-8963051D01*
X6832108Y-8976577D01*
X6717413Y-9091274D01*
X6670793Y-9113014D01*
X6664238Y-9113300D01*
X-3194239Y-9113300D01*
X-3242577Y-9095707D01*
X-3247413Y-9091274D01*
X-4221274Y-8117413D01*
X-4243014Y-8070793D01*
X-4243300Y-8064239D01*
X-4243300Y-8060945D01*
X-4225707Y-8012607D01*
X-4181158Y-7986887D01*
X-4130500Y-7995820D01*
X-4125669Y-7999260D01*
X-4125653Y-7999235D01*
X-4121128Y-8002142D01*
X-4121128Y-8002143D01*
X-4000053Y-8079953D01*
X-3861961Y-8120500D01*
X-3861958Y-8120500D01*
X-3718042Y-8120500D01*
X-3718039Y-8120500D01*
X-3579947Y-8079953D01*
X-3502875Y-8030422D01*
X-3452699Y-8019089D01*
X-3421565Y-8030420D01*
X-3360053Y-8069953D01*
X-3221961Y-8110500D01*
X-3221958Y-8110500D01*
X-3078042Y-8110500D01*
X-3078039Y-8110500D01*
X-2939947Y-8069953D01*
X-2818872Y-7992143D01*
X-2748733Y-7911198D01*
X-2724624Y-7883375D01*
X-2724622Y-7883372D01*
X-2664835Y-7752459D01*
X-2644353Y-7609997D01*
X-2644353Y-7604622D01*
X-2643193Y-7604622D01*
X-2633793Y-7559745D01*
X-2623076Y-7546231D01*
X-1987938Y-6911094D01*
X-1987934Y-6911088D01*
X-1944819Y-6836411D01*
X-1937379Y-6808645D01*
X-1922500Y-6753116D01*
X-1922500Y-6666884D01*
X-1922500Y-5940190D01*
X-1904907Y-5891852D01*
X-1860358Y-5866132D01*
X-1846913Y-5864991D01*
X5773322Y-5905099D01*
X5791770Y-5904367D01*
X5805224Y-5903226D01*
X5890607Y-5876430D01*
X5935156Y-5850710D01*
X5935158Y-5850707D01*
X5935162Y-5850706D01*
X5949529Y-5839822D01*
X5975896Y-5819850D01*
X6025515Y-5743024D01*
X6043108Y-5694686D01*
X6055500Y-5624403D01*
X6055500Y-3825200D01*
X6054719Y-3807296D01*
X6053577Y-3794238D01*
X6026827Y-3709393D01*
X6001107Y-3664844D01*
X6001103Y-3664837D01*
X5970246Y-3624103D01*
X5893421Y-3574485D01*
X5893417Y-3574483D01*
X5845083Y-3556891D01*
X5774800Y-3544500D01*
X5132700Y-3544500D01*
X5084362Y-3526907D01*
X5058642Y-3482358D01*
X5057500Y-3469300D01*
X5057500Y9249826D01*
X5057500Y9249828D01*
X5035181Y9333122D01*
X4992065Y9407802D01*
X4931090Y9468777D01*
X4544446Y9855421D01*
X4460802Y9939065D01*
X4386122Y9982181D01*
X4302828Y10004500D01*
X896316Y10004500D01*
X810084Y10004500D01*
X726790Y9982181D01*
X652110Y9939065D01*
X402167Y9689122D01*
X355548Y9667383D01*
X339184Y9667739D01*
X250000Y9679482D01*
X93238Y9658844D01*
X-52841Y9598336D01*
X-178282Y9502082D01*
X-274536Y9376641D01*
X-335044Y9230562D01*
X-355682Y9073800D01*
X-335044Y8917038D01*
X-274536Y8770959D01*
X-274534Y8770957D01*
X-178282Y8645517D01*
X-76519Y8567433D01*
X-53149Y8549500D01*
X-52842Y8549265D01*
X-52839Y8549263D01*
X93236Y8488756D01*
X250000Y8468118D01*
X406763Y8488756D01*
X552839Y8549263D01*
X552842Y8549265D01*
X553149Y8549500D01*
X576519Y8567433D01*
X678282Y8645517D01*
X774534Y8770957D01*
X774536Y8770959D01*
X835044Y8917038D01*
X855682Y9073800D01*
X843940Y9162980D01*
X855073Y9213198D01*
X865323Y9225968D01*
X966829Y9327474D01*
X1013449Y9349214D01*
X1020003Y9349500D01*
X3469541Y9349500D01*
X3517879Y9331907D01*
X3543599Y9287358D01*
X3537945Y9243060D01*
X3514835Y9192459D01*
X3494353Y9050000D01*
X3514835Y8907540D01*
X3574622Y8776627D01*
X3574624Y8776624D01*
X3668872Y8667856D01*
X3668874Y8667855D01*
X3789948Y8590046D01*
X3789947Y8590046D01*
X3919286Y8552070D01*
X3960709Y8521571D01*
X3973300Y8479916D01*
X3973300Y-3604239D01*
X3955707Y-3652577D01*
X3951274Y-3657413D01*
X3907413Y-3701274D01*
X3860793Y-3723014D01*
X3854239Y-3723300D01*
X82753Y-3723300D01*
X34415Y-3705707D01*
X8695Y-3661158D01*
X7567Y-3646634D01*
X53958Y-1280698D01*
X53380Y-1260760D01*
X52252Y-1246233D01*
X25338Y-1159393D01*
X18443Y-1147452D01*
X-383Y-1114841D01*
X-384Y-1114839D01*
X-31242Y-1074103D01*
X-108067Y-1024485D01*
X-108071Y-1024483D01*
X-156405Y-1006891D01*
X-226689Y-994500D01*
X-2119920Y-994500D01*
X-2124597Y-994573D01*
X-2126406Y-994602D01*
X-2131123Y-994751D01*
X-2206924Y-1011840D01*
X-2206925Y-1011840D01*
X-2206927Y-1011841D01*
X-2254063Y-1032437D01*
X-2268923Y-1042311D01*
X-2313503Y-1071932D01*
X-2313508Y-1071936D01*
X-3202466Y-1918563D01*
X-4368386Y-3028963D01*
X-4376456Y-3037089D01*
X-4382201Y-3043206D01*
X-4425515Y-3113607D01*
X-4425516Y-3113610D01*
X-4443108Y-3161944D01*
X-4455500Y-3232228D01*
X-4455500Y-4024800D01*
X-4454719Y-4042704D01*
X-4453577Y-4055762D01*
X-4426827Y-4140607D01*
X-4401107Y-4185156D01*
X-4401104Y-4185158D01*
X-4401103Y-4185162D01*
X-4390219Y-4199529D01*
X-4370247Y-4225896D01*
X-4293421Y-4275515D01*
X-4254642Y-4289629D01*
X-4245083Y-4293108D01*
X-4174800Y-4305500D01*
X-3728100Y-4305500D01*
X-3679762Y-4323093D01*
X-3654042Y-4367642D01*
X-3652900Y-4380700D01*
X-3652900Y-4570517D01*
X-3670493Y-4618855D01*
X-3690500Y-4635642D01*
X-3735162Y-4661427D01*
X-3775896Y-4692284D01*
X-3825515Y-4769110D01*
X-3825516Y-4769113D01*
X-3843108Y-4817447D01*
X-3847588Y-4842856D01*
X-3855500Y-4887731D01*
X-3855500Y-5575194D01*
X-3854764Y-5592570D01*
X-3853689Y-5605238D01*
X-3827432Y-5689674D01*
X-3801947Y-5734357D01*
X-3771305Y-5775255D01*
X-3694742Y-5825279D01*
X-3646498Y-5843127D01*
X-3576277Y-5855890D01*
X-3505777Y-5856261D01*
X-3505744Y-5856259D01*
X-3505617Y-5856258D01*
X-3505606Y-5856261D01*
X-3504933Y-5856265D01*
X-3504934Y-5856493D01*
X-3456978Y-5873002D01*
X-3430482Y-5917093D01*
X-3429100Y-5931446D01*
X-3429100Y-6258271D01*
X-3446693Y-6306609D01*
X-3451126Y-6311445D01*
X-3522355Y-6382674D01*
X-3568975Y-6404414D01*
X-3575529Y-6404700D01*
X-4128210Y-6404700D01*
X-4201066Y-6404700D01*
X-4241690Y-6415584D01*
X-4271438Y-6423555D01*
X-4271441Y-6423556D01*
X-4334536Y-6459985D01*
X-5141415Y-7266864D01*
X-5177844Y-7329959D01*
X-5181112Y-7342156D01*
X-5196700Y-7400334D01*
X-5196700Y-8283572D01*
X-5196700Y-8356428D01*
X-14250000Y-8356428D01*
X-14250000Y6424000D01*
X-9755500Y6424000D01*
X-9750803Y6380316D01*
X-9739597Y6328805D01*
X-9737110Y6318627D01*
X-9694100Y6237915D01*
X-9694099Y6237914D01*
X-9648343Y6185108D01*
X-9648337Y6185102D01*
X-9630758Y6167160D01*
X-9630755Y6167158D01*
X-9630754Y6167157D01*
X-9590845Y6144833D01*
X-9550937Y6122509D01*
X-9509706Y6110403D01*
X-9483898Y6102825D01*
X-9483895Y6102824D01*
X-9483890Y6102823D01*
X-9426012Y6094501D01*
X-9426003Y6094500D01*
X-9426000Y6094500D01*
X-9425996Y6094500D01*
X-7723995Y6094500D01*
X-7680332Y6099194D01*
X-7680315Y6099197D01*
X-7646683Y6106513D01*
X-7595711Y6099595D01*
X-7561110Y6061531D01*
X-7555500Y6033031D01*
X-7555500Y5350505D01*
X-7572590Y5302774D01*
X-8630613Y4014747D01*
X-8637942Y4005275D01*
X-8646439Y3993606D01*
X-8677490Y3930537D01*
X-8697175Y3863498D01*
X-8705500Y3805600D01*
X-8705500Y-1704129D01*
X-8705015Y-1718238D01*
X-8703846Y-1735225D01*
X-8703845Y-1735227D01*
X-8703845Y-1735231D01*
X-8695031Y-1770351D01*
X-8686217Y-1805478D01*
X-8657534Y-1869189D01*
X-8626175Y-1918565D01*
X-7206813Y-3574485D01*
X-7186945Y-3597664D01*
X-7174021Y-3619177D01*
X-6752202Y-4696166D01*
X-6750057Y-4701427D01*
X-6747391Y-4707716D01*
X-6713495Y-4762085D01*
X-6667740Y-4814889D01*
X-6650149Y-4832843D01*
X-6570332Y-4877490D01*
X-6503293Y-4897175D01*
X-6445395Y-4905500D01*
X-6445391Y-4905500D01*
X-6054829Y-4905500D01*
X-6010476Y-4900657D01*
X-5958214Y-4889105D01*
X-5958110Y-4889079D01*
X-5947389Y-4886402D01*
X-5947387Y-4886401D01*
X-5866963Y-4842856D01*
X-5814465Y-4796751D01*
X-5796624Y-4779036D01*
X-5796623Y-4779035D01*
X-5796622Y-4779034D01*
X-5752513Y-4698926D01*
X-5752510Y-4698921D01*
X-5734406Y-4635704D01*
X-5733274Y-4631752D01*
X-5732222Y-4624073D01*
X-5725337Y-4573811D01*
X-5725336Y-4573800D01*
X-5744475Y-1703045D01*
X-5744454Y-1700692D01*
X-5732270Y-1206101D01*
X-5732243Y-1204788D01*
X-5732240Y-1204653D01*
X-5732208Y-1202821D01*
X-5732187Y-1201257D01*
X-5732185Y-1201116D01*
X-5645638Y7583328D01*
X-5627570Y7631490D01*
X-5623618Y7635760D01*
X-5586907Y7672473D01*
X-5540287Y7694214D01*
X-5533731Y7694500D01*
X-3388365Y7694500D01*
X-3388361Y7694500D01*
X-3387507Y7694506D01*
X-3385364Y7694522D01*
X-3381796Y7694573D01*
X-3321225Y7704628D01*
X-3254784Y7726237D01*
X-3254775Y7726240D01*
X-3202300Y7752059D01*
X-3202290Y7752065D01*
X-2337932Y8343468D01*
X-2306595Y8369860D01*
X-2306572Y8369882D01*
X-2272293Y8405165D01*
X-2267160Y8410646D01*
X-2267153Y8410656D01*
X-2222510Y8490465D01*
X-2202825Y8557507D01*
X-2202823Y8557514D01*
X-2194501Y8615392D01*
X-2194500Y8615408D01*
X-2194500Y10226004D01*
X-2199194Y10269667D01*
X-2199199Y10269694D01*
X-2210397Y10321171D01*
X-2212889Y10331370D01*
X-2212889Y10331371D01*
X-2212890Y10331373D01*
X-2255900Y10412085D01*
X-2272080Y10430758D01*
X-2301656Y10464891D01*
X-2301662Y10464897D01*
X-2319241Y10482839D01*
X-2319243Y10482840D01*
X-2319246Y10482843D01*
X-2376738Y10515002D01*
X-2399062Y10527490D01*
X-2414279Y10531957D01*
X-2466102Y10547175D01*
X-2524000Y10555500D01*
X-5476000Y10555500D01*
X-5509538Y10551893D01*
X-5519667Y10550805D01*
X-5519669Y10550804D01*
X-5519684Y10550803D01*
X-5571195Y10539597D01*
X-5581373Y10537110D01*
X-5662085Y10494100D01*
X-5665812Y10492114D01*
X-5666565Y10493527D01*
X-5710512Y10482161D01*
X-5740014Y10491383D01*
X-5784191Y10516095D01*
X-5804562Y10527490D01*
X-5819779Y10531957D01*
X-5871602Y10547175D01*
X-5929500Y10555500D01*
X-9426000Y10555500D01*
X-9459538Y10551893D01*
X-9469667Y10550805D01*
X-9469669Y10550804D01*
X-9469684Y10550803D01*
X-9521195Y10539597D01*
X-9531373Y10537110D01*
X-9612085Y10494100D01*
X-9664889Y10448345D01*
X-9682843Y10430754D01*
X-9727490Y10350937D01*
X-9747175Y10283898D01*
X-9755500Y10226000D01*
X-9755500Y6424000D01*
X-14250000Y6424000D01*
X-14250000Y13000000D01*
X-13252579Y13000000D01*
X-13232056Y12798182D01*
X-13171327Y12604627D01*
X-13072880Y12427259D01*
X-13072878Y12427256D01*
X-13072876Y12427253D01*
X-13072875Y12427252D01*
X-12940747Y12273342D01*
X-12940737Y12273333D01*
X-12780333Y12149171D01*
X-12780329Y12149169D01*
X-12780328Y12149168D01*
X-12598201Y12059830D01*
X-12598193Y12059828D01*
X-12401824Y12008984D01*
X-12401819Y12008983D01*
X-12401818Y12008983D01*
X-12401816Y12008982D01*
X-12401810Y12008982D01*
X-12199226Y11998707D01*
X-12098960Y12014067D01*
X-11998701Y12029427D01*
X-11998700Y12029427D01*
X-11998695Y12029428D01*
X-11808473Y12099878D01*
X-11636316Y12207184D01*
X-11489288Y12346944D01*
X-11489285Y12346947D01*
X-11373398Y12513447D01*
X-11293400Y12699864D01*
X-11293400Y12699865D01*
X-11252564Y12898576D01*
X-11250000Y13000000D01*
X-11252564Y13101423D01*
X-11273196Y13201818D01*
X-11293400Y13300135D01*
X-11373398Y13486552D01*
X-11489285Y13653052D01*
X-11489288Y13653055D01*
X-11636316Y13792815D01*
X-11729389Y13850828D01*
X-11808470Y13900120D01*
X-11916612Y13940171D01*
X-11998695Y13970571D01*
X-11998696Y13970571D01*
X-11998701Y13970573D01*
X-12199220Y14001292D01*
X-12401818Y13991017D01*
X-12598201Y13940170D01*
X-12780328Y13850832D01*
X-12940743Y13726662D01*
X-13072880Y13572741D01*
X-13171327Y13395373D01*
X-13232056Y13201818D01*
X-13252579Y13000000D01*
X-14250000Y13000000D01*
X-14250000Y14924800D01*
X-14232407Y14973138D01*
X-14187858Y14998858D01*
X-14174800Y15000000D01*
X-10325200Y15000000D01*
X-10276862Y14982407D01*
G37*
%TD.AperFunction*%
%TD*%
%TA.AperFunction,Conductor*%
%TO.N,/Vin_Protected*%
G36*
X-2456961Y10330315D02*
G01*
X-2411206Y10277511D01*
X-2400000Y10226000D01*
X-2400000Y8615405D01*
X-2419685Y8548366D01*
X-2453979Y8513067D01*
X-3318340Y7921662D01*
X-3384784Y7900052D01*
X-3388361Y7900000D01*
X-5650000Y7900000D01*
X-5850000Y7700000D01*
X-5937677Y-1199232D01*
X-5937709Y-1201064D01*
X-5950000Y-1699995D01*
X-5930832Y-4575173D01*
X-5950069Y-4642343D01*
X-6002567Y-4688448D01*
X-6054829Y-4700000D01*
X-6445395Y-4700000D01*
X-6512434Y-4680315D01*
X-6558189Y-4627511D01*
X-6560855Y-4621222D01*
X-7000000Y-3499999D01*
X-8470148Y-1784827D01*
X-8498831Y-1721116D01*
X-8500000Y-1704129D01*
X-8500000Y3805600D01*
X-8480315Y3872639D01*
X-8471818Y3884308D01*
X-7350000Y5250000D01*
X-7350000Y7512456D01*
X-7330315Y7579495D01*
X-7329174Y7581239D01*
X-6886811Y8244783D01*
X-6833246Y8289644D01*
X-6783637Y8300000D01*
X-6099999Y8300000D01*
X-5600000Y8799999D01*
X-5600000Y10226000D01*
X-5580315Y10293039D01*
X-5527511Y10338794D01*
X-5476000Y10350000D01*
X-2524000Y10350000D01*
X-2456961Y10330315D01*
G37*
%TD.AperFunction*%
%TD*%
%TA.AperFunction,Conductor*%
%TO.N,Net-(J1-Pin_1)*%
G36*
X-5862461Y10330315D02*
G01*
X-5816706Y10277511D01*
X-5805500Y10226000D01*
X-5805500Y8936481D01*
X-5825185Y8869442D01*
X-5841819Y8848800D01*
X-6148800Y8541819D01*
X-6210123Y8508334D01*
X-6236481Y8505500D01*
X-6783638Y8505500D01*
X-6789920Y8504851D01*
X-6825630Y8501164D01*
X-6875239Y8490808D01*
X-6883768Y8488837D01*
X-6965191Y8447190D01*
X-7018756Y8402329D01*
X-7057797Y8358774D01*
X-7057800Y8358769D01*
X-7057804Y8358764D01*
X-7270908Y8039107D01*
X-7274861Y8033518D01*
X-7600000Y7600000D01*
X-7600000Y7599999D01*
X-7600000Y6424000D01*
X-7619685Y6356961D01*
X-7672489Y6311206D01*
X-7724000Y6300000D01*
X-9426000Y6300000D01*
X-9493039Y6319685D01*
X-9538794Y6372489D01*
X-9550000Y6424000D01*
X-9550000Y10226000D01*
X-9530315Y10293039D01*
X-9477511Y10338794D01*
X-9426000Y10350000D01*
X-5929500Y10350000D01*
X-5862461Y10330315D01*
G37*
%TD.AperFunction*%
%TD*%
M02*
