%TF.GenerationSoftware,KiCad,Pcbnew,8.0.1*%
%TF.CreationDate,2024-05-05T22:16:20+02:00*%
%TF.ProjectId,pro_micro,70726f5f-6d69-4637-926f-2e6b69636164,rev?*%
%TF.SameCoordinates,Original*%
%TF.FileFunction,Soldermask,Bot*%
%TF.FilePolarity,Negative*%
%FSLAX46Y46*%
G04 Gerber Fmt 4.6, Leading zero omitted, Abs format (unit mm)*
G04 Created by KiCad (PCBNEW 8.0.1) date 2024-05-05 22:16:20*
%MOMM*%
%LPD*%
G01*
G04 APERTURE LIST*
%ADD10C,0.800000*%
%ADD11C,0.600000*%
G04 APERTURE END LIST*
D10*
X3500000Y2000000D03*
X-8000000Y-10250000D03*
D11*
X-13500000Y500000D03*
X3500000Y-2750000D03*
D10*
X-9000000Y-10250000D03*
D11*
X10000000Y9750000D03*
X9500000Y-8750000D03*
D10*
X-3500000Y3250000D03*
X-3500000Y4750000D03*
D11*
X850000Y-8050000D03*
X3500000Y-1750000D03*
X-650000Y-8050000D03*
X-12000000Y500000D03*
X11250000Y9750000D03*
X13750000Y9750000D03*
X-10500000Y500000D03*
X5500000Y-2750000D03*
X-8500000Y-3000000D03*
X12500000Y9750000D03*
D10*
X3500000Y3000000D03*
D11*
X8750000Y9750000D03*
X-6050000Y-8800000D03*
D10*
X-3500000Y6500000D03*
D11*
X5500000Y-1750000D03*
X-7750000Y500000D03*
X-3000000Y10000000D03*
D10*
X-6500000Y-2000000D03*
D11*
X-7750000Y1500000D03*
X-7750000Y3500000D03*
X-7750000Y-500000D03*
X-7750000Y2500000D03*
X-3000000Y9000000D03*
X5500000Y-5250000D03*
X4730000Y-4250000D03*
X5500000Y-4250000D03*
D10*
X250000Y9073800D03*
D11*
X-3150000Y-7610000D03*
X4730000Y-5250000D03*
X-3790000Y-7620000D03*
X7350000Y-8850000D03*
X-2800000Y-4350000D03*
X-9150000Y10000000D03*
X-7850000Y8000000D03*
X-7850000Y9000000D03*
X-7850000Y10000000D03*
X-9150000Y9000000D03*
X5534096Y-7884096D03*
X-3000000Y-3550000D03*
X4000000Y9050000D03*
M02*
