%TF.GenerationSoftware,KiCad,Pcbnew,8.0.1*%
%TF.CreationDate,2024-05-05T22:16:20+02:00*%
%TF.ProjectId,pro_micro,70726f5f-6d69-4637-926f-2e6b69636164,rev?*%
%TF.SameCoordinates,Original*%
%TF.FileFunction,Legend,Top*%
%TF.FilePolarity,Positive*%
%FSLAX46Y46*%
G04 Gerber Fmt 4.6, Leading zero omitted, Abs format (unit mm)*
G04 Created by KiCad (PCBNEW 8.0.1) date 2024-05-05 22:16:20*
%MOMM*%
%LPD*%
G01*
G04 APERTURE LIST*
%ADD10C,0.125000*%
%ADD11C,0.300000*%
%ADD12C,0.100000*%
%ADD13C,0.120000*%
%ADD14C,0.200000*%
G04 APERTURE END LIST*
D10*
X5925093Y3696140D02*
X6032236Y3658044D01*
X6032236Y3658044D02*
X6210807Y3658044D01*
X6210807Y3658044D02*
X6282236Y3696140D01*
X6282236Y3696140D02*
X6317950Y3734235D01*
X6317950Y3734235D02*
X6353664Y3810425D01*
X6353664Y3810425D02*
X6353664Y3886616D01*
X6353664Y3886616D02*
X6317950Y3962806D01*
X6317950Y3962806D02*
X6282236Y4000901D01*
X6282236Y4000901D02*
X6210807Y4038997D01*
X6210807Y4038997D02*
X6067950Y4077092D01*
X6067950Y4077092D02*
X5996521Y4115187D01*
X5996521Y4115187D02*
X5960807Y4153282D01*
X5960807Y4153282D02*
X5925093Y4229473D01*
X5925093Y4229473D02*
X5925093Y4305663D01*
X5925093Y4305663D02*
X5960807Y4381854D01*
X5960807Y4381854D02*
X5996521Y4419949D01*
X5996521Y4419949D02*
X6067950Y4458044D01*
X6067950Y4458044D02*
X6246521Y4458044D01*
X6246521Y4458044D02*
X6353664Y4419949D01*
X7103664Y3734235D02*
X7067950Y3696140D01*
X7067950Y3696140D02*
X6960807Y3658044D01*
X6960807Y3658044D02*
X6889379Y3658044D01*
X6889379Y3658044D02*
X6782236Y3696140D01*
X6782236Y3696140D02*
X6710807Y3772330D01*
X6710807Y3772330D02*
X6675093Y3848520D01*
X6675093Y3848520D02*
X6639379Y4000901D01*
X6639379Y4000901D02*
X6639379Y4115187D01*
X6639379Y4115187D02*
X6675093Y4267568D01*
X6675093Y4267568D02*
X6710807Y4343759D01*
X6710807Y4343759D02*
X6782236Y4419949D01*
X6782236Y4419949D02*
X6889379Y4458044D01*
X6889379Y4458044D02*
X6960807Y4458044D01*
X6960807Y4458044D02*
X7067950Y4419949D01*
X7067950Y4419949D02*
X7103664Y4381854D01*
X7782236Y3658044D02*
X7425093Y3658044D01*
X7425093Y3658044D02*
X7425093Y4458044D01*
X5925093Y2408185D02*
X6032236Y2370089D01*
X6032236Y2370089D02*
X6210807Y2370089D01*
X6210807Y2370089D02*
X6282236Y2408185D01*
X6282236Y2408185D02*
X6317950Y2446280D01*
X6317950Y2446280D02*
X6353664Y2522470D01*
X6353664Y2522470D02*
X6353664Y2598661D01*
X6353664Y2598661D02*
X6317950Y2674851D01*
X6317950Y2674851D02*
X6282236Y2712946D01*
X6282236Y2712946D02*
X6210807Y2751042D01*
X6210807Y2751042D02*
X6067950Y2789137D01*
X6067950Y2789137D02*
X5996521Y2827232D01*
X5996521Y2827232D02*
X5960807Y2865327D01*
X5960807Y2865327D02*
X5925093Y2941518D01*
X5925093Y2941518D02*
X5925093Y3017708D01*
X5925093Y3017708D02*
X5960807Y3093899D01*
X5960807Y3093899D02*
X5996521Y3131994D01*
X5996521Y3131994D02*
X6067950Y3170089D01*
X6067950Y3170089D02*
X6246521Y3170089D01*
X6246521Y3170089D02*
X6353664Y3131994D01*
X6675093Y2370089D02*
X6675093Y3170089D01*
X6675093Y3170089D02*
X6853664Y3170089D01*
X6853664Y3170089D02*
X6960807Y3131994D01*
X6960807Y3131994D02*
X7032236Y3055804D01*
X7032236Y3055804D02*
X7067950Y2979613D01*
X7067950Y2979613D02*
X7103664Y2827232D01*
X7103664Y2827232D02*
X7103664Y2712946D01*
X7103664Y2712946D02*
X7067950Y2560565D01*
X7067950Y2560565D02*
X7032236Y2484375D01*
X7032236Y2484375D02*
X6960807Y2408185D01*
X6960807Y2408185D02*
X6853664Y2370089D01*
X6853664Y2370089D02*
X6675093Y2370089D01*
X7389379Y2598661D02*
X7746522Y2598661D01*
X7317950Y2370089D02*
X7567950Y3170089D01*
X7567950Y3170089D02*
X7817950Y2370089D01*
X5925093Y1120230D02*
X6032236Y1082134D01*
X6032236Y1082134D02*
X6210807Y1082134D01*
X6210807Y1082134D02*
X6282236Y1120230D01*
X6282236Y1120230D02*
X6317950Y1158325D01*
X6317950Y1158325D02*
X6353664Y1234515D01*
X6353664Y1234515D02*
X6353664Y1310706D01*
X6353664Y1310706D02*
X6317950Y1386896D01*
X6317950Y1386896D02*
X6282236Y1424991D01*
X6282236Y1424991D02*
X6210807Y1463087D01*
X6210807Y1463087D02*
X6067950Y1501182D01*
X6067950Y1501182D02*
X5996521Y1539277D01*
X5996521Y1539277D02*
X5960807Y1577372D01*
X5960807Y1577372D02*
X5925093Y1653563D01*
X5925093Y1653563D02*
X5925093Y1729753D01*
X5925093Y1729753D02*
X5960807Y1805944D01*
X5960807Y1805944D02*
X5996521Y1844039D01*
X5996521Y1844039D02*
X6067950Y1882134D01*
X6067950Y1882134D02*
X6246521Y1882134D01*
X6246521Y1882134D02*
X6353664Y1844039D01*
X6817950Y1882134D02*
X6960807Y1882134D01*
X6960807Y1882134D02*
X7032236Y1844039D01*
X7032236Y1844039D02*
X7103664Y1767849D01*
X7103664Y1767849D02*
X7139379Y1615468D01*
X7139379Y1615468D02*
X7139379Y1348801D01*
X7139379Y1348801D02*
X7103664Y1196420D01*
X7103664Y1196420D02*
X7032236Y1120230D01*
X7032236Y1120230D02*
X6960807Y1082134D01*
X6960807Y1082134D02*
X6817950Y1082134D01*
X6817950Y1082134D02*
X6746522Y1120230D01*
X6746522Y1120230D02*
X6675093Y1196420D01*
X6675093Y1196420D02*
X6639379Y1348801D01*
X6639379Y1348801D02*
X6639379Y1615468D01*
X6639379Y1615468D02*
X6675093Y1767849D01*
X6675093Y1767849D02*
X6746522Y1844039D01*
X6746522Y1844039D02*
X6817950Y1882134D01*
X7425093Y1310706D02*
X7782236Y1310706D01*
X7353664Y1082134D02*
X7603664Y1882134D01*
X7603664Y1882134D02*
X7853664Y1082134D01*
X5925093Y-167725D02*
X6032236Y-205820D01*
X6032236Y-205820D02*
X6210807Y-205820D01*
X6210807Y-205820D02*
X6282236Y-167725D01*
X6282236Y-167725D02*
X6317950Y-129629D01*
X6317950Y-129629D02*
X6353664Y-53439D01*
X6353664Y-53439D02*
X6353664Y22751D01*
X6353664Y22751D02*
X6317950Y98941D01*
X6317950Y98941D02*
X6282236Y137036D01*
X6282236Y137036D02*
X6210807Y175132D01*
X6210807Y175132D02*
X6067950Y213227D01*
X6067950Y213227D02*
X5996521Y251322D01*
X5996521Y251322D02*
X5960807Y289417D01*
X5960807Y289417D02*
X5925093Y365608D01*
X5925093Y365608D02*
X5925093Y441798D01*
X5925093Y441798D02*
X5960807Y517989D01*
X5960807Y517989D02*
X5996521Y556084D01*
X5996521Y556084D02*
X6067950Y594179D01*
X6067950Y594179D02*
X6246521Y594179D01*
X6246521Y594179D02*
X6353664Y556084D01*
X6817950Y594179D02*
X6960807Y594179D01*
X6960807Y594179D02*
X7032236Y556084D01*
X7032236Y556084D02*
X7103664Y479894D01*
X7103664Y479894D02*
X7139379Y327513D01*
X7139379Y327513D02*
X7139379Y60846D01*
X7139379Y60846D02*
X7103664Y-91534D01*
X7103664Y-91534D02*
X7032236Y-167725D01*
X7032236Y-167725D02*
X6960807Y-205820D01*
X6960807Y-205820D02*
X6817950Y-205820D01*
X6817950Y-205820D02*
X6746522Y-167725D01*
X6746522Y-167725D02*
X6675093Y-91534D01*
X6675093Y-91534D02*
X6639379Y60846D01*
X6639379Y60846D02*
X6639379Y327513D01*
X6639379Y327513D02*
X6675093Y479894D01*
X6675093Y479894D02*
X6746522Y556084D01*
X6746522Y556084D02*
X6817950Y594179D01*
X7710807Y213227D02*
X7817950Y175132D01*
X7817950Y175132D02*
X7853664Y137036D01*
X7853664Y137036D02*
X7889378Y60846D01*
X7889378Y60846D02*
X7889378Y-53439D01*
X7889378Y-53439D02*
X7853664Y-129629D01*
X7853664Y-129629D02*
X7817950Y-167725D01*
X7817950Y-167725D02*
X7746521Y-205820D01*
X7746521Y-205820D02*
X7460807Y-205820D01*
X7460807Y-205820D02*
X7460807Y594179D01*
X7460807Y594179D02*
X7710807Y594179D01*
X7710807Y594179D02*
X7782236Y556084D01*
X7782236Y556084D02*
X7817950Y517989D01*
X7817950Y517989D02*
X7853664Y441798D01*
X7853664Y441798D02*
X7853664Y365608D01*
X7853664Y365608D02*
X7817950Y289417D01*
X7817950Y289417D02*
X7782236Y251322D01*
X7782236Y251322D02*
X7710807Y213227D01*
X7710807Y213227D02*
X7460807Y213227D01*
X5925093Y-1455680D02*
X6032236Y-1493775D01*
X6032236Y-1493775D02*
X6210807Y-1493775D01*
X6210807Y-1493775D02*
X6282236Y-1455680D01*
X6282236Y-1455680D02*
X6317950Y-1417584D01*
X6317950Y-1417584D02*
X6353664Y-1341394D01*
X6353664Y-1341394D02*
X6353664Y-1265203D01*
X6353664Y-1265203D02*
X6317950Y-1189013D01*
X6317950Y-1189013D02*
X6282236Y-1150918D01*
X6282236Y-1150918D02*
X6210807Y-1112822D01*
X6210807Y-1112822D02*
X6067950Y-1074727D01*
X6067950Y-1074727D02*
X5996521Y-1036632D01*
X5996521Y-1036632D02*
X5960807Y-998537D01*
X5960807Y-998537D02*
X5925093Y-922346D01*
X5925093Y-922346D02*
X5925093Y-846156D01*
X5925093Y-846156D02*
X5960807Y-769965D01*
X5960807Y-769965D02*
X5996521Y-731870D01*
X5996521Y-731870D02*
X6067950Y-693775D01*
X6067950Y-693775D02*
X6246521Y-693775D01*
X6246521Y-693775D02*
X6353664Y-731870D01*
X6817950Y-693775D02*
X6960807Y-693775D01*
X6960807Y-693775D02*
X7032236Y-731870D01*
X7032236Y-731870D02*
X7103664Y-808060D01*
X7103664Y-808060D02*
X7139379Y-960441D01*
X7139379Y-960441D02*
X7139379Y-1227108D01*
X7139379Y-1227108D02*
X7103664Y-1379489D01*
X7103664Y-1379489D02*
X7032236Y-1455680D01*
X7032236Y-1455680D02*
X6960807Y-1493775D01*
X6960807Y-1493775D02*
X6817950Y-1493775D01*
X6817950Y-1493775D02*
X6746522Y-1455680D01*
X6746522Y-1455680D02*
X6675093Y-1379489D01*
X6675093Y-1379489D02*
X6639379Y-1227108D01*
X6639379Y-1227108D02*
X6639379Y-960441D01*
X6639379Y-960441D02*
X6675093Y-808060D01*
X6675093Y-808060D02*
X6746522Y-731870D01*
X6746522Y-731870D02*
X6817950Y-693775D01*
X7889378Y-1417584D02*
X7853664Y-1455680D01*
X7853664Y-1455680D02*
X7746521Y-1493775D01*
X7746521Y-1493775D02*
X7675093Y-1493775D01*
X7675093Y-1493775D02*
X7567950Y-1455680D01*
X7567950Y-1455680D02*
X7496521Y-1379489D01*
X7496521Y-1379489D02*
X7460807Y-1303299D01*
X7460807Y-1303299D02*
X7425093Y-1150918D01*
X7425093Y-1150918D02*
X7425093Y-1036632D01*
X7425093Y-1036632D02*
X7460807Y-884251D01*
X7460807Y-884251D02*
X7496521Y-808060D01*
X7496521Y-808060D02*
X7567950Y-731870D01*
X7567950Y-731870D02*
X7675093Y-693775D01*
X7675093Y-693775D02*
X7746521Y-693775D01*
X7746521Y-693775D02*
X7853664Y-731870D01*
X7853664Y-731870D02*
X7889378Y-769965D01*
X5960807Y-2781730D02*
X5960807Y-1981730D01*
X6317950Y-2781730D02*
X6317950Y-1981730D01*
X6317950Y-1981730D02*
X6746521Y-2781730D01*
X6746521Y-2781730D02*
X6746521Y-1981730D01*
X7067950Y-2553158D02*
X7425093Y-2553158D01*
X6996521Y-2781730D02*
X7246521Y-1981730D01*
X7246521Y-1981730D02*
X7496521Y-2781730D01*
X5960807Y-4069685D02*
X5960807Y-3269685D01*
X6317950Y-4069685D02*
X6317950Y-3269685D01*
X6317950Y-3269685D02*
X6746521Y-4069685D01*
X6746521Y-4069685D02*
X6746521Y-3269685D01*
X7353664Y-3650637D02*
X7460807Y-3688732D01*
X7460807Y-3688732D02*
X7496521Y-3726828D01*
X7496521Y-3726828D02*
X7532235Y-3803018D01*
X7532235Y-3803018D02*
X7532235Y-3917304D01*
X7532235Y-3917304D02*
X7496521Y-3993494D01*
X7496521Y-3993494D02*
X7460807Y-4031590D01*
X7460807Y-4031590D02*
X7389378Y-4069685D01*
X7389378Y-4069685D02*
X7103664Y-4069685D01*
X7103664Y-4069685D02*
X7103664Y-3269685D01*
X7103664Y-3269685D02*
X7353664Y-3269685D01*
X7353664Y-3269685D02*
X7425093Y-3307780D01*
X7425093Y-3307780D02*
X7460807Y-3345875D01*
X7460807Y-3345875D02*
X7496521Y-3422066D01*
X7496521Y-3422066D02*
X7496521Y-3498256D01*
X7496521Y-3498256D02*
X7460807Y-3574447D01*
X7460807Y-3574447D02*
X7425093Y-3612542D01*
X7425093Y-3612542D02*
X7353664Y-3650637D01*
X7353664Y-3650637D02*
X7103664Y-3650637D01*
X5960807Y-5357640D02*
X5960807Y-4557640D01*
X6317950Y-5357640D02*
X6317950Y-4557640D01*
X6317950Y-4557640D02*
X6746521Y-5357640D01*
X6746521Y-5357640D02*
X6746521Y-4557640D01*
X7532235Y-5281449D02*
X7496521Y-5319545D01*
X7496521Y-5319545D02*
X7389378Y-5357640D01*
X7389378Y-5357640D02*
X7317950Y-5357640D01*
X7317950Y-5357640D02*
X7210807Y-5319545D01*
X7210807Y-5319545D02*
X7139378Y-5243354D01*
X7139378Y-5243354D02*
X7103664Y-5167164D01*
X7103664Y-5167164D02*
X7067950Y-5014783D01*
X7067950Y-5014783D02*
X7067950Y-4900497D01*
X7067950Y-4900497D02*
X7103664Y-4748116D01*
X7103664Y-4748116D02*
X7139378Y-4671925D01*
X7139378Y-4671925D02*
X7210807Y-4595735D01*
X7210807Y-4595735D02*
X7317950Y-4557640D01*
X7317950Y-4557640D02*
X7389378Y-4557640D01*
X7389378Y-4557640D02*
X7496521Y-4595735D01*
X7496521Y-4595735D02*
X7532235Y-4633830D01*
X5960807Y-6226547D02*
X6210807Y-6226547D01*
X6317950Y-6645595D02*
X5960807Y-6645595D01*
X5960807Y-6645595D02*
X5960807Y-5845595D01*
X5960807Y-5845595D02*
X6317950Y-5845595D01*
X6639378Y-6645595D02*
X6639378Y-5845595D01*
X6639378Y-5845595D02*
X7067949Y-6645595D01*
X7067949Y-6645595D02*
X7067949Y-5845595D01*
D11*
X-8270600Y3304510D02*
X-8270600Y4447368D01*
D12*
X-8704152Y7876503D02*
X-8704152Y7686027D01*
X-8704152Y7686027D02*
X-8513676Y7666979D01*
X-8513676Y7666979D02*
X-8532723Y7686027D01*
X-8532723Y7686027D02*
X-8551771Y7724122D01*
X-8551771Y7724122D02*
X-8551771Y7819360D01*
X-8551771Y7819360D02*
X-8532723Y7857455D01*
X-8532723Y7857455D02*
X-8513676Y7876503D01*
X-8513676Y7876503D02*
X-8475580Y7895550D01*
X-8475580Y7895550D02*
X-8380342Y7895550D01*
X-8380342Y7895550D02*
X-8342247Y7876503D01*
X-8342247Y7876503D02*
X-8323200Y7857455D01*
X-8323200Y7857455D02*
X-8304152Y7819360D01*
X-8304152Y7819360D02*
X-8304152Y7724122D01*
X-8304152Y7724122D02*
X-8323200Y7686027D01*
X-8323200Y7686027D02*
X-8342247Y7666979D01*
X-8456533Y8066979D02*
X-8456533Y8371741D01*
X-8304152Y8771740D02*
X-8304152Y8543169D01*
X-8304152Y8657455D02*
X-8704152Y8657455D01*
X-8704152Y8657455D02*
X-8647009Y8619359D01*
X-8647009Y8619359D02*
X-8608914Y8581264D01*
X-8608914Y8581264D02*
X-8589866Y8543169D01*
X-8666057Y8924121D02*
X-8685104Y8943169D01*
X-8685104Y8943169D02*
X-8704152Y8981264D01*
X-8704152Y8981264D02*
X-8704152Y9076502D01*
X-8704152Y9076502D02*
X-8685104Y9114597D01*
X-8685104Y9114597D02*
X-8666057Y9133645D01*
X-8666057Y9133645D02*
X-8627961Y9152692D01*
X-8627961Y9152692D02*
X-8589866Y9152692D01*
X-8589866Y9152692D02*
X-8532723Y9133645D01*
X-8532723Y9133645D02*
X-8304152Y8905073D01*
X-8304152Y8905073D02*
X-8304152Y9152692D01*
X-8704152Y9266978D02*
X-8304152Y9400311D01*
X-8304152Y9400311D02*
X-8704152Y9533644D01*
X-8304152Y9666978D02*
X-8570819Y9666978D01*
X-8704152Y9666978D02*
X-8685104Y9647930D01*
X-8685104Y9647930D02*
X-8666057Y9666978D01*
X-8666057Y9666978D02*
X-8685104Y9686025D01*
X-8685104Y9686025D02*
X-8704152Y9666978D01*
X-8704152Y9666978D02*
X-8666057Y9666978D01*
X-8570819Y9857454D02*
X-8304152Y9857454D01*
X-8532723Y9857454D02*
X-8551771Y9876501D01*
X-8551771Y9876501D02*
X-8570819Y9914596D01*
X-8570819Y9914596D02*
X-8570819Y9971739D01*
X-8570819Y9971739D02*
X-8551771Y10009835D01*
X-8551771Y10009835D02*
X-8513676Y10028882D01*
X-8513676Y10028882D02*
X-8304152Y10028882D01*
D10*
X7763188Y5418880D02*
X7715569Y5442690D01*
X7715569Y5442690D02*
X7644140Y5442690D01*
X7644140Y5442690D02*
X7572712Y5418880D01*
X7572712Y5418880D02*
X7525093Y5371261D01*
X7525093Y5371261D02*
X7501283Y5323642D01*
X7501283Y5323642D02*
X7477474Y5228404D01*
X7477474Y5228404D02*
X7477474Y5156976D01*
X7477474Y5156976D02*
X7501283Y5061738D01*
X7501283Y5061738D02*
X7525093Y5014119D01*
X7525093Y5014119D02*
X7572712Y4966500D01*
X7572712Y4966500D02*
X7644140Y4942690D01*
X7644140Y4942690D02*
X7691759Y4942690D01*
X7691759Y4942690D02*
X7763188Y4966500D01*
X7763188Y4966500D02*
X7786997Y4990309D01*
X7786997Y4990309D02*
X7786997Y5156976D01*
X7786997Y5156976D02*
X7691759Y5156976D01*
X-3595833Y2199476D02*
X-3619642Y2175667D01*
X-3619642Y2175667D02*
X-3691071Y2151857D01*
X-3691071Y2151857D02*
X-3738690Y2151857D01*
X-3738690Y2151857D02*
X-3810118Y2175667D01*
X-3810118Y2175667D02*
X-3857737Y2223286D01*
X-3857737Y2223286D02*
X-3881547Y2270905D01*
X-3881547Y2270905D02*
X-3905356Y2366143D01*
X-3905356Y2366143D02*
X-3905356Y2437571D01*
X-3905356Y2437571D02*
X-3881547Y2532809D01*
X-3881547Y2532809D02*
X-3857737Y2580428D01*
X-3857737Y2580428D02*
X-3810118Y2628047D01*
X-3810118Y2628047D02*
X-3738690Y2651857D01*
X-3738690Y2651857D02*
X-3691071Y2651857D01*
X-3691071Y2651857D02*
X-3619642Y2628047D01*
X-3619642Y2628047D02*
X-3595833Y2604238D01*
X-3429166Y2651857D02*
X-3119642Y2651857D01*
X-3119642Y2651857D02*
X-3286309Y2461381D01*
X-3286309Y2461381D02*
X-3214880Y2461381D01*
X-3214880Y2461381D02*
X-3167261Y2437571D01*
X-3167261Y2437571D02*
X-3143452Y2413762D01*
X-3143452Y2413762D02*
X-3119642Y2366143D01*
X-3119642Y2366143D02*
X-3119642Y2247095D01*
X-3119642Y2247095D02*
X-3143452Y2199476D01*
X-3143452Y2199476D02*
X-3167261Y2175667D01*
X-3167261Y2175667D02*
X-3214880Y2151857D01*
X-3214880Y2151857D02*
X-3357737Y2151857D01*
X-3357737Y2151857D02*
X-3405356Y2175667D01*
X-3405356Y2175667D02*
X-3429166Y2199476D01*
X-3666665Y8287095D02*
X-3833332Y8287095D01*
X-3833332Y8025190D02*
X-3833332Y8525190D01*
X-3833332Y8525190D02*
X-3595237Y8525190D01*
X-3142856Y8025190D02*
X-3428570Y8025190D01*
X-3285713Y8025190D02*
X-3285713Y8525190D01*
X-3285713Y8525190D02*
X-3333332Y8453761D01*
X-3333332Y8453761D02*
X-3380951Y8406142D01*
X-3380951Y8406142D02*
X-3428570Y8382333D01*
X3546809Y8386666D02*
X3308714Y8220000D01*
X3546809Y8100952D02*
X3046809Y8100952D01*
X3046809Y8100952D02*
X3046809Y8291428D01*
X3046809Y8291428D02*
X3070619Y8339047D01*
X3070619Y8339047D02*
X3094428Y8362857D01*
X3094428Y8362857D02*
X3142047Y8386666D01*
X3142047Y8386666D02*
X3213476Y8386666D01*
X3213476Y8386666D02*
X3261095Y8362857D01*
X3261095Y8362857D02*
X3284904Y8339047D01*
X3284904Y8339047D02*
X3308714Y8291428D01*
X3308714Y8291428D02*
X3308714Y8100952D01*
X3046809Y8553333D02*
X3046809Y8862857D01*
X3046809Y8862857D02*
X3237285Y8696190D01*
X3237285Y8696190D02*
X3237285Y8767619D01*
X3237285Y8767619D02*
X3261095Y8815238D01*
X3261095Y8815238D02*
X3284904Y8839047D01*
X3284904Y8839047D02*
X3332523Y8862857D01*
X3332523Y8862857D02*
X3451571Y8862857D01*
X3451571Y8862857D02*
X3499190Y8839047D01*
X3499190Y8839047D02*
X3523000Y8815238D01*
X3523000Y8815238D02*
X3546809Y8767619D01*
X3546809Y8767619D02*
X3546809Y8624762D01*
X3546809Y8624762D02*
X3523000Y8577143D01*
X3523000Y8577143D02*
X3499190Y8553333D01*
X-2728452Y-35977309D02*
X-2728452Y-36382071D01*
X-2728452Y-36382071D02*
X-2704642Y-36429690D01*
X-2704642Y-36429690D02*
X-2680833Y-36453500D01*
X-2680833Y-36453500D02*
X-2633214Y-36477309D01*
X-2633214Y-36477309D02*
X-2537976Y-36477309D01*
X-2537976Y-36477309D02*
X-2490357Y-36453500D01*
X-2490357Y-36453500D02*
X-2466547Y-36429690D01*
X-2466547Y-36429690D02*
X-2442738Y-36382071D01*
X-2442738Y-36382071D02*
X-2442738Y-35977309D01*
X-2228451Y-36024928D02*
X-2204642Y-36001119D01*
X-2204642Y-36001119D02*
X-2157023Y-35977309D01*
X-2157023Y-35977309D02*
X-2037975Y-35977309D01*
X-2037975Y-35977309D02*
X-1990356Y-36001119D01*
X-1990356Y-36001119D02*
X-1966547Y-36024928D01*
X-1966547Y-36024928D02*
X-1942737Y-36072547D01*
X-1942737Y-36072547D02*
X-1942737Y-36120166D01*
X-1942737Y-36120166D02*
X-1966547Y-36191595D01*
X-1966547Y-36191595D02*
X-2252261Y-36477309D01*
X-2252261Y-36477309D02*
X-1942737Y-36477309D01*
X-3583333Y7072809D02*
X-3607142Y7049000D01*
X-3607142Y7049000D02*
X-3678571Y7025190D01*
X-3678571Y7025190D02*
X-3726190Y7025190D01*
X-3726190Y7025190D02*
X-3797618Y7049000D01*
X-3797618Y7049000D02*
X-3845237Y7096619D01*
X-3845237Y7096619D02*
X-3869047Y7144238D01*
X-3869047Y7144238D02*
X-3892856Y7239476D01*
X-3892856Y7239476D02*
X-3892856Y7310904D01*
X-3892856Y7310904D02*
X-3869047Y7406142D01*
X-3869047Y7406142D02*
X-3845237Y7453761D01*
X-3845237Y7453761D02*
X-3797618Y7501380D01*
X-3797618Y7501380D02*
X-3726190Y7525190D01*
X-3726190Y7525190D02*
X-3678571Y7525190D01*
X-3678571Y7525190D02*
X-3607142Y7501380D01*
X-3607142Y7501380D02*
X-3583333Y7477571D01*
X-3107142Y7025190D02*
X-3392856Y7025190D01*
X-3249999Y7025190D02*
X-3249999Y7525190D01*
X-3249999Y7525190D02*
X-3297618Y7453761D01*
X-3297618Y7453761D02*
X-3345237Y7406142D01*
X-3345237Y7406142D02*
X-3392856Y7382333D01*
X6662809Y8100952D02*
X6162809Y8100952D01*
X6162809Y8100952D02*
X6162809Y8220000D01*
X6162809Y8220000D02*
X6186619Y8291428D01*
X6186619Y8291428D02*
X6234238Y8339047D01*
X6234238Y8339047D02*
X6281857Y8362857D01*
X6281857Y8362857D02*
X6377095Y8386666D01*
X6377095Y8386666D02*
X6448523Y8386666D01*
X6448523Y8386666D02*
X6543761Y8362857D01*
X6543761Y8362857D02*
X6591380Y8339047D01*
X6591380Y8339047D02*
X6639000Y8291428D01*
X6639000Y8291428D02*
X6662809Y8220000D01*
X6662809Y8220000D02*
X6662809Y8100952D01*
X6662809Y8862857D02*
X6662809Y8577143D01*
X6662809Y8720000D02*
X6162809Y8720000D01*
X6162809Y8720000D02*
X6234238Y8672381D01*
X6234238Y8672381D02*
X6281857Y8624762D01*
X6281857Y8624762D02*
X6305666Y8577143D01*
X3424809Y-8233333D02*
X3186714Y-8399999D01*
X3424809Y-8519047D02*
X2924809Y-8519047D01*
X2924809Y-8519047D02*
X2924809Y-8328571D01*
X2924809Y-8328571D02*
X2948619Y-8280952D01*
X2948619Y-8280952D02*
X2972428Y-8257142D01*
X2972428Y-8257142D02*
X3020047Y-8233333D01*
X3020047Y-8233333D02*
X3091476Y-8233333D01*
X3091476Y-8233333D02*
X3139095Y-8257142D01*
X3139095Y-8257142D02*
X3162904Y-8280952D01*
X3162904Y-8280952D02*
X3186714Y-8328571D01*
X3186714Y-8328571D02*
X3186714Y-8519047D01*
X2972428Y-8042856D02*
X2948619Y-8019047D01*
X2948619Y-8019047D02*
X2924809Y-7971428D01*
X2924809Y-7971428D02*
X2924809Y-7852380D01*
X2924809Y-7852380D02*
X2948619Y-7804761D01*
X2948619Y-7804761D02*
X2972428Y-7780952D01*
X2972428Y-7780952D02*
X3020047Y-7757142D01*
X3020047Y-7757142D02*
X3067666Y-7757142D01*
X3067666Y-7757142D02*
X3139095Y-7780952D01*
X3139095Y-7780952D02*
X3424809Y-8066666D01*
X3424809Y-8066666D02*
X3424809Y-7757142D01*
X-1162809Y-8173333D02*
X-1139000Y-8197142D01*
X-1139000Y-8197142D02*
X-1115190Y-8268571D01*
X-1115190Y-8268571D02*
X-1115190Y-8316190D01*
X-1115190Y-8316190D02*
X-1139000Y-8387618D01*
X-1139000Y-8387618D02*
X-1186619Y-8435237D01*
X-1186619Y-8435237D02*
X-1234238Y-8459047D01*
X-1234238Y-8459047D02*
X-1329476Y-8482856D01*
X-1329476Y-8482856D02*
X-1400904Y-8482856D01*
X-1400904Y-8482856D02*
X-1496142Y-8459047D01*
X-1496142Y-8459047D02*
X-1543761Y-8435237D01*
X-1543761Y-8435237D02*
X-1591380Y-8387618D01*
X-1591380Y-8387618D02*
X-1615190Y-8316190D01*
X-1615190Y-8316190D02*
X-1615190Y-8268571D01*
X-1615190Y-8268571D02*
X-1591380Y-8197142D01*
X-1591380Y-8197142D02*
X-1567571Y-8173333D01*
X-1567571Y-7982856D02*
X-1591380Y-7959047D01*
X-1591380Y-7959047D02*
X-1615190Y-7911428D01*
X-1615190Y-7911428D02*
X-1615190Y-7792380D01*
X-1615190Y-7792380D02*
X-1591380Y-7744761D01*
X-1591380Y-7744761D02*
X-1567571Y-7720952D01*
X-1567571Y-7720952D02*
X-1519952Y-7697142D01*
X-1519952Y-7697142D02*
X-1472333Y-7697142D01*
X-1472333Y-7697142D02*
X-1400904Y-7720952D01*
X-1400904Y-7720952D02*
X-1115190Y-8006666D01*
X-1115190Y-8006666D02*
X-1115190Y-7697142D01*
X430809Y8386666D02*
X192714Y8220000D01*
X430809Y8100952D02*
X-69190Y8100952D01*
X-69190Y8100952D02*
X-69190Y8291428D01*
X-69190Y8291428D02*
X-45380Y8339047D01*
X-45380Y8339047D02*
X-21571Y8362857D01*
X-21571Y8362857D02*
X26047Y8386666D01*
X26047Y8386666D02*
X97476Y8386666D01*
X97476Y8386666D02*
X145095Y8362857D01*
X145095Y8362857D02*
X168904Y8339047D01*
X168904Y8339047D02*
X192714Y8291428D01*
X192714Y8291428D02*
X192714Y8100952D01*
X-69190Y8839047D02*
X-69190Y8600952D01*
X-69190Y8600952D02*
X168904Y8577143D01*
X168904Y8577143D02*
X145095Y8600952D01*
X145095Y8600952D02*
X121285Y8648571D01*
X121285Y8648571D02*
X121285Y8767619D01*
X121285Y8767619D02*
X145095Y8815238D01*
X145095Y8815238D02*
X168904Y8839047D01*
X168904Y8839047D02*
X216523Y8862857D01*
X216523Y8862857D02*
X335571Y8862857D01*
X335571Y8862857D02*
X383190Y8839047D01*
X383190Y8839047D02*
X407000Y8815238D01*
X407000Y8815238D02*
X430809Y8767619D01*
X430809Y8767619D02*
X430809Y8648571D01*
X430809Y8648571D02*
X407000Y8600952D01*
X407000Y8600952D02*
X383190Y8577143D01*
X-3595833Y686143D02*
X-3619642Y662334D01*
X-3619642Y662334D02*
X-3691071Y638524D01*
X-3691071Y638524D02*
X-3738690Y638524D01*
X-3738690Y638524D02*
X-3810118Y662334D01*
X-3810118Y662334D02*
X-3857737Y709953D01*
X-3857737Y709953D02*
X-3881547Y757572D01*
X-3881547Y757572D02*
X-3905356Y852810D01*
X-3905356Y852810D02*
X-3905356Y924238D01*
X-3905356Y924238D02*
X-3881547Y1019476D01*
X-3881547Y1019476D02*
X-3857737Y1067095D01*
X-3857737Y1067095D02*
X-3810118Y1114714D01*
X-3810118Y1114714D02*
X-3738690Y1138524D01*
X-3738690Y1138524D02*
X-3691071Y1138524D01*
X-3691071Y1138524D02*
X-3619642Y1114714D01*
X-3619642Y1114714D02*
X-3595833Y1090905D01*
X-3167261Y1138524D02*
X-3262499Y1138524D01*
X-3262499Y1138524D02*
X-3310118Y1114714D01*
X-3310118Y1114714D02*
X-3333928Y1090905D01*
X-3333928Y1090905D02*
X-3381547Y1019476D01*
X-3381547Y1019476D02*
X-3405356Y924238D01*
X-3405356Y924238D02*
X-3405356Y733762D01*
X-3405356Y733762D02*
X-3381547Y686143D01*
X-3381547Y686143D02*
X-3357737Y662334D01*
X-3357737Y662334D02*
X-3310118Y638524D01*
X-3310118Y638524D02*
X-3214880Y638524D01*
X-3214880Y638524D02*
X-3167261Y662334D01*
X-3167261Y662334D02*
X-3143452Y686143D01*
X-3143452Y686143D02*
X-3119642Y733762D01*
X-3119642Y733762D02*
X-3119642Y852810D01*
X-3119642Y852810D02*
X-3143452Y900429D01*
X-3143452Y900429D02*
X-3167261Y924238D01*
X-3167261Y924238D02*
X-3214880Y948048D01*
X-3214880Y948048D02*
X-3310118Y948048D01*
X-3310118Y948048D02*
X-3357737Y924238D01*
X-3357737Y924238D02*
X-3381547Y900429D01*
X-3381547Y900429D02*
X-3405356Y852810D01*
X-1127190Y8386666D02*
X-1365285Y8220000D01*
X-1127190Y8100952D02*
X-1627190Y8100952D01*
X-1627190Y8100952D02*
X-1627190Y8291428D01*
X-1627190Y8291428D02*
X-1603380Y8339047D01*
X-1603380Y8339047D02*
X-1579571Y8362857D01*
X-1579571Y8362857D02*
X-1531952Y8386666D01*
X-1531952Y8386666D02*
X-1460523Y8386666D01*
X-1460523Y8386666D02*
X-1412904Y8362857D01*
X-1412904Y8362857D02*
X-1389095Y8339047D01*
X-1389095Y8339047D02*
X-1365285Y8291428D01*
X-1365285Y8291428D02*
X-1365285Y8100952D01*
X-1627190Y8815238D02*
X-1627190Y8720000D01*
X-1627190Y8720000D02*
X-1603380Y8672381D01*
X-1603380Y8672381D02*
X-1579571Y8648571D01*
X-1579571Y8648571D02*
X-1508142Y8600952D01*
X-1508142Y8600952D02*
X-1412904Y8577143D01*
X-1412904Y8577143D02*
X-1222428Y8577143D01*
X-1222428Y8577143D02*
X-1174809Y8600952D01*
X-1174809Y8600952D02*
X-1151000Y8624762D01*
X-1151000Y8624762D02*
X-1127190Y8672381D01*
X-1127190Y8672381D02*
X-1127190Y8767619D01*
X-1127190Y8767619D02*
X-1151000Y8815238D01*
X-1151000Y8815238D02*
X-1174809Y8839047D01*
X-1174809Y8839047D02*
X-1222428Y8862857D01*
X-1222428Y8862857D02*
X-1341476Y8862857D01*
X-1341476Y8862857D02*
X-1389095Y8839047D01*
X-1389095Y8839047D02*
X-1412904Y8815238D01*
X-1412904Y8815238D02*
X-1436714Y8767619D01*
X-1436714Y8767619D02*
X-1436714Y8672381D01*
X-1436714Y8672381D02*
X-1412904Y8624762D01*
X-1412904Y8624762D02*
X-1389095Y8600952D01*
X-1389095Y8600952D02*
X-1341476Y8577143D01*
X-6680952Y-2624809D02*
X-6680952Y-3029571D01*
X-6680952Y-3029571D02*
X-6657142Y-3077190D01*
X-6657142Y-3077190D02*
X-6633333Y-3101000D01*
X-6633333Y-3101000D02*
X-6585714Y-3124809D01*
X-6585714Y-3124809D02*
X-6490476Y-3124809D01*
X-6490476Y-3124809D02*
X-6442857Y-3101000D01*
X-6442857Y-3101000D02*
X-6419047Y-3077190D01*
X-6419047Y-3077190D02*
X-6395238Y-3029571D01*
X-6395238Y-3029571D02*
X-6395238Y-2624809D01*
X-5895237Y-3124809D02*
X-6180951Y-3124809D01*
X-6038094Y-3124809D02*
X-6038094Y-2624809D01*
X-6038094Y-2624809D02*
X-6085713Y-2696238D01*
X-6085713Y-2696238D02*
X-6133332Y-2743857D01*
X-6133332Y-2743857D02*
X-6180951Y-2767666D01*
X-3583333Y5372809D02*
X-3607142Y5349000D01*
X-3607142Y5349000D02*
X-3678571Y5325190D01*
X-3678571Y5325190D02*
X-3726190Y5325190D01*
X-3726190Y5325190D02*
X-3797618Y5349000D01*
X-3797618Y5349000D02*
X-3845237Y5396619D01*
X-3845237Y5396619D02*
X-3869047Y5444238D01*
X-3869047Y5444238D02*
X-3892856Y5539476D01*
X-3892856Y5539476D02*
X-3892856Y5610904D01*
X-3892856Y5610904D02*
X-3869047Y5706142D01*
X-3869047Y5706142D02*
X-3845237Y5753761D01*
X-3845237Y5753761D02*
X-3797618Y5801380D01*
X-3797618Y5801380D02*
X-3726190Y5825190D01*
X-3726190Y5825190D02*
X-3678571Y5825190D01*
X-3678571Y5825190D02*
X-3607142Y5801380D01*
X-3607142Y5801380D02*
X-3583333Y5777571D01*
X-3416666Y5825190D02*
X-3083333Y5825190D01*
X-3083333Y5825190D02*
X-3297618Y5325190D01*
X1988809Y8100952D02*
X1488809Y8100952D01*
X1488809Y8100952D02*
X1488809Y8220000D01*
X1488809Y8220000D02*
X1512619Y8291428D01*
X1512619Y8291428D02*
X1560238Y8339047D01*
X1560238Y8339047D02*
X1607857Y8362857D01*
X1607857Y8362857D02*
X1703095Y8386666D01*
X1703095Y8386666D02*
X1774523Y8386666D01*
X1774523Y8386666D02*
X1869761Y8362857D01*
X1869761Y8362857D02*
X1917380Y8339047D01*
X1917380Y8339047D02*
X1965000Y8291428D01*
X1965000Y8291428D02*
X1988809Y8220000D01*
X1988809Y8220000D02*
X1988809Y8100952D01*
X1536428Y8577143D02*
X1512619Y8600952D01*
X1512619Y8600952D02*
X1488809Y8648571D01*
X1488809Y8648571D02*
X1488809Y8767619D01*
X1488809Y8767619D02*
X1512619Y8815238D01*
X1512619Y8815238D02*
X1536428Y8839047D01*
X1536428Y8839047D02*
X1584047Y8862857D01*
X1584047Y8862857D02*
X1631666Y8862857D01*
X1631666Y8862857D02*
X1703095Y8839047D01*
X1703095Y8839047D02*
X1988809Y8553333D01*
X1988809Y8553333D02*
X1988809Y8862857D01*
X337190Y-8283333D02*
X361000Y-8307142D01*
X361000Y-8307142D02*
X384809Y-8378571D01*
X384809Y-8378571D02*
X384809Y-8426190D01*
X384809Y-8426190D02*
X361000Y-8497618D01*
X361000Y-8497618D02*
X313380Y-8545237D01*
X313380Y-8545237D02*
X265761Y-8569047D01*
X265761Y-8569047D02*
X170523Y-8592856D01*
X170523Y-8592856D02*
X99095Y-8592856D01*
X99095Y-8592856D02*
X3857Y-8569047D01*
X3857Y-8569047D02*
X-43761Y-8545237D01*
X-43761Y-8545237D02*
X-91380Y-8497618D01*
X-91380Y-8497618D02*
X-115190Y-8426190D01*
X-115190Y-8426190D02*
X-115190Y-8378571D01*
X-115190Y-8378571D02*
X-91380Y-8307142D01*
X-91380Y-8307142D02*
X-67571Y-8283333D01*
X384809Y-8045237D02*
X384809Y-7949999D01*
X384809Y-7949999D02*
X361000Y-7902380D01*
X361000Y-7902380D02*
X337190Y-7878571D01*
X337190Y-7878571D02*
X265761Y-7830952D01*
X265761Y-7830952D02*
X170523Y-7807142D01*
X170523Y-7807142D02*
X-19952Y-7807142D01*
X-19952Y-7807142D02*
X-67571Y-7830952D01*
X-67571Y-7830952D02*
X-91380Y-7854761D01*
X-91380Y-7854761D02*
X-115190Y-7902380D01*
X-115190Y-7902380D02*
X-115190Y-7997618D01*
X-115190Y-7997618D02*
X-91380Y-8045237D01*
X-91380Y-8045237D02*
X-67571Y-8069047D01*
X-67571Y-8069047D02*
X-19952Y-8092856D01*
X-19952Y-8092856D02*
X99095Y-8092856D01*
X99095Y-8092856D02*
X146714Y-8069047D01*
X146714Y-8069047D02*
X170523Y-8045237D01*
X170523Y-8045237D02*
X194333Y-7997618D01*
X194333Y-7997618D02*
X194333Y-7902380D01*
X194333Y-7902380D02*
X170523Y-7854761D01*
X170523Y-7854761D02*
X146714Y-7830952D01*
X146714Y-7830952D02*
X99095Y-7807142D01*
X1899809Y-8245833D02*
X1661714Y-8412499D01*
X1899809Y-8531547D02*
X1399809Y-8531547D01*
X1399809Y-8531547D02*
X1399809Y-8341071D01*
X1399809Y-8341071D02*
X1423619Y-8293452D01*
X1423619Y-8293452D02*
X1447428Y-8269642D01*
X1447428Y-8269642D02*
X1495047Y-8245833D01*
X1495047Y-8245833D02*
X1566476Y-8245833D01*
X1566476Y-8245833D02*
X1614095Y-8269642D01*
X1614095Y-8269642D02*
X1637904Y-8293452D01*
X1637904Y-8293452D02*
X1661714Y-8341071D01*
X1661714Y-8341071D02*
X1661714Y-8531547D01*
X1566476Y-7817261D02*
X1899809Y-7817261D01*
X1376000Y-7936309D02*
X1733142Y-8055356D01*
X1733142Y-8055356D02*
X1733142Y-7745833D01*
X-3558333Y3822809D02*
X-3582142Y3799000D01*
X-3582142Y3799000D02*
X-3653571Y3775190D01*
X-3653571Y3775190D02*
X-3701190Y3775190D01*
X-3701190Y3775190D02*
X-3772618Y3799000D01*
X-3772618Y3799000D02*
X-3820237Y3846619D01*
X-3820237Y3846619D02*
X-3844047Y3894238D01*
X-3844047Y3894238D02*
X-3867856Y3989476D01*
X-3867856Y3989476D02*
X-3867856Y4060904D01*
X-3867856Y4060904D02*
X-3844047Y4156142D01*
X-3844047Y4156142D02*
X-3820237Y4203761D01*
X-3820237Y4203761D02*
X-3772618Y4251380D01*
X-3772618Y4251380D02*
X-3701190Y4275190D01*
X-3701190Y4275190D02*
X-3653571Y4275190D01*
X-3653571Y4275190D02*
X-3582142Y4251380D01*
X-3582142Y4251380D02*
X-3558333Y4227571D01*
X-3129761Y4108523D02*
X-3129761Y3775190D01*
X-3248809Y4299000D02*
X-3367856Y3941857D01*
X-3367856Y3941857D02*
X-3058333Y3941857D01*
X-11916666Y11275190D02*
X-11916666Y10918047D01*
X-11916666Y10918047D02*
X-11940475Y10846619D01*
X-11940475Y10846619D02*
X-11988094Y10799000D01*
X-11988094Y10799000D02*
X-12059523Y10775190D01*
X-12059523Y10775190D02*
X-12107142Y10775190D01*
X-11416666Y10775190D02*
X-11702380Y10775190D01*
X-11559523Y10775190D02*
X-11559523Y11275190D01*
X-11559523Y11275190D02*
X-11607142Y11203761D01*
X-11607142Y11203761D02*
X-11654761Y11156142D01*
X-11654761Y11156142D02*
X-11702380Y11132333D01*
X-11916666Y25190D02*
X-11916666Y-331952D01*
X-11916666Y-331952D02*
X-11940475Y-403380D01*
X-11940475Y-403380D02*
X-11988094Y-451000D01*
X-11988094Y-451000D02*
X-12059523Y-474809D01*
X-12059523Y-474809D02*
X-12107142Y-474809D01*
X-11726190Y25190D02*
X-11416666Y25190D01*
X-11416666Y25190D02*
X-11583333Y-165285D01*
X-11583333Y-165285D02*
X-11511904Y-165285D01*
X-11511904Y-165285D02*
X-11464285Y-189095D01*
X-11464285Y-189095D02*
X-11440476Y-212904D01*
X-11440476Y-212904D02*
X-11416666Y-260523D01*
X-11416666Y-260523D02*
X-11416666Y-379571D01*
X-11416666Y-379571D02*
X-11440476Y-427190D01*
X-11440476Y-427190D02*
X-11464285Y-451000D01*
X-11464285Y-451000D02*
X-11511904Y-474809D01*
X-11511904Y-474809D02*
X-11654761Y-474809D01*
X-11654761Y-474809D02*
X-11702380Y-451000D01*
X-11702380Y-451000D02*
X-11726190Y-427190D01*
X5104809Y8386666D02*
X4866714Y8220000D01*
X5104809Y8100952D02*
X4604809Y8100952D01*
X4604809Y8100952D02*
X4604809Y8291428D01*
X4604809Y8291428D02*
X4628619Y8339047D01*
X4628619Y8339047D02*
X4652428Y8362857D01*
X4652428Y8362857D02*
X4700047Y8386666D01*
X4700047Y8386666D02*
X4771476Y8386666D01*
X4771476Y8386666D02*
X4819095Y8362857D01*
X4819095Y8362857D02*
X4842904Y8339047D01*
X4842904Y8339047D02*
X4866714Y8291428D01*
X4866714Y8291428D02*
X4866714Y8100952D01*
X5104809Y8862857D02*
X5104809Y8577143D01*
X5104809Y8720000D02*
X4604809Y8720000D01*
X4604809Y8720000D02*
X4676238Y8672381D01*
X4676238Y8672381D02*
X4723857Y8624762D01*
X4723857Y8624762D02*
X4747666Y8577143D01*
X-3595833Y-827190D02*
X-3619642Y-851000D01*
X-3619642Y-851000D02*
X-3691071Y-874809D01*
X-3691071Y-874809D02*
X-3738690Y-874809D01*
X-3738690Y-874809D02*
X-3810118Y-851000D01*
X-3810118Y-851000D02*
X-3857737Y-803380D01*
X-3857737Y-803380D02*
X-3881547Y-755761D01*
X-3881547Y-755761D02*
X-3905356Y-660523D01*
X-3905356Y-660523D02*
X-3905356Y-589095D01*
X-3905356Y-589095D02*
X-3881547Y-493857D01*
X-3881547Y-493857D02*
X-3857737Y-446238D01*
X-3857737Y-446238D02*
X-3810118Y-398619D01*
X-3810118Y-398619D02*
X-3738690Y-374809D01*
X-3738690Y-374809D02*
X-3691071Y-374809D01*
X-3691071Y-374809D02*
X-3619642Y-398619D01*
X-3619642Y-398619D02*
X-3595833Y-422428D01*
X-3143452Y-374809D02*
X-3381547Y-374809D01*
X-3381547Y-374809D02*
X-3405356Y-612904D01*
X-3405356Y-612904D02*
X-3381547Y-589095D01*
X-3381547Y-589095D02*
X-3333928Y-565285D01*
X-3333928Y-565285D02*
X-3214880Y-565285D01*
X-3214880Y-565285D02*
X-3167261Y-589095D01*
X-3167261Y-589095D02*
X-3143452Y-612904D01*
X-3143452Y-612904D02*
X-3119642Y-660523D01*
X-3119642Y-660523D02*
X-3119642Y-779571D01*
X-3119642Y-779571D02*
X-3143452Y-827190D01*
X-3143452Y-827190D02*
X-3167261Y-851000D01*
X-3167261Y-851000D02*
X-3214880Y-874809D01*
X-3214880Y-874809D02*
X-3333928Y-874809D01*
X-3333928Y-874809D02*
X-3381547Y-851000D01*
X-3381547Y-851000D02*
X-3405356Y-827190D01*
X11583333Y9525190D02*
X11583333Y9168047D01*
X11583333Y9168047D02*
X11559524Y9096619D01*
X11559524Y9096619D02*
X11511905Y9049000D01*
X11511905Y9049000D02*
X11440476Y9025190D01*
X11440476Y9025190D02*
X11392857Y9025190D01*
X11797619Y9477571D02*
X11821428Y9501380D01*
X11821428Y9501380D02*
X11869047Y9525190D01*
X11869047Y9525190D02*
X11988095Y9525190D01*
X11988095Y9525190D02*
X12035714Y9501380D01*
X12035714Y9501380D02*
X12059523Y9477571D01*
X12059523Y9477571D02*
X12083333Y9429952D01*
X12083333Y9429952D02*
X12083333Y9382333D01*
X12083333Y9382333D02*
X12059523Y9310904D01*
X12059523Y9310904D02*
X11773809Y9025190D01*
X11773809Y9025190D02*
X12083333Y9025190D01*
X-4183333Y-10127190D02*
X-4207142Y-10151000D01*
X-4207142Y-10151000D02*
X-4278571Y-10174809D01*
X-4278571Y-10174809D02*
X-4326190Y-10174809D01*
X-4326190Y-10174809D02*
X-4397618Y-10151000D01*
X-4397618Y-10151000D02*
X-4445237Y-10103380D01*
X-4445237Y-10103380D02*
X-4469047Y-10055761D01*
X-4469047Y-10055761D02*
X-4492856Y-9960523D01*
X-4492856Y-9960523D02*
X-4492856Y-9889095D01*
X-4492856Y-9889095D02*
X-4469047Y-9793857D01*
X-4469047Y-9793857D02*
X-4445237Y-9746238D01*
X-4445237Y-9746238D02*
X-4397618Y-9698619D01*
X-4397618Y-9698619D02*
X-4326190Y-9674809D01*
X-4326190Y-9674809D02*
X-4278571Y-9674809D01*
X-4278571Y-9674809D02*
X-4207142Y-9698619D01*
X-4207142Y-9698619D02*
X-4183333Y-9722428D01*
X-3897618Y-9889095D02*
X-3945237Y-9865285D01*
X-3945237Y-9865285D02*
X-3969047Y-9841476D01*
X-3969047Y-9841476D02*
X-3992856Y-9793857D01*
X-3992856Y-9793857D02*
X-3992856Y-9770047D01*
X-3992856Y-9770047D02*
X-3969047Y-9722428D01*
X-3969047Y-9722428D02*
X-3945237Y-9698619D01*
X-3945237Y-9698619D02*
X-3897618Y-9674809D01*
X-3897618Y-9674809D02*
X-3802380Y-9674809D01*
X-3802380Y-9674809D02*
X-3754761Y-9698619D01*
X-3754761Y-9698619D02*
X-3730952Y-9722428D01*
X-3730952Y-9722428D02*
X-3707142Y-9770047D01*
X-3707142Y-9770047D02*
X-3707142Y-9793857D01*
X-3707142Y-9793857D02*
X-3730952Y-9841476D01*
X-3730952Y-9841476D02*
X-3754761Y-9865285D01*
X-3754761Y-9865285D02*
X-3802380Y-9889095D01*
X-3802380Y-9889095D02*
X-3897618Y-9889095D01*
X-3897618Y-9889095D02*
X-3945237Y-9912904D01*
X-3945237Y-9912904D02*
X-3969047Y-9936714D01*
X-3969047Y-9936714D02*
X-3992856Y-9984333D01*
X-3992856Y-9984333D02*
X-3992856Y-10079571D01*
X-3992856Y-10079571D02*
X-3969047Y-10127190D01*
X-3969047Y-10127190D02*
X-3945237Y-10151000D01*
X-3945237Y-10151000D02*
X-3897618Y-10174809D01*
X-3897618Y-10174809D02*
X-3802380Y-10174809D01*
X-3802380Y-10174809D02*
X-3754761Y-10151000D01*
X-3754761Y-10151000D02*
X-3730952Y-10127190D01*
X-3730952Y-10127190D02*
X-3707142Y-10079571D01*
X-3707142Y-10079571D02*
X-3707142Y-9984333D01*
X-3707142Y-9984333D02*
X-3730952Y-9936714D01*
X-3730952Y-9936714D02*
X-3754761Y-9912904D01*
X-3754761Y-9912904D02*
X-3802380Y-9889095D01*
D13*
%TO.C,C3*%
X-5528733Y2976667D02*
X-5821267Y2976667D01*
X-5528733Y1956667D02*
X-5821267Y1956667D01*
%TO.C,F1*%
X-5661252Y10260000D02*
X-5138748Y10260000D01*
X-5661252Y8840000D02*
X-5138748Y8840000D01*
%TO.C,R3*%
X2795500Y6504724D02*
X2795500Y5995276D01*
X3840500Y6504724D02*
X3840500Y5995276D01*
%TO.C,U2*%
X-2560000Y0D02*
X-2560000Y1950000D01*
X-2560000Y0D02*
X-2560000Y-3450000D01*
X2560000Y0D02*
X2560000Y1950000D01*
X2560000Y0D02*
X2560000Y-1950000D01*
%TO.C,C1*%
X-6612500Y6515000D02*
X-4302500Y6515000D01*
X-4302500Y8085000D02*
X-6612500Y8085000D01*
X-4302500Y6515000D02*
X-4302500Y8085000D01*
%TO.C,D1*%
X5687000Y7910000D02*
X5687000Y5450000D01*
X7157000Y7910000D02*
X5687000Y7910000D01*
X7157000Y5450000D02*
X7157000Y7910000D01*
%TO.C,R2*%
X2677500Y-6104724D02*
X2677500Y-5595276D01*
X3722500Y-6104724D02*
X3722500Y-5595276D01*
%TO.C,C2*%
X-1810000Y-5996267D02*
X-1810000Y-5703733D01*
X-790000Y-5996267D02*
X-790000Y-5703733D01*
%TO.C,R5*%
X-348500Y5995276D02*
X-348500Y6504724D01*
X696500Y5995276D02*
X696500Y6504724D01*
%TO.C,C6*%
X-5528733Y1443334D02*
X-5821267Y1443334D01*
X-5528733Y423334D02*
X-5821267Y423334D01*
%TO.C,R6*%
X-1880500Y5995276D02*
X-1880500Y6504724D01*
X-835500Y5995276D02*
X-835500Y6504724D01*
D14*
%TO.C,U1*%
X-3500000Y-2965000D02*
G75*
G02*
X-3700000Y-2965000I-100000J0D01*
G01*
X-3700000Y-2965000D02*
G75*
G02*
X-3500000Y-2965000I100000J0D01*
G01*
D13*
%TO.C,C7*%
X-6612500Y4815000D02*
X-4302500Y4815000D01*
X-4302500Y6385000D02*
X-6612500Y6385000D01*
X-4302500Y4815000D02*
X-4302500Y6385000D01*
%TO.C,D2*%
X1011000Y7095000D02*
X1011000Y4635000D01*
X1011000Y4635000D02*
X2481000Y4635000D01*
X2481000Y4635000D02*
X2481000Y7095000D01*
%TO.C,C9*%
X-310000Y-5996267D02*
X-310000Y-5703733D01*
X710000Y-5996267D02*
X710000Y-5703733D01*
%TO.C,R4*%
X1177500Y-6104724D02*
X1177500Y-5595276D01*
X2222500Y-6104724D02*
X2222500Y-5595276D01*
%TO.C,C4*%
X-5528733Y4510000D02*
X-5821267Y4510000D01*
X-5528733Y3490000D02*
X-5821267Y3490000D01*
%TO.C,J1*%
X-13860000Y8310000D02*
X-13860000Y3840000D01*
X-13860000Y3840000D02*
X-13410000Y3840000D01*
X-13410000Y8310000D02*
X-13860000Y8310000D01*
X-9890000Y8310000D02*
X-9440000Y8310000D01*
X-9890000Y3840000D02*
X-9440000Y3840000D01*
X-9440000Y8310000D02*
X-9440000Y7360000D01*
X-9440000Y7360000D02*
X-7950000Y7360000D01*
X-9440000Y3840000D02*
X-9440000Y4790000D01*
%TO.C,J3*%
X-13860000Y-2790000D02*
X-13860000Y-8510000D01*
X-13860000Y-8510000D02*
X-13410000Y-8510000D01*
X-13410000Y-2790000D02*
X-13860000Y-2790000D01*
X-9890000Y-2790000D02*
X-9440000Y-2790000D01*
X-9890000Y-8510000D02*
X-9440000Y-8510000D01*
X-9440000Y-2790000D02*
X-9440000Y-3740000D01*
X-9440000Y-3740000D02*
X-7950000Y-3740000D01*
X-9440000Y-8510000D02*
X-9440000Y-7560000D01*
%TO.C,R1*%
X4327500Y5995276D02*
X4327500Y6504724D01*
X5372500Y5995276D02*
X5372500Y6504724D01*
%TO.C,C5*%
X-5821267Y-90000D02*
X-5528733Y-90000D01*
X-5821267Y-1110000D02*
X-5528733Y-1110000D01*
%TO.C,J2*%
X9540000Y6735000D02*
X9540000Y5785000D01*
X9540000Y-6785000D02*
X8050000Y-6785000D01*
X9540000Y-7735000D02*
X9540000Y-6785000D01*
X9990000Y6735000D02*
X9540000Y6735000D01*
X9990000Y-7735000D02*
X9540000Y-7735000D01*
X13510000Y-7735000D02*
X13960000Y-7735000D01*
X13960000Y6735000D02*
X13510000Y6735000D01*
X13960000Y-7735000D02*
X13960000Y6735000D01*
%TO.C,C8*%
X-4246267Y-8290000D02*
X-3953733Y-8290000D01*
X-4246267Y-9310000D02*
X-3953733Y-9310000D01*
%TD*%
M02*
