%TF.GenerationSoftware,KiCad,Pcbnew,8.0.1*%
%TF.CreationDate,2024-05-05T22:16:20+02:00*%
%TF.ProjectId,pro_micro,70726f5f-6d69-4637-926f-2e6b69636164,rev?*%
%TF.SameCoordinates,Original*%
%TF.FileFunction,Profile,NP*%
%FSLAX46Y46*%
G04 Gerber Fmt 4.6, Leading zero omitted, Abs format (unit mm)*
G04 Created by KiCad (PCBNEW 8.0.1) date 2024-05-05 22:16:20*
%MOMM*%
%LPD*%
G01*
G04 APERTURE LIST*
%TA.AperFunction,Profile*%
%ADD10C,0.100000*%
%TD*%
%TA.AperFunction,Profile*%
%ADD11C,0.200000*%
%TD*%
G04 APERTURE END LIST*
D10*
X-10250000Y-15000000D02*
X-14250000Y-15000000D01*
D11*
X13250000Y13000000D02*
G75*
G02*
X11250000Y13000000I-1000000J0D01*
G01*
X11250000Y13000000D02*
G75*
G02*
X13250000Y13000000I1000000J0D01*
G01*
D10*
X-14250000Y15000000D02*
X-14250000Y-15000000D01*
X-14250000Y15000000D02*
X-10250000Y15000000D01*
X-10250000Y11000000D02*
X10250000Y11000000D01*
X10250000Y11000000D02*
X10250000Y15000000D01*
D11*
X-11250000Y13000000D02*
G75*
G02*
X-13250000Y13000000I-1000000J0D01*
G01*
X-13250000Y13000000D02*
G75*
G02*
X-11250000Y13000000I1000000J0D01*
G01*
D10*
X10250000Y15000000D02*
X14250000Y15000000D01*
X14250000Y-11000000D02*
X14250000Y-15000000D01*
X-10250000Y-11000000D02*
X10250000Y-11000000D01*
X-10250000Y15000000D02*
X-10250000Y11000000D01*
D11*
X13250000Y-13000000D02*
G75*
G02*
X11250000Y-13000000I-1000000J0D01*
G01*
X11250000Y-13000000D02*
G75*
G02*
X13250000Y-13000000I1000000J0D01*
G01*
X-11250000Y-13000000D02*
G75*
G02*
X-13250000Y-13000000I-1000000J0D01*
G01*
X-13250000Y-13000000D02*
G75*
G02*
X-11250000Y-13000000I1000000J0D01*
G01*
D10*
X14250000Y-11000000D02*
X14250000Y11000000D01*
X10250000Y-15000000D02*
X10250000Y-11000000D01*
X14250000Y-15000000D02*
X10250000Y-15000000D01*
X-10250000Y-15000000D02*
X-10250000Y-11000000D01*
X14250000Y15000000D02*
X14250000Y11000000D01*
M02*
