M48
; DRILL file {KiCad 8.0.1} date 2024-05-05T22:16:21+0200
; FORMAT={-:-/ absolute / inch / decimal}
; #@! TF.CreationDate,2024-05-05T22:16:21+02:00
; #@! TF.GenerationSoftware,Kicad,Pcbnew,8.0.1
; #@! TF.FileFunction,Plated,1,2,PTH
FMAT,2
INCH
; #@! TA.AperFunction,Plated,PTH,ViaDrill
T1C0.0118
; #@! TA.AperFunction,Plated,PTH,ComponentDrill
T2C0.0118
; #@! TA.AperFunction,Plated,PTH,ViaDrill
T3C0.0157
%
G90
G05
T1
X-0.5315Y0.0197
X-0.4724Y0.0197
X-0.4134Y0.0197
X-0.3602Y0.3937
X-0.3602Y0.3543
X-0.3346Y-0.1181
X-0.3091Y0.3937
X-0.3091Y0.3543
X-0.3091Y0.315
X-0.3051Y0.1378
X-0.3051Y0.0984
X-0.3051Y0.0591
X-0.3051Y0.0197
X-0.3051Y-0.0197
X-0.2382Y-0.3465
X-0.1492Y-0.3
X-0.124Y-0.2996
X-0.1181Y0.3937
X-0.1181Y0.3543
X-0.1181Y-0.1398
X-0.1102Y-0.1713
X-0.0256Y-0.3169
X0.0335Y-0.3169
X0.1378Y-0.0689
X0.1378Y-0.1083
X0.1575Y0.3563
X0.1862Y-0.1673
X0.1862Y-0.2067
X0.2165Y-0.0689
X0.2165Y-0.1083
X0.2165Y-0.1673
X0.2165Y-0.2067
X0.2179Y-0.3104
X0.2894Y-0.3484
X0.3445Y0.3839
X0.374Y-0.3445
X0.3937Y0.3839
X0.4429Y0.3839
X0.4921Y0.3839
X0.5413Y0.3839
T2
X-0.2087Y-0.1876
X-0.2087Y-0.227
X-0.189Y-0.2073
X-0.1693Y-0.1876
X-0.1693Y-0.227
T3
X-0.3543Y-0.4035
X-0.315Y-0.4035
X-0.2559Y-0.0787
X-0.1378Y0.2559
X-0.1378Y0.187
X-0.1378Y0.128
X0.0098Y0.3572
X0.1378Y0.1181
X0.1378Y0.0787
M30
