%TF.GenerationSoftware,KiCad,Pcbnew,8.0.1*%
%TF.CreationDate,2024-05-05T22:16:20+02:00*%
%TF.ProjectId,pro_micro,70726f5f-6d69-4637-926f-2e6b69636164,rev?*%
%TF.SameCoordinates,Original*%
%TF.FileFunction,Paste,Top*%
%TF.FilePolarity,Positive*%
%FSLAX46Y46*%
G04 Gerber Fmt 4.6, Leading zero omitted, Abs format (unit mm)*
G04 Created by KiCad (PCBNEW 8.0.1) date 2024-05-05 22:16:20*
%MOMM*%
%LPD*%
G01*
G04 APERTURE LIST*
G04 Aperture macros list*
%AMRoundRect*
0 Rectangle with rounded corners*
0 $1 Rounding radius*
0 $2 $3 $4 $5 $6 $7 $8 $9 X,Y pos of 4 corners*
0 Add a 4 corners polygon primitive as box body*
4,1,4,$2,$3,$4,$5,$6,$7,$8,$9,$2,$3,0*
0 Add four circle primitives for the rounded corners*
1,1,$1+$1,$2,$3*
1,1,$1+$1,$4,$5*
1,1,$1+$1,$6,$7*
1,1,$1+$1,$8,$9*
0 Add four rect primitives between the rounded corners*
20,1,$1+$1,$2,$3,$4,$5,0*
20,1,$1+$1,$4,$5,$6,$7,0*
20,1,$1+$1,$6,$7,$8,$9,0*
20,1,$1+$1,$8,$9,$2,$3,0*%
G04 Aperture macros list end*
%ADD10C,0.010000*%
%ADD11RoundRect,0.237500X0.300000X0.237500X-0.300000X0.237500X-0.300000X-0.237500X0.300000X-0.237500X0*%
%ADD12RoundRect,0.250000X-0.325000X-0.450000X0.325000X-0.450000X0.325000X0.450000X-0.325000X0.450000X0*%
%ADD13RoundRect,0.237500X-0.237500X0.250000X-0.237500X-0.250000X0.237500X-0.250000X0.237500X0.250000X0*%
%ADD14RoundRect,0.150000X0.150000X-0.825000X0.150000X0.825000X-0.150000X0.825000X-0.150000X-0.825000X0*%
%ADD15RoundRect,0.250000X0.287500X0.275000X-0.287500X0.275000X-0.287500X-0.275000X0.287500X-0.275000X0*%
%ADD16RoundRect,0.237500X-0.237500X0.287500X-0.237500X-0.287500X0.237500X-0.287500X0.237500X0.287500X0*%
%ADD17RoundRect,0.237500X0.237500X-0.250000X0.237500X0.250000X-0.237500X0.250000X-0.237500X-0.250000X0*%
%ADD18RoundRect,0.237500X0.237500X-0.300000X0.237500X0.300000X-0.237500X0.300000X-0.237500X-0.300000X0*%
%ADD19RoundRect,0.008000X-0.092000X0.227000X-0.092000X-0.227000X0.092000X-0.227000X0.092000X0.227000X0*%
%ADD20RoundRect,0.018000X-0.217000X0.082000X-0.217000X-0.082000X0.217000X-0.082000X0.217000X0.082000X0*%
%ADD21RoundRect,0.237500X0.237500X-0.287500X0.237500X0.287500X-0.237500X0.287500X-0.237500X-0.287500X0*%
%ADD22RoundRect,0.200000X-0.600000X0.200000X-0.600000X-0.200000X0.600000X-0.200000X0.600000X0.200000X0*%
%ADD23RoundRect,0.250001X-1.249999X0.799999X-1.249999X-0.799999X1.249999X-0.799999X1.249999X0.799999X0*%
%ADD24RoundRect,0.237500X-0.300000X-0.237500X0.300000X-0.237500X0.300000X0.237500X-0.300000X0.237500X0*%
%ADD25RoundRect,0.200000X0.600000X-0.200000X0.600000X0.200000X-0.600000X0.200000X-0.600000X-0.200000X0*%
%ADD26RoundRect,0.250001X1.249999X-0.799999X1.249999X0.799999X-1.249999X0.799999X-1.249999X-0.799999X0*%
G04 APERTURE END LIST*
D10*
%TO.C,U1*%
X-4895000Y-5170000D02*
X-5645000Y-5170000D01*
X-5645000Y-4420000D01*
X-4895000Y-4420000D01*
X-4895000Y-5170000D01*
G36*
X-4895000Y-5170000D02*
G01*
X-5645000Y-5170000D01*
X-5645000Y-4420000D01*
X-4895000Y-4420000D01*
X-4895000Y-5170000D01*
G37*
X-4895000Y-6110000D02*
X-5645000Y-6110000D01*
X-5645000Y-5360000D01*
X-4895000Y-5360000D01*
X-4895000Y-6110000D01*
G36*
X-4895000Y-6110000D02*
G01*
X-5645000Y-6110000D01*
X-5645000Y-5360000D01*
X-4895000Y-5360000D01*
X-4895000Y-6110000D01*
G37*
X-3955000Y-5170000D02*
X-4705000Y-5170000D01*
X-4705000Y-4420000D01*
X-3955000Y-4420000D01*
X-3955000Y-5170000D01*
G36*
X-3955000Y-5170000D02*
G01*
X-4705000Y-5170000D01*
X-4705000Y-4420000D01*
X-3955000Y-4420000D01*
X-3955000Y-5170000D01*
G37*
X-3955000Y-6110000D02*
X-4705000Y-6110000D01*
X-4705000Y-5360000D01*
X-3955000Y-5360000D01*
X-3955000Y-6110000D01*
G36*
X-3955000Y-6110000D02*
G01*
X-4705000Y-6110000D01*
X-4705000Y-5360000D01*
X-3955000Y-5360000D01*
X-3955000Y-6110000D01*
G37*
%TD*%
D11*
%TO.C,C3*%
X-4812500Y2466667D03*
X-6537500Y2466667D03*
%TD*%
D12*
%TO.C,F1*%
X-6425000Y9550000D03*
X-4375000Y9550000D03*
%TD*%
D13*
%TO.C,R3*%
X3318000Y7162500D03*
X3318000Y5337500D03*
%TD*%
D14*
%TO.C,U2*%
X-1905000Y-2475000D03*
X-635000Y-2475000D03*
X635000Y-2475000D03*
X1905000Y-2475000D03*
X1905000Y2475000D03*
X635000Y2475000D03*
X-635000Y2475000D03*
X-1905000Y2475000D03*
%TD*%
D15*
%TO.C,C1*%
X-5100000Y7300000D03*
X-6525000Y7300000D03*
%TD*%
D16*
%TO.C,D1*%
X6422000Y7125000D03*
X6422000Y5375000D03*
%TD*%
D17*
%TO.C,R2*%
X3200000Y-6762500D03*
X3200000Y-4937500D03*
%TD*%
D18*
%TO.C,C2*%
X-1300000Y-6712500D03*
X-1300000Y-4987500D03*
%TD*%
D17*
%TO.C,R5*%
X174000Y5337500D03*
X174000Y7162500D03*
%TD*%
D11*
%TO.C,C6*%
X-4812500Y933334D03*
X-6537500Y933334D03*
%TD*%
D17*
%TO.C,R6*%
X-1358000Y5337500D03*
X-1358000Y7162500D03*
%TD*%
D19*
%TO.C,U1*%
X-3600000Y-3800000D03*
X-4000000Y-3800000D03*
X-4400000Y-3800000D03*
X-4800000Y-3800000D03*
X-5200000Y-3800000D03*
X-5600000Y-3800000D03*
X-6000000Y-3800000D03*
D20*
X-6265000Y-4595000D03*
X-6265000Y-4995000D03*
X-6265000Y-5395000D03*
X-6265000Y-5795000D03*
X-6265000Y-6195000D03*
D19*
X-6000000Y-6730000D03*
X-5600000Y-6730000D03*
X-5200000Y-6730000D03*
X-4800000Y-6730000D03*
X-4400000Y-6730000D03*
X-4000000Y-6730000D03*
X-3600000Y-6730000D03*
D20*
X-3335000Y-6195000D03*
X-3335000Y-5795000D03*
X-3335000Y-5395000D03*
X-3335000Y-4995000D03*
X-3335000Y-4595000D03*
%TD*%
D15*
%TO.C,C7*%
X-5100000Y5600000D03*
X-6525000Y5600000D03*
%TD*%
D21*
%TO.C,D2*%
X1746000Y5420000D03*
X1746000Y7170000D03*
%TD*%
D18*
%TO.C,C9*%
X200000Y-6712500D03*
X200000Y-4987500D03*
%TD*%
D17*
%TO.C,R4*%
X1700000Y-6762500D03*
X1700000Y-4937500D03*
%TD*%
D11*
%TO.C,C4*%
X-4812500Y4000000D03*
X-6537500Y4000000D03*
%TD*%
D22*
%TO.C,J1*%
X-8750000Y6700000D03*
X-8750000Y5450000D03*
D23*
X-11650000Y9250000D03*
X-11650000Y2900000D03*
%TD*%
D22*
%TO.C,J3*%
X-8750000Y-4400000D03*
X-8750000Y-5650000D03*
X-8750000Y-6900000D03*
D23*
X-11650000Y-1850000D03*
X-11650000Y-9450000D03*
%TD*%
D17*
%TO.C,R1*%
X4850000Y5337500D03*
X4850000Y7162500D03*
%TD*%
D24*
%TO.C,C5*%
X-6537500Y-600000D03*
X-4812500Y-600000D03*
%TD*%
D25*
%TO.C,J2*%
X8850000Y-6125000D03*
X8850000Y-4875000D03*
X8850000Y-3625000D03*
X8850000Y-2375000D03*
X8850000Y-1125000D03*
X8850000Y125000D03*
X8850000Y1375000D03*
X8850000Y2625000D03*
X8850000Y3875000D03*
X8850000Y5125000D03*
D26*
X11750000Y-8675000D03*
X11750000Y7675000D03*
%TD*%
D24*
%TO.C,C8*%
X-4962500Y-8800000D03*
X-3237500Y-8800000D03*
%TD*%
M02*
