%TF.GenerationSoftware,KiCad,Pcbnew,8.0.1*%
%TF.CreationDate,2024-05-05T22:16:20+02:00*%
%TF.ProjectId,pro_micro,70726f5f-6d69-4637-926f-2e6b69636164,rev?*%
%TF.SameCoordinates,Original*%
%TF.FileFunction,Legend,Bot*%
%TF.FilePolarity,Positive*%
%FSLAX46Y46*%
G04 Gerber Fmt 4.6, Leading zero omitted, Abs format (unit mm)*
G04 Created by KiCad (PCBNEW 8.0.1) date 2024-05-05 22:16:20*
%MOMM*%
%LPD*%
G01*
G04 APERTURE LIST*
%ADD10C,0.125000*%
G04 APERTURE END LIST*
D10*
G36*
X-13425223Y-2224685D02*
G01*
X-13398183Y-2222431D01*
X-13373119Y-2215669D01*
X-13350029Y-2204399D01*
X-13328915Y-2188621D01*
X-13309775Y-2168336D01*
X-13303834Y-2160572D01*
X-13290395Y-2139453D01*
X-13279233Y-2116093D01*
X-13270350Y-2090490D01*
X-13263744Y-2062646D01*
X-13259416Y-2032559D01*
X-13257594Y-2006875D01*
X-13257184Y-1986671D01*
X-13257721Y-1959665D01*
X-13259334Y-1934214D01*
X-13262494Y-1907031D01*
X-13267058Y-1881878D01*
X-13268419Y-1875907D01*
X-13275281Y-1849805D01*
X-13283089Y-1824670D01*
X-13291844Y-1800501D01*
X-13297117Y-1787491D01*
X-13421315Y-1787491D01*
X-13421315Y-1801901D01*
X-13405325Y-1822959D01*
X-13391304Y-1845224D01*
X-13379252Y-1868694D01*
X-13369169Y-1893370D01*
X-13361208Y-1918466D01*
X-13355522Y-1943073D01*
X-13351844Y-1970173D01*
X-13350973Y-1990823D01*
X-13352263Y-2015269D01*
X-13352927Y-2022330D01*
X-13357299Y-2046808D01*
X-13359766Y-2054326D01*
X-13372037Y-2076055D01*
X-13374787Y-2079239D01*
X-13397454Y-2088856D01*
X-13401775Y-2089009D01*
X-13424894Y-2080288D01*
X-13430352Y-2074720D01*
X-13442728Y-2053205D01*
X-13448914Y-2033077D01*
X-13454310Y-2009037D01*
X-13459382Y-1983949D01*
X-13461615Y-1972016D01*
X-13467001Y-1946586D01*
X-13473435Y-1922485D01*
X-13476758Y-1911810D01*
X-13486542Y-1885282D01*
X-13497729Y-1862226D01*
X-13512231Y-1840126D01*
X-13530735Y-1820682D01*
X-13532934Y-1818876D01*
X-13554217Y-1805180D01*
X-13578224Y-1795967D01*
X-13604956Y-1791236D01*
X-13620983Y-1790544D01*
X-13646539Y-1792794D01*
X-13670265Y-1799543D01*
X-13692163Y-1810791D01*
X-13712231Y-1826539D01*
X-13730471Y-1846786D01*
X-13736144Y-1854535D01*
X-13749020Y-1875462D01*
X-13759714Y-1898172D01*
X-13768226Y-1922665D01*
X-13774555Y-1948941D01*
X-13778702Y-1977000D01*
X-13780666Y-2006841D01*
X-13780840Y-2019277D01*
X-13780245Y-2044472D01*
X-13778459Y-2069500D01*
X-13775482Y-2094359D01*
X-13771315Y-2119050D01*
X-13765570Y-2145750D01*
X-13759053Y-2170343D01*
X-13750905Y-2195199D01*
X-13747379Y-2204413D01*
X-13632341Y-2204413D01*
X-13632341Y-2190369D01*
X-13646168Y-2169699D01*
X-13658492Y-2146310D01*
X-13668299Y-2122935D01*
X-13671297Y-2114654D01*
X-13678913Y-2089289D01*
X-13684036Y-2063615D01*
X-13686667Y-2037632D01*
X-13687051Y-2023063D01*
X-13685815Y-1998402D01*
X-13684853Y-1990212D01*
X-13679108Y-1965505D01*
X-13676671Y-1958827D01*
X-13663383Y-1937588D01*
X-13661528Y-1935746D01*
X-13638325Y-1926221D01*
X-13614329Y-1934170D01*
X-13607550Y-1941608D01*
X-13597383Y-1963987D01*
X-13590360Y-1989787D01*
X-13588133Y-2000104D01*
X-13583157Y-2024260D01*
X-13577930Y-2049208D01*
X-13576898Y-2054082D01*
X-13570948Y-2079327D01*
X-13563748Y-2104438D01*
X-13561999Y-2110013D01*
X-13553010Y-2134240D01*
X-13541133Y-2158321D01*
X-13525729Y-2180813D01*
X-13510219Y-2196720D01*
X-13487856Y-2211467D01*
X-13464466Y-2220070D01*
X-13437984Y-2224249D01*
X-13425223Y-2224685D01*
G37*
G36*
X-13265000Y-2429361D02*
G01*
X-13265000Y-2305652D01*
X-13647972Y-2305652D01*
X-13647972Y-2429361D01*
X-13265000Y-2429361D01*
G37*
G36*
X-13710498Y-2432780D02*
G01*
X-13710498Y-2302233D01*
X-13804288Y-2302233D01*
X-13804288Y-2432780D01*
X-13710498Y-2432780D01*
G37*
G36*
X-13538918Y-2921632D02*
G01*
X-13265000Y-2921632D01*
X-13265000Y-2797313D01*
X-13458073Y-2797313D01*
X-13482669Y-2797018D01*
X-13506067Y-2795969D01*
X-13530721Y-2791515D01*
X-13538307Y-2788398D01*
X-13555901Y-2770371D01*
X-13556259Y-2769591D01*
X-13561640Y-2745205D01*
X-13561999Y-2734542D01*
X-13558478Y-2709985D01*
X-13554549Y-2699127D01*
X-13543512Y-2676204D01*
X-13538918Y-2668230D01*
X-13265000Y-2668230D01*
X-13265000Y-2544521D01*
X-13647972Y-2544521D01*
X-13647972Y-2668230D01*
X-13610115Y-2668230D01*
X-13624764Y-2687889D01*
X-13638400Y-2708908D01*
X-13649438Y-2729291D01*
X-13658610Y-2754034D01*
X-13662926Y-2778697D01*
X-13663604Y-2793893D01*
X-13661584Y-2819035D01*
X-13654771Y-2844059D01*
X-13646507Y-2861182D01*
X-13631417Y-2881287D01*
X-13611794Y-2897819D01*
X-13596193Y-2906856D01*
X-13612843Y-2927574D01*
X-13627350Y-2947964D01*
X-13640952Y-2970235D01*
X-13645652Y-2979030D01*
X-13655873Y-3002952D01*
X-13662184Y-3028655D01*
X-13663604Y-3047662D01*
X-13661798Y-3073579D01*
X-13655312Y-3099679D01*
X-13644110Y-3122023D01*
X-13628190Y-3140613D01*
X-13625868Y-3142672D01*
X-13604993Y-3156884D01*
X-13579981Y-3167035D01*
X-13554702Y-3172587D01*
X-13526256Y-3175030D01*
X-13517547Y-3175157D01*
X-13265000Y-3175157D01*
X-13265000Y-3050837D01*
X-13458073Y-3050837D01*
X-13482878Y-3050569D01*
X-13506189Y-3049616D01*
X-13530731Y-3045337D01*
X-13538307Y-3042288D01*
X-13555901Y-3024513D01*
X-13556259Y-3023726D01*
X-13561640Y-2998836D01*
X-13561999Y-2987944D01*
X-13558452Y-2963225D01*
X-13556625Y-2957658D01*
X-13545999Y-2934281D01*
X-13538918Y-2921632D01*
G37*
G36*
X-13124316Y-3408775D02*
G01*
X-13276235Y-3408775D01*
X-13275439Y-3410277D01*
X-13264877Y-3432558D01*
X-13256451Y-3455792D01*
X-13254791Y-3461714D01*
X-13250537Y-3486644D01*
X-13249368Y-3511723D01*
X-13250253Y-3529332D01*
X-13254902Y-3554685D01*
X-13263534Y-3578768D01*
X-13272496Y-3595832D01*
X-13287752Y-3616961D01*
X-13305055Y-3634699D01*
X-13324612Y-3649905D01*
X-13347517Y-3662946D01*
X-13371245Y-3672923D01*
X-13384015Y-3677145D01*
X-13408084Y-3682941D01*
X-13433543Y-3686419D01*
X-13460394Y-3687578D01*
X-13483452Y-3686952D01*
X-13510493Y-3684410D01*
X-13535554Y-3679911D01*
X-13563014Y-3671931D01*
X-13587623Y-3661135D01*
X-13609382Y-3647522D01*
X-13625002Y-3634256D01*
X-13642423Y-3613038D01*
X-13654655Y-3588735D01*
X-13661698Y-3561346D01*
X-13663604Y-3535415D01*
X-13662566Y-3516616D01*
X-13657116Y-3490506D01*
X-13652703Y-3480216D01*
X-13569815Y-3480216D01*
X-13568570Y-3497312D01*
X-13560644Y-3521644D01*
X-13543803Y-3540910D01*
X-13536838Y-3545432D01*
X-13512608Y-3554760D01*
X-13487245Y-3558999D01*
X-13460516Y-3560205D01*
X-13442843Y-3559618D01*
X-13417568Y-3556235D01*
X-13393549Y-3548834D01*
X-13372344Y-3536147D01*
X-13368810Y-3533042D01*
X-13353447Y-3512469D01*
X-13345466Y-3488631D01*
X-13343157Y-3462997D01*
X-13343178Y-3459570D01*
X-13344501Y-3435153D01*
X-13344805Y-3432535D01*
X-13350851Y-3408775D01*
X-13548810Y-3408775D01*
X-13555215Y-3420549D01*
X-13564319Y-3444068D01*
X-13567217Y-3455574D01*
X-13569815Y-3480216D01*
X-13652703Y-3480216D01*
X-13646995Y-3466905D01*
X-13637229Y-3450309D01*
X-13622675Y-3428481D01*
X-13607794Y-3408775D01*
X-13647972Y-3408775D01*
X-13647972Y-3285066D01*
X-13124316Y-3285066D01*
X-13124316Y-3408775D01*
G37*
G36*
X-13265000Y-3898237D02*
G01*
X-13265000Y-3774528D01*
X-13804288Y-3774528D01*
X-13804288Y-3898237D01*
X-13265000Y-3898237D01*
G37*
G36*
X-13441244Y-3985551D02*
G01*
X-13412612Y-3988267D01*
X-13386174Y-3994000D01*
X-13361931Y-4002750D01*
X-13339883Y-4014517D01*
X-13320029Y-4029302D01*
X-13302369Y-4047103D01*
X-13287100Y-4067741D01*
X-13274419Y-4091031D01*
X-13264326Y-4116976D01*
X-13256821Y-4145573D01*
X-13252681Y-4170362D01*
X-13250196Y-4196849D01*
X-13249368Y-4225034D01*
X-13249375Y-4227836D01*
X-13250277Y-4255008D01*
X-13252681Y-4280653D01*
X-13257062Y-4307100D01*
X-13258565Y-4314103D01*
X-13264786Y-4338050D01*
X-13272867Y-4362927D01*
X-13281730Y-4386113D01*
X-13382236Y-4386113D01*
X-13382236Y-4372313D01*
X-13372793Y-4359133D01*
X-13360743Y-4337744D01*
X-13350240Y-4314305D01*
X-13342383Y-4291093D01*
X-13337102Y-4265008D01*
X-13335341Y-4238346D01*
X-13335979Y-4219769D01*
X-13339655Y-4193097D01*
X-13347694Y-4167579D01*
X-13361475Y-4144801D01*
X-13366579Y-4139102D01*
X-13386539Y-4123779D01*
X-13411030Y-4114110D01*
X-13436946Y-4110240D01*
X-13436946Y-4393318D01*
X-13480055Y-4393318D01*
X-13496359Y-4392901D01*
X-13521905Y-4390356D01*
X-13549876Y-4384248D01*
X-13574919Y-4374809D01*
X-13597034Y-4362037D01*
X-13616221Y-4345935D01*
X-13627326Y-4333358D01*
X-13641208Y-4311753D01*
X-13651758Y-4286858D01*
X-13658977Y-4258676D01*
X-13662447Y-4232678D01*
X-13663604Y-4204396D01*
X-13663427Y-4194382D01*
X-13577630Y-4194382D01*
X-13577354Y-4203682D01*
X-13572633Y-4229533D01*
X-13559923Y-4251046D01*
X-13555254Y-4255355D01*
X-13532883Y-4266686D01*
X-13507288Y-4270341D01*
X-13507288Y-4109874D01*
X-13518322Y-4111244D01*
X-13542404Y-4119409D01*
X-13560900Y-4135642D01*
X-13566586Y-4144739D01*
X-13575278Y-4169406D01*
X-13577630Y-4194382D01*
X-13663427Y-4194382D01*
X-13663382Y-4191819D01*
X-13660892Y-4161858D01*
X-13655635Y-4134014D01*
X-13647612Y-4108287D01*
X-13636821Y-4084676D01*
X-13623264Y-4063183D01*
X-13606939Y-4043806D01*
X-13599699Y-4036723D01*
X-13580220Y-4021013D01*
X-13558774Y-4008160D01*
X-13535360Y-3998163D01*
X-13509978Y-3991023D01*
X-13482628Y-3986738D01*
X-13453311Y-3985310D01*
X-13441244Y-3985551D01*
G37*
G36*
X-13671420Y-4851273D02*
G01*
X-13671420Y-4616067D01*
X-13577630Y-4616067D01*
X-13577630Y-4834176D01*
X-13476025Y-4834176D01*
X-13476025Y-4616067D01*
X-13265000Y-4616067D01*
X-13265000Y-4484787D01*
X-13773025Y-4484787D01*
X-13773025Y-4851273D01*
X-13671420Y-4851273D01*
G37*
G36*
X-13489592Y-4911351D02*
G01*
X-13461844Y-4914631D01*
X-13435645Y-4920098D01*
X-13410996Y-4927752D01*
X-13387896Y-4937592D01*
X-13366345Y-4949619D01*
X-13346344Y-4963833D01*
X-13327892Y-4980233D01*
X-13311320Y-4998590D01*
X-13296957Y-5018610D01*
X-13284804Y-5040294D01*
X-13274861Y-5063642D01*
X-13267127Y-5088654D01*
X-13261603Y-5115330D01*
X-13258289Y-5143670D01*
X-13257184Y-5173674D01*
X-13258289Y-5203761D01*
X-13261603Y-5232170D01*
X-13267127Y-5258899D01*
X-13274861Y-5283949D01*
X-13284804Y-5307320D01*
X-13296957Y-5329012D01*
X-13311320Y-5349025D01*
X-13327892Y-5367358D01*
X-13346344Y-5383787D01*
X-13366345Y-5398026D01*
X-13387896Y-5410074D01*
X-13410996Y-5419931D01*
X-13435645Y-5427598D01*
X-13461844Y-5433075D01*
X-13489592Y-5436361D01*
X-13518890Y-5437456D01*
X-13548382Y-5436355D01*
X-13576287Y-5433052D01*
X-13602604Y-5427547D01*
X-13627334Y-5419840D01*
X-13650476Y-5409931D01*
X-13672030Y-5397820D01*
X-13691997Y-5383507D01*
X-13710376Y-5366992D01*
X-13726891Y-5348584D01*
X-13741204Y-5328531D01*
X-13753315Y-5306834D01*
X-13763224Y-5283491D01*
X-13770931Y-5258504D01*
X-13776436Y-5231872D01*
X-13779739Y-5203595D01*
X-13780827Y-5174040D01*
X-13687051Y-5174040D01*
X-13685039Y-5196764D01*
X-13677892Y-5221545D01*
X-13665924Y-5243130D01*
X-13648339Y-5261967D01*
X-13641858Y-5267187D01*
X-13620540Y-5280090D01*
X-13596559Y-5289811D01*
X-13592522Y-5291098D01*
X-13568404Y-5296690D01*
X-13543675Y-5299595D01*
X-13519134Y-5300436D01*
X-13496157Y-5299701D01*
X-13470410Y-5296810D01*
X-13445251Y-5291154D01*
X-13433773Y-5287326D01*
X-13410908Y-5276646D01*
X-13390785Y-5262700D01*
X-13373046Y-5244016D01*
X-13360621Y-5222400D01*
X-13353385Y-5198831D01*
X-13350973Y-5174040D01*
X-13353354Y-5149219D01*
X-13360498Y-5125558D01*
X-13372650Y-5104034D01*
X-13390052Y-5085380D01*
X-13396597Y-5080198D01*
X-13417968Y-5067402D01*
X-13441831Y-5057780D01*
X-13443836Y-5057134D01*
X-13467608Y-5051380D01*
X-13491949Y-5048304D01*
X-13518890Y-5047278D01*
X-13521635Y-5047288D01*
X-13547944Y-5048548D01*
X-13572177Y-5051906D01*
X-13596437Y-5058025D01*
X-13604604Y-5060841D01*
X-13627983Y-5071365D01*
X-13648949Y-5086113D01*
X-13665520Y-5104293D01*
X-13678136Y-5126779D01*
X-13684822Y-5149707D01*
X-13687051Y-5174040D01*
X-13780827Y-5174040D01*
X-13780840Y-5173674D01*
X-13779739Y-5143670D01*
X-13776436Y-5115330D01*
X-13770931Y-5088654D01*
X-13763224Y-5063642D01*
X-13753315Y-5040294D01*
X-13741204Y-5018610D01*
X-13726891Y-4998590D01*
X-13710376Y-4980233D01*
X-13691997Y-4963833D01*
X-13672030Y-4949619D01*
X-13650476Y-4937592D01*
X-13627334Y-4927752D01*
X-13602604Y-4920098D01*
X-13576287Y-4914631D01*
X-13548382Y-4911351D01*
X-13518890Y-4910258D01*
X-13489592Y-4911351D01*
G37*
G36*
X-13257184Y-5766207D02*
G01*
X-13257978Y-5741677D01*
X-13260833Y-5714672D01*
X-13265764Y-5688767D01*
X-13272770Y-5663962D01*
X-13273792Y-5660938D01*
X-13283112Y-5637666D01*
X-13296023Y-5613511D01*
X-13311503Y-5591500D01*
X-13323251Y-5578018D01*
X-13342956Y-5559745D01*
X-13365249Y-5543946D01*
X-13387238Y-5531978D01*
X-13405073Y-5524284D01*
X-13430573Y-5515949D01*
X-13454451Y-5510610D01*
X-13479791Y-5507094D01*
X-13506591Y-5505401D01*
X-13518524Y-5505233D01*
X-13544172Y-5506104D01*
X-13568756Y-5508716D01*
X-13595550Y-5513834D01*
X-13620955Y-5521226D01*
X-13627090Y-5523429D01*
X-13650636Y-5533558D01*
X-13672427Y-5545747D01*
X-13692463Y-5559997D01*
X-13710743Y-5576308D01*
X-13728416Y-5596317D01*
X-13743655Y-5618838D01*
X-13755158Y-5640965D01*
X-13762522Y-5658862D01*
X-13770536Y-5684095D01*
X-13776261Y-5710458D01*
X-13779696Y-5737951D01*
X-13780823Y-5762934D01*
X-13780840Y-5766573D01*
X-13780256Y-5791720D01*
X-13778319Y-5816457D01*
X-13777299Y-5824703D01*
X-13773208Y-5849707D01*
X-13768018Y-5872697D01*
X-13760272Y-5897173D01*
X-13753607Y-5914340D01*
X-13743662Y-5936973D01*
X-13738831Y-5947191D01*
X-13616709Y-5947191D01*
X-13616709Y-5932048D01*
X-13631486Y-5912322D01*
X-13634661Y-5907868D01*
X-13648235Y-5887058D01*
X-13655177Y-5874773D01*
X-13665576Y-5852512D01*
X-13672274Y-5833862D01*
X-13677706Y-5809645D01*
X-13679235Y-5786845D01*
X-13677384Y-5761359D01*
X-13671829Y-5737107D01*
X-13670809Y-5733967D01*
X-13660494Y-5711301D01*
X-13645350Y-5690246D01*
X-13642965Y-5687561D01*
X-13624255Y-5671295D01*
X-13602654Y-5658829D01*
X-13593262Y-5654710D01*
X-13568217Y-5647119D01*
X-13541971Y-5643239D01*
X-13518157Y-5642254D01*
X-13493448Y-5643326D01*
X-13468780Y-5647032D01*
X-13445035Y-5654168D01*
X-13441099Y-5655809D01*
X-13418152Y-5667992D01*
X-13398263Y-5683726D01*
X-13392372Y-5690003D01*
X-13377682Y-5710654D01*
X-13367499Y-5733452D01*
X-13366482Y-5736653D01*
X-13360960Y-5760650D01*
X-13358796Y-5785890D01*
X-13358789Y-5787456D01*
X-13360650Y-5812880D01*
X-13365383Y-5835083D01*
X-13373864Y-5859092D01*
X-13383579Y-5878558D01*
X-13396179Y-5899518D01*
X-13403241Y-5909699D01*
X-13418373Y-5929848D01*
X-13421315Y-5933513D01*
X-13421315Y-5947191D01*
X-13300537Y-5947191D01*
X-13290385Y-5923845D01*
X-13284661Y-5910432D01*
X-13275725Y-5886723D01*
X-13271716Y-5873674D01*
X-13265488Y-5849402D01*
X-13260969Y-5826657D01*
X-13258130Y-5800553D01*
X-13257243Y-5775566D01*
X-13257184Y-5766207D01*
G37*
G36*
X-13124316Y-6397330D02*
G01*
X-13276235Y-6397330D01*
X-13275439Y-6398833D01*
X-13264877Y-6421113D01*
X-13256451Y-6444347D01*
X-13254791Y-6450270D01*
X-13250537Y-6475200D01*
X-13249368Y-6500279D01*
X-13250253Y-6517887D01*
X-13254902Y-6543241D01*
X-13263534Y-6567323D01*
X-13272496Y-6584387D01*
X-13287752Y-6605516D01*
X-13305055Y-6623255D01*
X-13324612Y-6638461D01*
X-13347517Y-6651502D01*
X-13371245Y-6661479D01*
X-13384015Y-6665701D01*
X-13408084Y-6671497D01*
X-13433543Y-6674974D01*
X-13460394Y-6676133D01*
X-13483452Y-6675508D01*
X-13510493Y-6672965D01*
X-13535554Y-6668467D01*
X-13563014Y-6660487D01*
X-13587623Y-6649690D01*
X-13609382Y-6636078D01*
X-13625002Y-6622811D01*
X-13642423Y-6601594D01*
X-13654655Y-6577291D01*
X-13661698Y-6549902D01*
X-13663604Y-6523970D01*
X-13662566Y-6505171D01*
X-13657116Y-6479062D01*
X-13652703Y-6468771D01*
X-13569815Y-6468771D01*
X-13568570Y-6485867D01*
X-13560644Y-6510199D01*
X-13543803Y-6529466D01*
X-13536838Y-6533988D01*
X-13512608Y-6543315D01*
X-13487245Y-6547555D01*
X-13460516Y-6548761D01*
X-13442843Y-6548173D01*
X-13417568Y-6544790D01*
X-13393549Y-6537390D01*
X-13372344Y-6524703D01*
X-13368810Y-6521598D01*
X-13353447Y-6501024D01*
X-13345466Y-6477187D01*
X-13343157Y-6451552D01*
X-13343178Y-6448125D01*
X-13344501Y-6423709D01*
X-13344805Y-6421090D01*
X-13350851Y-6397330D01*
X-13548810Y-6397330D01*
X-13555215Y-6409104D01*
X-13564319Y-6432623D01*
X-13567217Y-6444129D01*
X-13569815Y-6468771D01*
X-13652703Y-6468771D01*
X-13646995Y-6455460D01*
X-13637229Y-6438864D01*
X-13622675Y-6417037D01*
X-13607794Y-6397330D01*
X-13647972Y-6397330D01*
X-13647972Y-6273621D01*
X-13124316Y-6273621D01*
X-13124316Y-6397330D01*
G37*
G36*
X-13522920Y-7042742D02*
G01*
X-13522920Y-7031751D01*
X-13528658Y-7007317D01*
X-13528782Y-7006228D01*
X-13530667Y-6981719D01*
X-13530736Y-6977163D01*
X-13529881Y-6952219D01*
X-13527316Y-6930390D01*
X-13521765Y-6905241D01*
X-13516081Y-6886793D01*
X-13265000Y-6886793D01*
X-13265000Y-6763084D01*
X-13647972Y-6763084D01*
X-13647972Y-6886793D01*
X-13591308Y-6886793D01*
X-13607313Y-6906577D01*
X-13621689Y-6927228D01*
X-13634037Y-6950159D01*
X-13637103Y-6957868D01*
X-13644141Y-6981669D01*
X-13647802Y-7007128D01*
X-13647972Y-7013555D01*
X-13647606Y-7028210D01*
X-13646507Y-7042742D01*
X-13522920Y-7042742D01*
G37*
G36*
X-13427287Y-7084151D02*
G01*
X-13400202Y-7088212D01*
X-13375109Y-7094980D01*
X-13352007Y-7104455D01*
X-13326914Y-7119399D01*
X-13304689Y-7138241D01*
X-13301285Y-7141750D01*
X-13283133Y-7164642D01*
X-13270978Y-7186126D01*
X-13261523Y-7209798D01*
X-13254770Y-7235659D01*
X-13250719Y-7263708D01*
X-13249368Y-7293946D01*
X-13249422Y-7300176D01*
X-13251313Y-7330010D01*
X-13255905Y-7357649D01*
X-13263198Y-7383094D01*
X-13273193Y-7406345D01*
X-13285888Y-7427402D01*
X-13304689Y-7449773D01*
X-13326914Y-7468615D01*
X-13352007Y-7483558D01*
X-13375109Y-7493034D01*
X-13400202Y-7499801D01*
X-13427287Y-7503862D01*
X-13456364Y-7505216D01*
X-13485408Y-7503868D01*
X-13512473Y-7499825D01*
X-13537558Y-7493087D01*
X-13560663Y-7483654D01*
X-13585776Y-7468776D01*
X-13608039Y-7450017D01*
X-13614767Y-7442953D01*
X-13632348Y-7419609D01*
X-13644015Y-7397689D01*
X-13652968Y-7373527D01*
X-13659209Y-7347123D01*
X-13662736Y-7318477D01*
X-13663604Y-7293946D01*
X-13577630Y-7293946D01*
X-13577256Y-7302761D01*
X-13571646Y-7327285D01*
X-13568135Y-7334757D01*
X-13551374Y-7353785D01*
X-13537263Y-7362467D01*
X-13513761Y-7370882D01*
X-13504573Y-7372999D01*
X-13480063Y-7376235D01*
X-13455631Y-7377110D01*
X-13448744Y-7377058D01*
X-13422200Y-7375614D01*
X-13396891Y-7371127D01*
X-13381830Y-7365780D01*
X-13360621Y-7353053D01*
X-13355011Y-7348182D01*
X-13341081Y-7327163D01*
X-13338570Y-7319431D01*
X-13335341Y-7295045D01*
X-13335834Y-7284382D01*
X-13341570Y-7260118D01*
X-13345203Y-7252753D01*
X-13361598Y-7233862D01*
X-13375983Y-7225060D01*
X-13399699Y-7216765D01*
X-13405756Y-7215391D01*
X-13430847Y-7211871D01*
X-13455631Y-7210903D01*
X-13464475Y-7211008D01*
X-13490557Y-7212799D01*
X-13515593Y-7217620D01*
X-13530767Y-7222772D01*
X-13553084Y-7235572D01*
X-13559075Y-7241228D01*
X-13572745Y-7262194D01*
X-13574883Y-7269399D01*
X-13577630Y-7293946D01*
X-13663604Y-7293946D01*
X-13663550Y-7287768D01*
X-13661663Y-7258159D01*
X-13657081Y-7230686D01*
X-13649804Y-7205347D01*
X-13639832Y-7182142D01*
X-13627164Y-7161073D01*
X-13608405Y-7138607D01*
X-13586241Y-7119641D01*
X-13561150Y-7104598D01*
X-13538003Y-7095061D01*
X-13512823Y-7088248D01*
X-13485610Y-7084160D01*
X-13456364Y-7082798D01*
X-13427287Y-7084151D01*
G37*
G36*
X-13538918Y-8207048D02*
G01*
X-13265000Y-8207048D01*
X-13265000Y-8082728D01*
X-13458073Y-8082728D01*
X-13482669Y-8082433D01*
X-13506067Y-8081385D01*
X-13530721Y-8076930D01*
X-13538307Y-8073813D01*
X-13555901Y-8055786D01*
X-13556259Y-8055006D01*
X-13561640Y-8030620D01*
X-13561999Y-8019958D01*
X-13558478Y-7995400D01*
X-13554549Y-7984542D01*
X-13543512Y-7961619D01*
X-13538918Y-7953646D01*
X-13265000Y-7953646D01*
X-13265000Y-7829937D01*
X-13647972Y-7829937D01*
X-13647972Y-7953646D01*
X-13610115Y-7953646D01*
X-13624764Y-7973304D01*
X-13638400Y-7994323D01*
X-13649438Y-8014706D01*
X-13658610Y-8039449D01*
X-13662926Y-8064113D01*
X-13663604Y-8079309D01*
X-13661584Y-8104450D01*
X-13654771Y-8129475D01*
X-13646507Y-8146598D01*
X-13631417Y-8166702D01*
X-13611794Y-8183234D01*
X-13596193Y-8192271D01*
X-13612843Y-8212990D01*
X-13627350Y-8233380D01*
X-13640952Y-8255650D01*
X-13645652Y-8264445D01*
X-13655873Y-8288368D01*
X-13662184Y-8314070D01*
X-13663604Y-8333077D01*
X-13661798Y-8358995D01*
X-13655312Y-8385094D01*
X-13644110Y-8407439D01*
X-13628190Y-8426028D01*
X-13625868Y-8428087D01*
X-13604993Y-8442299D01*
X-13579981Y-8452451D01*
X-13554702Y-8458002D01*
X-13526256Y-8460445D01*
X-13517547Y-8460572D01*
X-13265000Y-8460572D01*
X-13265000Y-8336252D01*
X-13458073Y-8336252D01*
X-13482878Y-8335984D01*
X-13506189Y-8335031D01*
X-13530731Y-8330752D01*
X-13538307Y-8327704D01*
X-13555901Y-8309928D01*
X-13556259Y-8309141D01*
X-13561640Y-8284251D01*
X-13561999Y-8273360D01*
X-13558452Y-8248640D01*
X-13556625Y-8243073D01*
X-13545999Y-8219696D01*
X-13538918Y-8207048D01*
G37*
G36*
X-13265000Y-8694190D02*
G01*
X-13265000Y-8570481D01*
X-13647972Y-8570481D01*
X-13647972Y-8694190D01*
X-13265000Y-8694190D01*
G37*
G36*
X-13710498Y-8697609D02*
G01*
X-13710498Y-8567062D01*
X-13804288Y-8567062D01*
X-13804288Y-8697609D01*
X-13710498Y-8697609D01*
G37*
G36*
X-13249368Y-9010362D02*
G01*
X-13250139Y-8985633D01*
X-13252849Y-8959126D01*
X-13257510Y-8934010D01*
X-13261702Y-8918039D01*
X-13270635Y-8893061D01*
X-13282167Y-8870182D01*
X-13296299Y-8849403D01*
X-13299438Y-8845498D01*
X-13316690Y-8827753D01*
X-13336542Y-8812678D01*
X-13358993Y-8800275D01*
X-13363796Y-8798115D01*
X-13389367Y-8789228D01*
X-13414605Y-8784044D01*
X-13441948Y-8781526D01*
X-13454776Y-8781263D01*
X-13481261Y-8782385D01*
X-13505884Y-8785751D01*
X-13531358Y-8792220D01*
X-13549542Y-8799214D01*
X-13573165Y-8811906D01*
X-13594117Y-8827388D01*
X-13612397Y-8845661D01*
X-13615732Y-8849651D01*
X-13629926Y-8870120D01*
X-13641521Y-8892450D01*
X-13650515Y-8916641D01*
X-13652002Y-8921702D01*
X-13658120Y-8947570D01*
X-13661972Y-8974033D01*
X-13663559Y-9001093D01*
X-13663604Y-9006577D01*
X-13662608Y-9032974D01*
X-13659621Y-9057928D01*
X-13655177Y-9079361D01*
X-13648228Y-9103730D01*
X-13639836Y-9126828D01*
X-13633440Y-9141521D01*
X-13530736Y-9141521D01*
X-13530736Y-9124057D01*
X-13542459Y-9106716D01*
X-13554332Y-9084533D01*
X-13555526Y-9081803D01*
X-13563916Y-9058029D01*
X-13565785Y-9050785D01*
X-13569338Y-9026406D01*
X-13569815Y-9011706D01*
X-13567361Y-8985691D01*
X-13558879Y-8961024D01*
X-13544339Y-8940816D01*
X-13538796Y-8935624D01*
X-13517315Y-8921585D01*
X-13494270Y-8913395D01*
X-13467710Y-8909418D01*
X-13454776Y-8909002D01*
X-13429009Y-8910704D01*
X-13403961Y-8916687D01*
X-13381025Y-8928389D01*
X-13371489Y-8936235D01*
X-13356549Y-8955562D01*
X-13347141Y-8979349D01*
X-13343406Y-9004572D01*
X-13343157Y-9013782D01*
X-13344548Y-9038554D01*
X-13347554Y-9055792D01*
X-13354694Y-9079483D01*
X-13357934Y-9086933D01*
X-13369902Y-9107449D01*
X-13382236Y-9124057D01*
X-13382236Y-9141521D01*
X-13278677Y-9141521D01*
X-13268669Y-9117383D01*
X-13260476Y-9092399D01*
X-13257306Y-9080582D01*
X-13252469Y-9055824D01*
X-13249996Y-9031469D01*
X-13249368Y-9010362D01*
G37*
G36*
X-13522920Y-9500802D02*
G01*
X-13522920Y-9489811D01*
X-13528658Y-9465377D01*
X-13528782Y-9464288D01*
X-13530667Y-9439779D01*
X-13530736Y-9435223D01*
X-13529881Y-9410280D01*
X-13527316Y-9388450D01*
X-13521765Y-9363301D01*
X-13516081Y-9344853D01*
X-13265000Y-9344853D01*
X-13265000Y-9221144D01*
X-13647972Y-9221144D01*
X-13647972Y-9344853D01*
X-13591308Y-9344853D01*
X-13607313Y-9364637D01*
X-13621689Y-9385288D01*
X-13634037Y-9408219D01*
X-13637103Y-9415928D01*
X-13644141Y-9439729D01*
X-13647802Y-9465188D01*
X-13647972Y-9471615D01*
X-13647606Y-9486270D01*
X-13646507Y-9500802D01*
X-13522920Y-9500802D01*
G37*
G36*
X-13427287Y-9542211D02*
G01*
X-13400202Y-9546272D01*
X-13375109Y-9553040D01*
X-13352007Y-9562515D01*
X-13326914Y-9577459D01*
X-13304689Y-9596301D01*
X-13301285Y-9599810D01*
X-13283133Y-9622702D01*
X-13270978Y-9644186D01*
X-13261523Y-9667858D01*
X-13254770Y-9693719D01*
X-13250719Y-9721768D01*
X-13249368Y-9752006D01*
X-13249422Y-9758236D01*
X-13251313Y-9788070D01*
X-13255905Y-9815709D01*
X-13263198Y-9841154D01*
X-13273193Y-9864405D01*
X-13285888Y-9885462D01*
X-13304689Y-9907833D01*
X-13326914Y-9926675D01*
X-13352007Y-9941618D01*
X-13375109Y-9951094D01*
X-13400202Y-9957861D01*
X-13427287Y-9961922D01*
X-13456364Y-9963276D01*
X-13485408Y-9961928D01*
X-13512473Y-9957885D01*
X-13537558Y-9951147D01*
X-13560663Y-9941714D01*
X-13585776Y-9926836D01*
X-13608039Y-9908077D01*
X-13614767Y-9901013D01*
X-13632348Y-9877669D01*
X-13644015Y-9855749D01*
X-13652968Y-9831587D01*
X-13659209Y-9805183D01*
X-13662736Y-9776537D01*
X-13663604Y-9752006D01*
X-13577630Y-9752006D01*
X-13577256Y-9760821D01*
X-13571646Y-9785345D01*
X-13568135Y-9792817D01*
X-13551374Y-9811845D01*
X-13537263Y-9820527D01*
X-13513761Y-9828942D01*
X-13504573Y-9831059D01*
X-13480063Y-9834295D01*
X-13455631Y-9835170D01*
X-13448744Y-9835118D01*
X-13422200Y-9833674D01*
X-13396891Y-9829187D01*
X-13381830Y-9823840D01*
X-13360621Y-9811113D01*
X-13355011Y-9806242D01*
X-13341081Y-9785223D01*
X-13338570Y-9777491D01*
X-13335341Y-9753105D01*
X-13335834Y-9742442D01*
X-13341570Y-9718178D01*
X-13345203Y-9710813D01*
X-13361598Y-9691922D01*
X-13375983Y-9683120D01*
X-13399699Y-9674825D01*
X-13405756Y-9673451D01*
X-13430847Y-9669931D01*
X-13455631Y-9668963D01*
X-13464475Y-9669068D01*
X-13490557Y-9670859D01*
X-13515593Y-9675680D01*
X-13530767Y-9680832D01*
X-13553084Y-9693632D01*
X-13559075Y-9699288D01*
X-13572745Y-9720254D01*
X-13574883Y-9727459D01*
X-13577630Y-9752006D01*
X-13663604Y-9752006D01*
X-13663550Y-9745828D01*
X-13661663Y-9716219D01*
X-13657081Y-9688746D01*
X-13649804Y-9663407D01*
X-13639832Y-9640202D01*
X-13627164Y-9619133D01*
X-13608405Y-9596667D01*
X-13586241Y-9577701D01*
X-13561150Y-9562658D01*
X-13538003Y-9553121D01*
X-13512823Y-9546308D01*
X-13485610Y-9542220D01*
X-13456364Y-9540858D01*
X-13427287Y-9542211D01*
G37*
G36*
X-12425000Y-2038572D02*
G01*
X-12425229Y-2055465D01*
X-12426551Y-2080535D01*
X-12429444Y-2105855D01*
X-12434403Y-2130408D01*
X-12441608Y-2152480D01*
X-12452427Y-2175383D01*
X-12466277Y-2196842D01*
X-12473760Y-2206247D01*
X-12492301Y-2223915D01*
X-12514026Y-2237875D01*
X-12528925Y-2244446D01*
X-12553105Y-2250783D01*
X-12579483Y-2252896D01*
X-12588767Y-2252637D01*
X-12614545Y-2248757D01*
X-12639540Y-2238985D01*
X-12660694Y-2223464D01*
X-12669833Y-2213795D01*
X-12685017Y-2191398D01*
X-12695155Y-2167754D01*
X-12701360Y-2143963D01*
X-12704047Y-2143963D01*
X-12713962Y-2162747D01*
X-12728757Y-2182241D01*
X-12748255Y-2199162D01*
X-12764946Y-2208666D01*
X-12789335Y-2216500D01*
X-12813834Y-2218824D01*
X-12821751Y-2218600D01*
X-12847687Y-2214303D01*
X-12870865Y-2204535D01*
X-12878406Y-2199739D01*
X-12896918Y-2182375D01*
X-12910676Y-2161060D01*
X-12914824Y-2152268D01*
X-12923346Y-2129268D01*
X-12928872Y-2104274D01*
X-12930490Y-2090134D01*
X-12932112Y-2064441D01*
X-12932826Y-2039233D01*
X-12933025Y-2013782D01*
X-12933025Y-1946493D01*
X-12839235Y-1946493D01*
X-12839235Y-1958827D01*
X-12839226Y-1968265D01*
X-12839083Y-1993326D01*
X-12838625Y-2019155D01*
X-12837954Y-2030685D01*
X-12832641Y-2055059D01*
X-12830531Y-2059858D01*
X-12813468Y-2077529D01*
X-12811865Y-2078298D01*
X-12787822Y-2083879D01*
X-12782692Y-2083745D01*
X-12758391Y-2078384D01*
X-12752384Y-2074865D01*
X-12737752Y-2055059D01*
X-12734285Y-2045230D01*
X-12730792Y-2020376D01*
X-12730673Y-2017592D01*
X-12730002Y-1992710D01*
X-12729815Y-1967131D01*
X-12729815Y-1946493D01*
X-12643841Y-1946493D01*
X-12643841Y-1975314D01*
X-12643838Y-1980833D01*
X-12643738Y-2006025D01*
X-12643475Y-2031978D01*
X-12642761Y-2049246D01*
X-12638834Y-2074598D01*
X-12634681Y-2086263D01*
X-12619417Y-2106594D01*
X-12607085Y-2112761D01*
X-12582536Y-2116120D01*
X-12573698Y-2115631D01*
X-12550296Y-2108304D01*
X-12541374Y-2101499D01*
X-12527948Y-2080094D01*
X-12521819Y-2060257D01*
X-12519155Y-2035764D01*
X-12519133Y-2034229D01*
X-12518905Y-2008682D01*
X-12518812Y-1981954D01*
X-12518789Y-1956140D01*
X-12518789Y-1946493D01*
X-12643841Y-1946493D01*
X-12729815Y-1946493D01*
X-12839235Y-1946493D01*
X-12933025Y-1946493D01*
X-12933025Y-1815212D01*
X-12425000Y-1815212D01*
X-12425000Y-2038572D01*
G37*
G36*
X-12425000Y-2717079D02*
G01*
X-12425000Y-2348150D01*
X-12933025Y-2348150D01*
X-12933025Y-2480041D01*
X-12526605Y-2480041D01*
X-12526605Y-2717079D01*
X-12425000Y-2717079D01*
G37*
G36*
X-12425000Y-2974511D02*
G01*
X-12425420Y-3000484D01*
X-12426931Y-3028221D01*
X-12429542Y-3053881D01*
X-12433792Y-3080268D01*
X-12436912Y-3094060D01*
X-12444211Y-3117998D01*
X-12453673Y-3140797D01*
X-12465300Y-3162456D01*
X-12473216Y-3174643D01*
X-12489027Y-3194676D01*
X-12507327Y-3213061D01*
X-12528116Y-3229799D01*
X-12551395Y-3244888D01*
X-12576679Y-3257593D01*
X-12603377Y-3267177D01*
X-12627387Y-3272909D01*
X-12652436Y-3276348D01*
X-12678524Y-3277494D01*
X-12705464Y-3276425D01*
X-12731057Y-3273218D01*
X-12755301Y-3267873D01*
X-12781883Y-3258935D01*
X-12806629Y-3247086D01*
X-12819894Y-3239133D01*
X-12841419Y-3223525D01*
X-12860794Y-3205767D01*
X-12878018Y-3185858D01*
X-12893091Y-3163799D01*
X-12895453Y-3159880D01*
X-12907218Y-3136297D01*
X-12916110Y-3111878D01*
X-12922644Y-3087473D01*
X-12923901Y-3081743D01*
X-12928118Y-3057475D01*
X-12931038Y-3031055D01*
X-12932528Y-3006171D01*
X-12933025Y-2979640D01*
X-12933025Y-2926029D01*
X-12839235Y-2926029D01*
X-12839235Y-2959368D01*
X-12839146Y-2972162D01*
X-12838201Y-2998586D01*
X-12835572Y-3023115D01*
X-12831234Y-3041438D01*
X-12822016Y-3064515D01*
X-12819421Y-3069407D01*
X-12804614Y-3091351D01*
X-12786754Y-3109096D01*
X-12765840Y-3122644D01*
X-12756635Y-3126966D01*
X-12731620Y-3135250D01*
X-12706658Y-3139626D01*
X-12679378Y-3141085D01*
X-12669974Y-3140937D01*
X-12643486Y-3138715D01*
X-12617092Y-3133119D01*
X-12593893Y-3124232D01*
X-12571778Y-3110380D01*
X-12552953Y-3091997D01*
X-12538695Y-3071353D01*
X-12530113Y-3052787D01*
X-12523063Y-3028367D01*
X-12520458Y-3008360D01*
X-12519127Y-2983835D01*
X-12518789Y-2959368D01*
X-12518789Y-2926029D01*
X-12839235Y-2926029D01*
X-12933025Y-2926029D01*
X-12933025Y-2794138D01*
X-12425000Y-2794138D01*
X-12425000Y-2974511D01*
G37*
G36*
X-12417184Y-3606123D02*
G01*
X-12417978Y-3581593D01*
X-12420833Y-3554589D01*
X-12425764Y-3528684D01*
X-12432770Y-3503878D01*
X-12433792Y-3500854D01*
X-12443112Y-3477583D01*
X-12456023Y-3453427D01*
X-12471503Y-3431416D01*
X-12483251Y-3417934D01*
X-12502956Y-3399661D01*
X-12525249Y-3383862D01*
X-12547238Y-3371894D01*
X-12565073Y-3364200D01*
X-12590573Y-3355866D01*
X-12614451Y-3350526D01*
X-12639791Y-3347010D01*
X-12666591Y-3345317D01*
X-12678524Y-3345150D01*
X-12704172Y-3346020D01*
X-12728756Y-3348632D01*
X-12755550Y-3353750D01*
X-12780955Y-3361142D01*
X-12787090Y-3363346D01*
X-12810636Y-3373474D01*
X-12832427Y-3385663D01*
X-12852463Y-3399913D01*
X-12870743Y-3416224D01*
X-12888416Y-3436233D01*
X-12903655Y-3458754D01*
X-12915158Y-3480881D01*
X-12922522Y-3498778D01*
X-12930536Y-3524012D01*
X-12936261Y-3550375D01*
X-12939696Y-3577867D01*
X-12940823Y-3602850D01*
X-12940840Y-3606489D01*
X-12940256Y-3631636D01*
X-12938319Y-3656374D01*
X-12937299Y-3664619D01*
X-12933208Y-3689624D01*
X-12928018Y-3712613D01*
X-12920272Y-3737089D01*
X-12913607Y-3754256D01*
X-12903662Y-3776889D01*
X-12898831Y-3787107D01*
X-12776709Y-3787107D01*
X-12776709Y-3771964D01*
X-12791486Y-3752238D01*
X-12794661Y-3747784D01*
X-12808235Y-3726974D01*
X-12815177Y-3714689D01*
X-12825576Y-3692428D01*
X-12832274Y-3673778D01*
X-12837706Y-3649561D01*
X-12839235Y-3626762D01*
X-12837384Y-3601275D01*
X-12831829Y-3577023D01*
X-12830809Y-3573883D01*
X-12820494Y-3551218D01*
X-12805350Y-3530163D01*
X-12802965Y-3527477D01*
X-12784255Y-3511211D01*
X-12762654Y-3498745D01*
X-12753262Y-3494626D01*
X-12728217Y-3487036D01*
X-12701971Y-3483155D01*
X-12678157Y-3482170D01*
X-12653448Y-3483242D01*
X-12628780Y-3486949D01*
X-12605035Y-3494084D01*
X-12601099Y-3495725D01*
X-12578152Y-3507908D01*
X-12558263Y-3523643D01*
X-12552372Y-3529919D01*
X-12537682Y-3550570D01*
X-12527499Y-3573368D01*
X-12526482Y-3576570D01*
X-12520960Y-3600566D01*
X-12518796Y-3625807D01*
X-12518789Y-3627372D01*
X-12520650Y-3652796D01*
X-12525383Y-3675000D01*
X-12533864Y-3699008D01*
X-12543579Y-3718475D01*
X-12556179Y-3739434D01*
X-12563241Y-3749616D01*
X-12578373Y-3769764D01*
X-12581315Y-3773429D01*
X-12581315Y-3787107D01*
X-12460537Y-3787107D01*
X-12450385Y-3763761D01*
X-12444661Y-3750348D01*
X-12435725Y-3726639D01*
X-12431716Y-3713590D01*
X-12425488Y-3689318D01*
X-12420969Y-3666573D01*
X-12418130Y-3640470D01*
X-12417243Y-3615482D01*
X-12417184Y-3606123D01*
G37*
G36*
X-12425000Y-4300750D02*
G01*
X-12425420Y-4326722D01*
X-12426931Y-4354459D01*
X-12429542Y-4380120D01*
X-12433792Y-4406507D01*
X-12436912Y-4420299D01*
X-12444211Y-4444237D01*
X-12453673Y-4467036D01*
X-12465300Y-4488695D01*
X-12473216Y-4500882D01*
X-12489027Y-4520915D01*
X-12507327Y-4539300D01*
X-12528116Y-4556037D01*
X-12551395Y-4571127D01*
X-12576679Y-4583832D01*
X-12603377Y-4593416D01*
X-12627387Y-4599148D01*
X-12652436Y-4602587D01*
X-12678524Y-4603733D01*
X-12705464Y-4602664D01*
X-12731057Y-4599457D01*
X-12755301Y-4594112D01*
X-12781883Y-4585173D01*
X-12806629Y-4573325D01*
X-12819894Y-4565372D01*
X-12841419Y-4549764D01*
X-12860794Y-4532006D01*
X-12878018Y-4512097D01*
X-12893091Y-4490038D01*
X-12895453Y-4486119D01*
X-12907218Y-4462536D01*
X-12916110Y-4438116D01*
X-12922644Y-4413712D01*
X-12923901Y-4407981D01*
X-12928118Y-4383714D01*
X-12931038Y-4357293D01*
X-12932528Y-4332410D01*
X-12933025Y-4305879D01*
X-12933025Y-4252267D01*
X-12839235Y-4252267D01*
X-12839235Y-4285607D01*
X-12839146Y-4298401D01*
X-12838201Y-4324825D01*
X-12835572Y-4349354D01*
X-12831234Y-4367677D01*
X-12822016Y-4390753D01*
X-12819421Y-4395646D01*
X-12804614Y-4417589D01*
X-12786754Y-4435335D01*
X-12765840Y-4448883D01*
X-12756635Y-4453205D01*
X-12731620Y-4461489D01*
X-12706658Y-4465865D01*
X-12679378Y-4467323D01*
X-12669974Y-4467175D01*
X-12643486Y-4464953D01*
X-12617092Y-4459358D01*
X-12593893Y-4450471D01*
X-12571778Y-4436619D01*
X-12552953Y-4418236D01*
X-12538695Y-4397592D01*
X-12530113Y-4379026D01*
X-12523063Y-4354605D01*
X-12520458Y-4334598D01*
X-12519127Y-4310073D01*
X-12518789Y-4285607D01*
X-12518789Y-4252267D01*
X-12839235Y-4252267D01*
X-12933025Y-4252267D01*
X-12933025Y-4120376D01*
X-12425000Y-4120376D01*
X-12425000Y-4300750D01*
G37*
G36*
X-12682920Y-4974005D02*
G01*
X-12682920Y-4963014D01*
X-12688658Y-4938580D01*
X-12688782Y-4937491D01*
X-12690667Y-4912983D01*
X-12690736Y-4908426D01*
X-12689881Y-4883483D01*
X-12687316Y-4861653D01*
X-12681765Y-4836504D01*
X-12676081Y-4818056D01*
X-12425000Y-4818056D01*
X-12425000Y-4694347D01*
X-12807972Y-4694347D01*
X-12807972Y-4818056D01*
X-12751308Y-4818056D01*
X-12767313Y-4837840D01*
X-12781689Y-4858491D01*
X-12794037Y-4881422D01*
X-12797103Y-4889131D01*
X-12804141Y-4912932D01*
X-12807802Y-4938391D01*
X-12807972Y-4944818D01*
X-12807606Y-4959473D01*
X-12806507Y-4974005D01*
X-12682920Y-4974005D01*
G37*
G36*
X-12425000Y-5165858D02*
G01*
X-12425000Y-5042149D01*
X-12807972Y-5042149D01*
X-12807972Y-5165858D01*
X-12425000Y-5165858D01*
G37*
G36*
X-12870498Y-5169277D02*
G01*
X-12870498Y-5038729D01*
X-12964288Y-5038729D01*
X-12964288Y-5169277D01*
X-12870498Y-5169277D01*
G37*
G36*
X-12807972Y-5669487D02*
G01*
X-12425000Y-5520743D01*
X-12425000Y-5380547D01*
X-12807972Y-5232903D01*
X-12807972Y-5363817D01*
X-12544678Y-5453087D01*
X-12807972Y-5541381D01*
X-12807972Y-5669487D01*
G37*
G36*
X-12601244Y-5707952D02*
G01*
X-12572612Y-5710668D01*
X-12546174Y-5716400D01*
X-12521931Y-5725150D01*
X-12499883Y-5736918D01*
X-12480029Y-5751702D01*
X-12462369Y-5769504D01*
X-12447100Y-5790141D01*
X-12434419Y-5813432D01*
X-12424326Y-5839376D01*
X-12416821Y-5867974D01*
X-12412681Y-5892763D01*
X-12410196Y-5919250D01*
X-12409368Y-5947435D01*
X-12409375Y-5950236D01*
X-12410277Y-5977408D01*
X-12412681Y-6003054D01*
X-12417062Y-6029501D01*
X-12418565Y-6036503D01*
X-12424786Y-6060451D01*
X-12432867Y-6085328D01*
X-12441730Y-6108513D01*
X-12542236Y-6108513D01*
X-12542236Y-6094713D01*
X-12532793Y-6081534D01*
X-12520743Y-6060145D01*
X-12510240Y-6036706D01*
X-12502383Y-6013493D01*
X-12497102Y-5987408D01*
X-12495341Y-5960746D01*
X-12495979Y-5942169D01*
X-12499655Y-5915497D01*
X-12507694Y-5889980D01*
X-12521475Y-5867201D01*
X-12526579Y-5861502D01*
X-12546539Y-5846180D01*
X-12571030Y-5836510D01*
X-12596946Y-5832641D01*
X-12596946Y-6115718D01*
X-12640055Y-6115718D01*
X-12656359Y-6115302D01*
X-12681905Y-6112757D01*
X-12709876Y-6106649D01*
X-12734919Y-6097209D01*
X-12757034Y-6084438D01*
X-12776221Y-6068335D01*
X-12787326Y-6055759D01*
X-12801208Y-6034153D01*
X-12811758Y-6009259D01*
X-12818977Y-5981076D01*
X-12822447Y-5955078D01*
X-12823604Y-5926796D01*
X-12823427Y-5916782D01*
X-12737630Y-5916782D01*
X-12737354Y-5926083D01*
X-12732633Y-5951934D01*
X-12719923Y-5973447D01*
X-12715254Y-5977755D01*
X-12692883Y-5989086D01*
X-12667288Y-5992742D01*
X-12667288Y-5832274D01*
X-12678322Y-5833644D01*
X-12702404Y-5841810D01*
X-12720900Y-5858042D01*
X-12726586Y-5867140D01*
X-12735278Y-5891807D01*
X-12737630Y-5916782D01*
X-12823427Y-5916782D01*
X-12823382Y-5914219D01*
X-12820892Y-5884258D01*
X-12815635Y-5856414D01*
X-12807612Y-5830687D01*
X-12796821Y-5807077D01*
X-12783264Y-5785583D01*
X-12766939Y-5766207D01*
X-12759699Y-5759123D01*
X-12740220Y-5743414D01*
X-12718774Y-5730561D01*
X-12695360Y-5720564D01*
X-12669978Y-5713423D01*
X-12642628Y-5709139D01*
X-12613311Y-5707711D01*
X-12601244Y-5707952D01*
G37*
G36*
X-12682920Y-6480006D02*
G01*
X-12682920Y-6469016D01*
X-12688658Y-6444582D01*
X-12688782Y-6443492D01*
X-12690667Y-6418984D01*
X-12690736Y-6414427D01*
X-12689881Y-6389484D01*
X-12687316Y-6367655D01*
X-12681765Y-6342505D01*
X-12676081Y-6324057D01*
X-12425000Y-6324057D01*
X-12425000Y-6200348D01*
X-12807972Y-6200348D01*
X-12807972Y-6324057D01*
X-12751308Y-6324057D01*
X-12767313Y-6343841D01*
X-12781689Y-6364492D01*
X-12794037Y-6387423D01*
X-12797103Y-6395132D01*
X-12804141Y-6418933D01*
X-12807802Y-6444393D01*
X-12807972Y-6450819D01*
X-12807606Y-6465474D01*
X-12806507Y-6480006D01*
X-12682920Y-6480006D01*
G37*
G36*
X-12807972Y-7402145D02*
G01*
X-12425000Y-7282588D01*
X-12425000Y-7151430D01*
X-12683164Y-7072784D01*
X-12425000Y-6995481D01*
X-12425000Y-6862613D01*
X-12807972Y-6744155D01*
X-12807972Y-6873970D01*
X-12544068Y-6939916D01*
X-12807972Y-7022348D01*
X-12807972Y-7131891D01*
X-12544068Y-7210170D01*
X-12807972Y-7275139D01*
X-12807972Y-7402145D01*
G37*
G36*
X-12425000Y-7596074D02*
G01*
X-12425000Y-7472365D01*
X-12807972Y-7472365D01*
X-12807972Y-7596074D01*
X-12425000Y-7596074D01*
G37*
G36*
X-12870498Y-7599494D02*
G01*
X-12870498Y-7468946D01*
X-12964288Y-7468946D01*
X-12964288Y-7599494D01*
X-12870498Y-7599494D01*
G37*
G36*
X-12420969Y-7957920D02*
G01*
X-12415407Y-7933421D01*
X-12412543Y-7915666D01*
X-12410162Y-7890845D01*
X-12409380Y-7865069D01*
X-12409368Y-7861078D01*
X-12410403Y-7835309D01*
X-12414225Y-7808523D01*
X-12422043Y-7782233D01*
X-12433540Y-7760552D01*
X-12438799Y-7753611D01*
X-12458736Y-7736609D01*
X-12482021Y-7726168D01*
X-12506691Y-7720638D01*
X-12535369Y-7718474D01*
X-12539794Y-7718440D01*
X-12721999Y-7718440D01*
X-12721999Y-7667637D01*
X-12807972Y-7667637D01*
X-12807972Y-7718440D01*
X-12917393Y-7718440D01*
X-12917393Y-7842149D01*
X-12807972Y-7842149D01*
X-12807972Y-7957920D01*
X-12721999Y-7957920D01*
X-12721999Y-7842149D01*
X-12584490Y-7842149D01*
X-12559932Y-7842307D01*
X-12548831Y-7842515D01*
X-12524668Y-7846803D01*
X-12521598Y-7848011D01*
X-12502872Y-7864230D01*
X-12502424Y-7864986D01*
X-12495784Y-7889555D01*
X-12495341Y-7900523D01*
X-12500499Y-7924831D01*
X-12500837Y-7925802D01*
X-12510973Y-7947662D01*
X-12510973Y-7957920D01*
X-12420969Y-7957920D01*
G37*
G36*
X-12425000Y-8417219D02*
G01*
X-12425000Y-8292899D01*
X-12616730Y-8292899D01*
X-12641479Y-8292210D01*
X-12663258Y-8290457D01*
X-12687597Y-8286173D01*
X-12697575Y-8282274D01*
X-12714978Y-8264563D01*
X-12716137Y-8262124D01*
X-12721535Y-8237739D01*
X-12721999Y-8225244D01*
X-12719160Y-8200766D01*
X-12716503Y-8191050D01*
X-12707058Y-8168228D01*
X-12698918Y-8153436D01*
X-12425000Y-8153436D01*
X-12425000Y-8029727D01*
X-12964288Y-8029727D01*
X-12964288Y-8153436D01*
X-12770115Y-8153436D01*
X-12785115Y-8173794D01*
X-12798888Y-8195609D01*
X-12809804Y-8216817D01*
X-12818213Y-8240568D01*
X-12822741Y-8266208D01*
X-12823604Y-8284351D01*
X-12821851Y-8310349D01*
X-12815554Y-8336870D01*
X-12804677Y-8359988D01*
X-12789221Y-8379701D01*
X-12786967Y-8381926D01*
X-12766390Y-8397366D01*
X-12741294Y-8408395D01*
X-12715628Y-8414427D01*
X-12690876Y-8416908D01*
X-12677547Y-8417219D01*
X-12425000Y-8417219D01*
G37*
G36*
X-12601244Y-8739006D02*
G01*
X-12572612Y-8741721D01*
X-12546174Y-8747454D01*
X-12521931Y-8756204D01*
X-12499883Y-8767971D01*
X-12480029Y-8782756D01*
X-12462369Y-8800558D01*
X-12447100Y-8821195D01*
X-12434419Y-8844486D01*
X-12424326Y-8870430D01*
X-12416821Y-8899028D01*
X-12412681Y-8923816D01*
X-12410196Y-8950303D01*
X-12409368Y-8978489D01*
X-12409375Y-8981290D01*
X-12410277Y-9008462D01*
X-12412681Y-9034107D01*
X-12417062Y-9060554D01*
X-12418565Y-9067557D01*
X-12424786Y-9091504D01*
X-12432867Y-9116382D01*
X-12441730Y-9139567D01*
X-12542236Y-9139567D01*
X-12542236Y-9125767D01*
X-12532793Y-9112588D01*
X-12520743Y-9091198D01*
X-12510240Y-9067759D01*
X-12502383Y-9044547D01*
X-12497102Y-9018462D01*
X-12495341Y-8991800D01*
X-12495979Y-8973223D01*
X-12499655Y-8946551D01*
X-12507694Y-8921033D01*
X-12521475Y-8898255D01*
X-12526579Y-8892556D01*
X-12546539Y-8877233D01*
X-12571030Y-8867564D01*
X-12596946Y-8863695D01*
X-12596946Y-9146772D01*
X-12640055Y-9146772D01*
X-12656359Y-9146356D01*
X-12681905Y-9143811D01*
X-12709876Y-9137703D01*
X-12734919Y-9128263D01*
X-12757034Y-9115492D01*
X-12776221Y-9099389D01*
X-12787326Y-9086812D01*
X-12801208Y-9065207D01*
X-12811758Y-9040313D01*
X-12818977Y-9012130D01*
X-12822447Y-8986132D01*
X-12823604Y-8957850D01*
X-12823427Y-8947836D01*
X-12737630Y-8947836D01*
X-12737354Y-8957137D01*
X-12732633Y-8982987D01*
X-12719923Y-9004501D01*
X-12715254Y-9008809D01*
X-12692883Y-9020140D01*
X-12667288Y-9023796D01*
X-12667288Y-8863328D01*
X-12678322Y-8864698D01*
X-12702404Y-8872864D01*
X-12720900Y-8889096D01*
X-12726586Y-8898193D01*
X-12735278Y-8922860D01*
X-12737630Y-8947836D01*
X-12823427Y-8947836D01*
X-12823382Y-8945273D01*
X-12820892Y-8915312D01*
X-12815635Y-8887468D01*
X-12807612Y-8861741D01*
X-12796821Y-8838131D01*
X-12783264Y-8816637D01*
X-12766939Y-8797260D01*
X-12759699Y-8790177D01*
X-12740220Y-8774468D01*
X-12718774Y-8761614D01*
X-12695360Y-8751617D01*
X-12669978Y-8744477D01*
X-12642628Y-8740192D01*
X-12613311Y-8738764D01*
X-12601244Y-8739006D01*
G37*
G36*
X-12425000Y-9618893D02*
G01*
X-12425000Y-9494574D01*
X-12616730Y-9494574D01*
X-12641479Y-9493885D01*
X-12663258Y-9492131D01*
X-12687597Y-9487848D01*
X-12697575Y-9483949D01*
X-12714978Y-9466238D01*
X-12716137Y-9463799D01*
X-12721535Y-9439414D01*
X-12721999Y-9426919D01*
X-12719160Y-9402440D01*
X-12716503Y-9392725D01*
X-12707058Y-9369903D01*
X-12698918Y-9355111D01*
X-12425000Y-9355111D01*
X-12425000Y-9231402D01*
X-12807972Y-9231402D01*
X-12807972Y-9355111D01*
X-12770115Y-9355111D01*
X-12785115Y-9375469D01*
X-12798888Y-9397283D01*
X-12809804Y-9418492D01*
X-12818213Y-9442243D01*
X-12822741Y-9467883D01*
X-12823604Y-9486025D01*
X-12821851Y-9512024D01*
X-12815554Y-9538545D01*
X-12804677Y-9561662D01*
X-12789221Y-9581376D01*
X-12786967Y-9583600D01*
X-12766390Y-9599041D01*
X-12741294Y-9610070D01*
X-12715628Y-9616102D01*
X-12690876Y-9618583D01*
X-12677547Y-9618893D01*
X-12425000Y-9618893D01*
G37*
G36*
X-12409368Y-9930669D02*
G01*
X-12410139Y-9905940D01*
X-12412849Y-9879433D01*
X-12417510Y-9854317D01*
X-12421702Y-9838346D01*
X-12430635Y-9813368D01*
X-12442167Y-9790489D01*
X-12456299Y-9769710D01*
X-12459438Y-9765806D01*
X-12476690Y-9748060D01*
X-12496542Y-9732985D01*
X-12518993Y-9720582D01*
X-12523796Y-9718422D01*
X-12549367Y-9709535D01*
X-12574605Y-9704351D01*
X-12601948Y-9701833D01*
X-12614776Y-9701570D01*
X-12641261Y-9702692D01*
X-12665884Y-9706058D01*
X-12691358Y-9712527D01*
X-12709542Y-9719521D01*
X-12733165Y-9732213D01*
X-12754117Y-9747695D01*
X-12772397Y-9765968D01*
X-12775732Y-9769958D01*
X-12789926Y-9790427D01*
X-12801521Y-9812757D01*
X-12810515Y-9836948D01*
X-12812002Y-9842009D01*
X-12818120Y-9867877D01*
X-12821972Y-9894340D01*
X-12823559Y-9921400D01*
X-12823604Y-9926884D01*
X-12822608Y-9953281D01*
X-12819621Y-9978235D01*
X-12815177Y-9999668D01*
X-12808228Y-10024037D01*
X-12799836Y-10047135D01*
X-12793440Y-10061828D01*
X-12690736Y-10061828D01*
X-12690736Y-10044364D01*
X-12702459Y-10027023D01*
X-12714332Y-10004840D01*
X-12715526Y-10002110D01*
X-12723916Y-9978336D01*
X-12725785Y-9971092D01*
X-12729338Y-9946713D01*
X-12729815Y-9932013D01*
X-12727361Y-9905998D01*
X-12718879Y-9881331D01*
X-12704339Y-9861124D01*
X-12698796Y-9855931D01*
X-12677315Y-9841892D01*
X-12654270Y-9833702D01*
X-12627710Y-9829725D01*
X-12614776Y-9829309D01*
X-12589009Y-9831011D01*
X-12563961Y-9836995D01*
X-12541025Y-9848696D01*
X-12531489Y-9856542D01*
X-12516549Y-9875869D01*
X-12507141Y-9899656D01*
X-12503406Y-9924879D01*
X-12503157Y-9934089D01*
X-12504548Y-9958861D01*
X-12507554Y-9976099D01*
X-12514694Y-9999790D01*
X-12517934Y-10007240D01*
X-12529902Y-10027756D01*
X-12542236Y-10044364D01*
X-12542236Y-10061828D01*
X-12438677Y-10061828D01*
X-12428669Y-10037690D01*
X-12420476Y-10012706D01*
X-12417306Y-10000889D01*
X-12412469Y-9976131D01*
X-12409996Y-9951777D01*
X-12409368Y-9930669D01*
G37*
G36*
X-12587287Y-10114717D02*
G01*
X-12560202Y-10118777D01*
X-12535109Y-10125545D01*
X-12512007Y-10135021D01*
X-12486914Y-10149964D01*
X-12464689Y-10168806D01*
X-12461285Y-10172315D01*
X-12443133Y-10195207D01*
X-12430978Y-10216691D01*
X-12421523Y-10240364D01*
X-12414770Y-10266224D01*
X-12410719Y-10294273D01*
X-12409368Y-10324511D01*
X-12409422Y-10330741D01*
X-12411313Y-10360575D01*
X-12415905Y-10388215D01*
X-12423198Y-10413660D01*
X-12433193Y-10436910D01*
X-12445888Y-10457967D01*
X-12464689Y-10480338D01*
X-12486914Y-10499180D01*
X-12512007Y-10514124D01*
X-12535109Y-10523599D01*
X-12560202Y-10530367D01*
X-12587287Y-10534427D01*
X-12616364Y-10535781D01*
X-12645408Y-10534433D01*
X-12672473Y-10530391D01*
X-12697558Y-10523652D01*
X-12720663Y-10514219D01*
X-12745776Y-10499341D01*
X-12768039Y-10480582D01*
X-12774767Y-10473518D01*
X-12792348Y-10450174D01*
X-12804015Y-10428254D01*
X-12812968Y-10404092D01*
X-12819209Y-10377688D01*
X-12822736Y-10349042D01*
X-12823604Y-10324511D01*
X-12737630Y-10324511D01*
X-12737256Y-10333327D01*
X-12731646Y-10357850D01*
X-12728135Y-10365322D01*
X-12711374Y-10384351D01*
X-12697263Y-10393033D01*
X-12673761Y-10401448D01*
X-12664573Y-10403564D01*
X-12640063Y-10406800D01*
X-12615631Y-10407676D01*
X-12608744Y-10407623D01*
X-12582200Y-10406180D01*
X-12556891Y-10401692D01*
X-12541830Y-10396345D01*
X-12520621Y-10383618D01*
X-12515011Y-10378747D01*
X-12501081Y-10357728D01*
X-12498570Y-10349996D01*
X-12495341Y-10325610D01*
X-12495834Y-10314948D01*
X-12501570Y-10290683D01*
X-12505203Y-10283318D01*
X-12521598Y-10264427D01*
X-12535983Y-10255625D01*
X-12559699Y-10247330D01*
X-12565756Y-10245956D01*
X-12590847Y-10242436D01*
X-12615631Y-10241468D01*
X-12624475Y-10241573D01*
X-12650557Y-10243364D01*
X-12675593Y-10248185D01*
X-12690767Y-10253337D01*
X-12713084Y-10266137D01*
X-12719075Y-10271794D01*
X-12732745Y-10292759D01*
X-12734883Y-10299965D01*
X-12737630Y-10324511D01*
X-12823604Y-10324511D01*
X-12823550Y-10318333D01*
X-12821663Y-10288725D01*
X-12817081Y-10261251D01*
X-12809804Y-10235912D01*
X-12799832Y-10212708D01*
X-12787164Y-10191638D01*
X-12768405Y-10169173D01*
X-12746241Y-10150206D01*
X-12721150Y-10135164D01*
X-12698003Y-10125626D01*
X-12672823Y-10118813D01*
X-12645610Y-10114726D01*
X-12616364Y-10113363D01*
X-12587287Y-10114717D01*
G37*
G36*
X-12590737Y-10594815D02*
G01*
X-12563900Y-10597497D01*
X-12538936Y-10602243D01*
X-12511450Y-10610661D01*
X-12486660Y-10622049D01*
X-12464567Y-10636409D01*
X-12448665Y-10650302D01*
X-12430930Y-10672067D01*
X-12418478Y-10696531D01*
X-12411309Y-10723695D01*
X-12409368Y-10749127D01*
X-12410081Y-10764634D01*
X-12414620Y-10789286D01*
X-12424267Y-10813241D01*
X-12435768Y-10832874D01*
X-12449953Y-10853489D01*
X-12465177Y-10873080D01*
X-12425000Y-10873080D01*
X-12425000Y-10996667D01*
X-12964288Y-10996667D01*
X-12964288Y-10873080D01*
X-12797470Y-10873080D01*
X-12807232Y-10851455D01*
X-12816154Y-10827529D01*
X-12817900Y-10821807D01*
X-12818363Y-10819225D01*
X-12729815Y-10819225D01*
X-12729805Y-10820730D01*
X-12727372Y-10845603D01*
X-12726712Y-10849185D01*
X-12719312Y-10873080D01*
X-12526605Y-10873080D01*
X-12519860Y-10862639D01*
X-12509630Y-10839741D01*
X-12506501Y-10829317D01*
X-12503157Y-10804082D01*
X-12504402Y-10786296D01*
X-12512327Y-10761054D01*
X-12529169Y-10741189D01*
X-12536195Y-10736610D01*
X-12560593Y-10727164D01*
X-12586093Y-10722871D01*
X-12612944Y-10721650D01*
X-12626307Y-10722030D01*
X-12653625Y-10725661D01*
X-12677136Y-10733136D01*
X-12698796Y-10745952D01*
X-12702552Y-10749100D01*
X-12718879Y-10769828D01*
X-12727361Y-10793680D01*
X-12729815Y-10819225D01*
X-12818363Y-10819225D01*
X-12822374Y-10796846D01*
X-12823604Y-10770743D01*
X-12822696Y-10754073D01*
X-12817927Y-10729069D01*
X-12809071Y-10704064D01*
X-12801080Y-10688021D01*
X-12786374Y-10666302D01*
X-12768405Y-10647400D01*
X-12748117Y-10631597D01*
X-12725203Y-10618277D01*
X-12702093Y-10608321D01*
X-12692268Y-10605001D01*
X-12666153Y-10598637D01*
X-12640752Y-10595276D01*
X-12613555Y-10594155D01*
X-12590737Y-10594815D01*
G37*
G36*
X-12601244Y-11083249D02*
G01*
X-12572612Y-11085964D01*
X-12546174Y-11091697D01*
X-12521931Y-11100447D01*
X-12499883Y-11112214D01*
X-12480029Y-11126999D01*
X-12462369Y-11144801D01*
X-12447100Y-11165438D01*
X-12434419Y-11188729D01*
X-12424326Y-11214673D01*
X-12416821Y-11243271D01*
X-12412681Y-11268059D01*
X-12410196Y-11294546D01*
X-12409368Y-11322732D01*
X-12409375Y-11325533D01*
X-12410277Y-11352705D01*
X-12412681Y-11378350D01*
X-12417062Y-11404797D01*
X-12418565Y-11411800D01*
X-12424786Y-11435747D01*
X-12432867Y-11460625D01*
X-12441730Y-11483810D01*
X-12542236Y-11483810D01*
X-12542236Y-11470010D01*
X-12532793Y-11456831D01*
X-12520743Y-11435441D01*
X-12510240Y-11412002D01*
X-12502383Y-11388790D01*
X-12497102Y-11362705D01*
X-12495341Y-11336043D01*
X-12495979Y-11317466D01*
X-12499655Y-11290794D01*
X-12507694Y-11265276D01*
X-12521475Y-11242498D01*
X-12526579Y-11236799D01*
X-12546539Y-11221476D01*
X-12571030Y-11211807D01*
X-12596946Y-11207937D01*
X-12596946Y-11491015D01*
X-12640055Y-11491015D01*
X-12656359Y-11490598D01*
X-12681905Y-11488053D01*
X-12709876Y-11481945D01*
X-12734919Y-11472506D01*
X-12757034Y-11459735D01*
X-12776221Y-11443632D01*
X-12787326Y-11431055D01*
X-12801208Y-11409450D01*
X-12811758Y-11384556D01*
X-12818977Y-11356373D01*
X-12822447Y-11330375D01*
X-12823604Y-11302093D01*
X-12823427Y-11292079D01*
X-12737630Y-11292079D01*
X-12737354Y-11301379D01*
X-12732633Y-11327230D01*
X-12719923Y-11348743D01*
X-12715254Y-11353052D01*
X-12692883Y-11364383D01*
X-12667288Y-11368039D01*
X-12667288Y-11207571D01*
X-12678322Y-11208941D01*
X-12702404Y-11217107D01*
X-12720900Y-11233339D01*
X-12726586Y-11242436D01*
X-12735278Y-11267103D01*
X-12737630Y-11292079D01*
X-12823427Y-11292079D01*
X-12823382Y-11289516D01*
X-12820892Y-11259555D01*
X-12815635Y-11231711D01*
X-12807612Y-11205984D01*
X-12796821Y-11182373D01*
X-12783264Y-11160880D01*
X-12766939Y-11141503D01*
X-12759699Y-11134420D01*
X-12740220Y-11118710D01*
X-12718774Y-11105857D01*
X-12695360Y-11095860D01*
X-12669978Y-11088720D01*
X-12642628Y-11084435D01*
X-12613311Y-11083007D01*
X-12601244Y-11083249D01*
G37*
G36*
X-12682920Y-11855303D02*
G01*
X-12682920Y-11844312D01*
X-12688658Y-11819878D01*
X-12688782Y-11818789D01*
X-12690667Y-11794281D01*
X-12690736Y-11789724D01*
X-12689881Y-11764781D01*
X-12687316Y-11742951D01*
X-12681765Y-11717802D01*
X-12676081Y-11699354D01*
X-12425000Y-11699354D01*
X-12425000Y-11575645D01*
X-12807972Y-11575645D01*
X-12807972Y-11699354D01*
X-12751308Y-11699354D01*
X-12767313Y-11719138D01*
X-12781689Y-11739789D01*
X-12794037Y-11762720D01*
X-12797103Y-11770429D01*
X-12804141Y-11794230D01*
X-12807802Y-11819689D01*
X-12807972Y-11826116D01*
X-12807606Y-11840771D01*
X-12806507Y-11855303D01*
X-12682920Y-11855303D01*
G37*
G36*
X-11585000Y-1891172D02*
G01*
X-11686605Y-1926587D01*
X-11686605Y-2116120D01*
X-11585000Y-2151535D01*
X-11585000Y-2287822D01*
X-12093025Y-2099023D01*
X-12093025Y-2021353D01*
X-11963087Y-2021353D01*
X-11780394Y-2084246D01*
X-11780394Y-1958461D01*
X-11963087Y-2021353D01*
X-12093025Y-2021353D01*
X-12093025Y-1947103D01*
X-11585000Y-1758304D01*
X-11585000Y-1891172D01*
G37*
G36*
X-11585000Y-2475279D02*
G01*
X-11585000Y-2351570D01*
X-12124288Y-2351570D01*
X-12124288Y-2475279D01*
X-11585000Y-2475279D01*
G37*
G36*
X-11444316Y-2714148D02*
G01*
X-11596235Y-2714148D01*
X-11595439Y-2715651D01*
X-11584877Y-2737931D01*
X-11576451Y-2761165D01*
X-11574791Y-2767088D01*
X-11570537Y-2792018D01*
X-11569368Y-2817096D01*
X-11570253Y-2834705D01*
X-11574902Y-2860058D01*
X-11583534Y-2884141D01*
X-11592496Y-2901205D01*
X-11607752Y-2922334D01*
X-11625055Y-2940073D01*
X-11644612Y-2955278D01*
X-11667517Y-2968320D01*
X-11691245Y-2978297D01*
X-11704015Y-2982519D01*
X-11728084Y-2988315D01*
X-11753543Y-2991792D01*
X-11780394Y-2992951D01*
X-11803452Y-2992325D01*
X-11830493Y-2989783D01*
X-11855554Y-2985284D01*
X-11883014Y-2977305D01*
X-11907623Y-2966508D01*
X-11929382Y-2952896D01*
X-11945002Y-2939629D01*
X-11962423Y-2918411D01*
X-11974655Y-2894108D01*
X-11981698Y-2866720D01*
X-11983604Y-2840788D01*
X-11982566Y-2821989D01*
X-11977116Y-2795880D01*
X-11972703Y-2785589D01*
X-11889815Y-2785589D01*
X-11888570Y-2802685D01*
X-11880644Y-2827017D01*
X-11863803Y-2846284D01*
X-11856838Y-2850806D01*
X-11832608Y-2860133D01*
X-11807245Y-2864373D01*
X-11780516Y-2865579D01*
X-11762843Y-2864991D01*
X-11737568Y-2861608D01*
X-11713549Y-2854208D01*
X-11692344Y-2841521D01*
X-11688810Y-2838416D01*
X-11673447Y-2817842D01*
X-11665466Y-2794004D01*
X-11663157Y-2768370D01*
X-11663178Y-2764943D01*
X-11664501Y-2740526D01*
X-11664805Y-2737908D01*
X-11670851Y-2714148D01*
X-11868810Y-2714148D01*
X-11875215Y-2725922D01*
X-11884319Y-2749441D01*
X-11887217Y-2760947D01*
X-11889815Y-2785589D01*
X-11972703Y-2785589D01*
X-11966995Y-2772278D01*
X-11957229Y-2755682D01*
X-11942675Y-2733855D01*
X-11927794Y-2714148D01*
X-11967972Y-2714148D01*
X-11967972Y-2590439D01*
X-11444316Y-2590439D01*
X-11444316Y-2714148D01*
G37*
G36*
X-11761244Y-3052055D02*
G01*
X-11732612Y-3054771D01*
X-11706174Y-3060504D01*
X-11681931Y-3069254D01*
X-11659883Y-3081021D01*
X-11640029Y-3095805D01*
X-11622369Y-3113607D01*
X-11607100Y-3134245D01*
X-11594419Y-3157535D01*
X-11584326Y-3183479D01*
X-11576821Y-3212077D01*
X-11572681Y-3236866D01*
X-11570196Y-3263353D01*
X-11569368Y-3291538D01*
X-11569375Y-3294339D01*
X-11570277Y-3321511D01*
X-11572681Y-3347157D01*
X-11577062Y-3373604D01*
X-11578565Y-3380607D01*
X-11584786Y-3404554D01*
X-11592867Y-3429431D01*
X-11601730Y-3452616D01*
X-11702236Y-3452616D01*
X-11702236Y-3438817D01*
X-11692793Y-3425637D01*
X-11680743Y-3404248D01*
X-11670240Y-3380809D01*
X-11662383Y-3357596D01*
X-11657102Y-3331512D01*
X-11655341Y-3304849D01*
X-11655979Y-3286272D01*
X-11659655Y-3259600D01*
X-11667694Y-3234083D01*
X-11681475Y-3211304D01*
X-11686579Y-3205605D01*
X-11706539Y-3190283D01*
X-11731030Y-3180613D01*
X-11756946Y-3176744D01*
X-11756946Y-3459822D01*
X-11800055Y-3459822D01*
X-11816359Y-3459405D01*
X-11841905Y-3456860D01*
X-11869876Y-3450752D01*
X-11894919Y-3441313D01*
X-11917034Y-3428541D01*
X-11936221Y-3412438D01*
X-11947326Y-3399862D01*
X-11961208Y-3378256D01*
X-11971758Y-3353362D01*
X-11978977Y-3325179D01*
X-11982447Y-3299181D01*
X-11983604Y-3270900D01*
X-11983427Y-3260886D01*
X-11897630Y-3260886D01*
X-11897354Y-3270186D01*
X-11892633Y-3296037D01*
X-11879923Y-3317550D01*
X-11875254Y-3321859D01*
X-11852883Y-3333190D01*
X-11827288Y-3336845D01*
X-11827288Y-3176378D01*
X-11838322Y-3177747D01*
X-11862404Y-3185913D01*
X-11880900Y-3202145D01*
X-11886586Y-3211243D01*
X-11895278Y-3235910D01*
X-11897630Y-3260886D01*
X-11983427Y-3260886D01*
X-11983382Y-3258323D01*
X-11980892Y-3228362D01*
X-11975635Y-3200518D01*
X-11967612Y-3174791D01*
X-11956821Y-3151180D01*
X-11943264Y-3129687D01*
X-11926939Y-3110310D01*
X-11919699Y-3103227D01*
X-11900220Y-3087517D01*
X-11878774Y-3074664D01*
X-11855360Y-3064667D01*
X-11829978Y-3057526D01*
X-11802628Y-3053242D01*
X-11773311Y-3051814D01*
X-11761244Y-3052055D01*
G37*
G36*
X-11842920Y-3824110D02*
G01*
X-11842920Y-3813119D01*
X-11848658Y-3788685D01*
X-11848782Y-3787595D01*
X-11850667Y-3763087D01*
X-11850736Y-3758531D01*
X-11849881Y-3733587D01*
X-11847316Y-3711758D01*
X-11841765Y-3686609D01*
X-11836081Y-3668161D01*
X-11585000Y-3668161D01*
X-11585000Y-3544452D01*
X-11967972Y-3544452D01*
X-11967972Y-3668161D01*
X-11911308Y-3668161D01*
X-11927313Y-3687944D01*
X-11941689Y-3708595D01*
X-11954037Y-3731526D01*
X-11957103Y-3739235D01*
X-11964141Y-3763037D01*
X-11967802Y-3788496D01*
X-11967972Y-3794923D01*
X-11967606Y-3809577D01*
X-11966507Y-3824110D01*
X-11842920Y-3824110D01*
G37*
G36*
X-11585000Y-4361322D02*
G01*
X-11585229Y-4378215D01*
X-11586551Y-4403284D01*
X-11589444Y-4428604D01*
X-11594403Y-4453157D01*
X-11601608Y-4475230D01*
X-11612427Y-4498132D01*
X-11626277Y-4519591D01*
X-11633760Y-4528997D01*
X-11652301Y-4546665D01*
X-11674026Y-4560624D01*
X-11688925Y-4567196D01*
X-11713105Y-4573533D01*
X-11739483Y-4575645D01*
X-11748767Y-4575386D01*
X-11774545Y-4571506D01*
X-11799540Y-4561734D01*
X-11820694Y-4546214D01*
X-11829833Y-4536545D01*
X-11845017Y-4514148D01*
X-11855155Y-4490503D01*
X-11861360Y-4466713D01*
X-11864047Y-4466713D01*
X-11873962Y-4485496D01*
X-11888757Y-4504990D01*
X-11908255Y-4521912D01*
X-11924946Y-4531416D01*
X-11949335Y-4539250D01*
X-11973834Y-4541573D01*
X-11981751Y-4541350D01*
X-12007687Y-4537052D01*
X-12030865Y-4527285D01*
X-12038406Y-4522488D01*
X-12056918Y-4505124D01*
X-12070676Y-4483810D01*
X-12074824Y-4475017D01*
X-12083346Y-4452018D01*
X-12088872Y-4427023D01*
X-12090490Y-4412884D01*
X-12092112Y-4387191D01*
X-12092826Y-4361982D01*
X-12093025Y-4336531D01*
X-12093025Y-4269242D01*
X-11999235Y-4269242D01*
X-11999235Y-4281577D01*
X-11999226Y-4291014D01*
X-11999083Y-4316076D01*
X-11998625Y-4341905D01*
X-11997954Y-4353434D01*
X-11992641Y-4377808D01*
X-11990531Y-4382607D01*
X-11973468Y-4400279D01*
X-11971865Y-4401048D01*
X-11947822Y-4406629D01*
X-11942692Y-4406495D01*
X-11918391Y-4401133D01*
X-11912384Y-4397615D01*
X-11897752Y-4377808D01*
X-11894285Y-4367980D01*
X-11890792Y-4343126D01*
X-11890673Y-4340342D01*
X-11890002Y-4315460D01*
X-11889815Y-4289881D01*
X-11889815Y-4269242D01*
X-11803841Y-4269242D01*
X-11803841Y-4298063D01*
X-11803838Y-4303583D01*
X-11803738Y-4328774D01*
X-11803475Y-4354727D01*
X-11802761Y-4371995D01*
X-11798834Y-4397348D01*
X-11794681Y-4409013D01*
X-11779417Y-4429344D01*
X-11767085Y-4435511D01*
X-11742536Y-4438869D01*
X-11733698Y-4438381D01*
X-11710296Y-4431053D01*
X-11701374Y-4424249D01*
X-11687948Y-4402843D01*
X-11681819Y-4383006D01*
X-11679155Y-4358513D01*
X-11679133Y-4356979D01*
X-11678905Y-4331432D01*
X-11678812Y-4304703D01*
X-11678789Y-4278890D01*
X-11678789Y-4269242D01*
X-11803841Y-4269242D01*
X-11889815Y-4269242D01*
X-11999235Y-4269242D01*
X-12093025Y-4269242D01*
X-12093025Y-4137962D01*
X-11585000Y-4137962D01*
X-11585000Y-4361322D01*
G37*
G36*
X-11671822Y-4636545D02*
G01*
X-11645365Y-4643398D01*
X-11621903Y-4656123D01*
X-11603562Y-4672365D01*
X-11590238Y-4689460D01*
X-11577916Y-4713948D01*
X-11571505Y-4738082D01*
X-11569368Y-4764445D01*
X-11570356Y-4782772D01*
X-11575352Y-4807309D01*
X-11580338Y-4821849D01*
X-11590861Y-4845167D01*
X-11594197Y-4851800D01*
X-11607592Y-4872889D01*
X-11610873Y-4877390D01*
X-11625910Y-4897679D01*
X-11585000Y-4897679D01*
X-11585000Y-5020289D01*
X-11848660Y-5020289D01*
X-11857231Y-5020106D01*
X-11884947Y-5016580D01*
X-11909110Y-5008565D01*
X-11932374Y-4993911D01*
X-11950997Y-4973394D01*
X-11962078Y-4953752D01*
X-11970867Y-4929997D01*
X-11977363Y-4902129D01*
X-11981025Y-4875764D01*
X-11983094Y-4846543D01*
X-11983604Y-4821109D01*
X-11983425Y-4807259D01*
X-11982201Y-4782344D01*
X-11979819Y-4757448D01*
X-11976277Y-4732571D01*
X-11974034Y-4719393D01*
X-11969438Y-4694622D01*
X-11963576Y-4668946D01*
X-11866367Y-4668946D01*
X-11866367Y-4680303D01*
X-11867654Y-4683292D01*
X-11876853Y-4706760D01*
X-11885296Y-4730006D01*
X-11890102Y-4744987D01*
X-11895595Y-4769771D01*
X-11897630Y-4795341D01*
X-11896597Y-4821957D01*
X-11893024Y-4846930D01*
X-11884563Y-4872156D01*
X-11880966Y-4878281D01*
X-11861598Y-4893977D01*
X-11837302Y-4898290D01*
X-11835104Y-4898290D01*
X-11835063Y-4897679D01*
X-11764762Y-4897679D01*
X-11683185Y-4897679D01*
X-11674513Y-4886202D01*
X-11663035Y-4864096D01*
X-11658655Y-4851056D01*
X-11655341Y-4826482D01*
X-11655499Y-4816868D01*
X-11658639Y-4792166D01*
X-11668897Y-4773237D01*
X-11683551Y-4762979D01*
X-11703457Y-4760903D01*
X-11710119Y-4761247D01*
X-11733133Y-4770673D01*
X-11739096Y-4776864D01*
X-11750474Y-4799005D01*
X-11755320Y-4819058D01*
X-11759023Y-4843335D01*
X-11759696Y-4848793D01*
X-11762467Y-4873270D01*
X-11764762Y-4897679D01*
X-11835063Y-4897679D01*
X-11833303Y-4871232D01*
X-11831074Y-4844648D01*
X-11828418Y-4818537D01*
X-11825334Y-4792899D01*
X-11824040Y-4783517D01*
X-11819192Y-4757098D01*
X-11812106Y-4730780D01*
X-11803230Y-4707658D01*
X-11794758Y-4691302D01*
X-11779360Y-4670459D01*
X-11760732Y-4654047D01*
X-11740330Y-4643340D01*
X-11716234Y-4637077D01*
X-11691123Y-4635240D01*
X-11671822Y-4636545D01*
G37*
G36*
X-11704678Y-5466765D02*
G01*
X-11679199Y-5464200D01*
X-11655975Y-5456503D01*
X-11635007Y-5443677D01*
X-11616295Y-5425719D01*
X-11606615Y-5413154D01*
X-11593957Y-5391663D01*
X-11583918Y-5367398D01*
X-11576497Y-5340360D01*
X-11572314Y-5315710D01*
X-11569950Y-5289134D01*
X-11569368Y-5266486D01*
X-11569971Y-5241321D01*
X-11572091Y-5214453D01*
X-11575737Y-5189110D01*
X-11579016Y-5173063D01*
X-11585248Y-5148493D01*
X-11592572Y-5125186D01*
X-11600387Y-5105774D01*
X-11702236Y-5105774D01*
X-11702236Y-5117131D01*
X-11688925Y-5138503D01*
X-11677937Y-5161294D01*
X-11673293Y-5173063D01*
X-11665668Y-5196354D01*
X-11660593Y-5216660D01*
X-11656654Y-5241939D01*
X-11655347Y-5267191D01*
X-11655341Y-5268928D01*
X-11656423Y-5293561D01*
X-11661232Y-5318122D01*
X-11663035Y-5322784D01*
X-11681235Y-5339940D01*
X-11685750Y-5340369D01*
X-11706510Y-5329989D01*
X-11715179Y-5307110D01*
X-11718967Y-5290910D01*
X-11723783Y-5266026D01*
X-11725806Y-5253541D01*
X-11730429Y-5228515D01*
X-11734720Y-5210921D01*
X-11742658Y-5186306D01*
X-11753924Y-5162683D01*
X-11769342Y-5141488D01*
X-11778196Y-5132885D01*
X-11800231Y-5118423D01*
X-11825700Y-5109964D01*
X-11851835Y-5107484D01*
X-11878969Y-5110781D01*
X-11903706Y-5120673D01*
X-11926046Y-5137159D01*
X-11943628Y-5156994D01*
X-11945990Y-5160240D01*
X-11958773Y-5181381D01*
X-11968911Y-5205234D01*
X-11976404Y-5231801D01*
X-11980629Y-5256014D01*
X-11983016Y-5282110D01*
X-11983604Y-5304344D01*
X-11982745Y-5331017D01*
X-11980169Y-5356999D01*
X-11975876Y-5382289D01*
X-11974811Y-5387264D01*
X-11968691Y-5412501D01*
X-11961050Y-5437044D01*
X-11956127Y-5449302D01*
X-11858551Y-5449302D01*
X-11858551Y-5438677D01*
X-11870647Y-5416970D01*
X-11880923Y-5393065D01*
X-11886762Y-5375907D01*
X-11892950Y-5351626D01*
X-11896569Y-5327143D01*
X-11897630Y-5304710D01*
X-11896134Y-5280330D01*
X-11890295Y-5255565D01*
X-11889815Y-5254274D01*
X-11874381Y-5235154D01*
X-11867588Y-5233879D01*
X-11846217Y-5243161D01*
X-11836600Y-5266124D01*
X-11831563Y-5286758D01*
X-11826878Y-5311516D01*
X-11824113Y-5327424D01*
X-11819373Y-5352055D01*
X-11814832Y-5371266D01*
X-11806372Y-5396665D01*
X-11794208Y-5420174D01*
X-11777466Y-5440303D01*
X-11774043Y-5443318D01*
X-11753340Y-5456667D01*
X-11729346Y-5464475D01*
X-11704678Y-5466765D01*
G37*
G36*
X-11671822Y-5519239D02*
G01*
X-11645365Y-5526091D01*
X-11621903Y-5538817D01*
X-11603562Y-5555059D01*
X-11590238Y-5572154D01*
X-11577916Y-5596641D01*
X-11571505Y-5620775D01*
X-11569368Y-5647138D01*
X-11570356Y-5665465D01*
X-11575352Y-5690003D01*
X-11580338Y-5704543D01*
X-11590861Y-5727861D01*
X-11594197Y-5734493D01*
X-11607592Y-5755582D01*
X-11610873Y-5760084D01*
X-11625910Y-5780373D01*
X-11585000Y-5780373D01*
X-11585000Y-5902983D01*
X-11848660Y-5902983D01*
X-11857231Y-5902800D01*
X-11884947Y-5899273D01*
X-11909110Y-5891259D01*
X-11932374Y-5876605D01*
X-11950997Y-5856088D01*
X-11962078Y-5836446D01*
X-11970867Y-5812691D01*
X-11977363Y-5784823D01*
X-11981025Y-5758458D01*
X-11983094Y-5729236D01*
X-11983604Y-5703803D01*
X-11983425Y-5689953D01*
X-11982201Y-5665037D01*
X-11979819Y-5640141D01*
X-11976277Y-5615265D01*
X-11974034Y-5602087D01*
X-11969438Y-5577315D01*
X-11963576Y-5551639D01*
X-11866367Y-5551639D01*
X-11866367Y-5562997D01*
X-11867654Y-5565986D01*
X-11876853Y-5589453D01*
X-11885296Y-5612700D01*
X-11890102Y-5627681D01*
X-11895595Y-5652465D01*
X-11897630Y-5678035D01*
X-11896597Y-5704651D01*
X-11893024Y-5729623D01*
X-11884563Y-5754849D01*
X-11880966Y-5760975D01*
X-11861598Y-5776670D01*
X-11837302Y-5780983D01*
X-11835104Y-5780983D01*
X-11835063Y-5780373D01*
X-11764762Y-5780373D01*
X-11683185Y-5780373D01*
X-11674513Y-5768895D01*
X-11663035Y-5746789D01*
X-11658655Y-5733750D01*
X-11655341Y-5709176D01*
X-11655499Y-5699561D01*
X-11658639Y-5674860D01*
X-11668897Y-5655931D01*
X-11683551Y-5645673D01*
X-11703457Y-5643597D01*
X-11710119Y-5643940D01*
X-11733133Y-5653367D01*
X-11739096Y-5659558D01*
X-11750474Y-5681699D01*
X-11755320Y-5701752D01*
X-11759023Y-5726029D01*
X-11759696Y-5731487D01*
X-11762467Y-5755963D01*
X-11764762Y-5780373D01*
X-11835063Y-5780373D01*
X-11833303Y-5753926D01*
X-11831074Y-5727342D01*
X-11828418Y-5701231D01*
X-11825334Y-5675593D01*
X-11824040Y-5666211D01*
X-11819192Y-5639792D01*
X-11812106Y-5613474D01*
X-11803230Y-5590352D01*
X-11794758Y-5573995D01*
X-11779360Y-5553153D01*
X-11760732Y-5536741D01*
X-11740330Y-5526033D01*
X-11716234Y-5519770D01*
X-11691123Y-5517934D01*
X-11671822Y-5519239D01*
G37*
G36*
X-11842920Y-6293893D02*
G01*
X-11842920Y-6282903D01*
X-11848658Y-6258469D01*
X-11848782Y-6257379D01*
X-11850667Y-6232871D01*
X-11850736Y-6228314D01*
X-11849881Y-6203371D01*
X-11847316Y-6181542D01*
X-11841765Y-6156392D01*
X-11836081Y-6137944D01*
X-11585000Y-6137944D01*
X-11585000Y-6014235D01*
X-11967972Y-6014235D01*
X-11967972Y-6137944D01*
X-11911308Y-6137944D01*
X-11927313Y-6157728D01*
X-11941689Y-6178379D01*
X-11954037Y-6201310D01*
X-11957103Y-6209019D01*
X-11964141Y-6232820D01*
X-11967802Y-6258280D01*
X-11967972Y-6264706D01*
X-11967606Y-6279361D01*
X-11966507Y-6293893D01*
X-11842920Y-6293893D01*
G37*
G36*
X-11671822Y-6334522D02*
G01*
X-11645365Y-6341374D01*
X-11621903Y-6354099D01*
X-11603562Y-6370341D01*
X-11590238Y-6387437D01*
X-11577916Y-6411924D01*
X-11571505Y-6436058D01*
X-11569368Y-6462421D01*
X-11570356Y-6480748D01*
X-11575352Y-6505286D01*
X-11580338Y-6519826D01*
X-11590861Y-6543143D01*
X-11594197Y-6549776D01*
X-11607592Y-6570865D01*
X-11610873Y-6575366D01*
X-11625910Y-6595655D01*
X-11585000Y-6595655D01*
X-11585000Y-6718265D01*
X-11848660Y-6718265D01*
X-11857231Y-6718082D01*
X-11884947Y-6714556D01*
X-11909110Y-6706542D01*
X-11932374Y-6691887D01*
X-11950997Y-6671371D01*
X-11962078Y-6651729D01*
X-11970867Y-6627974D01*
X-11977363Y-6600106D01*
X-11981025Y-6573741D01*
X-11983094Y-6544519D01*
X-11983604Y-6519085D01*
X-11983425Y-6505235D01*
X-11982201Y-6480320D01*
X-11979819Y-6455424D01*
X-11976277Y-6430547D01*
X-11974034Y-6417370D01*
X-11969438Y-6392598D01*
X-11963576Y-6366922D01*
X-11866367Y-6366922D01*
X-11866367Y-6378279D01*
X-11867654Y-6381269D01*
X-11876853Y-6404736D01*
X-11885296Y-6427983D01*
X-11890102Y-6442963D01*
X-11895595Y-6467747D01*
X-11897630Y-6493318D01*
X-11896597Y-6519933D01*
X-11893024Y-6544906D01*
X-11884563Y-6570132D01*
X-11880966Y-6576257D01*
X-11861598Y-6591953D01*
X-11837302Y-6596266D01*
X-11835104Y-6596266D01*
X-11835063Y-6595655D01*
X-11764762Y-6595655D01*
X-11683185Y-6595655D01*
X-11674513Y-6584178D01*
X-11663035Y-6562072D01*
X-11658655Y-6549032D01*
X-11655341Y-6524459D01*
X-11655499Y-6514844D01*
X-11658639Y-6490143D01*
X-11668897Y-6471214D01*
X-11683551Y-6460956D01*
X-11703457Y-6458879D01*
X-11710119Y-6459223D01*
X-11733133Y-6468649D01*
X-11739096Y-6474840D01*
X-11750474Y-6496981D01*
X-11755320Y-6517034D01*
X-11759023Y-6541311D01*
X-11759696Y-6546769D01*
X-11762467Y-6571246D01*
X-11764762Y-6595655D01*
X-11835063Y-6595655D01*
X-11833303Y-6569209D01*
X-11831074Y-6542624D01*
X-11828418Y-6516513D01*
X-11825334Y-6490875D01*
X-11824040Y-6481494D01*
X-11819192Y-6455075D01*
X-11812106Y-6428757D01*
X-11803230Y-6405635D01*
X-11794758Y-6389278D01*
X-11779360Y-6368435D01*
X-11760732Y-6352023D01*
X-11740330Y-6341316D01*
X-11716234Y-6335053D01*
X-11691123Y-6333217D01*
X-11671822Y-6334522D01*
G37*
G36*
X-11585000Y-7217009D02*
G01*
X-11585000Y-7092690D01*
X-11776730Y-7092690D01*
X-11801479Y-7092000D01*
X-11823258Y-7090247D01*
X-11847597Y-7085963D01*
X-11857575Y-7082065D01*
X-11874978Y-7064354D01*
X-11876137Y-7061915D01*
X-11881535Y-7037530D01*
X-11881999Y-7025034D01*
X-11879160Y-7000556D01*
X-11876503Y-6990840D01*
X-11867058Y-6968019D01*
X-11858918Y-6953227D01*
X-11585000Y-6953227D01*
X-11585000Y-6829518D01*
X-11967972Y-6829518D01*
X-11967972Y-6953227D01*
X-11930115Y-6953227D01*
X-11945115Y-6973585D01*
X-11958888Y-6995399D01*
X-11969804Y-7016608D01*
X-11978213Y-7040359D01*
X-11982741Y-7065998D01*
X-11983604Y-7084141D01*
X-11981851Y-7110140D01*
X-11975554Y-7136661D01*
X-11964677Y-7159778D01*
X-11949221Y-7179491D01*
X-11946967Y-7181716D01*
X-11926390Y-7197157D01*
X-11901294Y-7208186D01*
X-11875628Y-7214218D01*
X-11850876Y-7216699D01*
X-11837547Y-7217009D01*
X-11585000Y-7217009D01*
G37*
M02*
